<svg width="20" height="20" viewBox="0 0 20 20" fill="none" xmlns="http://www.w3.org/2000/svg">
<path d="M14.5367 12.2435V12.2935H14.5867H18.8563H18.9063V12.2435V10.5957V10.5457H18.8563H17.9944H17.9444V10.5957V11.3326H15.4977V7.91093H17.9444V8.64785V8.69785H17.9944H18.8563H18.9063V8.64785V7V6.95H18.8563H14.5867H14.5367V7V12.2435ZM8.24337 12.2435V12.2935H8.29337H12.1325H12.1532L12.1679 12.2789L12.5983 11.8484L12.613 11.8337V11.813V10.0522V10.0315L12.5983 10.0169L12.2032 9.62175L12.5983 9.22664L12.613 9.212V9.19129V7.43047V7.40976L12.5983 7.39511L12.1679 6.96464L12.1532 6.95H12.1325H8.29337H8.24337V7V12.2435ZM1.95 12.2435V12.2935H2H2.86191H2.91191V12.2435V10.6457H5.35867V12.2435V12.2935H5.40867H6.27057H6.32057V12.2435V7V6.95H6.27057H2H1.95V7V12.2435ZM11.652 7.91093V9.14129H9.2043V7.91093H11.652ZM11.652 10.1022V11.3326H9.2043V10.1022H11.652ZM5.35867 7.91093V9.68472H2.91191V7.91093H5.35867Z" fill="#9B9BAC" stroke="#9B9BAC" stroke-width="0.1"/>
</svg>
