<svg width="55" height="55" viewBox="0 0 55 55" fill="none" xmlns="http://www.w3.org/2000/svg">
<g clip-path="url(#clip0_173_3736)">
<path d="M51.0632 43.1247H3.81323C1.9494 43.1247 0.438232 41.614 0.438232 39.7497V8.25C0.438232 6.38576 1.9494 4.875 3.81323 4.875H6.0631V7.12486H3.81323C3.19196 7.12486 2.6881 7.62872 2.6881 8.25V39.7497C2.6881 40.371 3.19196 40.8749 3.81323 40.8749H51.0632C51.6845 40.8749 52.1884 40.371 52.1884 39.7497V22.8747H54.4382V39.7497C54.4382 41.614 52.9271 43.1247 51.0632 43.1247Z" fill="#ACACBB" fill-opacity="0.7"/>
<path d="M24.0632 4.875H28.5634V7.12486H24.0632V4.875Z" fill="#ACACBB" fill-opacity="0.7"/>
<path d="M1.56335 33H53.3131V35.2503H1.56335V33Z" fill="#ACACBB" fill-opacity="0.7"/>
<path d="M34.1882 49.8749H20.6882C20.067 49.8749 19.5631 49.3714 19.5631 48.7501V42.0001C19.5631 41.3789 20.067 40.875 20.6882 40.875H34.1882C34.8095 40.875 35.3134 41.3789 35.3134 42.0001V48.7501C35.3134 49.3714 34.8095 49.8749 34.1882 49.8749ZM21.8134 47.625H33.0631V43.1249H21.8134V47.625Z" fill="#ACACBB" fill-opacity="0.7"/>
<path d="M37.5632 53.2499H35.3134V51C35.3134 50.3787 34.8095 49.8749 34.1882 49.8749H20.6882C20.067 49.8749 19.5631 50.3787 19.5631 51V53.2499H17.3132V51C17.3132 49.1362 18.8244 47.625 20.6882 47.625H34.1882C36.0521 47.625 37.5632 49.1362 37.5632 51V53.2499Z" fill="#ACACBB" fill-opacity="0.7"/>
<path d="M15.0634 52.125H39.8131V54.3749H15.0634V52.125Z" fill="#ACACBB" fill-opacity="0.7"/>
<path d="M34.1882 31.8751C33.567 31.8751 33.0631 31.3713 33.0631 30.75V27.375C29.9584 27.3713 27.4419 24.8549 27.4382 21.7501V5.99986C27.4419 2.89513 29.9584 0.378708 33.0631 0.375H48.8134C51.9181 0.378708 54.4345 2.89513 54.4382 5.99986V21.7501C54.4345 24.8549 51.9181 27.3713 48.8134 27.375H40.2082L34.8915 31.6288C34.6917 31.7882 34.4437 31.8751 34.1882 31.8751ZM33.0631 2.62486C31.1993 2.62486 29.6881 4.13603 29.6881 5.99986V21.7501C29.6881 23.614 31.1993 25.1251 33.0631 25.1251H34.1882C34.8095 25.1251 35.3134 25.6286 35.3134 26.2499V28.4087L39.1102 25.3715C39.3096 25.2117 39.5577 25.1247 39.8131 25.1251H48.8134C50.6772 25.1251 52.1884 23.614 52.1884 21.7501V5.99986C52.1884 4.13603 50.6772 2.62486 48.8134 2.62486H33.0631Z" fill="#ACACBB" fill-opacity="0.7"/>
<path d="M18.4384 24.7164C18.2002 24.7164 17.9687 24.6406 17.7767 24.5006L12.4476 20.625H8.31335C6.44911 20.625 4.93835 19.1138 4.93835 17.25V3.75C4.93835 1.88617 6.44911 0.375 8.31335 0.375H21.8134C23.6772 0.375 25.1884 1.88617 25.1884 3.75V17.25C25.1884 19.1138 23.6772 20.625 21.8134 20.625H19.5631V23.5917C19.5631 24.213 19.0596 24.7164 18.4384 24.7164ZM8.31335 2.62486C7.69208 2.62486 7.18822 3.12872 7.18822 3.75V17.25C7.18822 17.8713 7.69208 18.3751 8.31335 18.3751H12.8131C13.0508 18.3751 13.2823 18.4501 13.4747 18.5898L17.3132 21.3822V19.4999C17.3132 18.8786 17.8171 18.3751 18.4384 18.3751H21.8134C22.4346 18.3751 22.9381 17.8713 22.9381 17.25V3.75C22.9381 3.12872 22.4346 2.62486 21.8134 2.62486H8.31335Z" fill="#ACACBB" fill-opacity="0.7"/>
<path d="M33.0631 7.125H48.8134V9.37486H33.0631V7.125Z" fill="#ACACBB" fill-opacity="0.7"/>
<path d="M33.0631 12.75H48.8134V15.0003H33.0631V12.75Z" fill="#ACACBB" fill-opacity="0.7"/>
<path d="M33.0631 18.375H44.3132V20.6249H33.0631V18.375Z" fill="#ACACBB" fill-opacity="0.7"/>
<path d="M9.43811 10.5H11.6884V12.7499H9.43811V10.5Z" fill="#ACACBB" fill-opacity="0.7"/>
<path d="M13.9382 10.5H20.6882V12.7499H13.9382V10.5Z" fill="#ACACBB" fill-opacity="0.7"/>
<path d="M6.06311 24H13.9382V26.2499H6.06311V24Z" fill="#ACACBB" fill-opacity="0.7"/>
<path d="M6.06311 28.5H16.1881V30.7499H6.06311V28.5Z" fill="#ACACBB" fill-opacity="0.7"/>
</g>
<defs>
<clipPath id="clip0_173_3736">
<rect width="54" height="54" fill="white" transform="translate(0.438232 0.375)"/>
</clipPath>
</defs>
</svg>
