<svg width="20" height="20" viewBox="0 0 20 20" fill="none" xmlns="http://www.w3.org/2000/svg">
<g clip-path="url(#clip0_173_3206)">
<path fill-rule="evenodd" clip-rule="evenodd" d="M19.0625 5.96031C19.0622 5.67757 18.9498 5.40649 18.7498 5.20656C18.5499 5.00663 18.2788 4.89419 17.9961 4.89391H15.3373V10.8107C15.3367 11.342 15.1254 11.8514 14.7498 12.2272C14.3741 12.6029 13.8647 12.8143 13.3334 12.815H5.6002V13.9165C5.60055 14.1992 5.71301 14.4703 5.91293 14.6702C6.11284 14.8701 6.38388 14.9826 6.6666 14.9829H14.8686C14.9639 14.983 15.057 15.0121 15.1354 15.0665L19.0625 17.7858V5.96031ZM0.9375 14.6799V2.85449C0.937862 2.57177 1.05033 2.30074 1.25024 2.10083C1.45015 1.90092 1.72119 1.78845 2.00391 1.78809H13.3333C13.616 1.78846 13.887 1.90093 14.0869 2.10084C14.2868 2.30075 14.3993 2.57178 14.3997 2.85449V10.8107C14.3994 11.0935 14.287 11.3646 14.087 11.5646C13.8871 11.7646 13.616 11.8771 13.3333 11.8775H5.13148C5.03612 11.8774 4.94302 11.9065 4.86461 11.9608L0.9375 14.6799ZM20 5.96031V18.6803C20 18.7658 19.9765 18.8497 19.9322 18.9229C19.8879 18.9961 19.8245 19.0557 19.7487 19.0954C19.673 19.1352 19.5878 19.1534 19.5024 19.1482C19.417 19.1429 19.3347 19.1145 19.2644 19.0658L14.7221 15.9205H6.66672C6.13544 15.9199 5.62609 15.7086 5.25042 15.3329C4.87474 14.9573 4.66342 14.4479 4.66281 13.9166V13.2409L0.735586 15.96C0.665241 16.0087 0.582908 16.0372 0.497509 16.0425C0.41211 16.0477 0.326903 16.0295 0.251123 15.9898C0.175343 15.9501 0.111881 15.8903 0.0676137 15.8171C0.0233468 15.7439 -3.58009e-05 15.66 4.11435e-08 15.5744V2.85449C0.00058938 2.3232 0.211904 1.81385 0.587582 1.43817C0.963259 1.06249 1.47262 0.851175 2.00391 0.850586H13.3333C13.8646 0.851175 14.3739 1.06249 14.7496 1.43817C15.1253 1.81385 15.3366 2.3232 15.3372 2.85449V3.95641H17.9961C18.5274 3.95701 19.0367 4.16832 19.4124 4.544C19.7881 4.91967 19.9994 5.42903 20 5.96031ZM12.7876 9.24039C12.7876 9.36471 12.7382 9.48394 12.6503 9.57185C12.5624 9.65975 12.4432 9.70914 12.3189 9.70914H3.01844C2.89412 9.70914 2.77489 9.65975 2.68698 9.57185C2.59907 9.48394 2.54969 9.36471 2.54969 9.24039C2.54969 9.11607 2.59907 8.99684 2.68698 8.90893C2.77489 8.82103 2.89412 8.77164 3.01844 8.77164H12.3189C12.4432 8.77164 12.5625 8.82103 12.6504 8.90893C12.7383 8.99684 12.7877 9.11607 12.7877 9.24039H12.7876ZM3.01844 7.30137C2.89412 7.30137 2.77489 7.25198 2.68698 7.16407C2.59907 7.07617 2.54969 6.95694 2.54969 6.83262C2.54969 6.7083 2.59907 6.58907 2.68698 6.50116C2.77489 6.41325 2.89412 6.36387 3.01844 6.36387H12.3189C12.4432 6.36387 12.5625 6.41325 12.6504 6.50116C12.7383 6.58907 12.7877 6.7083 12.7877 6.83262C12.7877 6.95694 12.7383 7.07617 12.6504 7.16407C12.5625 7.25198 12.4432 7.30137 12.3189 7.30137H3.01844ZM2.54969 4.4252C2.54969 4.30088 2.59907 4.18165 2.68698 4.09374C2.77489 4.00583 2.89412 3.95645 3.01844 3.95645H8.2425C8.36682 3.95645 8.48605 4.00583 8.57396 4.09374C8.66186 4.18165 8.71125 4.30088 8.71125 4.4252C8.71125 4.54952 8.66186 4.66874 8.57396 4.75665C8.48605 4.84456 8.36682 4.89395 8.2425 4.89395H3.01844C2.89413 4.89389 2.77494 4.84449 2.68704 4.75659C2.59914 4.6687 2.54974 4.5495 2.54969 4.4252Z" fill="#C9C9CF"/>
</g>
<defs>
<clipPath id="clip0_173_3206">
<rect width="20" height="20" fill="white"/>
</clipPath>
</defs>
</svg>
