<svg width="55" height="55" viewBox="0 0 55 55" fill="none" xmlns="http://www.w3.org/2000/svg">
<g clip-path="url(#clip0_173_3829)">
<path d="M45.3335 37.25H49.8332V39.4999H45.3335V37.25Z" fill="#ACACBB" fill-opacity="0.7"/>
<path d="M19.4582 51.8751H1.45851C0.837234 51.8751 0.333374 51.3713 0.333374 50.75V41.7501C0.333374 41.1289 0.837234 40.625 1.45851 40.625H19.4582C20.0795 40.625 20.5834 41.1289 20.5834 41.7501V50.75C20.5834 51.3713 20.0795 51.8751 19.4582 51.8751ZM2.58324 49.6249H18.3335V42.8749H2.58324V49.6249Z" fill="#ACACBB" fill-opacity="0.7"/>
<path d="M26.2082 54.1249C21.8593 54.1249 18.3335 50.5991 18.3335 46.2497C18.3335 41.9008 21.8593 38.375 26.2082 38.375C30.146 38.375 40.2821 44.5861 41.425 45.2935C41.7562 45.4987 41.9577 45.8604 41.9577 46.2497C41.9577 46.6395 41.7562 47.0008 41.425 47.2059C40.2821 47.9137 30.146 54.1249 26.2082 54.1249ZM26.2082 40.6249C23.1018 40.6249 20.5834 43.1433 20.5834 46.2497C20.5834 49.3565 23.1018 51.875 26.2082 51.875C28.3975 51.875 34.4434 48.7361 38.6577 46.2497C34.3602 43.7061 28.4189 40.6249 26.2082 40.6249Z" fill="#ACACBB" fill-opacity="0.7"/>
<path d="M13.8334 41.75H16.0832V50.7499H13.8334V41.75Z" fill="#ACACBB" fill-opacity="0.7"/>
<path d="M50.9584 47.375H40.8334V45.1251H50.9584C51.5796 45.1251 52.0835 44.6213 52.0835 44V3.5C52.0835 2.87872 51.5796 2.37486 50.9584 2.37486H8.2085C7.58722 2.37486 7.08336 2.87872 7.08336 3.5V41.7501H4.8335V3.5C4.8335 1.63617 6.34425 0.125 8.2085 0.125H50.9584C52.8222 0.125 54.3334 1.63617 54.3334 3.5V44C54.3334 45.8638 52.8222 47.375 50.9584 47.375Z" fill="#ACACBB" fill-opacity="0.7"/>
<path d="M5.95825 32.75H53.2083V35.0003H5.95825V32.75Z" fill="#ACACBB" fill-opacity="0.7"/>
<path d="M40.8334 37.25H43.0832V39.4999H40.8334V37.25Z" fill="#ACACBB" fill-opacity="0.7"/>
<path d="M44.2084 15.8747C41.1016 15.8747 38.5835 13.3567 38.5835 10.2499C38.5835 7.14307 41.1016 4.625 44.2084 4.625C47.3152 4.625 49.8332 7.14307 49.8332 10.2499C49.8295 13.355 47.3135 15.871 44.2084 15.8747ZM44.2084 6.87486C42.3445 6.87486 40.8334 8.38603 40.8334 10.2499C40.8334 12.1137 42.3445 13.6249 44.2084 13.6249C46.0722 13.6249 47.5834 12.1137 47.5834 10.2499C47.5834 8.38603 46.0722 6.87486 44.2084 6.87486Z" fill="#ACACBB" fill-opacity="0.7"/>
<path d="M50.9583 35.0003H8.20848C7.75324 34.9999 7.34331 34.7259 7.16904 34.3057C6.99518 33.8854 7.09118 33.4014 7.41294 33.0796L28.7881 11.7049C29.2273 11.2657 29.9396 11.2657 30.3788 11.7049L51.7539 33.0796C52.0752 33.4014 52.1716 33.8854 51.9974 34.3057C51.8235 34.7259 51.4132 34.9999 50.9583 35.0003ZM10.9239 32.75H48.2425L29.5832 14.0907L10.9239 32.75Z" fill="#ACACBB" fill-opacity="0.7"/>
<path d="M6.75377 24.5457L5.16309 22.9546L16.4128 11.7049C16.8524 11.2657 17.5643 11.2657 18.0039 11.7049L23.6288 17.3297L22.0381 18.9204L17.2084 14.0907L6.75377 24.5457Z" fill="#ACACBB" fill-opacity="0.7"/>
<path d="M25.0835 22.625H40.8334V24.8753H25.0835V22.625Z" fill="#ACACBB" fill-opacity="0.7"/>
<path d="M18.3335 22.625H22.8332V24.8753H18.3335V22.625Z" fill="#ACACBB" fill-opacity="0.7"/>
<path d="M47.5834 51.8753H32.9583V49.625H47.5834C48.2047 49.625 48.7085 49.1216 48.7085 48.5003V46.25H50.9584V48.5003C50.9584 50.3641 49.4472 51.8753 47.5834 51.8753Z" fill="#ACACBB" fill-opacity="0.7"/>
<path d="M2.58324 41.75H0.333374V8C0.333374 6.13576 1.84454 4.625 3.70837 4.625H5.95824V6.87486H3.70837C3.0871 6.87486 2.58324 7.37872 2.58324 8V41.75Z" fill="#ACACBB" fill-opacity="0.7"/>
<path d="M28.4585 40.625H30.7084V51.8751H28.4585V40.625Z" fill="#ACACBB" fill-opacity="0.7"/>
</g>
<defs>
<clipPath id="clip0_173_3829">
<rect width="54" height="54" fill="white" transform="translate(0.333374 0.125)"/>
</clipPath>
</defs>
</svg>
