<svg width="20" height="20" viewBox="0 0 20 20" fill="none" xmlns="http://www.w3.org/2000/svg">
<path fill-rule="evenodd" clip-rule="evenodd" d="M1.97607 4.05859C1.85175 4.05859 1.73253 4.00921 1.64462 3.9213C1.55671 3.83339 1.50732 3.71416 1.50732 3.58984C1.50732 3.46552 1.55671 3.34629 1.64462 3.25839C1.73253 3.17048 1.85175 3.12109 1.97607 3.12109H3.27334C3.39766 3.12109 3.51689 3.17048 3.6048 3.25839C3.6927 3.34629 3.74209 3.46552 3.74209 3.58984C3.74209 3.71416 3.6927 3.83339 3.6048 3.9213C3.51689 4.00921 3.39766 4.05859 3.27334 4.05859H1.97607ZM3.38771 6.33285C3.38771 6.45706 3.33842 6.57618 3.25066 6.66407C3.16289 6.75196 3.04383 6.80143 2.91963 6.8016H2.90486C2.78054 6.8016 2.66131 6.75221 2.57341 6.66431C2.4855 6.5764 2.43611 6.45717 2.43611 6.33285C2.43611 6.20853 2.4855 6.0893 2.57341 6.00139C2.66131 5.91349 2.78054 5.8641 2.90486 5.8641H2.91963C3.04383 5.86428 3.16289 5.91374 3.25066 6.00163C3.33842 6.08952 3.38771 6.20865 3.38771 6.33285ZM9.9999 16.6367C7.21162 16.6367 4.94303 14.3683 4.94303 11.5801C4.94303 8.79184 7.2117 6.52379 9.9999 6.52379C12.7881 6.52379 15.0568 8.79215 15.0568 11.5801C15.0568 14.368 12.7883 16.6367 9.9999 16.6367ZM9.9999 5.58633C6.6956 5.58633 4.00686 8.275 4.00686 11.5801C4.00686 14.8852 6.69568 17.5742 9.9999 17.5742C13.3041 17.5742 15.9948 14.8851 15.9948 11.5801C15.9948 8.27504 13.3043 5.58633 9.9999 5.58633ZM9.9999 13.514C10.3823 13.5137 10.7559 13.4001 11.0737 13.1875C11.3915 12.9749 11.6391 12.6728 11.7852 12.3195C11.9314 11.9661 11.9695 11.5774 11.8947 11.2024C11.82 10.8275 11.6358 10.4831 11.3653 10.2128C11.0949 9.9425 10.7504 9.75846 10.3754 9.68393C10.0003 9.6094 9.61165 9.64772 9.25841 9.79406C8.90517 9.9404 8.60325 10.1882 8.3908 10.5061C8.17836 10.824 8.06493 11.1977 8.06486 11.5801C8.06516 12.0931 8.26916 12.585 8.63202 12.9476C8.99488 13.3103 9.48689 13.514 9.9999 13.514ZM9.9999 8.70898C9.432 8.70894 8.87684 8.87732 8.40463 9.1928C7.93241 9.50829 7.56436 9.95672 7.34702 10.4814C7.12967 11.0061 7.0728 11.5834 7.18358 12.1404C7.29436 12.6974 7.56783 13.209 7.9694 13.6106C8.37097 14.0121 8.8826 14.2856 9.43959 14.3964C9.99659 14.5072 10.5739 14.4503 11.0986 14.233C11.6233 14.0156 12.0717 13.6476 12.3872 13.1754C12.7027 12.7031 12.871 12.148 12.871 11.5801C12.8701 10.8189 12.5673 10.0891 12.0291 9.55088C11.4909 9.01263 10.7611 8.70986 9.9999 8.70898ZM19.0615 17.4445V5.71562C19.0614 5.5685 19.0029 5.42741 18.8989 5.32334C18.7949 5.21927 18.6539 5.1607 18.5068 5.16051H15.4365C15.3374 5.16046 15.2409 5.12907 15.1608 5.07083C15.0807 5.01259 15.0211 4.93049 14.9905 4.83629L14.0691 2H5.93088L5.00943 4.83633C4.97884 4.93053 4.91922 5.01264 4.83911 5.07088C4.75899 5.12912 4.6625 5.16051 4.56346 5.16055H1.49314C1.34584 5.16068 1.20459 5.21916 1.10029 5.32319C0.996003 5.42722 0.937166 5.56832 0.93666 5.71562V17.4445C0.937135 17.5919 0.995959 17.733 1.10026 17.8371C1.20456 17.9412 1.34586 17.9998 1.49322 18H18.5067C18.6539 17.9997 18.795 17.9411 18.8989 17.837C19.0029 17.7328 19.0614 17.5917 19.0614 17.4445L19.0615 17.4445ZM18.5068 4.22301H15.7775L14.856 1.38672C14.8254 1.29253 14.7658 1.21044 14.6857 1.1522C14.6056 1.09397 14.5091 1.06257 14.4101 1.0625H5.58975C5.4907 1.06256 5.39422 1.09395 5.31411 1.15219C5.234 1.21043 5.17438 1.29252 5.14377 1.38672L4.22256 4.22301H1.49322C1.09744 4.22332 0.717956 4.38067 0.438084 4.66052C0.158213 4.94037 0.000829672 5.31984 0.000488281 5.71562V17.4445C0.000808868 17.8403 0.158173 18.2198 0.438038 18.4998C0.717902 18.7797 1.0974 18.9371 1.49322 18.9375H18.5067C18.9026 18.9371 19.282 18.7797 19.5619 18.4998C19.8418 18.2199 19.9991 17.8403 19.9995 17.4445V5.71562C19.9991 5.31984 19.8417 4.94037 19.5619 4.66052C19.282 4.38067 18.9025 4.22332 18.5067 4.22301H18.5068Z" fill="#C9C9CF"/>
</svg>
