<svg width="21" height="20" viewBox="0 0 21 20" fill="none" xmlns="http://www.w3.org/2000/svg">
<path d="M8.69423 11.661H8.76674L8.78927 11.5921L9.13577 10.5328H10.6151L10.9616 11.5921L10.9841 11.661H11.0566H11.8764H12.0183L11.9705 11.5273L10.4097 7.1625L10.386 7.09617H10.3155H9.43834H9.3679L9.34418 7.1625L7.78336 11.5273L7.73556 11.661H7.87752H8.69423ZM13.1226 11.661H13.2226V11.561V7.19617V7.09617H13.1226H12.3422H12.2422V7.19617V11.561V11.661H12.3422H13.1226ZM5.18427 13.5048H10.0427V14.4967H9.42863C9.11041 14.4967 8.85244 14.7547 8.85244 15.0729V15.6982H6.21537V15.0729C6.21537 14.7547 5.9574 14.4968 5.63917 14.4968H3.49649C3.17827 14.4968 2.9203 14.7547 2.9203 15.0729V17.2156C2.9203 17.5339 3.17827 17.7918 3.49649 17.7918H5.63917C5.9574 17.7918 6.21537 17.5339 6.21537 17.2156V16.6124H8.85244V17.2156C8.85244 17.5338 9.11041 17.7918 9.42863 17.7918H11.5713C11.8895 17.7918 12.1475 17.5338 12.1475 17.2156V16.6124H14.7847V17.2156C14.7847 17.5338 15.0426 17.7918 15.3609 17.7918H17.5035C17.8218 17.7918 18.0797 17.5338 18.0797 17.2156V15.0729C18.0797 14.7547 17.8218 14.4967 17.5035 14.4967H15.3609C15.0426 14.4967 14.7847 14.7547 14.7847 15.0729V15.6982H12.1475V15.0729C12.1475 14.7547 11.8895 14.4967 11.5713 14.4967H10.957V13.5048H15.5802H15.6802V13.5012C17.5748 13.4172 19.085 11.8547 19.085 9.93939C19.085 8.1278 17.734 6.6319 15.9845 6.40402C15.5914 5.14658 14.4177 4.23389 13.0305 4.23389C12.8503 4.23389 12.6736 4.24931 12.5017 4.27892C11.7443 3.03761 10.377 2.20859 8.81607 2.20859C6.43328 2.20859 4.50165 4.14023 4.50165 6.52302C4.50165 6.66796 4.5088 6.81126 4.52278 6.95259C3.03187 7.27623 1.91514 8.60309 1.91514 10.191C1.91514 12.0058 3.37393 13.4801 5.18291 13.5048L5.18291 13.5048H5.18427ZM15.5205 12.5905H15.5204L15.5197 12.5905H15.5195L15.5188 12.5905H15.5187H5.22978H5.22966L5.22907 12.5905H5.22884L5.22825 12.5905H5.22813H5.21207H5.2114L5.19537 12.5903C3.88577 12.5724 2.82942 11.505 2.82942 10.191C2.82942 9.01885 3.67064 8.04155 4.78242 7.83277L5.43975 7.70932L5.53178 7.69204L5.52058 7.59908L5.44057 6.93506C5.42433 6.8003 5.41594 6.66282 5.41594 6.52302C5.41594 4.64517 6.93823 3.12288 8.81607 3.12288C10.065 3.12288 11.1575 3.79575 11.7496 4.80258L12.0061 5.23874L12.042 5.29981L12.1115 5.28619L12.6081 5.18891C12.7441 5.16226 12.8853 5.14817 13.0305 5.14817C14.023 5.14817 14.8625 5.81205 15.1253 6.72151L15.2579 7.18024L15.2764 7.24446L15.3429 7.25186L15.8174 7.30473C17.141 7.45218 18.1707 8.57606 18.1707 9.93939C18.1707 11.388 17.0087 12.5654 15.5663 12.5901L15.5438 12.5905H15.543H15.5205ZM9.39783 9.73081L9.87673 8.26792L10.3532 9.73081H9.39783ZM11.2332 16.8775H9.76672V15.411H11.2332V16.8775ZM3.83458 16.8775V15.411H5.30108V16.8775H3.83458ZM17.1655 16.8775H15.699V15.411H17.1655V16.8775Z" fill="#656575" stroke="#656575" stroke-width="0.2"/>
</svg>
