<svg width="21" height="20" viewBox="0 0 21 20" fill="none" xmlns="http://www.w3.org/2000/svg">
<path d="M18 9.99984L8 9.99984M18 4.99984L8 4.99984M18 14.9998L8 14.9998M4.66667 9.99984C4.66667 10.4601 4.29357 10.8332 3.83333 10.8332C3.3731 10.8332 3 10.4601 3 9.99984C3 9.5396 3.3731 9.1665 3.83333 9.1665C4.29357 9.1665 4.66667 9.5396 4.66667 9.99984ZM4.66667 4.99984C4.66667 5.46007 4.29357 5.83317 3.83333 5.83317C3.3731 5.83317 3 5.46007 3 4.99984C3 4.5396 3.3731 4.1665 3.83333 4.1665C4.29357 4.1665 4.66667 4.5396 4.66667 4.99984ZM4.66667 14.9998C4.66667 15.4601 4.29357 15.8332 3.83333 15.8332C3.3731 15.8332 3 15.4601 3 14.9998C3 14.5396 3.3731 14.1665 3.83333 14.1665C4.29357 14.1665 4.66667 14.5396 4.66667 14.9998Z" stroke="#656575" stroke-width="1.5" stroke-linecap="round" stroke-linejoin="round"/>
</svg>
