<svg width="55" height="55" viewBox="0 0 55 55" fill="none" xmlns="http://www.w3.org/2000/svg">
<g clip-path="url(#clip0_173_3636)">
<path d="M20.5834 44.5H1.17712C0.711166 44.5 0.333374 44.1222 0.333374 43.6562V6.53125C0.333374 6.06529 0.711166 5.6875 1.17712 5.6875H4.55212V7.375H2.02087V42.8125H20.5834V44.5Z" fill="#ACACBB" fill-opacity="0.7"/>
<path d="M53.4896 44.5H34.0834V42.8125H52.6459V7.375H50.1146V5.6875H53.4896C53.9556 5.6875 54.3334 6.06529 54.3334 6.53125V43.6562C54.3334 44.1222 53.9556 44.5 53.4896 44.5Z" fill="#ACACBB" fill-opacity="0.7"/>
<path d="M1.17712 37.75H53.4896V39.4375H1.17712V37.75Z" fill="#ACACBB" fill-opacity="0.7"/>
<path d="M34.9523 50.6106L33.4246 44.5H21.2422L19.7145 50.6106L18.0773 50.2019L19.7648 43.4519C19.8587 43.0762 20.1961 42.8125 20.5834 42.8125H34.0834C34.4707 42.8125 34.8081 43.0762 34.902 43.4519L36.5895 50.2019L34.9523 50.6106Z" fill="#ACACBB" fill-opacity="0.7"/>
<path d="M38.3021 54.625H16.3646C15.4327 54.625 14.6771 53.8694 14.6771 52.9375V51.25C14.6771 50.3181 15.4327 49.5625 16.3646 49.5625H38.3021C39.234 49.5625 39.9896 50.3181 39.9896 51.25V52.9375C39.9896 53.8694 39.234 54.625 38.3021 54.625ZM16.3646 51.25V52.9375H38.3021V51.25H16.3646Z" fill="#ACACBB" fill-opacity="0.7"/>
<path d="M40.2368 30.4033L42.7685 27.8721L43.9616 29.0652L41.4303 31.5968L40.2368 30.4033Z" fill="#ACACBB" fill-opacity="0.7"/>
<path d="M33.4872 28.2219L34.6803 27.0288L38.0553 30.4038L36.8622 31.5969L33.4872 28.2219Z" fill="#ACACBB" fill-opacity="0.7"/>
<path d="M26.7372 30.4028L30.1122 27.0278L31.3057 28.2209L27.9303 31.5964L26.7372 30.4028Z" fill="#ACACBB" fill-opacity="0.7"/>
<path d="M23.4124 31.6431L23.3029 31.5491L18.3557 27.4301L19.4359 26.1323L24.5042 30.3568L23.4124 31.6431Z" fill="#ACACBB" fill-opacity="0.7"/>
<path d="M10.7056 31.2476L14.9243 27.0288L16.1174 28.2219L11.8987 32.4407L10.7056 31.2476Z" fill="#ACACBB" fill-opacity="0.7"/>
<path d="M17.2084 29.3125C15.3445 29.3125 13.8334 27.8013 13.8334 25.9375C13.8334 24.0737 15.3445 22.5625 17.2084 22.5625C19.0722 22.5625 20.5834 24.0737 20.5834 25.9375C20.5834 27.8013 19.0722 29.3125 17.2084 29.3125ZM17.2084 24.25C16.2765 24.25 15.5209 25.0056 15.5209 25.9375C15.5209 26.8694 16.2765 27.625 17.2084 27.625C18.1403 27.625 18.8959 26.8694 18.8959 25.9375C18.8959 25.0056 18.1403 24.25 17.2084 24.25Z" fill="#ACACBB" fill-opacity="0.7"/>
<path d="M25.6459 36.0625C23.782 36.0625 22.2709 34.5513 22.2709 32.6875C22.2709 30.8237 23.782 29.3125 25.6459 29.3125C27.5097 29.3125 29.0209 30.8237 29.0209 32.6875C29.0209 34.5513 27.5097 36.0625 25.6459 36.0625ZM25.6459 31C24.8409 30.9992 24.1471 31.5669 23.9893 32.3563C23.8311 33.146 24.2529 33.9371 24.9966 34.246C25.7398 34.5546 26.598 34.2955 27.0462 33.6264C27.494 32.9574 27.4067 32.065 26.8382 31.4952C26.5226 31.178 26.0933 31 25.6459 31Z" fill="#ACACBB" fill-opacity="0.7"/>
<path d="M32.3959 29.3123C30.7858 29.3136 29.3991 28.1769 29.0839 26.5977C28.7688 25.019 29.6129 23.437 31.1002 22.8198C32.5875 22.2031 34.3034 22.7226 35.1986 24.0607C36.0939 25.3989 35.9192 27.1836 34.7813 28.3227C34.1501 28.958 33.2911 29.3144 32.3959 29.3123ZM32.3959 24.2498C31.7141 24.2507 31.0998 24.6618 30.8386 25.2917C30.5778 25.9217 30.722 26.6468 31.2036 27.1296C31.8698 27.7686 32.922 27.7686 33.5882 27.1296C34.0698 26.6468 34.214 25.9217 33.9532 25.2917C33.692 24.6618 33.0777 24.2507 32.3959 24.2498Z" fill="#ACACBB" fill-opacity="0.7"/>
<path d="M39.1459 36.0627C37.7814 36.0619 36.552 35.2395 36.0301 33.9789C35.5081 32.7186 35.7965 31.2676 36.7605 30.3023C38.0945 29.0255 40.1973 29.0255 41.5313 30.3023C42.4954 31.2676 42.7838 32.7186 42.2618 33.9789C41.7398 35.2395 40.5104 36.0619 39.1459 36.0627ZM39.1459 31.0002C38.3409 30.9994 37.6471 31.5671 37.4893 32.3565C37.3311 33.1462 37.753 33.9373 38.4966 34.2462C39.2398 34.5548 40.098 34.2957 40.5463 33.6266C40.9941 32.9575 40.9067 32.0652 40.3382 31.4954C40.023 31.1778 39.5937 30.9994 39.1459 31.0002Z" fill="#ACACBB" fill-opacity="0.7"/>
<path d="M23.1146 14.125H36.6146V15.8125H23.1146V14.125Z" fill="#ACACBB" fill-opacity="0.7"/>
<path d="M23.1146 17.5H36.6146V19.1875H23.1146V17.5Z" fill="#ACACBB" fill-opacity="0.7"/>
<path d="M50.1146 20.875H36.6146C36.1487 20.875 35.7709 20.4972 35.7709 20.0312V5.6875C35.7709 5.46379 35.8599 5.24915 36.0181 5.09094L40.2368 0.872192C40.395 0.713989 40.6097 0.625 40.8334 0.625H50.1146C50.5806 0.625 50.9584 1.00279 50.9584 1.46875V20.0312C50.9584 20.4972 50.5806 20.875 50.1146 20.875ZM37.4584 19.1875H49.2709V2.3125H41.1827L37.4584 6.03687V19.1875Z" fill="#ACACBB" fill-opacity="0.7"/>
<path d="M46.7396 20.0312H48.4271V38.5938H46.7396V20.0312Z" fill="#ACACBB" fill-opacity="0.7"/>
<path d="M40.8334 6.53125H36.6146V4.84375H39.9896V1.46875H41.6771V5.6875C41.6771 6.15346 41.2993 6.53125 40.8334 6.53125Z" fill="#ACACBB" fill-opacity="0.7"/>
<path d="M43.3647 17.5001C40.957 17.4939 38.8888 15.7895 38.4229 13.4272C37.9569 11.0652 39.2234 8.70291 41.4485 7.78335C43.6732 6.8638 46.2379 7.64245 47.5756 9.6443C48.9133 11.6461 48.6521 14.3138 46.9514 16.0177L46.9448 16.0243C45.994 16.9711 44.7065 17.5021 43.3647 17.5001ZM43.3647 9.06257C41.4967 9.05969 39.9806 10.5729 39.9794 12.4409C39.9785 14.3088 41.4934 15.8237 43.3614 15.8229C45.2293 15.8216 46.7425 14.3055 46.7397 12.4376C46.7397 10.5737 45.2285 9.06257 43.3647 9.06257Z" fill="#ACACBB" fill-opacity="0.7"/>
<path d="M46.1431 16.4091L42.7681 13.0341C42.6099 12.8759 42.5209 12.6612 42.5209 12.4375V8.21875H44.2084V12.0881L47.3362 15.2159L46.1431 16.4091Z" fill="#ACACBB" fill-opacity="0.7"/>
<path d="M23.1146 20.875H4.55212C4.08617 20.875 3.70837 20.4972 3.70837 20.0312V1.46875C3.70837 1.00279 4.08617 0.625 4.55212 0.625H23.1146C23.5806 0.625 23.9584 1.00279 23.9584 1.46875V20.0312C23.9584 20.4972 23.5806 20.875 23.1146 20.875ZM5.39587 19.1875H22.2709V2.3125H5.39587V19.1875Z" fill="#ACACBB" fill-opacity="0.7"/>
<path d="M6.23962 20.0312H7.92712V38.5938H6.23962V20.0312Z" fill="#ACACBB" fill-opacity="0.7"/>
<path d="M23.1146 5.6875H34.0834V7.375H23.1146V5.6875Z" fill="#ACACBB" fill-opacity="0.7"/>
<path d="M4.55212 15.8125H23.1146V17.5H4.55212V15.8125Z" fill="#ACACBB" fill-opacity="0.7"/>
<path d="M7.92712 10.75H9.61462V16.6563H7.92712V10.75Z" fill="#ACACBB" fill-opacity="0.7"/>
<path d="M11.3021 6.53125H12.9896V16.6562H11.3021V6.53125Z" fill="#ACACBB" fill-opacity="0.7"/>
<path d="M14.6771 4H16.3646V16.6562H14.6771V4Z" fill="#ACACBB" fill-opacity="0.7"/>
<path d="M18.0521 9.0625H19.7396V16.6562H18.0521V9.0625Z" fill="#ACACBB" fill-opacity="0.7"/>
</g>
<defs>
<clipPath id="clip0_173_3636">
<rect width="54" height="54" fill="white" transform="translate(0.333374 0.625)"/>
</clipPath>
</defs>
</svg>
