<svg width="16" height="16" viewBox="0 0 16 16" fill="none" xmlns="http://www.w3.org/2000/svg">
<path d="M14.6666 8.00016C14.6666 11.6822 11.6819 14.6668 7.99992 14.6668C4.31792 14.6668 1.33325 11.6822 1.33325 8.00016C1.33325 4.31816 4.31792 1.3335 7.99992 1.3335C11.6819 1.3335 14.6666 4.31816 14.6666 8.00016ZM9.33325 4.66683C9.33325 4.49002 9.26301 4.32045 9.13799 4.19542C9.01297 4.0704 8.8434 4.00016 8.66658 4.00016C8.48977 4.00016 8.3202 4.0704 8.19518 4.19542C8.07016 4.32045 7.99992 4.49002 7.99992 4.66683C7.99992 4.84364 8.07016 5.01321 8.19518 5.13823C8.3202 5.26326 8.48977 5.3335 8.66658 5.3335C8.8434 5.3335 9.01297 5.26326 9.13799 5.13823C9.26301 5.01321 9.33325 4.84364 9.33325 4.66683ZM8.66658 7.3335C8.8434 7.3335 9.01297 7.26326 9.13799 7.13823C9.26301 7.01321 9.33325 6.84364 9.33325 6.66683C9.33325 6.49002 9.26301 6.32045 9.13799 6.19542C9.01297 6.0704 8.8434 6.00016 8.66658 6.00016C8.48977 6.00016 8.3202 6.0704 8.19518 6.19542C8.07016 6.32045 7.99992 6.49002 7.99992 6.66683C7.99992 6.84364 8.07016 7.01321 8.19518 7.13823C8.3202 7.26326 8.48977 7.3335 8.66658 7.3335ZM11.3333 8.00016C11.3333 7.82335 11.263 7.65378 11.138 7.52876C11.013 7.40373 10.8434 7.3335 10.6666 7.3335C10.4898 7.3335 10.3202 7.40373 10.1952 7.52876C10.0702 7.65378 9.99992 7.82335 9.99992 8.00016C9.99992 8.17697 10.0702 8.34654 10.1952 8.47157C10.3202 8.59659 10.4898 8.66683 10.6666 8.66683C10.8434 8.66683 11.013 8.59659 11.138 8.47157C11.263 8.34654 11.3333 8.17697 11.3333 8.00016ZM10.6666 6.66683C10.8434 6.66683 11.013 6.59659 11.138 6.47157C11.263 6.34654 11.3333 6.17697 11.3333 6.00016C11.3333 5.82335 11.263 5.65378 11.138 5.52876C11.013 5.40373 10.8434 5.3335 10.6666 5.3335C10.4898 5.3335 10.3202 5.40373 10.1952 5.52876C10.0702 5.65378 9.99992 5.82335 9.99992 6.00016C9.99992 6.17697 10.0702 6.34654 10.1952 6.47157C10.3202 6.59659 10.4898 6.66683 10.6666 6.66683Z" fill="#0080EF"/>
</svg>
