<svg width="20" height="20" viewBox="0 0 20 20" fill="none" xmlns="http://www.w3.org/2000/svg">
<g clip-path="url(#clip0_173_3198)">
<path fill-rule="evenodd" clip-rule="evenodd" d="M4.31197 8.90008H5.37334V11.7102H4.31197V8.90008ZM7.74846 6.05359H8.80982V11.7102H7.74846V6.05359ZM11.1831 7.42504H12.2445V11.7102H11.1831V7.42504ZM14.6196 4.89844H15.681V11.7102H14.6196V4.89844ZM17.7005 11.7101H16.6188V4.42969C16.6188 4.36805 16.6066 4.30702 16.583 4.25009C16.5593 4.19316 16.5247 4.14146 16.4811 4.09792C16.4374 4.05439 16.3856 4.01988 16.3286 3.99638C16.2717 3.97287 16.2106 3.96083 16.149 3.96094H14.1516C14.0899 3.96083 14.0289 3.97287 13.9719 3.99638C13.9149 4.01988 13.8631 4.05439 13.8195 4.09792C13.7758 4.14146 13.7412 4.19316 13.7176 4.25009C13.6939 4.30702 13.6817 4.36805 13.6817 4.42969V11.7102H13.1824V6.95629C13.1824 6.83209 13.1331 6.71297 13.0453 6.62508C12.9576 6.53719 12.8385 6.48772 12.7143 6.48754H10.7149C10.6534 6.48747 10.5924 6.49956 10.5356 6.5231C10.4787 6.54664 10.4271 6.58118 10.3836 6.62473C10.3401 6.66828 10.3056 6.71998 10.2822 6.77688C10.2587 6.83378 10.2467 6.89475 10.2469 6.95629V11.7102H9.74572V5.5848C9.7459 5.52326 9.73392 5.46228 9.71047 5.40538C9.68701 5.34847 9.65256 5.29676 9.60907 5.25321C9.56558 5.20965 9.51392 5.17512 9.45705 5.15158C9.40018 5.12805 9.33922 5.11597 9.27768 5.11605H7.27861C7.15442 5.11624 7.03537 5.16571 6.94761 5.2536C6.85986 5.34148 6.81057 5.46061 6.81057 5.5848V11.7102H6.31123V8.43129C6.31123 8.30709 6.26194 8.18797 6.17419 8.10008C6.08643 8.01219 5.96738 7.96272 5.84318 7.96254H3.84385C3.78222 7.96246 3.72117 7.97452 3.6642 7.99804C3.60723 8.02156 3.55545 8.05606 3.51182 8.09959C3.46819 8.14312 3.43355 8.19482 3.4099 8.25173C3.38625 8.30864 3.37404 8.36966 3.37397 8.43129V11.7102H2.29248C2.16816 11.7102 2.04893 11.7596 1.96102 11.8475C1.87312 11.9354 1.82373 12.0546 1.82373 12.1789C1.82373 12.3033 1.87312 12.4225 1.96102 12.5104C2.04893 12.5983 2.16816 12.6477 2.29248 12.6477H17.7005C17.8248 12.6477 17.944 12.5983 18.0319 12.5104C18.1198 12.4225 18.1692 12.3033 18.1692 12.1789C18.1692 12.0546 18.1198 11.9354 18.0319 11.8475C17.944 11.7596 17.8248 11.7102 17.7005 11.7102V11.7101ZM19.0585 14.1945V2.41406C19.0586 2.27953 19.0053 2.15046 18.9103 2.05523C18.8152 1.96 18.6863 1.90642 18.5517 1.90625H1.44119C1.30666 1.90642 1.1777 1.96 1.08267 2.05523C0.98764 2.15046 0.93432 2.27953 0.934434 2.41406V14.1945C0.93432 14.3291 0.98764 14.4581 1.08267 14.5534C1.1777 14.6486 1.30666 14.7022 1.44119 14.7023H18.5517C18.6863 14.7022 18.8152 14.6486 18.9103 14.5534C19.0053 14.4581 19.0586 14.3291 19.0585 14.1945V14.1945ZM11.1536 16.5109H8.83932V15.6398H11.1536V16.5109ZM12.845 17.5887V18.0938H7.14779V17.5887C7.14835 17.5517 7.16327 17.5164 7.18941 17.4902C7.21554 17.464 7.25084 17.449 7.28783 17.4484H12.7051C12.7421 17.449 12.7774 17.464 12.8036 17.4902C12.8297 17.5164 12.8446 17.5517 12.8452 17.5887H12.845ZM18.5517 0.96875H1.44119C1.05814 0.969401 0.690965 1.12191 0.420169 1.39283C0.149373 1.66376 -0.00295321 2.03101 -0.00341797 2.41406V14.1945C-0.00304601 14.5776 0.149251 14.9449 0.420067 15.2159C0.690883 15.4868 1.05811 15.6393 1.44119 15.6398H7.90139V16.5109H7.28783C7.00213 16.5114 6.72826 16.6251 6.52622 16.8271C6.32418 17.0292 6.21044 17.303 6.2099 17.5887V18.5625C6.20994 18.6241 6.22213 18.6852 6.24577 18.7421C6.26941 18.799 6.30404 18.8507 6.34768 18.8943C6.39132 18.9378 6.44311 18.9723 6.5001 18.9958C6.55708 19.0193 6.61814 19.0314 6.67979 19.0312H13.3132C13.3748 19.0314 13.4359 19.0193 13.4929 18.9958C13.5499 18.9723 13.6016 18.9378 13.6453 18.8943C13.6889 18.8507 13.7236 18.799 13.7472 18.7421C13.7708 18.6852 13.783 18.6241 13.7831 18.5625V17.5887C13.7825 17.303 13.6688 17.0292 13.4667 16.8272C13.2647 16.6252 12.9908 16.5115 12.7051 16.511H12.0915V15.6399H18.5517C18.9348 15.6393 19.3021 15.4868 19.5729 15.2159C19.8437 14.945 19.996 14.5777 19.9964 14.1946V2.41406C19.9959 2.031 19.8436 1.66376 19.5728 1.39283C19.302 1.1219 18.9348 0.969401 18.5517 0.96875Z" fill="#C9C9CF"/>
</g>
<defs>
<clipPath id="clip0_173_3198">
<rect width="20" height="20" fill="white"/>
</clipPath>
</defs>
</svg>
