<svg width="15" height="15" viewBox="0 0 15 15" fill="none" xmlns="http://www.w3.org/2000/svg">
<path d="M11.2594 12.5837C11.2076 12.647 11.1423 12.6978 11.0683 12.7327C10.9943 12.7676 10.9135 12.7855 10.8317 12.7853C10.7606 12.7857 10.6901 12.7718 10.6244 12.7444C10.5588 12.717 10.4993 12.6767 10.4496 12.6258L8.27172 10.445C8.1699 10.343 8.1127 10.2048 8.1127 10.0607C8.1127 9.91662 8.1699 9.77842 8.27172 9.67647C8.37368 9.57464 8.51188 9.51744 8.65597 9.51744C8.80007 9.51744 8.93827 9.57464 9.04022 9.67647L10.2879 10.9322V3.17901C10.2879 3.0348 10.3452 2.8965 10.4472 2.79453C10.5492 2.69255 10.6875 2.63526 10.8317 2.63526C10.9759 2.63526 11.1142 2.69255 11.2162 2.79453C11.3182 2.8965 11.3754 3.0348 11.3754 3.17901V10.9249L12.6239 9.67936C12.7258 9.57776 12.8639 9.52071 13.0078 9.52071C13.1517 9.52071 13.2898 9.57776 13.3917 9.67936C13.4935 9.78132 13.5507 9.91952 13.5507 10.0636C13.5507 10.2077 13.4935 10.3459 13.3917 10.4479L11.2594 12.5837ZM5.09695 2.83681C5.04508 2.77358 4.97978 2.72268 4.90579 2.68782C4.83181 2.65296 4.75099 2.63501 4.6692 2.63526C4.59806 2.63481 4.52756 2.6487 4.46192 2.6761C4.39627 2.70351 4.33682 2.74387 4.28712 2.79476L2.10995 4.97556C2.00812 5.07752 1.95093 5.21572 1.95093 5.35981C1.95093 5.50391 2.00812 5.64211 2.10995 5.74407C2.2119 5.84589 2.35011 5.90309 2.4942 5.90309C2.63829 5.90309 2.7765 5.84589 2.87845 5.74407L4.12545 4.48909V12.2415C4.12545 12.3857 4.18274 12.524 4.28471 12.626C4.38668 12.728 4.52499 12.7853 4.6692 12.7853C4.81341 12.7853 4.95172 12.728 5.05369 12.626C5.15566 12.524 5.21295 12.3857 5.21295 12.2415V4.49561L6.4614 5.74116C6.56332 5.84277 6.70137 5.89982 6.84529 5.89982C6.9892 5.89982 7.12725 5.84277 7.22917 5.74116C7.331 5.63921 7.3882 5.50101 7.3882 5.35691C7.3882 5.21282 7.331 5.07462 7.22917 4.97266L5.09695 2.83681Z" fill="white"/>
</svg>
