<svg width="358" height="340" viewBox="0 0 358 340" fill="none" xmlns="http://www.w3.org/2000/svg">
<path d="M185.543 340C90.7934 340 13.9845 332.166 13.9845 322.503C13.9845 318.816 25.1723 315.395 44.2755 312.574C43.6002 315.286 43.7643 318.627 46.2936 321.687C49.4452 325.5 55.7906 325.617 56.506 325.618H76.3527C76.4142 325.618 76.4757 325.615 76.5359 325.61C76.7928 325.585 82.8528 324.927 85.1784 318.242C85.4747 317.391 85.8004 314.12 86.1925 308.239C87.1599 308.168 88.1298 308.1 89.1131 308.032C89.2151 312.949 89.4696 316.382 90.099 318.191C92.4246 324.877 98.4846 325.535 98.7415 325.559C98.803 325.565 98.8644 325.568 98.9259 325.568H116.186C116.719 325.594 117.725 325.633 118.999 325.633C123.095 325.633 129.955 325.234 132.671 322.736C136.29 319.408 136.604 314.123 133.415 310.166C131.968 308.373 129.892 307.232 128.475 306.611C128.499 306.423 128.526 306.218 128.555 305.996C146.383 305.357 165.569 305.008 185.543 305.008C187.723 305.008 189.896 305.012 192.055 305.02C192.615 305.91 193.2 306.8 193.813 307.693C201.115 318.318 209.617 325.318 209.976 325.611C210.261 325.844 210.608 325.991 210.974 326.033C211.09 326.046 211.215 326.052 211.347 326.052C212.256 326.052 213.499 325.718 214.479 324.739C215.839 323.38 216.361 321.192 216.029 318.237C215.903 317.12 215.734 315.782 215.546 314.296C215.228 311.795 214.822 308.586 214.5 305.256C227.782 305.486 240.544 305.872 252.599 306.395C256.203 317.08 261.102 324.131 261.102 324.131C261.102 324.131 265.748 317.448 269.318 307.233C283.253 308.03 295.987 309.019 307.172 310.166C306.994 311.667 306.817 313.067 306.661 314.296C306.471 315.782 306.303 317.12 306.176 318.237C305.844 321.192 306.367 323.38 307.727 324.739C308.707 325.718 309.95 326.052 310.858 326.052C310.991 326.052 311.115 326.046 311.231 326.033C311.597 325.991 311.944 325.844 312.23 325.611C312.534 325.364 318.677 320.306 324.986 312.31C345.196 315.18 357.101 318.7 357.101 322.503C357.101 332.166 280.292 340 185.543 340Z" fill="#AEC4DA"/>
<path d="M282.188 279.864C282.188 279.864 303.897 278.554 308.793 287.433C311.846 292.973 308.937 310.849 308.082 318.451C307.401 324.532 311.015 324.125 311.015 324.125C311.015 324.125 327.825 310.392 334.224 292.478L334.228 292.474C336.964 284.813 337.8 276.389 334.602 267.947C331.348 259.335 324.455 253.872 317.289 250.407C306.207 245.05 294.455 244.484 294.455 244.484L282.188 279.864Z" fill="#F73939"/>
<path d="M282.188 279.864C282.188 279.864 303.897 278.554 308.793 287.433C311.846 292.973 308.937 310.849 308.082 318.451C307.401 324.532 311.015 324.125 311.015 324.125C311.015 324.125 327.825 310.392 334.224 292.478C333.945 292.767 323.664 303.408 317.314 299.88C313.997 298.039 315.994 290.451 313.424 283.719C310.854 276.983 310.525 269.6 312.922 262.8L317.289 250.407C306.207 245.05 294.455 244.484 294.455 244.484L282.188 279.864Z" fill="#D82345"/>
<path d="M285.519 277.856C292.238 277.856 306.234 278.815 310.473 286.503C313.163 291.38 312.006 302.661 310.47 314.779C310.284 316.245 310.117 317.564 309.993 318.665C309.727 321.028 310.248 321.811 310.414 321.994C310.435 322.018 310.456 322.038 310.478 322.057C315.153 317.967 342.045 293.03 332.807 268.624C326.025 250.706 301.906 247.139 295.783 246.518L284.916 277.858C285.11 277.856 285.311 277.856 285.519 277.856ZM310.858 326.052C309.95 326.052 308.707 325.717 307.727 324.739C306.366 323.379 305.844 321.191 306.176 318.236C306.302 317.119 306.471 315.782 306.66 314.296C307.624 306.693 309.419 292.542 307.111 288.358C303.581 281.958 288.007 281.439 282.303 281.781C281.667 281.822 281.046 281.535 280.658 281.023C280.272 280.512 280.165 279.841 280.375 279.235L292.642 243.852C292.921 243.047 293.697 242.509 294.549 242.563C295.901 242.629 327.753 244.425 336.398 267.266C340.993 279.406 338.225 293.386 328.393 307.692C321.09 318.318 312.587 325.318 312.23 325.61C311.943 325.844 311.597 325.99 311.23 326.032C311.115 326.046 310.991 326.052 310.858 326.052Z" fill="#371A45"/>
<path d="M330.808 281.699C330.808 281.699 324.709 271.365 323.354 259.563C323.354 259.563 332.615 267.581 330.808 281.699Z" fill="#FDC3C3"/>
<path d="M72.5174 165.798L73.2328 175.723L73.5991 180.777L79.8902 267.954C79.8902 267.954 73.9224 268.046 65.9092 267.525C64.3419 267.423 62.696 267.299 61.0009 267.145C48.3738 266.008 33.0433 263.279 27.222 256.789C18.5204 247.082 17.069 199.688 24.8386 180.896C28.3971 172.281 46.4837 168.529 59.328 166.933C60.7625 166.751 62.1343 166.599 63.4102 166.473C68.7929 165.928 72.5174 165.798 72.5174 165.798Z" fill="white"/>
<path d="M45.3703 262.957C38.1801 261.394 31.8212 259.043 28.6526 255.509C27.5223 254.249 26.5244 252.256 25.6633 249.711C28.0139 251.137 30.7961 251.849 33.5582 251.849C36.8789 251.849 40.1697 250.818 42.6417 248.754C43.7556 247.824 44.5998 246.615 45.2268 245.218C45.2573 250.534 45.3087 256.653 45.3703 262.957ZM46.189 228.42C45.9604 226.87 45.6921 225.423 45.4278 224.152C45.0016 222.103 43.4137 220.528 41.4221 220.077C41.3798 215.376 41.6417 210.407 42.4191 205.452C45.0424 205.885 47.486 206.152 49.6395 206.314C47.9382 213.137 46.5043 220.918 46.189 228.42ZM21.7618 219.274C21.7243 216.354 21.7587 213.412 21.8669 210.505C22.072 213.486 22.3579 216.381 22.722 219.118C22.3971 219.14 22.0756 219.193 21.7618 219.274Z" fill="#C5BDC9"/>
<path d="M70.7375 167.801C58.2488 168.461 30.6327 171.902 26.6103 181.629C19.2259 199.49 20.5232 246.442 28.652 255.509C37.2588 265.109 69.3927 265.977 77.8288 266.037L70.7375 167.801ZM78.4889 269.884C70.826 269.884 35.8235 269.26 25.7927 258.072C16.6294 247.851 14.945 199.794 23.062 180.162C25.6646 173.867 34.8768 169.218 50.4424 166.347C61.6684 164.276 72.0159 163.896 72.451 163.881L74.2997 163.817L81.954 269.844L79.9221 269.876C79.7611 269.878 79.2657 269.884 78.4889 269.884Z" fill="#371A45"/>
<path d="M23.2472 221.03L40.4128 221.868C41.9452 221.943 43.2352 223.039 43.5476 224.541C44.692 230.042 46.6755 242.884 41.4108 247.279C37.041 250.928 29.7853 250.703 25.4462 247.22C20.5923 243.325 19.7981 230.7 19.7115 224.442C19.6846 222.496 21.3038 220.935 23.2472 221.03Z" fill="white"/>
<path d="M33.563 248.015C31.073 248.015 28.5503 247.251 26.648 245.724C25.3046 244.646 24.1863 242.443 23.3482 239.352C23.5521 239.58 23.7617 239.793 23.9767 239.991C26.5323 242.347 28.8659 243.186 30.8925 243.186C35.8871 243.186 39.018 238.095 39.018 238.095C39.018 238.095 40.1995 240.468 41.0947 240.581C41.1685 240.59 41.2405 240.594 41.3107 240.594C41.9204 240.594 42.3913 240.248 42.7498 239.645C42.4117 242.389 41.6146 244.609 40.1803 245.806C38.4142 247.28 36.0044 248.015 33.563 248.015Z" fill="#C5BDC9"/>
<path d="M23.0804 222.946C22.7023 222.946 22.3469 223.09 22.0735 223.354C21.7827 223.634 21.6257 224.012 21.6315 224.417C21.7833 235.36 23.6587 243.325 26.648 245.724C30.4154 248.747 36.6128 248.784 40.1804 245.807C43.8433 242.749 43.3506 233.019 41.6678 224.935C41.5343 224.291 40.9795 223.819 40.319 223.787L23.1539 222.949C23.1293 222.947 23.1047 222.946 23.0804 222.946ZM33.558 251.85C30.2164 251.85 26.8452 250.806 24.2448 248.719C19.1323 244.616 17.9138 233.268 17.7921 224.47C17.7719 223.016 18.3601 221.601 19.406 220.591C20.4523 219.58 21.8908 219.038 23.3411 219.113L40.5066 219.952C42.9142 220.07 44.9379 221.797 45.4276 224.152C46.9025 231.241 48.5018 243.862 42.6415 248.754C40.1695 250.818 36.8787 251.85 33.558 251.85Z" fill="#371A45"/>
<path d="M32.1791 248.415C37.8088 244.942 38.5272 237.396 38.245 231.338C38.1809 230.374 38.0801 229.358 37.8424 228.511C37.6808 227.909 38.5664 227.605 38.8012 228.196C39.8077 231.139 39.9549 234.115 40.0149 237.18C40.0857 242.478 38.3048 248.451 33.6219 251.5C31.4223 252.698 29.8447 249.34 32.1791 248.415Z" fill="#371A45"/>
<path d="M50.6239 179.885C42.4365 179.71 33.9206 179.558 25.937 181.463C23.4828 182.065 22.496 178.481 24.9304 177.753C31.4322 176.573 37.9198 176.946 44.4364 177.338C46.5571 177.491 48.6605 177.672 50.7842 177.912C51.3276 177.973 51.7184 178.462 51.6572 179.007C51.5987 179.529 51.141 179.91 50.6239 179.885Z" fill="#371A45"/>
<path d="M87.9656 235.68C87.6043 241.127 86.8667 257.737 86.0604 274.605C85.0881 294.988 84.015 315.746 83.3647 317.613C81.4152 323.212 76.3521 323.7 76.3521 323.7H56.5066C56.5066 323.7 50.4402 323.691 47.7715 320.464C43.3886 315.162 47.8456 309.392 47.8456 309.392C47.8456 309.392 47.5098 285.346 47.2917 263.337C47.2001 253.877 47.1304 244.79 47.1173 238.152L87.9656 235.68Z" fill="white"/>
<path d="M83.4746 274.688C70.284 274.688 59.2679 268.305 49.2213 264.117C49.1656 258.504 49.1173 253.009 49.0841 248.059C49.5262 249.052 50.0243 250.004 50.5825 250.906C50.7818 251.214 51.071 251.345 51.3588 251.345C51.5269 251.345 51.6945 251.3 51.8431 251.22C57.7031 261.648 70.5299 267.854 84.3769 269.613C84.2982 271.28 84.2171 272.975 84.1359 274.682C83.9147 274.686 83.6946 274.688 83.4746 274.688Z" fill="#C5BDC9"/>
<path d="M76.2322 321.778H56.512C55.0701 321.77 50.9561 321.301 49.2533 319.241C47.891 317.592 47.6392 315.871 47.8267 314.4C51.0235 316.458 55.6393 316.465 55.6393 316.465H77.143C77.143 316.465 79.6346 316.224 81.9062 314.211C81.7746 315.649 81.6554 316.61 81.5522 316.98C80.1435 321.028 76.7533 321.698 76.2322 321.778Z" fill="#C5BDC9"/>
<path d="M76.3521 325.619H56.5053C55.7899 325.618 49.4445 325.501 46.293 321.688C42.3578 316.927 44.1475 311.484 45.9168 308.796C45.837 302.999 45.2339 258.645 45.1975 238.159C45.1958 237.098 46.0538 236.237 47.1143 236.235H47.1176C48.1766 236.235 49.0358 237.092 49.0376 238.151C49.076 259.961 49.7582 308.876 49.7651 309.368C49.7711 309.802 49.63 310.226 49.3644 310.569C49.2279 310.749 45.9228 315.213 49.2528 319.242C50.9556 321.302 55.0696 321.772 56.5115 321.779H76.2316C76.7528 321.699 80.143 321.029 81.5516 316.982C82.2867 314.365 83.7949 282.071 84.793 260.702C85.3253 249.325 85.785 239.498 86.0481 235.55C86.1181 234.493 87.0363 233.69 88.091 233.763C89.1493 233.833 89.9508 234.749 89.8795 235.806C89.6177 239.716 89.1604 249.525 88.6294 260.882C86.8938 298.011 85.935 316.066 85.1778 318.243C82.8521 324.928 76.7921 325.586 76.5352 325.611C76.475 325.615 76.4135 325.619 76.3521 325.619Z" fill="#371A45"/>
<path d="M131.919 311.372C134.239 314.246 134.548 318.402 131.373 321.323C128.195 324.245 116.233 323.648 116.233 323.648H98.9248C98.9248 323.648 93.8617 323.159 91.9122 317.56C90.4027 313.216 91.2976 295.284 90.7567 274.81C90.6436 270.461 90.4641 266.001 90.1851 261.531L133.706 240.329C133.032 248.314 132.289 256.128 131.539 263.45C128.975 288.586 126.372 307.865 126.372 307.865C126.372 307.865 129.93 308.904 131.919 311.372Z" fill="white"/>
<path d="M118.819 321.79C117.94 321.79 117.097 321.769 116.329 321.731C116.298 321.73 116.265 321.729 116.234 321.729H99.0509C98.4843 321.64 95.1248 320.954 93.726 316.931C93.6154 316.614 93.5195 316.192 93.4359 315.677C94.788 316.272 95.8157 316.372 95.8157 316.372H115.385C115.385 316.372 116.517 316.427 118.212 316.427C121.914 316.427 128.307 316.159 131.476 314.45C132.096 316.216 131.866 318.261 130.072 319.909C128.588 321.276 123.243 321.79 118.819 321.79Z" fill="#C5BDC9"/>
<path d="M92.6784 274.808C92.6379 273.261 92.5887 271.701 92.5309 270.132C92.5617 270.132 92.5949 270.132 92.6256 270.132C105.959 270.13 119.158 266.067 127.096 257.746C127.279 257.917 127.517 258.004 127.755 258.004C127.978 258.004 128.203 257.928 128.384 257.771C129.09 257.166 129.751 256.51 130.37 255.813C130.093 258.661 129.813 261.456 129.532 264.181C127.133 265.102 124.512 266.267 121.705 267.745C110.459 273.672 98.5885 274.706 92.6784 274.808Z" fill="#C5BDC9"/>
<path d="M118.999 325.633C117.725 325.633 116.719 325.593 116.187 325.568H98.926C98.8645 325.568 98.8031 325.565 98.7416 325.559C98.4847 325.534 92.4247 324.877 90.0991 318.191C89.0444 315.161 89.0432 307.573 89.042 296.09C89.0407 286.212 89.0383 273.919 88.2688 261.653C88.2024 260.594 89.0063 259.683 90.0647 259.617C91.1193 259.553 92.0351 260.355 92.1015 261.413C92.8783 273.798 92.8808 286.158 92.882 296.089C92.8832 305.974 92.8845 314.511 93.7265 316.93C95.1253 320.953 98.4847 321.639 99.0514 321.728H116.234C116.265 321.728 116.298 321.729 116.329 321.73C120.968 321.959 128.293 321.546 130.073 319.908C132.557 317.625 132.04 314.58 130.424 312.575C128.851 310.623 125.86 309.716 125.831 309.707C124.924 309.438 124.344 308.546 124.47 307.608C124.513 307.287 128.836 275.105 131.795 240.167C131.883 239.111 132.815 238.326 133.87 238.417C134.927 238.507 135.71 239.436 135.622 240.492C133.018 271.222 129.364 299.828 128.475 306.611C129.892 307.232 131.968 308.372 133.415 310.166C136.604 314.123 136.29 319.408 132.671 322.736C129.955 325.233 123.095 325.633 118.999 325.633Z" fill="#371A45"/>
<path d="M107.669 291.346C98.4485 291.346 91.0843 289.849 90.5508 289.737C89.5121 289.52 88.8471 288.504 89.0635 287.466C89.2786 286.428 90.2951 285.764 91.3338 285.978C91.5526 286.023 113.466 290.467 128.48 283.835C129.449 283.405 130.585 283.845 131.013 284.815C131.442 285.786 131.003 286.918 130.033 287.347C122.997 290.455 114.781 291.346 107.669 291.346Z" fill="#371A45"/>
<path d="M68.3183 288.337C55.4904 288.337 47.3058 285.392 46.832 285.217C45.8374 284.85 45.3285 283.746 45.6958 282.75C46.0628 281.757 47.1648 281.248 48.1596 281.614C48.3133 281.67 63.7703 287.189 85.2568 282.738C86.293 282.52 87.3108 283.19 87.5259 284.228C87.741 285.266 87.0736 286.283 86.0349 286.498C79.5017 287.851 73.5265 288.337 68.3183 288.337Z" fill="#371A45"/>
<path d="M46.6143 307.921C52.8427 303.364 67.1261 305.934 74.5652 306.841C75.7625 307.03 75.5806 308.821 74.3563 308.75C72.108 308.586 69.8611 308.446 67.619 308.355C62.6923 308.189 57.6391 308.08 52.8513 309.164C51.5145 309.494 49.9323 310.084 49.0089 310.924C46.9755 312.56 44.5608 309.548 46.6143 307.921Z" fill="#371A45"/>
<path d="M125.923 309.733C121.873 308.457 117.353 308.217 113.059 308.34C111.881 308.371 111.7 306.645 112.858 306.431C117.477 305.645 122.098 305.237 126.823 306C129.502 306.547 128.563 310.467 125.923 309.733Z" fill="#371A45"/>
<path d="M240.018 279.864C240.018 279.864 218.307 278.554 213.411 287.433C210.359 292.973 213.268 310.849 214.122 318.451C214.804 324.532 211.189 324.125 211.189 324.125C211.189 324.125 194.38 310.392 187.982 292.478L187.977 292.474C185.24 284.813 184.406 276.389 187.602 267.947C190.857 259.335 197.749 253.872 204.915 250.407C215.999 245.05 227.749 244.484 227.749 244.484L240.018 279.864Z" fill="#F73939"/>
<path d="M240.017 279.864C240.017 279.864 218.307 278.554 213.411 287.433C210.359 292.973 213.267 310.849 214.122 318.451C214.804 324.532 211.189 324.125 211.189 324.125C211.189 324.125 194.379 310.392 187.981 292.478C188.259 292.767 198.541 303.408 204.891 299.88C208.208 298.039 206.21 290.451 208.779 283.719C211.35 276.983 211.679 269.6 209.283 262.8L204.915 250.407C215.999 245.05 227.749 244.484 227.749 244.484L240.017 279.864Z" fill="#D82345"/>
<path d="M226.423 246.518C220.299 247.139 196.179 250.706 189.398 268.624C180.149 293.06 207.05 317.972 211.726 322.057C211.748 322.038 211.769 322.018 211.791 321.994C211.957 321.811 212.478 321.028 212.213 318.665C212.089 317.564 211.922 316.245 211.736 314.779C210.198 302.661 209.043 291.38 211.731 286.503C216.103 278.577 230.837 277.799 237.289 277.858L226.423 246.518ZM211.346 326.052C211.215 326.052 211.089 326.046 210.974 326.032C210.608 325.99 210.261 325.844 209.976 325.61C209.617 325.318 201.114 318.318 193.813 307.692C183.979 293.386 181.211 279.406 185.806 267.266C194.451 244.425 226.303 242.629 227.655 242.563C228.511 242.509 229.283 243.047 229.562 243.852L241.831 279.235C242.041 279.841 241.934 280.512 241.547 281.023C241.159 281.535 240.541 281.822 239.902 281.781C234.197 281.439 218.623 281.958 215.094 288.358C212.787 292.542 214.58 306.693 215.545 314.296C215.733 315.782 215.903 317.119 216.028 318.236C216.36 321.191 215.839 323.379 214.478 324.739C213.499 325.717 212.256 326.052 211.346 326.052Z" fill="#371A45"/>
<path d="M221.541 270.19L224.143 282.373C225.321 287.885 229.43 292.305 234.841 293.881C250.954 298.574 268.045 298.769 284.261 294.445C289.708 292.992 293.915 288.666 295.218 283.184L298.098 271.063L221.541 270.19Z" fill="#22A7F0"/>
<path d="M282.239 292.982C283.456 292.278 284.566 291.411 285.539 290.412C287.431 288.462 288.812 286.01 289.463 283.266L291.372 275.23C292.728 274.847 294.081 274.438 295.426 274.004L293.351 282.739C292.209 287.543 288.537 291.316 283.767 292.589C283.259 292.724 282.749 292.855 282.239 292.982Z" fill="#65C2F5"/>
<path d="M261.926 297.539C252.81 297.674 243.679 296.451 234.841 293.88C229.429 292.304 225.322 287.881 224.142 282.373L221.541 270.192L261.606 270.644C258.992 272.053 255.632 275.17 255.732 281.906C255.895 292.885 266.49 297.343 266.49 297.343L266.525 297.352C264.996 297.458 263.461 297.517 261.926 297.539Z" fill="#2585EF"/>
<path d="M326.978 202.585C326.619 204.414 326.234 206.21 325.841 207.966C323.158 219.85 319.778 230.06 316.303 238.585C315.066 241.633 313.817 244.46 312.579 247.081C305.028 263.079 298.098 271.066 298.098 271.066C293.384 272.745 288.593 274.105 283.736 275.126C283.544 275.166 283.352 275.209 283.16 275.247C263.331 279.312 242.673 277.868 223.487 270.908C222.84 270.677 222.192 270.437 221.548 270.188C221.548 270.188 202.256 246.942 194.222 201.03C191.136 183.429 189.71 162.497 191.653 138.267C198.306 55.4747 240.593 15.9606 256.7 3.77307C260.357 1.00613 265.429 1.05286 269.022 3.90338C278.906 11.7433 298.792 30.5034 313.471 63.7325C320.01 78.5408 325.519 96.2143 328.643 117.075C329.522 122.916 330.213 129.007 330.679 135.352C330.799 136.841 330.895 138.348 330.986 139.86C332.374 164.148 330.463 185.056 326.978 202.585Z" fill="white"/>
<path d="M249.634 274.984C240.441 274.018 231.425 271.876 222.721 268.586C221.074 266.461 212.992 255.497 205.689 236.142C202.897 228.744 200.011 219.52 197.67 208.556C207.042 225.859 219.353 233.067 227.831 233.067C234.714 233.067 239.073 228.316 237.282 220.359C235.948 214.438 222.999 205.37 222.356 172.221C224.421 179.75 228.617 186.531 234.593 191.838C242.116 198.52 251.629 202.124 261.608 202.124C262.428 202.124 263.251 202.101 264.076 202.051C274.946 201.407 284.915 196.568 292.146 188.426C294.784 185.456 296.942 182.176 298.589 178.681C296.529 206.597 285.2 214.843 283.957 220.359C282.168 228.315 286.526 233.066 293.409 233.067C301.958 233.068 314.4 225.743 323.801 208.126C321.127 219.858 317.849 229.64 314.723 237.386C306.982 256.573 298.653 267.349 296.96 269.434C289.03 272.227 280.866 274.076 272.569 274.964C270.28 260.595 263.693 249.384 261.688 246.229C261.318 245.645 261.105 245.338 261.105 245.338C261.105 245.338 261.105 245.339 261.104 245.339C261.104 245.337 261.103 245.337 261.103 245.337C261.103 245.337 258.083 249.683 255.04 256.723C253.923 259.307 252.802 262.254 251.826 265.483L251.828 265.485C250.938 268.437 250.169 271.626 249.634 274.984Z" fill="#C5BDC9"/>
<path d="M317.609 73.915C302.954 70.6072 288.09 68.5582 273.167 67.7702C250.895 66.5902 228.508 68.2128 206.534 72.6477C222.263 33.3795 245.644 12.1401 256.693 3.77286C260.355 1.00346 265.429 1.06121 269.03 3.91297C269.302 4.12808 269.586 4.35426 269.874 4.58904C281.034 13.6372 303.156 35.2946 317.609 73.915Z" fill="#F73939"/>
<path d="M273.167 67.7702C280.54 43.6938 274.736 18.8355 269.874 4.58903C281.034 13.6372 303.156 35.2946 317.609 73.915C302.954 70.6072 288.09 68.5582 273.167 67.7702Z" fill="#D82345"/>
<path d="M259.144 65.4354C277.668 65.4354 296.173 67.3825 314.539 71.2753C300.289 35.235 279.592 14.8597 268.318 5.80293C265.12 3.23512 260.615 3.18469 257.363 5.67876C245.886 14.475 224.732 34.3746 209.665 70.0781C226.109 66.983 242.633 65.4354 259.144 65.4354ZM317.611 75.832C317.471 75.832 317.329 75.816 317.188 75.7853C280.687 67.5509 243.586 67.128 206.914 74.5266C206.221 74.6667 205.51 74.416 205.059 73.8739C204.607 73.3318 204.489 72.5857 204.752 71.9318C220.221 33.3064 242.89 11.933 255.026 2.63157C259.689 -0.941727 266.142 -0.867981 270.722 2.80981C282.644 12.3853 304.824 34.2701 319.41 73.2384C319.657 73.8997 319.521 74.6422 319.058 75.1744C318.689 75.5973 318.16 75.832 317.611 75.832Z" fill="#371A45"/>
<path d="M222.72 268.585C234.603 273.077 247.064 275.427 259.768 275.572C272.467 275.716 284.982 273.652 296.959 269.433C298.652 267.349 306.981 256.572 314.722 237.386C322.684 217.656 331.634 184.739 329.063 139.971C327.736 116.843 323.4 95.1774 316.174 75.5568C280.336 67.6174 243.925 67.2031 207.924 74.3239C200.252 93.7749 195.424 115.334 193.569 138.425C189.979 183.123 198.178 216.235 205.688 236.142C212.991 255.497 221.073 266.46 222.72 268.585ZM261.022 279.419C260.589 279.419 260.157 279.417 259.724 279.412C246.389 279.26 233.312 276.761 220.855 271.984C220.548 271.866 220.275 271.672 220.065 271.417C219.68 270.954 210.537 259.793 202.17 237.694C194.483 217.389 186.085 183.632 189.741 138.117C191.658 114.26 196.706 91.9901 204.744 71.9294C204.998 71.2927 205.569 70.849 206.23 70.7469C243.411 63.2549 281.026 63.6888 318.034 72.0376C318.664 72.1802 319.182 72.6313 319.409 73.2373C326.987 93.4762 331.525 115.854 332.896 139.751C335.514 185.337 326.352 218.895 318.205 239.018C309.337 260.92 299.944 271.87 299.548 272.324C299.333 272.574 299.056 272.762 298.745 272.874C286.597 277.219 273.911 279.419 261.022 279.419Z" fill="#371A45"/>
<path d="M260.562 299.47C251.717 299.47 242.876 298.221 234.304 295.723C228.206 293.948 223.594 288.986 222.266 282.773L219.663 270.591C219.441 269.553 220.103 268.533 221.14 268.312C222.179 268.091 223.197 268.752 223.419 269.788L226.021 281.971C227.053 286.799 230.638 290.656 235.378 292.037C251.156 296.633 267.888 296.824 283.767 292.589C288.538 291.316 292.209 287.543 293.351 282.739L296.231 270.619C296.476 269.588 297.512 268.95 298.542 269.194C299.575 269.44 300.211 270.475 299.967 271.507L297.087 283.628C295.618 289.807 290.894 294.662 284.756 296.3C276.827 298.414 268.692 299.47 260.562 299.47Z" fill="#371A45"/>
<path d="M298.965 172.231C294.497 187.552 280.803 199.14 263.96 200.133C246.017 201.199 230.193 189.905 224.793 173.618L224.788 173.613C223.742 170.465 223.089 167.124 222.882 163.654C221.61 142.236 237.944 123.844 259.362 122.576C280.784 121.304 299.172 137.638 300.444 159.056C300.713 163.629 300.18 168.069 298.965 172.231Z" fill="#C6C6C6"/>
<path d="M294.131 143.765C286.807 133.674 274.927 127.197 261.708 127.197C260.905 127.197 260.102 127.221 259.29 127.27C246.819 128.006 236.024 134.367 229.217 143.74C235.114 132.917 246.293 125.271 259.477 124.491C260.218 124.446 260.953 124.424 261.686 124.424C275.543 124.424 287.831 132.181 294.131 143.765Z" fill="#EEEEEE"/>
<path d="M298.966 172.231C294.497 187.552 280.803 199.14 263.96 200.133C246.018 201.199 230.193 189.905 224.793 173.618C224.793 173.618 235.391 180.948 234.277 163.654H287.926C286.812 180.948 297.416 173.618 297.416 173.618L298.966 172.231Z" fill="#898989"/>
<path d="M261.686 124.424C260.954 124.424 260.218 124.446 259.477 124.491C239.151 125.695 223.594 143.213 224.799 163.539C225.383 173.386 229.766 182.416 237.141 188.966C244.517 195.517 254.002 198.802 263.848 198.218C273.694 197.634 282.725 193.251 289.274 185.876C295.825 178.501 299.111 169.015 298.527 159.169C297.365 139.583 281.058 124.424 261.686 124.424ZM261.607 202.124C251.629 202.124 242.116 198.52 234.592 191.838C226.45 184.606 221.61 174.637 220.965 163.766C219.635 141.326 236.809 121.987 259.25 120.657C270.126 120.016 280.591 123.64 288.735 130.87C296.877 138.102 301.715 148.07 302.361 158.942C303.005 169.813 299.377 180.283 292.146 188.425C284.914 196.568 274.946 201.407 264.076 202.051C263.251 202.1 262.427 202.124 261.607 202.124Z" fill="#371A45"/>
<path d="M262.794 187.929C277.708 187.045 289.081 174.238 288.196 159.324C287.313 144.41 274.505 133.036 259.592 133.92C244.678 134.804 233.304 147.611 234.187 162.525C235.073 177.44 247.88 188.813 262.794 187.929Z" fill="#22A7F0"/>
<path d="M261.223 142.817C260.858 142.817 260.492 142.828 260.123 142.851C255.292 143.136 250.865 145.284 247.653 148.9C244.442 152.516 242.832 157.165 243.12 161.993C243.405 166.82 245.553 171.248 249.17 174.46C252.785 177.67 257.439 179.281 262.262 178.997C267.09 178.71 271.518 176.563 274.73 172.946C277.942 169.329 279.553 164.679 279.266 159.849C278.979 155.021 276.832 150.595 273.216 147.384C269.876 144.418 265.653 142.817 261.223 142.817ZM261.164 182.869C255.79 182.869 250.669 180.928 246.619 177.33C242.237 173.438 239.632 168.071 239.286 162.22C238.938 156.369 240.89 150.732 244.783 146.35C248.674 141.968 254.042 139.363 259.896 139.017C265.747 138.673 271.383 140.621 275.765 144.512C280.148 148.404 282.753 153.771 283.098 159.622C283.447 165.474 281.494 171.113 277.601 175.496C273.707 179.879 268.341 182.484 262.488 182.829C262.046 182.855 261.603 182.869 261.164 182.869Z" fill="#371A45"/>
<path d="M261.227 135.792C260.722 135.792 260.215 135.806 259.706 135.837C253.005 136.234 246.859 139.216 242.402 144.236C237.945 149.255 235.709 155.71 236.106 162.411C236.926 176.245 248.854 186.817 262.68 186.012C276.513 185.192 287.1 173.27 286.281 159.437C285.884 152.736 282.9 146.59 277.881 142.133C273.242 138.014 267.379 135.792 261.227 135.792ZM261.174 189.896C245.975 189.896 233.183 178.005 232.272 162.639C231.326 146.691 243.531 132.949 259.479 132.003C267.208 131.549 274.645 134.122 280.431 139.262C286.218 144.4 289.656 151.485 290.115 159.209C291.06 175.157 278.855 188.9 262.907 189.845C262.327 189.88 261.748 189.896 261.174 189.896Z" fill="#371A45"/>
<path d="M262.376 180.914C251.336 181.567 241.856 173.148 241.204 162.107C240.546 151.068 248.965 141.588 260.009 140.935C271.05 140.278 280.53 148.696 281.182 159.736C281.84 170.782 273.416 180.261 262.376 180.914ZM288.195 159.324C287.311 144.41 274.505 133.034 259.591 133.918C244.679 134.8 233.302 147.612 234.186 162.525C235.074 177.439 247.881 188.809 262.794 187.927C277.707 187.043 289.083 174.237 288.195 159.324Z" fill="#898989"/>
<path d="M261.224 142.819C260.859 142.819 260.493 142.83 260.124 142.853C255.293 143.138 250.865 145.286 247.653 148.901C244.443 152.518 242.833 157.167 243.12 161.995C243.405 166.822 245.554 171.25 249.17 174.462C252.785 177.672 257.439 179.283 262.263 178.999C267.091 178.712 271.519 176.565 274.73 172.948C277.942 169.331 279.554 164.681 279.266 159.851C278.98 155.023 276.832 150.597 273.216 147.386C269.876 144.42 265.654 142.819 261.224 142.819ZM261.165 182.871C255.791 182.871 250.67 180.93 246.62 177.332C242.238 173.44 239.633 168.073 239.286 162.222C238.938 156.371 240.89 150.734 244.783 146.352C248.675 141.97 254.043 139.365 259.896 139.019C265.747 138.674 271.383 140.623 275.765 144.514C280.149 148.406 282.753 153.773 283.099 159.624C283.448 165.476 281.495 171.114 277.602 175.498C273.709 179.881 268.341 182.486 262.49 182.831C262.046 182.857 261.604 182.871 261.165 182.871ZM261.224 135.791C260.72 135.791 260.213 135.806 259.706 135.835C253.005 136.232 246.859 139.215 242.401 144.235C237.943 149.257 235.706 155.711 236.103 162.413C236.897 175.74 247.996 186.054 261.178 186.055C261.676 186.055 262.177 186.041 262.681 186.011C269.381 185.614 275.527 182.631 279.984 177.612C284.442 172.593 286.677 166.139 286.279 159.438H286.278C285.882 152.737 282.898 146.592 277.88 142.133C273.241 138.013 267.376 135.791 261.224 135.791ZM261.176 189.896C245.979 189.896 233.184 178.004 232.27 162.64C231.811 154.915 234.39 147.473 239.53 141.686C244.669 135.899 251.754 132.46 259.478 132.002C267.204 131.545 274.644 134.123 280.43 139.262C286.216 144.401 289.654 151.486 290.111 159.211C290.571 166.935 287.995 174.376 282.855 180.163C277.716 185.949 270.632 189.387 262.907 189.844C262.327 189.878 261.749 189.896 261.176 189.896Z" fill="#371A45"/>
<path d="M261.223 142.817C260.858 142.817 260.492 142.828 260.123 142.851C255.292 143.136 250.865 145.284 247.653 148.9C244.442 152.516 242.832 157.165 243.12 161.993C243.405 166.82 245.553 171.248 249.17 174.46C252.785 177.67 257.439 179.281 262.262 178.997C267.09 178.71 271.518 176.563 274.73 172.946C277.942 169.329 279.553 164.679 279.266 159.849C278.979 155.021 276.832 150.595 273.216 147.384C269.876 144.418 265.653 142.817 261.223 142.817ZM261.164 182.869C255.79 182.869 250.669 180.928 246.619 177.33C242.237 173.438 239.632 168.071 239.286 162.22C238.938 156.369 240.89 150.732 244.783 146.35C248.674 141.968 254.042 139.363 259.896 139.017C265.747 138.673 271.383 140.621 275.765 144.512C280.148 148.404 282.753 153.771 283.098 159.622C283.447 165.474 281.494 171.113 277.601 175.496C273.707 179.879 268.341 182.484 262.488 182.829C262.046 182.855 261.603 182.869 261.164 182.869Z" fill="#371A45"/>
<path d="M273.36 284.735C273.36 306.493 261.102 324.132 261.102 324.132C261.102 324.132 248.845 306.493 248.845 284.735C248.845 262.977 261.102 245.338 261.102 245.338C261.102 245.338 273.36 262.977 273.36 284.735Z" fill="#22A7F0"/>
<path d="M273.36 284.735C273.36 306.493 261.102 324.132 261.102 324.132C261.102 324.132 248.845 306.493 248.845 284.735C248.845 262.977 261.102 245.338 261.102 245.338C261.102 245.338 273.36 262.977 273.36 284.735Z" fill="#F73939"/>
<path d="M251.828 265.485L251.826 265.484C252.801 262.255 253.923 259.307 255.04 256.723C253.923 259.308 252.803 262.256 251.828 265.485ZM261.687 246.229C261.335 245.674 261.124 245.368 261.104 245.339C261.105 245.339 261.105 245.338 261.105 245.338C261.105 245.338 261.317 245.645 261.687 246.229Z" fill="#EDEBEF"/>
<path d="M261.105 285.538C261.105 285.538 260.284 267.826 259.895 253.292C257.096 256.066 252.891 266.155 252.891 266.155L251.828 265.484C252.803 262.255 253.923 259.308 255.04 256.723C256.826 252.594 258.603 249.393 259.77 247.451C260.582 246.096 261.094 245.354 261.104 245.339C261.125 245.367 261.335 245.673 261.687 246.229C261.892 246.551 262.144 246.957 262.434 247.441C264.325 250.594 267.843 257.089 270.378 265.488L269.312 266.155C269.312 266.155 265.107 256.056 262.309 253.287C261.925 267.821 261.105 285.538 261.105 285.538Z" fill="#FDC3C3"/>
<path d="M273.359 284.731C273.359 306.494 261.105 324.128 261.105 324.128C261.105 324.128 248.845 306.494 248.845 284.731C248.845 281.064 249.191 277.512 249.771 274.148C252.632 290.764 256.067 307.9 261.105 307.9C266.141 307.9 269.576 290.764 272.432 274.148C273.013 277.512 273.359 281.064 273.359 284.731Z" fill="#D82345"/>
<path d="M261.104 248.971C257.866 254.522 250.765 268.542 250.765 284.734C250.765 300.923 257.864 314.941 261.103 320.495C264.343 314.941 271.44 300.923 271.44 284.734C271.44 268.511 264.344 254.516 261.104 248.971ZM261.103 326.052C260.475 326.052 259.886 325.743 259.527 325.227C259.012 324.487 246.925 306.84 246.925 284.734C246.925 262.628 259.012 244.982 259.527 244.242C259.886 243.724 260.475 243.417 261.103 243.417C261.732 243.417 262.321 243.724 262.68 244.242C263.194 244.982 275.28 262.628 275.28 284.734C275.28 306.84 263.194 324.487 262.68 325.227C262.321 325.743 261.732 326.052 261.103 326.052Z" fill="#371A45"/>
<path d="M191.397 281.699C189.591 267.581 198.851 259.563 198.851 259.563C197.496 271.365 191.397 281.699 191.397 281.699Z" fill="#FDC3C3"/>
<path d="M126.716 229.131C126.716 229.131 145.693 239.451 153.843 231.454C166.413 219.118 151.422 194.34 151.422 194.34L126.716 229.131Z" fill="#D8D8D8"/>
<path d="M129.575 228.42C135.574 231.239 147.3 235.184 152.498 230.084C161.568 221.182 154.472 204.427 151.202 197.965L129.575 228.42ZM145.13 236.396C136.202 236.396 126.379 231.134 125.798 230.817C125.315 230.555 124.969 230.099 124.845 229.564C124.72 229.029 124.832 228.466 125.149 228.019L149.856 193.228C150.231 192.7 150.848 192.406 151.492 192.42C152.139 192.444 152.729 192.792 153.065 193.346C153.709 194.41 168.688 219.576 155.187 232.824C152.5 235.461 148.895 236.396 145.13 236.396Z" fill="#371A45"/>
<path d="M75.2468 184.748C72.0349 189.509 67.5851 194.712 64.077 198.592C60.8896 202.11 58.4804 204.539 58.4804 204.539C58.4804 204.539 16.5624 207.471 5.02812 176.593C3.68423 172.998 2.84419 169.373 2.39295 165.822C-0.126927 146.248 8.93528 128.724 8.93528 128.724L31.5765 139.393L38.1094 161.108C38.1094 161.108 42.967 163.431 51.3859 166.158C57.899 168.275 66.544 170.632 76.7243 172.346C81.4911 173.147 79.4126 178.57 75.2468 184.748Z" fill="white"/>
<path d="M50.6415 202.502C38.3201 201.653 14.769 197.187 6.82468 175.924C6.45592 174.937 6.12748 173.949 5.83566 172.958C11.5145 182.436 24.5548 196.604 52.0512 197.699C51.5845 199.202 51.1092 200.811 50.6415 202.502Z" fill="#C5BDC9"/>
<path d="M61.2997 177.009C58.2218 174.575 55.4954 171.802 53.1992 168.758C55.9772 169.613 59.0773 170.488 62.4662 171.333C63.0636 171.663 63.6647 171.984 64.2695 172.296L61.3021 177.006L61.2997 177.009Z" fill="#C5BDC9"/>
<path d="M122.022 180.187C114.077 185.113 104.381 188.006 93.9232 188.006C81.3853 188.006 69.9524 183.845 61.3025 177.005L74.8004 155.584L121.815 179.827C121.883 179.948 121.954 180.068 122.022 180.187Z" fill="#D8D8D8"/>
<path d="M55.5114 206.539C51.4564 206.539 43.9011 206.183 35.5919 204.003C19.364 199.746 8.17271 190.502 3.22823 177.268C-5.71191 153.339 6.69631 128.87 7.22905 127.84C7.71606 126.899 8.87409 126.53 9.8164 127.017C10.7581 127.504 11.127 128.663 10.6399 129.604C10.4871 129.902 -1.4977 153.646 6.82526 175.923C16.9175 202.935 52.1973 202.839 57.6428 202.657C68.1771 191.957 78.6365 178.443 77.4773 174.835C77.4355 174.704 77.3372 174.395 76.4055 174.239C53.0776 170.309 37.9129 163.143 37.2787 162.84C36.7908 162.607 36.4242 162.178 36.2681 161.661L29.7354 139.948C29.4299 138.934 30.0056 137.862 31.0211 137.557C32.036 137.254 33.107 137.828 33.4129 138.843L39.6943 159.72C43.0387 161.203 57.1536 167.101 77.0434 170.452C79.8583 170.926 80.8146 172.667 81.1342 173.661C81.8791 175.981 81.6628 180.536 71.2268 193.257C65.7421 199.942 59.8997 205.836 59.8419 205.894C59.5137 206.224 59.0773 206.424 58.6139 206.455C58.4763 206.465 57.3552 206.539 55.5114 206.539Z" fill="#371A45"/>
<path d="M135.855 234.232C135.365 243.168 132.946 251.266 127.671 257.127C109.301 277.537 60.1073 273.548 50.2383 247.806C48.6206 243.591 48.0255 237.826 48.1406 231.36C48.4239 215.405 53.0419 195.164 57.3379 183.3L74.8 155.585L121.815 179.828C129.351 192.899 136.882 215.415 135.855 234.232Z" fill="white"/>
<path d="M93.9232 188.006C81.3865 188.006 69.9512 183.844 61.3025 177.005L64.2698 172.296C74.3468 177.5 85.508 180.292 97.038 180.422C97.3354 180.426 97.6329 180.428 97.9304 180.428C99.3218 180.428 100.723 180.389 102.129 180.309C102.321 180.299 102.51 180.287 102.702 180.275L100.286 187.645C98.2033 187.883 96.0792 188.006 93.9232 188.006Z" fill="#C5BDC9"/>
<path d="M92.6256 270.132C92.5948 270.132 92.5617 270.132 92.5309 270.132C91.2476 270.13 89.9644 270.091 88.6835 270.014C88.5225 270.004 88.3627 269.995 88.2017 269.984C86.9208 269.896 85.6437 269.773 84.3764 269.612C70.5294 267.853 57.7026 261.647 51.8426 251.22C52.2309 251.011 52.4908 250.562 52.2936 250.041C51.49 248.037 50.9491 245.97 50.6382 243.843C50.5292 243.132 50.4379 242.42 50.3624 241.707C53.6597 242.463 61.2353 243.99 68.6733 243.99C72.2036 243.99 75.7019 243.645 78.6974 242.712L78.7233 243.986C78.7245 244.044 78.7269 244.1 78.7282 244.157L78.7589 245.619C78.8105 248.192 79.8677 250.598 81.736 252.391C83.554 254.135 85.919 255.091 88.4143 255.091C88.4832 255.091 88.552 255.089 88.6208 255.088L90.1377 255.057C90.177 255.056 90.2176 255.056 90.2569 255.055L117.12 254.503L121.192 254.418L122.971 254.382C125.374 254.332 127.589 253.533 129.396 252.212C128.681 253.667 127.872 255.093 126.957 256.487C126.714 256.84 126.727 257.326 127.02 257.668C127.045 257.695 127.069 257.722 127.096 257.747C119.158 266.067 105.959 270.132 92.6256 270.132Z" fill="#C5BDC9"/>
<path d="M50.5832 250.905C42.0848 237.167 47.5368 212.162 52.1136 197.503C52.4808 196.406 54.1698 196.784 53.978 197.964C52.4636 206.702 51.1891 215.493 50.5594 224.314C50.1243 230.849 49.6485 237.38 50.6394 243.843C50.9502 245.97 51.4911 248.037 52.2947 250.041C52.696 251.103 51.2031 251.865 50.5832 250.905Z" fill="#371A45"/>
<path d="M107.095 269.447C98.698 272.919 88.6431 272.827 80.1013 269.899C79.0799 269.521 79.3823 267.98 80.4676 268.015C86.8116 268.262 93.775 268.359 100.075 267.952C102.249 267.832 104.425 267.672 106.658 267.579C107.722 267.531 108.066 269.023 107.095 269.447Z" fill="#371A45"/>
<path d="M123.479 178.87C134.252 197.372 143.107 228.524 134.596 249.115C133.147 252.38 131.093 255.449 128.385 257.773C127.979 258.121 127.368 258.075 127.021 257.669C126.728 257.328 126.715 256.841 126.958 256.488C138.135 239.428 133.885 217.419 128.043 199.152C125.917 192.81 123.329 186.6 120.146 180.776C119.014 178.586 122.126 176.754 123.479 178.87Z" fill="#371A45"/>
<path d="M137.38 233.689C137.38 237.211 134.525 240.065 131.005 240.065C127.483 240.065 124.629 237.211 124.629 233.689C124.629 230.169 127.483 227.313 131.005 227.313C134.525 227.313 137.38 230.169 137.38 233.689Z" fill="white"/>
<path d="M131.004 229.233C128.547 229.233 126.549 231.231 126.549 233.688C126.549 236.146 128.547 238.144 131.004 238.144C133.462 238.144 135.46 236.146 135.46 233.688C135.46 231.231 133.462 229.233 131.004 229.233ZM131.004 241.984C126.431 241.984 122.708 238.262 122.708 233.688C122.708 229.115 126.431 225.393 131.004 225.393C135.578 225.393 139.3 229.115 139.3 233.688C139.3 238.262 135.578 241.984 131.004 241.984Z" fill="#371A45"/>
<path d="M124.566 252.429L88.5831 253.167C84.3239 253.256 80.7641 249.842 80.6756 245.578L80.2835 226.43C80.206 222.696 82.8156 219.505 86.3275 218.711C86.8253 218.596 87.3416 218.534 87.8726 218.522L123.85 217.783C128.116 217.695 131.674 221.108 131.758 225.372L132.072 240.538L132.155 244.521C132.243 248.786 128.825 252.34 124.566 252.429Z" fill="white"/>
<path d="M124.566 252.429L88.5831 253.167C84.3239 253.256 80.7641 249.842 80.6756 245.578L80.2835 226.43C80.206 222.696 82.8156 219.505 86.3275 218.711C86.8253 218.596 87.3416 218.534 87.8726 218.522L123.85 217.783C128.116 217.695 131.674 221.108 131.758 225.372L132.072 240.538L132.155 244.521C132.243 248.786 128.825 252.34 124.566 252.429Z" fill="white"/>
<path d="M124.566 252.429L88.5831 253.167C84.3239 253.256 80.7641 249.842 80.6756 245.578L80.2835 226.43C80.206 222.696 82.8156 219.505 86.3275 218.711C86.8253 218.596 87.3416 218.534 87.8726 218.522L123.85 217.783C128.116 217.695 131.674 221.108 131.758 225.372L132.072 240.538L132.155 244.521C132.243 248.786 128.825 252.34 124.566 252.429Z" fill="white"/>
<path d="M97.6534 250.923C96.1317 250.923 94.7058 250.356 93.6008 249.295C92.4723 248.211 91.8332 246.762 91.8024 245.213L91.6439 237.485H92.5658C92.8423 238.846 93.4139 240.097 94.2362 241.116C95.4691 242.643 97.1151 243.481 98.879 243.481C98.9072 243.481 98.9355 243.481 98.9625 243.481L101.765 243.439C102.639 243.426 103.426 243.03 103.951 242.4C106.978 243.267 110.661 243.699 115.163 243.699C115.263 243.699 115.363 243.699 115.462 243.699C122.215 243.668 126.91 242.747 130.171 241.449L130.202 242.928C130.285 247.043 127.007 250.459 122.893 250.544L121.075 250.581C119.751 250.601 97.7579 250.922 97.7469 250.923C97.7149 250.923 97.6842 250.923 97.6534 250.923Z" fill="#C5BDC9"/>
<path d="M122.415 219.733C122.363 219.733 122.311 219.733 122.26 219.734L89.5456 220.407C87.5629 220.447 85.7081 221.265 84.3215 222.709C82.9362 224.152 82.1962 226.04 82.2368 228.021L82.5625 243.907C82.6473 248.021 86.051 251.288 90.1787 251.215L122.893 250.543C127.007 250.458 130.285 247.042 130.202 242.927L129.875 227.043C129.834 225.06 129.017 223.204 127.572 221.819C126.167 220.47 124.341 219.733 122.415 219.733ZM90.0226 255.057C83.8962 255.057 78.8503 250.139 78.7237 243.985L78.398 228.101C78.2689 221.869 83.2349 216.696 89.4657 216.568L122.18 215.895C125.194 215.827 128.048 216.954 130.231 219.05C132.415 221.145 133.652 223.955 133.713 226.963L134.04 242.848C134.168 249.079 129.202 254.253 122.971 254.382L90.2574 255.054C90.1787 255.055 90.1012 255.057 90.0226 255.057Z" fill="#371A45"/>
<path d="M111.837 252.557L111.766 252.694L88.5812 253.169C85.459 253.229 82.7166 251.417 81.4407 248.759C80.9724 247.795 80.702 246.719 80.6811 245.579L80.5028 237.071L80.4438 234.264L80.3455 229.336L80.2853 226.431C80.198 222.166 83.6127 218.611 87.8719 218.523L95.6467 218.366C92.077 219.115 89.4146 222.331 89.4896 226.098L89.6039 231.782L89.7022 236.443L89.8792 245.257C89.9714 249.511 93.53 252.928 97.7879 252.844L111.837 252.557Z" fill="white"/>
<path d="M88.4342 251.25C86.9198 251.25 85.4964 250.677 84.395 249.62C83.2666 248.537 82.6286 247.089 82.5979 245.54L82.4811 239.851C83.3514 238.487 84.0951 236.56 83.5505 234.344C83.5505 234.343 83.5493 234.342 83.5493 234.341C83.5493 234.338 83.5481 234.336 83.5481 234.333C83.3416 233.496 82.9507 232.618 82.314 231.714L82.2648 229.328C83.3453 229.523 84.4171 230.127 85.1448 231.542C85.3059 231.855 85.4669 232.127 85.6279 232.36L84.7748 234.965C84.5831 235.55 84.6839 236.192 85.044 236.69C85.4054 237.187 85.9831 237.484 86.599 237.484H87.8024L87.9634 245.29C88.0064 247.477 88.7771 249.543 90.1538 251.215L88.5411 251.248C88.5055 251.248 88.4698 251.25 88.4342 251.25Z" fill="#C5BDC9"/>
<path d="M89.3124 220.41L87.9136 220.439C86.3648 220.472 84.9156 221.111 83.8326 222.238C82.7509 223.366 82.172 224.839 82.2052 226.387L82.5985 245.54C82.6292 247.089 83.2672 248.537 84.3956 249.62C85.5228 250.702 86.9868 251.276 88.5417 251.249L90.1544 251.215C88.7777 249.544 88.007 247.477 87.964 245.291L87.5706 226.141C87.5276 224.031 88.1705 222.043 89.3124 220.41ZM88.4151 255.09C85.9198 255.09 83.5548 254.135 81.7368 252.39C79.8684 250.597 78.8113 248.192 78.7597 245.619L78.3663 226.468C78.311 223.894 79.2698 221.448 81.0632 219.579C82.8554 217.712 85.2597 216.654 87.8337 216.6L95.6072 216.441L96.0411 220.239C93.3 220.817 91.3517 223.266 91.4094 226.062L91.8028 245.212C91.8335 246.761 92.4727 248.21 93.6011 249.294C94.7283 250.376 96.1898 250.945 97.7472 250.922C97.7595 250.92 120.496 250.588 121.124 250.579L123.05 250.539L123.086 252.47C123.107 253.868 122.141 254.263 121.192 254.379L121.193 254.417L88.6216 255.087C88.5528 255.089 88.4839 255.09 88.4151 255.09Z" fill="#371A45"/>
<path d="M103.877 235.541C103.887 236.25 102.976 241.982 102.976 241.982C102.976 241.982 101.166 242.007 98.9421 242.041C96.1629 242.082 93.8679 239.239 93.8163 235.69C93.7634 232.142 95.9736 229.231 98.7516 229.19C100.626 229.162 102.786 229.13 102.786 229.13C102.786 229.13 103.86 234.388 103.877 235.541Z" fill="#22A7F0"/>
<path d="M103.877 235.541C103.887 236.25 102.976 241.982 102.976 241.982C102.976 241.982 101.166 242.007 98.9421 242.041C96.1629 242.082 93.8679 239.239 93.8163 235.69C93.7634 232.142 95.9736 229.231 98.7516 229.19C100.626 229.162 102.786 229.13 102.786 229.13C102.786 229.13 103.86 234.388 103.877 235.541Z" fill="#1C7AEA"/>
<path d="M101.612 230.605L98.7723 230.629C97.8811 230.642 97.0281 231.128 96.3692 231.994C95.6304 232.967 95.2346 234.272 95.2555 235.667C95.2764 237.064 95.7104 238.355 96.4774 239.307C97.1608 240.154 98.0385 240.611 98.9198 240.6L101.722 240.558C102.242 237.314 102.429 235.839 102.437 235.552C102.428 235.152 102.207 233.648 101.612 230.605ZM98.8792 243.48C97.1153 243.48 95.4694 242.642 94.2365 241.115C93.0663 239.666 92.4062 237.746 92.3755 235.71C92.346 233.673 92.9496 231.736 94.0755 230.252C95.2814 228.664 96.9346 227.776 98.7305 227.75L101.547 227.708C101.561 227.708 101.575 227.708 101.59 227.708C102.977 227.708 104.171 228.688 104.438 230.052C105.011 232.98 105.307 234.819 105.317 235.518C105.32 235.726 105.326 236.213 104.59 240.982C104.374 242.384 103.186 243.416 101.765 243.438L98.9628 243.48C98.9358 243.48 98.9075 243.48 98.8792 243.48Z" fill="#371A45"/>
<path d="M107.911 235.481C107.964 239.03 105.754 241.94 102.976 241.982C100.198 242.022 97.9029 239.179 97.8501 235.63C97.7972 232.081 100.007 229.172 102.785 229.13C105.565 229.09 107.858 231.933 107.911 235.481Z" fill="#22A7F0"/>
<path d="M97.8511 235.633C97.904 239.178 100.198 242.022 102.977 241.982C105.756 241.938 107.964 239.03 107.911 235.48C107.904 234.921 107.84 234.376 107.727 233.863C107.028 236.267 105.23 237.985 103.099 238.017C100.761 238.054 98.762 236.044 98.1584 233.289C97.9495 234.015 97.8401 234.805 97.8511 235.633Z" fill="#1C7AEA"/>
<path d="M102.843 230.57C102.831 230.57 102.818 230.571 102.806 230.571C100.86 230.599 99.25 232.908 99.2906 235.61C99.3299 238.294 100.987 240.542 102.918 240.542C102.93 240.542 102.943 240.541 102.955 240.541C104.901 240.513 106.511 238.206 106.472 235.503C106.432 232.818 104.774 230.57 102.843 230.57ZM102.918 243.422C99.3852 243.422 96.4745 239.956 96.4105 235.653C96.3466 231.316 99.1959 227.744 102.764 227.691C102.79 227.69 102.817 227.69 102.843 227.69C106.376 227.69 109.288 231.156 109.352 235.46V235.461C109.416 239.796 106.565 243.368 102.998 243.421C102.971 243.422 102.944 243.422 102.918 243.422Z" fill="#371A45"/>
<path d="M113.378 253.96H113.373C112.578 253.958 111.935 253.311 111.937 252.516L111.968 242.825C111.975 240.088 113.346 237.556 115.632 236.053C117.145 235.058 118.029 233.383 117.998 231.574L117.765 217.915C117.751 217.119 118.386 216.464 119.181 216.449C119.966 216.437 120.631 217.07 120.645 217.866L120.878 231.524C120.926 234.326 119.557 236.918 117.215 238.46C115.738 239.431 114.853 241.066 114.847 242.833L114.817 252.524C114.815 253.318 114.171 253.96 113.378 253.96Z" fill="#371A45"/>
<path d="M49.7604 226.917C49.7604 226.917 44.9585 228.439 44.3486 232.665C43.4946 238.583 48.6536 241.291 48.6536 241.291C48.6536 241.291 69.6056 246.869 80.655 241.981C80.655 241.981 87.8299 236.109 80.2825 229.501C80.2825 229.501 63.9943 231.1 49.7604 226.917Z" fill="white"/>
<path d="M45.2291 237.809C44.854 237.124 44.5485 236.335 44.3844 235.437C44.5485 236.335 44.8541 237.124 45.2293 237.809H45.2291Z" fill="#371A45"/>
<path d="M46.7371 239.807C46.2162 239.285 45.6737 238.62 45.229 237.807H45.2291C45.6737 238.618 46.2162 239.283 46.737 239.807H46.7371Z" fill="#371A45"/>
<path d="M68.6734 243.989C61.2355 243.989 53.6599 242.462 50.3625 241.706C50.3625 241.706 50.3625 241.706 50.3624 241.705C53.6599 242.462 61.2355 243.988 68.6722 243.988C72.2037 243.988 75.7008 243.645 78.6976 242.71V242.712C75.702 243.645 72.2037 243.989 68.6734 243.989Z" fill="#9C8EA3"/>
<path d="M50.3627 241.707C49.2765 241.458 48.6543 241.293 48.6543 241.293C48.6543 241.293 47.7352 240.81 46.7372 239.808H46.7371C47.7348 240.81 48.6533 241.292 48.6533 241.292C48.6533 241.292 49.2757 241.457 50.3626 241.706C50.3627 241.707 50.3627 241.707 50.3627 241.707Z" fill="#371A45"/>
<path d="M78.698 242.712H78.699V242.711H78.698V242.712Z" fill="#371A45"/>
<path d="M82.4816 239.853V239.849C83.3507 238.486 84.0943 236.561 83.551 234.346C84.0956 236.562 83.3519 238.489 82.4816 239.853Z" fill="#9C8EA3"/>
<path d="M78.6986 242.712V242.711C79.3783 242.5 80.0323 242.258 80.6543 241.982C80.6543 241.982 81.6278 241.186 82.4808 239.848V239.852C81.6278 241.188 80.6543 241.983 80.6543 241.983C80.0323 242.259 79.3783 242.501 78.6986 242.712Z" fill="#371A45"/>
<path d="M68.6725 243.988C61.2358 243.988 53.6602 242.462 50.3627 241.705C49.2759 241.457 48.6534 241.291 48.6534 241.291C48.6534 241.291 47.7349 240.809 46.7372 239.807C46.2164 239.284 45.6739 238.619 45.2293 237.807C44.8542 237.123 44.5486 236.334 44.3845 235.435C44.2327 234.605 44.2018 233.683 44.3487 232.666C44.4784 231.778 44.7904 231.01 45.2081 230.347C45.6213 231.752 46.3759 232.851 47.1246 233.66C48.1138 234.729 49.4187 235.448 50.8377 235.777C54.0486 236.52 61.7471 238.096 69.3018 238.096C72.794 238.096 76.2555 237.761 79.2301 236.849C80.9314 236.327 82.3941 235.187 83.2976 233.653L83.3246 233.607C83.4144 233.852 83.4893 234.094 83.5483 234.334C83.5483 234.336 83.5496 234.339 83.5496 234.341C83.5496 234.342 83.5508 234.343 83.5508 234.345C84.0941 236.56 83.3504 238.485 82.4814 239.848C81.6283 241.185 80.6548 241.982 80.6548 241.982C80.0328 242.257 79.3789 242.499 78.6991 242.711H78.6979C75.7011 243.645 72.204 243.988 68.6725 243.988Z" fill="#C5BDC9"/>
<path d="M49.3851 239.497C51.6754 240.073 69.8454 244.432 79.6078 240.343C80.145 239.83 81.7909 238.087 81.8154 235.913C81.8327 234.441 81.0878 232.955 79.5992 231.486C76.0308 231.755 62.394 232.472 49.8565 228.943C48.84 229.397 46.5797 230.648 46.249 232.94C45.6731 236.93 48.6498 239.041 49.3851 239.497ZM68.6138 245.91C58.7002 245.91 48.7626 243.307 48.1597 243.146L47.9518 243.091L47.7615 242.992C47.5016 242.855 41.4123 239.571 42.4485 232.392C43.2213 227.036 48.9373 225.166 49.1804 225.088L49.7392 224.911L50.3018 225.076C63.9957 229.102 79.9348 227.607 80.0946 227.591L80.9218 227.511L81.5475 228.058C84.3206 230.486 85.7022 233.159 85.6555 236.001C85.5817 240.382 82.0232 243.344 81.8708 243.468L81.6704 243.633L81.4319 243.738C77.7837 245.353 73.2012 245.91 68.6138 245.91Z" fill="#371A45"/>
<path d="M175.972 110.711C175.624 118.995 174.011 126.968 170.313 130.043C167.655 132.252 147.753 134.381 147.753 134.381L157.731 81.3652C157.731 81.3652 159.082 81.5975 160.997 82.0339C164.976 82.946 171.396 84.7639 173.092 87.2777C174.937 90.009 176.394 100.595 175.972 110.711Z" fill="white"/>
<path d="M168.268 128.962C169.255 125.835 170.03 122.639 170.588 119.392C170.912 117.78 171.167 116.154 171.354 114.52C172.193 114.434 173.07 114.021 173.904 113.308C173.395 120.08 171.957 126.177 169.09 128.562C168.924 128.688 168.645 128.822 168.268 128.962Z" fill="#C5BDC9"/>
<path d="M159.264 83.61L150.121 132.183C158.651 131.168 167.717 129.607 169.09 128.561C176.345 122.527 174.451 92.7196 171.503 88.3547C170.253 86.5035 164.123 84.6142 159.264 83.61ZM145.389 136.568L156.196 79.1566L158.056 79.4737C160.336 79.8621 171.854 82.0108 174.686 86.2061C176.916 89.5089 178.038 99.8896 177.96 107.979C177.895 114.831 176.975 126.998 171.54 131.517C168.661 133.912 152.763 135.777 147.959 136.293L145.389 136.568Z" fill="#371944"/>
<path d="M26.3344 110.794C28.5678 150.361 62.4537 180.626 102.021 178.393C141.588 176.159 171.853 142.274 169.62 102.706C167.386 63.1387 133.501 32.8744 93.9337 35.1066C54.3655 37.3401 24.1011 71.2268 26.3344 110.794Z" fill="white"/>
<path d="M30.512 131.226C41.0236 160.252 69.6144 180.222 102.019 178.393C141.586 176.159 171.852 142.271 169.619 102.704C168.746 87.2545 163.05 73.2194 154.073 61.993C149.976 98.0235 106.23 128.292 51.2468 131.395C44.1819 131.794 37.2441 131.725 30.512 131.226Z" fill="#D8D8D8"/>
<path d="M98.0208 36.911C96.6994 36.911 95.3768 36.9479 94.0418 37.0229C55.5947 39.1924 26.0813 72.2372 28.2514 110.684C30.3462 147.797 61.2134 176.583 97.9335 176.587C99.2549 176.587 100.578 176.55 101.912 176.474C140.36 174.304 169.873 141.26 167.703 102.814C165.609 65.7015 134.741 36.911 98.0208 36.911ZM97.8831 180.428C79.7695 180.428 62.5164 173.862 48.8986 161.699C34.2208 148.589 25.5266 130.55 24.4174 110.901C23.3087 91.2518 29.9174 72.3478 43.0266 57.6699C56.1356 42.9919 74.1767 34.2977 93.8255 33.189C113.471 32.0839 132.377 38.6884 147.056 51.7979C161.733 64.9074 170.427 82.9485 171.537 102.596C172.646 122.245 166.036 141.149 152.928 155.827C139.819 170.505 121.778 179.199 102.129 180.308C100.71 180.388 99.293 180.428 97.8831 180.428Z" fill="#371A45"/>
<path d="M28.2494 110.685C29.3008 129.309 37.5424 146.408 51.4562 158.836C65.3707 171.263 83.2926 177.532 101.913 176.476C110.907 175.968 119.566 173.787 127.65 169.99C148.123 160.373 162.728 141.372 166.716 119.161C167.614 114.179 167.964 109.059 167.756 103.943C167.742 103.569 167.726 103.188 167.705 102.813C166.591 83.0822 157.111 64.6662 141.696 52.2894C128.229 41.4686 111.302 36.0466 94.0407 37.0226C55.5961 39.1922 26.0835 72.2406 28.2494 110.685ZM97.93 180.429C59.1878 180.429 26.6257 150.057 24.4154 110.902C22.1263 70.3403 53.2631 35.4775 93.8244 33.1875C112.036 32.1599 129.893 37.8806 144.1 49.295C160.363 62.3529 170.363 81.7805 171.539 102.597C171.561 102.992 171.577 103.391 171.594 103.786C171.813 109.183 171.443 114.584 170.496 119.84C166.287 143.274 150.88 163.321 129.282 173.466C120.751 177.472 111.616 179.775 102.129 180.31C100.723 180.39 99.3214 180.429 97.93 180.429Z" fill="#371A45"/>
<path d="M105.24 42.706C103.803 42.706 102.36 42.7466 100.914 42.8289C82.1518 43.8873 64.9023 51.7026 52.346 64.833C39.8237 77.9265 33.4694 94.7457 34.4543 112.191C36.4144 146.913 67.1973 173.757 104.006 173.759C105.429 173.759 106.858 173.72 108.297 173.639C114.963 173.262 121.507 172.019 127.752 169.944C148.171 160.312 162.734 141.336 166.716 119.161C167.718 114.375 168.082 109.515 167.809 104.663C167.797 104.454 167.787 104.263 167.766 104.069C167.761 104.027 167.759 103.987 167.757 103.945C167.741 103.57 167.725 103.189 167.705 102.814C166.593 83.1309 157.158 64.758 141.809 52.3811C130.776 46.0175 118.215 42.706 105.24 42.706ZM104.005 177.599C65.174 177.599 32.6958 149.173 30.6203 112.407C29.575 93.889 36.3053 76.0507 49.5713 62.1779C62.8028 48.3419 80.9595 40.1087 100.697 38.9951C116.003 38.1322 130.924 41.6366 143.86 49.1311C143.944 49.1803 144.024 49.2343 144.1 49.2946C160.362 62.3537 170.363 81.7813 171.538 102.598C171.559 102.973 171.575 103.353 171.591 103.728C171.615 103.962 171.628 104.193 171.642 104.429C171.935 109.635 171.546 114.832 170.486 119.895C166.287 143.275 150.88 163.322 129.282 173.467C129.214 173.498 129.146 173.527 129.074 173.55C122.475 175.755 115.558 177.074 108.515 177.473C107.003 177.557 105.499 177.599 104.005 177.599Z" fill="#371A45"/>
<path d="M39.486 111.906C41.3823 145.5 72.0763 171.094 108.039 169.064C138.525 167.343 163.014 146.326 168.607 119.5C169.616 114.679 170.015 109.671 169.726 104.554C169.712 104.323 169.7 104.097 169.675 103.865C167.407 70.6093 136.887 45.3848 101.173 47.4007C65.2088 49.4313 37.5899 78.3103 39.486 111.906Z" fill="#371A45"/>
<path d="M39.486 111.906C41.3823 145.5 72.0763 171.094 108.039 169.064C135.087 167.537 157.415 150.821 166.009 128.33C153.878 142.718 135.486 152.399 114.454 153.587C77.2071 155.689 45.1807 130.397 40.7397 96.3342C39.6275 101.348 39.1849 106.569 39.486 111.906Z" fill="#220F2D"/>
<path d="M153.276 119.747C153.276 119.747 153.569 112.955 149.048 100.265C147.559 96.093 145.685 91.4257 141.685 85.4984C138.66 81.0168 134.484 77.3943 129.57 75.0477C129.545 75.0354 129.521 75.0244 129.496 75.0121C120.8 70.8672 110.999 69.5667 102.118 69.5667C87.1426 69.5667 74.7867 73.2678 74.7867 73.2678C73.3706 72.3877 89.1807 57.6004 112.982 57.6004C114.964 57.6004 117.006 57.7036 119.095 57.9261C133.619 59.47 143.772 70.2145 149.783 79.0758C151.778 82.0124 153.313 84.7425 154.401 86.8629L154.411 86.8764C154.525 87.121 154.635 87.3644 154.74 87.6139C155.2 88.6919 155.614 89.7564 155.977 90.8012C159.638 101.408 158.218 110.47 153.276 119.747Z" fill="#9B8DA2"/>
<path d="M62.9454 121.112C57.8245 121.112 53.4301 116.56 52.9704 110.609C52.4898 104.392 56.4884 99.0021 61.8994 98.5694C62.1317 98.5497 62.3628 98.5411 62.5914 98.5411C67.7123 98.5411 72.1079 103.092 72.5676 109.043C73.047 115.261 69.0497 120.651 63.6375 121.084C63.4064 121.102 63.1753 121.112 62.9454 121.112Z" fill="#9B8DA2"/>
<path d="M64.3211 137.561C64.3162 137.561 64.3125 137.561 64.3076 137.561C64.2302 137.561 64.154 137.557 64.079 137.552C62.8473 136.547 61.6538 135.5 60.5008 134.416C60.3606 133.935 60.2857 133.42 60.2906 132.883C60.3127 130.312 62.1405 128.234 64.3752 128.234C64.3801 128.234 64.3838 128.234 64.3888 128.234C66.6296 128.241 68.4279 130.336 68.4058 132.912C68.3837 135.482 66.5558 137.561 64.3211 137.561Z" fill="#9B8DA2"/>
<path d="M64.0787 137.552C62.4057 137.439 61.013 136.161 60.5004 134.415C61.6534 135.499 62.847 136.547 64.0787 137.552Z" fill="#918796"/>
<path d="M22.8135 101.131L27.7022 128.976L30.7474 146.32L40.5624 146.233L41.49 146.224C45.7226 145.392 47.2216 133.706 44.839 120.145C44.7871 119.839 44.7283 119.527 44.6699 119.222C42.2163 106.122 36.9993 96.2973 32.8653 97.1159L31.998 97.4613L22.8135 101.131Z" fill="white"/>
<path d="M30.7469 146.32L27.7017 128.976L35.0973 118.943C35.0973 118.943 37.316 124.812 39.9029 124.812C40.1179 124.812 40.3357 124.772 40.5546 124.683C43.2537 123.607 43.9294 117.644 43.9294 117.644L44.6694 119.222C44.7278 119.527 44.7867 119.839 44.8385 120.145C45.6064 124.515 45.9711 128.691 45.971 132.371C45.971 133.353 45.9451 134.301 45.8938 135.207C45.7233 138.222 45.2734 140.781 44.5706 142.678C43.957 144.333 43.1502 145.484 42.1692 145.985C41.9511 146.097 41.7246 146.177 41.4896 146.224L40.5619 146.233L40.3397 146.235L35.812 146.276H35.7611L35.649 146.277L31.6494 146.312L30.7469 146.32Z" fill="#C5BDC9"/>
<path d="M24.974 102.335L32.3577 144.388L41.2379 144.308C43.1889 143.591 45.4751 134.873 42.9476 120.479C40.9591 109.154 37.0774 101.284 34.2705 99.3601C34.0562 99.2138 33.6733 98.9864 33.3544 98.9852L24.974 102.335ZM30.7477 148.243C29.8165 148.243 29.0182 147.573 28.8571 146.655L20.9224 101.463C20.7652 100.568 21.257 99.6858 22.1009 99.3478L32.1521 95.3307C32.2622 95.2865 32.3763 95.2521 32.4931 95.2287C33.3925 95.0505 34.8068 95.0726 36.4409 96.1924C40.6815 99.0983 44.72 108.37 46.7295 119.815C49.0342 132.94 48.1024 146.873 41.8631 148.109C41.7457 148.133 41.6263 148.145 41.5065 148.146L30.7651 148.243H30.7477Z" fill="#371A45"/>
<path d="M19.2296 121.863L19.2371 121.878C19.3689 122.946 19.5346 124.027 19.7282 125.129C21.9179 137.603 26.8495 147.098 30.7472 146.32C34.5274 145.571 35.9468 135.408 34.0095 123.372C33.9553 123.029 33.8941 122.678 33.8327 122.328C31.643 109.854 26.7049 100.361 22.8133 101.13C19.2627 101.837 17.804 110.823 19.2296 121.863Z" fill="white"/>
<path d="M19.2374 121.878C19.3692 122.946 19.5349 124.027 19.7285 125.129C21.9182 137.603 26.8498 147.098 30.7475 146.32C34.5276 145.571 35.9471 135.408 34.0098 123.372C32.8468 127.985 30.2328 136.187 26.5993 134.351C24.4777 133.273 21.4661 127.084 19.2374 121.878Z" fill="#D8D8D8"/>
<path d="M21.6172 124.793C23.4395 135.172 26.9814 142.375 29.5383 144.126C29.8822 144.362 30.1874 144.479 30.3723 144.439C31.9304 144.13 34.3429 136.348 31.9397 122.662C30.1178 112.284 26.576 105.081 24.0189 103.329C23.6752 103.093 23.3695 102.979 23.1846 103.017C21.6267 103.325 19.2149 111.109 21.6172 124.793ZM30.3032 148.285C29.5035 148.285 28.4889 148.062 27.3682 147.294C23.4331 144.598 19.6911 136.027 17.8354 125.457C15.768 113.685 16.3268 100.461 22.438 99.2492C23.2944 99.0796 24.6406 99.1004 26.1892 100.161C30.1244 102.857 33.8663 111.428 35.7216 121.997C37.789 133.77 37.2304 146.994 31.1189 148.206C30.8824 148.253 30.6084 148.285 30.3032 148.285Z" fill="#371A45"/>
<path d="M1.99365 161.108C1.9178 147.699 3.98582 138.069 8.93448 128.724C14.4332 118.339 33.4674 111.948 37.3198 118.459C40.0016 122.992 35.1012 125.764 33.4734 126.532C33.2141 126.654 33.1188 126.97 33.2683 127.214C34.2499 128.818 37.3568 134.388 37.4346 140.724C37.5085 146.737 36.025 152.202 28.6593 154.675" fill="white"/>
<path d="M0.0738016 161.118C-0.0124887 151.137 1.21635 140.871 5.37525 131.661C6.13957 129.983 6.87414 128.414 7.82506 126.805C10.4901 122.587 14.5806 119.459 18.9587 117.224C23.4048 115.042 28.3743 113.397 33.4235 114.086C37.4148 114.573 40.6978 118.059 39.8812 122.294C39.27 125.105 36.8631 126.972 34.5341 128.148L34.3098 128.259C34.8198 128.044 35.2456 127.31 35.0938 126.689C35.0799 126.532 34.9668 126.309 34.9176 126.223L34.9327 126.248L35.0543 126.448C39.0196 133.02 40.9968 141.472 37.8022 148.776C36.7067 151.129 34.752 153.171 32.4416 154.303C31.3223 154.903 30.1397 155.277 28.9649 155.583C28.4509 155.717 27.9256 155.408 27.7919 154.895C27.6685 154.423 27.9195 153.944 28.354 153.762C31.3184 152.416 33.6649 150.463 34.7193 147.476C36.6482 141.078 34.9482 133.94 31.6483 128.249C30.8236 126.994 31.4433 125.234 32.8305 124.708C34.4323 123.872 36.4858 122.503 36.1272 120.571C35.7606 118.946 34.5342 118.13 32.8039 117.876C25.8543 117.151 17.6964 121.35 12.966 126.359C11.1154 128.338 9.9962 130.773 8.88573 133.216C6.84992 137.79 5.51157 142.646 4.76667 147.618C4.11285 152.049 3.8959 156.567 3.91372 161.103C3.86381 163.616 0.161321 163.675 0.0738016 161.118Z" fill="#371A45"/>
<path d="M38.1064 161.108C38.1064 161.108 40.215 169.067 40.215 173.726L38.1064 161.108Z" fill="white"/>
<path d="M39.9629 160.616C40.5419 163.87 40.9912 167.087 41.173 170.383C41.2248 171.485 41.2491 172.594 41.1754 173.726C41.1409 174.255 40.6833 174.657 40.1532 174.623C39.6648 174.591 39.2859 174.199 39.2555 173.726C38.8252 169.647 37.5392 165.505 36.2496 161.596C35.463 158.98 39.3534 157.948 39.9629 160.616Z" fill="#371A45"/>
<path d="M141.342 170.676C140.915 173.327 138.142 175.744 135.525 175.744C134.913 175.744 134.067 175.61 133.523 174.969C133.067 174.433 132.9 173.621 133.055 172.678C133.481 170.027 136.254 167.615 138.868 167.615C139.482 167.615 140.329 167.749 140.872 168.386C141.325 168.922 141.493 169.734 141.342 170.676ZM138.868 161.334C133.154 161.334 127.773 165.965 126.852 171.677C125.926 177.393 129.813 182.025 135.525 182.025C141.241 182.025 146.623 177.393 147.545 171.677C148.465 165.965 144.583 161.334 138.868 161.334Z" fill="#DDDCDB"/>
<path d="M145.64 168.656C144.172 166.09 141.405 164.425 137.977 164.425C135.802 164.425 133.673 165.097 131.822 166.247C133.716 164.411 136.252 163.251 138.868 163.251C141.035 163.251 142.925 164.071 144.193 165.558C144.94 166.436 145.428 167.493 145.64 168.656Z" fill="#F5F4F4"/>
<path d="M138.867 169.533C137.202 169.533 135.224 171.274 134.95 172.983C134.872 173.451 134.958 173.687 134.987 173.725C135.009 173.743 135.172 173.822 135.525 173.822C137.191 173.822 139.168 172.082 139.446 170.372C139.521 169.898 139.431 169.659 139.404 169.621C139.391 169.613 139.224 169.533 138.867 169.533ZM135.525 177.662C134.086 177.662 132.855 177.147 132.06 176.21C131.231 175.238 130.912 173.872 131.159 172.365C131.732 168.813 135.333 165.693 138.867 165.693C140.305 165.693 141.536 166.206 142.331 167.135C143.158 168.116 143.478 169.477 143.238 170.978L143.237 170.98C142.663 174.54 139.059 177.662 135.525 177.662ZM138.867 163.251C134.063 163.251 129.523 167.168 128.747 171.982C128.387 174.207 128.903 176.271 130.2 177.796C131.467 179.283 133.358 180.103 135.525 180.103C140.331 180.103 144.872 176.186 145.649 171.37C146.006 169.146 145.49 167.082 144.192 165.558C142.925 164.071 141.034 163.251 138.867 163.251ZM135.525 183.943C132.213 183.943 129.284 182.644 127.276 180.284C125.237 177.888 124.413 174.723 124.956 171.369C126.02 164.776 132.26 159.411 138.867 159.411C142.177 159.411 145.108 160.71 147.116 163.069C149.156 165.463 149.98 168.629 149.44 171.982C148.376 178.578 142.134 183.943 135.525 183.943Z" fill="#371A45"/>
<path d="M161.824 171.679L150.773 205.379L140.88 235.565H86.5986L92.7225 216.879L107.541 171.679H161.824Z" fill="#EDAE3E"/>
<path d="M150.773 205.379L140.88 235.565H86.5986L92.7225 216.879C92.7225 216.879 97.4746 227.789 112.777 229.81C121.09 230.904 128.603 224.785 129.251 216.423C129.543 212.679 130.725 208.503 133.705 204.615C138.063 198.942 145.455 201.961 150.773 205.379Z" fill="#D18C28"/>
<path d="M89.2494 233.645H139.49L159.172 173.598H108.931L89.2494 233.645ZM140.881 237.485H86.5992C85.9834 237.485 85.4057 237.189 85.0443 236.691C84.6841 236.193 84.5833 235.551 84.7751 234.966L105.716 171.081C105.974 170.292 106.71 169.758 107.54 169.758H161.822C162.438 169.758 163.015 170.053 163.377 170.551C163.738 171.05 163.838 171.692 163.647 172.275L142.706 236.162C142.447 236.951 141.712 237.485 140.881 237.485Z" fill="#371A45"/>
<path d="M150.479 180.134H118.185L120.824 171.678H153.119L150.479 180.134Z" fill="#DDDCDB"/>
<path d="M150.48 180.131L151.559 176.676H151.56L150.48 180.131Z" fill="#FAE7C5"/>
<path d="M150.48 180.131H118.186L120.826 171.679H124.373L123.773 173.602C123.297 175.126 124.437 176.676 126.033 176.676H151.559L150.48 180.131Z" fill="#F5F4F4"/>
<path d="M120.796 178.213H149.067L150.508 173.598H122.236L120.796 178.213ZM150.479 182.053H118.185C117.574 182.053 117 181.763 116.637 181.271C116.276 180.78 116.17 180.144 116.352 179.562L118.991 171.106C119.242 170.303 119.984 169.757 120.824 169.757H153.119C153.73 169.757 154.304 170.048 154.665 170.54C155.028 171.032 155.134 171.666 154.952 172.249L152.311 180.706C152.062 181.507 151.319 182.053 150.479 182.053Z" fill="#371A45"/>
<path d="M158.722 205.461C157.959 210.127 157.124 214.02 156.207 217.207C156.207 217.207 156.207 217.212 156.202 217.226C153.802 225.611 150.869 229.154 147.361 229.149C130.028 229.13 129.73 214.135 134.401 205.581C139.513 196.217 152.602 199.836 152.602 199.836L154.95 192.67C154.95 192.67 160.307 195.77 158.722 205.461Z" fill="white"/>
<path d="M147.368 229.149C147.365 229.149 147.363 229.149 147.36 229.149C146.549 229.148 145.776 229.115 145.037 229.051C143.638 228.929 142.367 228.695 141.219 228.368C134.358 226.414 131.829 221.062 131.833 215.51C131.836 212.014 132.841 208.438 134.401 205.581C134.401 205.581 131.741 219.093 141.908 222.295C143.791 222.887 145.447 223.133 146.897 223.133C153.797 223.133 156.067 217.571 156.202 217.226C153.804 225.605 150.872 229.149 147.368 229.149Z" fill="#C5BDC9"/>
<path d="M146.833 201.039C143.17 201.039 138.525 202.036 136.085 206.501C133.807 210.672 132.6 217.26 135.331 221.869C137.434 225.419 141.482 227.221 147.364 227.227H147.366C150.035 227.227 153.842 223.395 156.826 205.15C157.542 200.78 156.708 198.007 155.759 196.36L154.426 200.431C154.106 201.406 153.075 201.958 152.089 201.684C151.884 201.627 149.648 201.039 146.833 201.039ZM147.367 231.067H147.36C138.228 231.057 133.981 227.125 132.028 223.827C128.513 217.895 129.84 209.926 132.715 204.661C137.335 196.202 147.23 196.897 151.313 197.597L153.125 192.069C153.305 191.518 153.724 191.08 154.265 190.873C154.804 190.667 155.409 190.714 155.91 191.005C156.176 191.158 162.395 194.895 160.616 205.771C157.754 223.264 153.667 231.067 147.367 231.067Z" fill="#371A45"/>
<path d="M22.1593 197.981C21.5666 197.981 21.0117 197.614 20.8022 197.023C20.5364 196.273 20.9282 195.451 21.6779 195.185C38.9559 189.056 37.2429 163.733 37.2237 163.478C37.1633 162.686 37.7573 161.994 38.5498 161.933C39.3453 161.872 40.0342 162.466 40.095 163.258C40.182 164.388 42.0025 191.032 22.6406 197.899C22.4816 197.954 22.319 197.981 22.1593 197.981Z" fill="#371A45"/>
<path d="M246.834 161.062C246.679 161.062 246.536 161.019 246.405 160.925C244.838 159.809 246.319 152.675 251.784 148.247C254.73 145.857 258.231 144.993 260.895 144.993C263.348 144.993 265.091 145.726 265.04 146.68C264.892 149.411 260.619 148.628 254.79 153.244C251.516 155.837 248.518 161.062 246.834 161.062Z" fill="#BCE4FA"/>
<path d="M250.958 170.926C249.912 170.926 248.654 170.43 247.456 169.194C245.309 166.981 244.922 163.627 246.8 162.968C247.056 162.879 247.307 162.837 247.553 162.837C249.403 162.837 250.956 165.185 252.423 166.767C254.354 168.849 253.098 170.926 250.958 170.926Z" fill="#BCE4FA"/>
<path d="M265.04 124.57C263.981 124.57 263.12 123.711 263.12 122.65V67.4614C263.12 66.4018 263.981 65.5414 265.04 65.5414C266.101 65.5414 266.96 66.4018 266.96 67.4614V122.65C266.96 123.711 266.101 124.57 265.04 124.57Z" fill="#371A45"/>
<path d="M273.906 75.3224C273.906 76.2652 273.141 77.0298 272.197 77.0298C271.255 77.0298 270.489 76.2652 270.489 75.3224C270.489 74.3784 271.255 73.6138 272.197 73.6138C273.141 73.6138 273.906 74.3784 273.906 75.3224Z" fill="#371A45"/>
<path d="M273.906 97.0065C273.906 97.9493 273.141 98.7139 272.197 98.7139C271.255 98.7139 270.489 97.9493 270.489 97.0065C270.489 96.0625 271.255 95.2979 272.197 95.2979C273.141 95.2979 273.906 96.0625 273.906 97.0065Z" fill="#371A45"/>
<path d="M273.906 118.691C273.906 119.634 273.141 120.398 272.197 120.398C271.255 120.398 270.489 119.634 270.489 118.691C270.489 117.747 271.255 116.982 272.197 116.982C273.141 116.982 273.906 117.747 273.906 118.691Z" fill="#371A45"/>
<path d="M233.889 53.0908C233.352 53.0908 232.887 52.856 232.513 52.3496C226.804 44.6093 243.934 20.5009 253.324 15.0444C253.81 14.7617 254.205 14.6277 254.516 14.6277C257.15 14.6277 253.717 24.2438 248.763 33.8586C243.81 43.4747 237.335 53.0908 233.889 53.0908Z" fill="#FDC3C3"/>
<path d="M15.3624 80.5767C12.421 80.5767 10.2963 78.4514 10.2963 75.3464C10.2963 72.4049 12.339 70.1161 15.3624 70.1161C18.2227 70.1161 20.4292 72.4049 20.4292 75.3464C20.4292 78.4514 18.2227 80.5767 15.3624 80.5767ZM17.4058 63.5804C14.3824 62.5172 9.1525 58.6759 9.1525 54.0996C9.1525 50.9946 11.0313 48.4624 16.262 44.2942C20.7561 40.7811 23.0438 38.41 23.0438 35.3873C23.0438 32.4459 21.083 29.9125 17.4877 29.9125C12.094 29.9125 8.90678 34.978 7.84487 34.978C6.6191 34.978 4.33069 33.0998 4.33069 31.138C4.33069 29.9936 4.73953 29.1762 5.88343 28.1141C8.49868 25.9077 12.1759 25.1726 14.7092 25.1726C22.145 25.1726 27.7017 31.6284 27.7017 38.0019C27.7017 41.4351 26.5579 44.3765 21.9 48.2166C17.8139 51.6485 15.6082 53.201 15.6082 55.8979C15.6082 58.1043 16.7519 59.5757 18.9585 61.6186L17.4058 63.5804Z" fill="white"/>
<path d="M14.7096 21.3329C13.1278 21.3329 7.63843 21.6095 3.40762 25.1803C3.36104 25.2184 3.3158 25.259 3.27131 25.3008C1.97671 26.5017 0.490967 28.2509 0.490967 31.1383C0.490967 35.2746 4.53481 38.8184 7.84518 38.8184C9.65445 38.8184 10.8518 37.7317 12.0096 36.6808C13.3708 35.4442 15.2348 33.7528 17.4879 33.7528C18.0014 33.7528 19.2039 33.7528 19.2039 35.3876C19.2039 36.634 17.716 38.2836 13.8969 41.2694L13.869 41.2915C8.44983 45.6097 5.31265 49.0896 5.31265 54.0998C5.31265 59.6264 10.008 64.183 14.1811 66.3489C9.70276 66.902 6.45655 70.586 6.45655 75.3467C6.45655 80.5179 10.2855 84.417 15.3626 84.417C20.4404 84.417 24.2696 80.5179 24.2696 75.3467C24.2696 71.6025 22.1493 68.4557 19.038 67.0557C19.5647 66.8086 20.039 66.4411 20.4169 65.9629L21.9696 64.0023C23.2144 62.4289 23.0392 60.1635 21.5672 58.8003C19.4485 56.8398 19.4485 56.3604 19.4485 55.8982C19.4485 55.2578 21.2055 53.795 23.2405 52.0999C23.5959 51.8049 23.9683 51.4939 24.3575 51.167C29.3932 47.011 31.5418 43.0739 31.5418 38.0022C31.5418 33.8733 29.7995 29.694 26.7616 26.5349C23.5349 23.1804 19.2547 21.3329 14.7096 21.3329ZM15.3626 70.1164C18.2229 70.1164 20.4295 72.4052 20.4295 75.3467C20.4295 78.4517 18.2229 80.5769 15.3626 80.5769C12.421 80.5769 10.2967 78.4517 10.2967 75.3467C10.2967 72.4052 12.3392 70.1164 15.3626 70.1164ZM14.7096 25.1729C22.1452 25.1729 27.7018 31.6275 27.7018 38.0022C27.7018 41.4353 26.5581 44.3768 21.9 48.2169C17.8142 51.6488 15.6084 53.2013 15.6084 55.8982C15.6084 58.1046 16.7521 59.576 18.9587 61.6189L17.4059 63.5795C14.3825 62.5174 9.15269 58.6762 9.15269 54.0998C9.15269 50.9949 11.0317 48.4627 16.262 44.2945C20.7563 40.7814 23.0439 38.4103 23.0439 35.3876C23.0439 32.4461 21.0831 29.9128 17.4879 29.9128C12.0943 29.9128 8.90685 34.9783 7.84518 34.9783C6.6193 34.9783 4.33101 33.1001 4.33101 31.1383C4.33101 29.9939 4.73971 29.1765 5.88374 28.1144C8.49875 25.908 12.1762 25.1729 14.7096 25.1729Z" fill="#371A45"/>
</svg>
