<svg width="21" height="20" viewBox="0 0 21 20" fill="none" xmlns="http://www.w3.org/2000/svg">
<path d="M11.5085 6.75903L12.6877 7.93737C13.2295 8.47905 13.6592 9.12214 13.9524 9.82991C14.2456 10.5377 14.3965 11.2963 14.3965 12.0624C14.3965 12.8285 14.2456 13.5871 13.9524 14.2948C13.6592 15.0026 13.2295 15.6457 12.6877 16.1874L12.3927 16.4815C11.851 17.0232 11.2079 17.4529 10.5001 17.7461C9.79238 18.0393 9.0338 18.1902 8.26771 18.1902C7.50163 18.1902 6.74305 18.0393 6.03528 17.7461C5.32751 17.4529 4.68442 17.0232 4.14271 16.4815C3.60101 15.9398 3.17131 15.2967 2.87814 14.589C2.58497 13.8812 2.43408 13.1226 2.43408 12.3565C2.43408 11.5905 2.58497 10.8319 2.87814 10.1241C3.17131 9.41633 3.60101 8.77324 4.14271 8.23153L5.32188 9.4107C4.93219 9.79699 4.62263 10.2565 4.41099 10.7627C4.19934 11.269 4.08977 11.812 4.08857 12.3607C4.08737 12.9094 4.19456 13.453 4.40398 13.9602C4.61341 14.4673 4.92095 14.9281 5.30895 15.3161C5.69694 15.7041 6.15776 16.0117 6.66493 16.2211C7.1721 16.4305 7.71564 16.5377 8.26435 16.5365C8.81306 16.5353 9.35613 16.4257 9.86238 16.2141C10.3686 16.0024 10.8281 15.6929 11.2144 15.3032L11.5094 15.0082C12.2905 14.2268 12.7293 13.1672 12.7293 12.0624C12.7293 10.9575 12.2905 9.8979 11.5094 9.11653L10.3302 7.93737L11.5085 6.75903ZM17.1069 11.7674L15.9285 10.589C16.6935 9.80429 17.1186 8.74974 17.1115 7.65384C17.1045 6.55794 16.666 5.50893 15.891 4.73405C15.116 3.95917 14.067 3.52082 12.9711 3.51396C11.8752 3.50709 10.8207 3.93226 10.036 4.69737L9.74105 4.99153C8.95992 5.7729 8.5211 6.83252 8.5211 7.93737C8.5211 9.04222 8.95992 10.1018 9.74105 10.8832L10.9202 12.0624L9.74105 13.2407L8.56271 12.0624C8.02097 11.5207 7.59124 10.8776 7.29805 10.1698C7.00486 9.46205 6.85396 8.70346 6.85396 7.93737C6.85396 7.17127 7.00486 6.41268 7.29805 5.70491C7.59124 4.99714 8.02097 4.35405 8.56271 3.81237L8.85771 3.5182C9.39942 2.9765 10.0425 2.5468 10.7503 2.25363C11.458 1.96046 12.2166 1.80957 12.9827 1.80957C13.7488 1.80957 14.5074 1.96046 15.2151 2.25363C15.9229 2.5468 16.566 2.9765 17.1077 3.5182C17.6494 4.0599 18.0791 4.703 18.3723 5.41077C18.6655 6.11854 18.8163 6.87712 18.8163 7.6432C18.8163 8.40928 18.6655 9.16787 18.3723 9.87563C18.0791 10.5834 17.6494 11.2265 17.1077 11.7682" fill="#656575"/>
</svg>
