<svg width="55" height="55" viewBox="0 0 55 55" fill="none" xmlns="http://www.w3.org/2000/svg">
<g clip-path="url(#clip0_173_3679)">
<path d="M27.6668 29.8749C19.5898 29.8749 13.0416 23.3271 13.0416 15.2501C13.0416 7.17271 19.5898 0.625 27.6668 0.625C35.7438 0.625 42.2919 7.17271 42.2919 15.2501C42.2824 23.3234 35.7401 29.8658 27.6668 29.8749ZM27.6668 2.87486C20.8323 2.87486 15.2919 8.41568 15.2919 15.2501C15.2919 22.0846 20.8323 27.625 27.6668 27.625C34.5012 27.625 40.0416 22.0846 40.0416 15.2501C40.0338 8.41898 34.4979 2.8831 27.6668 2.87486Z" fill="#ACACBB" fill-opacity="0.7"/>
<path d="M27.6667 29.8749C23.8192 29.8749 20.9167 23.5875 20.9167 15.2501C20.9167 6.91275 23.8192 0.625 27.6667 0.625C31.5143 0.625 34.4167 6.91275 34.4167 15.2501C34.4167 23.5875 31.5143 29.8749 27.6667 29.8749ZM27.6667 2.87486C25.543 2.87486 23.1666 8.16231 23.1666 15.2501C23.1666 22.3376 25.543 27.625 27.6667 27.625C29.7905 27.625 32.1669 22.3376 32.1669 15.2501C32.1669 8.16231 29.7905 2.87486 27.6667 2.87486Z" fill="#ACACBB" fill-opacity="0.7"/>
<path d="M14.1667 14.125H41.1667V16.3749H14.1667V14.125Z" fill="#ACACBB" fill-opacity="0.7"/>
<path d="M15.2919 20.875H40.0416V23.1249H15.2919V20.875Z" fill="#ACACBB" fill-opacity="0.7"/>
<path d="M15.2919 7.375H40.0416V9.62486H15.2919V7.375Z" fill="#ACACBB" fill-opacity="0.7"/>
<path d="M18.6669 42.25H20.9167V49H18.6669V42.25Z" fill="#ACACBB" fill-opacity="0.7"/>
<path d="M51.2917 43.3749H4.04175C2.17792 43.3749 0.666748 41.8641 0.666748 39.9999V10.75C0.666748 8.88617 2.17792 7.375 4.04175 7.375H11.9169V9.62486H4.04175C3.42047 9.62486 2.91661 10.1287 2.91661 10.75V39.9999C2.91661 40.6211 3.42047 41.125 4.04175 41.125H51.2917C51.913 41.125 52.4169 40.6211 52.4169 39.9999V10.75C52.4169 10.1287 51.913 9.62486 51.2917 9.62486H43.4166V7.375H51.2917C53.1556 7.375 54.6667 8.88617 54.6667 10.75V39.9999C54.6667 41.8641 53.1556 43.3749 51.2917 43.3749Z" fill="#ACACBB" fill-opacity="0.7"/>
<path d="M40.0416 54.625H15.2919C14.6706 54.625 14.1667 54.1211 14.1667 53.4999C14.1705 50.3951 16.6869 47.8787 19.7916 47.875H35.5419C38.6466 47.8787 41.163 50.3951 41.1667 53.4999C41.1667 54.1211 40.6629 54.625 40.0416 54.625ZM16.609 52.3751H38.7245C38.2458 51.0275 36.9715 50.1269 35.5419 50.1249H19.7916C18.362 50.1269 17.0877 51.0275 16.609 52.3751Z" fill="#ACACBB" fill-opacity="0.7"/>
<path d="M34.4167 42.25H36.6666V49H34.4167V42.25Z" fill="#ACACBB" fill-opacity="0.7"/>
<path d="M27.6667 38.875C25.8029 38.875 24.2917 37.3638 24.2917 35.5C24.2917 33.6358 25.8029 32.125 27.6667 32.125C29.5306 32.125 31.0417 33.6358 31.0417 35.5C31.0417 37.3638 29.5306 38.875 27.6667 38.875ZM27.6667 34.3749C27.0455 34.3749 26.5416 34.8787 26.5416 35.5C26.5416 36.1213 27.0455 36.6247 27.6667 36.6247C28.288 36.6247 28.7919 36.1213 28.7919 35.5C28.7919 34.8787 28.288 34.3749 27.6667 34.3749Z" fill="#ACACBB" fill-opacity="0.7"/>
<path d="M26.5416 28.75H28.7919V33.2497H26.5416V28.75Z" fill="#ACACBB" fill-opacity="0.7"/>
<path d="M44.5417 38.875C42.6779 38.875 41.1667 37.3638 41.1667 35.5C41.1667 33.6358 42.6779 32.125 44.5417 32.125C46.4056 32.125 47.9167 33.6358 47.9167 35.5C47.9167 37.3638 46.4056 38.875 44.5417 38.875ZM44.5417 34.3749C43.9205 34.3749 43.4166 34.8787 43.4166 35.5C43.4166 36.1213 43.9205 36.6247 44.5417 36.6247C45.163 36.6247 45.6669 36.1213 45.6669 35.5C45.6669 34.8787 45.163 34.3749 44.5417 34.3749Z" fill="#ACACBB" fill-opacity="0.7"/>
<path d="M34.7455 27.2952L36.3366 25.7041L44.2109 33.5788L42.6202 35.1699L34.7455 27.2952Z" fill="#ACACBB" fill-opacity="0.7"/>
<path d="M11.9169 38.875C10.0526 38.875 8.54187 37.3638 8.54187 35.5C8.54187 33.6358 10.0526 32.125 11.9169 32.125C13.7807 32.125 15.2919 33.6358 15.2919 35.5C15.2919 37.3638 13.7807 38.875 11.9169 38.875ZM11.9169 34.3749C11.2956 34.3749 10.7917 34.8787 10.7917 35.5C10.7917 36.1213 11.2956 36.6247 11.9169 36.6247C12.5381 36.6247 13.0416 36.1213 13.0416 35.5C13.0416 34.8787 12.5381 34.3749 11.9169 34.3749Z" fill="#ACACBB" fill-opacity="0.7"/>
<path d="M12.2465 33.5799L20.1212 25.7056L21.7119 27.2962L13.8376 35.171L12.2465 33.5799Z" fill="#ACACBB" fill-opacity="0.7"/>
</g>
<defs>
<clipPath id="clip0_173_3679">
<rect width="54" height="54" fill="white" transform="translate(0.666748 0.625)"/>
</clipPath>
</defs>
</svg>
