<svg width="39" height="38" viewBox="0 0 39 38" fill="none" xmlns="http://www.w3.org/2000/svg">
<mask id="path-1-outside-1_368_2172" maskUnits="userSpaceOnUse" x="2.93604" y="2.43848" width="34" height="34" fill="black">
<rect fill="white" x="2.93604" y="2.43848" width="34" height="34"/>
<path d="M21.1775 12.8425L23.4179 15.0813C24.4472 16.1105 25.2637 17.3324 25.8208 18.6771C26.3778 20.0219 26.6646 21.4632 26.6646 22.9188C26.6646 24.3744 26.3778 25.8157 25.8208 27.1605C25.2637 28.5052 24.4472 29.7271 23.4179 30.7563L22.8574 31.3152C21.8282 32.3444 20.6063 33.1609 19.2616 33.7179C17.9168 34.2749 16.4755 34.5616 15.0199 34.5616C13.5644 34.5616 12.1231 34.2749 10.7783 33.7179C9.43355 33.1609 8.21167 32.3444 7.18243 31.3152C6.1532 30.286 5.33676 29.0641 4.77975 27.7193C4.22273 26.3746 3.93604 24.9333 3.93604 23.4777C3.93604 22.0222 4.22273 20.5808 4.77975 19.2361C5.33676 17.8913 6.1532 16.6694 7.18243 15.6402L9.42285 17.8806C8.68244 18.6146 8.09428 19.4876 7.69215 20.4494C7.29003 21.4113 7.08184 22.4431 7.07956 23.4857C7.07728 24.5282 7.28094 25.561 7.67885 26.5246C8.07676 27.4882 8.66109 28.3638 9.39828 29.1009C10.1355 29.8381 11.011 30.4225 11.9746 30.8204C12.9383 31.2183 13.971 31.4219 15.0135 31.4197C16.0561 31.4174 17.0879 31.2092 18.0498 30.8071C19.0117 30.4049 19.8846 29.8168 20.6186 29.0764L21.1791 28.5159C22.6632 27.0313 23.497 25.018 23.497 22.9188C23.497 20.8196 22.6632 18.8063 21.1791 17.3217L18.9387 15.0813L21.1775 12.8425ZM31.8143 22.3583L29.5755 20.1195C31.029 18.6284 31.8366 16.6248 31.8232 14.5426C31.8099 12.4604 30.9767 10.4673 29.5042 8.995C28.0318 7.52272 26.0385 6.68986 23.9563 6.67681C21.8741 6.66376 19.8706 7.47159 18.3798 8.92529L17.8193 9.48421C16.3351 10.9688 15.5014 12.9821 15.5014 15.0813C15.5014 17.1805 16.3351 19.1938 17.8193 20.6784L20.0597 22.9188L17.8193 25.1576L15.5804 22.9188C14.5511 21.8896 13.7346 20.6677 13.1776 19.323C12.6205 17.9782 12.3338 16.5369 12.3338 15.0813C12.3338 13.6257 12.6205 12.1844 13.1776 10.8396C13.7346 9.49486 14.5511 8.27299 15.5804 7.24379L16.1409 6.68488C17.1702 5.65564 18.392 4.83921 19.7368 4.28219C21.0816 3.72517 22.5229 3.43848 23.9784 3.43848C25.434 3.43848 26.8753 3.72517 28.2201 4.28219C29.5648 4.83921 30.7867 5.65564 31.8159 6.68488C32.8452 7.71411 33.6616 8.93599 34.2186 10.2808C34.7756 11.6255 35.0623 13.0668 35.0623 14.5224C35.0623 15.9779 34.7756 17.4192 34.2186 18.764C33.6616 20.1088 32.8452 21.3306 31.8159 22.3599"/>
</mask>
<path d="M21.1775 12.8425L23.4179 15.0813C24.4472 16.1105 25.2637 17.3324 25.8208 18.6771C26.3778 20.0219 26.6646 21.4632 26.6646 22.9188C26.6646 24.3744 26.3778 25.8157 25.8208 27.1605C25.2637 28.5052 24.4472 29.7271 23.4179 30.7563L22.8574 31.3152C21.8282 32.3444 20.6063 33.1609 19.2616 33.7179C17.9168 34.2749 16.4755 34.5616 15.0199 34.5616C13.5644 34.5616 12.1231 34.2749 10.7783 33.7179C9.43355 33.1609 8.21167 32.3444 7.18243 31.3152C6.1532 30.286 5.33676 29.0641 4.77975 27.7193C4.22273 26.3746 3.93604 24.9333 3.93604 23.4777C3.93604 22.0222 4.22273 20.5808 4.77975 19.2361C5.33676 17.8913 6.1532 16.6694 7.18243 15.6402L9.42285 17.8806C8.68244 18.6146 8.09428 19.4876 7.69215 20.4494C7.29003 21.4113 7.08184 22.4431 7.07956 23.4857C7.07728 24.5282 7.28094 25.561 7.67885 26.5246C8.07676 27.4882 8.66109 28.3638 9.39828 29.1009C10.1355 29.8381 11.011 30.4225 11.9746 30.8204C12.9383 31.2183 13.971 31.4219 15.0135 31.4197C16.0561 31.4174 17.0879 31.2092 18.0498 30.8071C19.0117 30.4049 19.8846 29.8168 20.6186 29.0764L21.1791 28.5159C22.6632 27.0313 23.497 25.018 23.497 22.9188C23.497 20.8196 22.6632 18.8063 21.1791 17.3217L18.9387 15.0813L21.1775 12.8425ZM31.8143 22.3583L29.5755 20.1195C31.029 18.6284 31.8366 16.6248 31.8232 14.5426C31.8099 12.4604 30.9767 10.4673 29.5042 8.995C28.0318 7.52272 26.0385 6.68986 23.9563 6.67681C21.8741 6.66376 19.8706 7.47159 18.3798 8.92529L17.8193 9.48421C16.3351 10.9688 15.5014 12.9821 15.5014 15.0813C15.5014 17.1805 16.3351 19.1938 17.8193 20.6784L20.0597 22.9188L17.8193 25.1576L15.5804 22.9188C14.5511 21.8896 13.7346 20.6677 13.1776 19.323C12.6205 17.9782 12.3338 16.5369 12.3338 15.0813C12.3338 13.6257 12.6205 12.1844 13.1776 10.8396C13.7346 9.49486 14.5511 8.27299 15.5804 7.24379L16.1409 6.68488C17.1702 5.65564 18.392 4.83921 19.7368 4.28219C21.0816 3.72517 22.5229 3.43848 23.9784 3.43848C25.434 3.43848 26.8753 3.72517 28.2201 4.28219C29.5648 4.83921 30.7867 5.65564 31.8159 6.68488C32.8452 7.71411 33.6616 8.93599 34.2186 10.2808C34.7756 11.6255 35.0623 13.0668 35.0623 14.5224C35.0623 15.9779 34.7756 17.4192 34.2186 18.764C33.6616 20.1088 32.8452 21.3306 31.8159 22.3599" fill="#0080EF"/>
<path d="M21.1775 12.8425L21.8844 12.1351L21.1773 11.4285L20.4704 12.1354L21.1775 12.8425ZM23.4179 15.0813L24.125 14.3741L24.1248 14.3739L23.4179 15.0813ZM26.6646 22.9188H25.6646H26.6646ZM23.4179 30.7563L24.124 31.4644L24.125 31.4634L23.4179 30.7563ZM22.8574 31.3152L22.1513 30.6071L22.1503 30.6081L22.8574 31.3152ZM7.18243 15.6402L7.88954 14.9331L7.18243 14.226L6.47533 14.9331L7.18243 15.6402ZM9.42285 17.8806L10.1269 18.5908L10.8402 17.8837L10.13 17.1735L9.42285 17.8806ZM20.6186 29.0764L19.9115 28.3693L19.9084 28.3724L20.6186 29.0764ZM21.1791 28.5159L21.8862 29.223L21.8863 29.2229L21.1791 28.5159ZM21.1791 17.3217L21.8863 16.6147L21.8862 16.6146L21.1791 17.3217ZM18.9387 15.0813L18.2316 14.3742L17.5245 15.0813L18.2316 15.7884L18.9387 15.0813ZM29.5755 20.1195L28.8595 19.4214L28.1703 20.1284L28.8684 20.8266L29.5755 20.1195ZM18.3798 8.92529L17.6816 8.20929L17.6737 8.21719L18.3798 8.92529ZM17.8193 9.48421L17.1132 8.7761L17.1121 8.77721L17.8193 9.48421ZM17.8193 20.6784L17.1121 21.3854L17.1122 21.3855L17.8193 20.6784ZM20.0597 22.9188L20.7665 23.6262L21.4741 22.919L20.7668 22.2117L20.0597 22.9188ZM17.8193 25.1576L17.1122 25.8647L17.819 26.5716L18.5261 25.865L17.8193 25.1576ZM15.5804 22.9188L16.2875 22.2117L16.2875 22.2117L15.5804 22.9188ZM12.3338 15.0813H11.3338H12.3338ZM15.5804 7.24379L14.8743 6.53568L14.8734 6.53665L15.5804 7.24379ZM16.1409 6.68488L16.847 7.39298L16.848 7.39198L16.1409 6.68488ZM23.9784 3.43848V2.43848V3.43848ZM35.0623 14.5224H36.0623H35.0623ZM20.4707 13.5498L22.7111 15.7886L24.1248 14.3739L21.8844 12.1351L20.4707 13.5498ZM22.7109 15.7884C23.6473 16.7248 24.3901 17.8364 24.8969 19.0598L26.7447 18.2944C26.1373 16.8283 25.2472 15.4962 24.125 14.3741L22.7109 15.7884ZM24.8969 19.0598C25.4037 20.2833 25.6646 21.5945 25.6646 22.9188H27.6646C27.6646 21.3319 27.352 19.7605 26.7447 18.2944L24.8969 19.0598ZM25.6646 22.9188C25.6646 24.243 25.4037 25.5543 24.8969 26.7778L26.7447 27.5432C27.352 26.0771 27.6646 24.5057 27.6646 22.9188H25.6646ZM24.8969 26.7778C24.3901 28.0012 23.6473 29.1128 22.7109 30.0492L24.125 31.4634C25.2472 30.3414 26.1373 29.0093 26.7447 27.5432L24.8969 26.7778ZM22.7118 30.0482L22.1513 30.6071L23.5635 32.0233L24.124 31.4644L22.7118 30.0482ZM22.1503 30.6081C21.214 31.5445 20.1023 32.2873 18.8789 32.794L19.6442 34.6418C21.1103 34.0345 22.4424 33.1444 23.5645 32.0223L22.1503 30.6081ZM18.8789 32.794C17.6554 33.3008 16.3442 33.5616 15.0199 33.5616V35.5616C16.6068 35.5616 18.1782 35.2491 19.6442 34.6418L18.8789 32.794ZM15.0199 33.5616C13.6957 33.5616 12.3844 33.3008 11.161 32.794L10.3956 34.6418C11.8617 35.2491 13.4331 35.5616 15.0199 35.5616V33.5616ZM11.161 32.794C9.93756 32.2873 8.82592 31.5445 7.88954 30.6081L6.47533 32.0223C7.59742 33.1444 8.92954 34.0345 10.3956 34.6418L11.161 32.794ZM7.88954 30.6081C6.95316 29.6717 6.21039 28.5601 5.70363 27.3366L3.85587 28.102C4.46314 29.5681 5.35323 30.9002 6.47533 32.0223L7.88954 30.6081ZM5.70363 27.3366C5.19686 26.1132 4.93604 24.8019 4.93604 23.4777H2.93604C2.93604 25.0646 3.24859 26.6359 3.85587 28.102L5.70363 27.3366ZM4.93604 23.4777C4.93604 22.1535 5.19686 20.8422 5.70363 19.6188L3.85587 18.8534C3.24859 20.3195 2.93604 21.8908 2.93604 23.4777H4.93604ZM5.70363 19.6188C6.21039 18.3953 6.95316 17.2837 7.88954 16.3473L6.47533 14.9331C5.35323 16.0552 4.46314 17.3873 3.85587 18.8534L5.70363 19.6188ZM6.47533 16.3473L8.71574 18.5877L10.13 17.1735L7.88954 14.9331L6.47533 16.3473ZM8.71885 17.1704C7.88491 17.9971 7.22246 18.9803 6.76954 20.0637L8.61477 20.8351C8.9661 19.9948 9.47997 19.2321 10.1269 18.5908L8.71885 17.1704ZM6.76954 20.0637C6.31661 21.1471 6.08214 22.3093 6.07956 23.4835L8.07956 23.4879C8.08155 22.577 8.26344 21.6755 8.61477 20.8351L6.76954 20.0637ZM6.07956 23.4835C6.07699 24.6577 6.30638 25.8209 6.75455 26.9063L8.60315 26.1429C8.2555 25.301 8.07757 24.3987 8.07956 23.4879L6.07956 23.4835ZM6.75455 26.9063C7.20273 27.9916 7.86086 28.9777 8.69117 29.8081L10.1054 28.3938C9.46131 27.7498 8.9508 26.9848 8.60315 26.1429L6.75455 26.9063ZM8.69117 29.8081C9.52149 30.6384 10.5076 31.2965 11.593 31.7447L12.3563 29.8961C11.5144 29.5484 10.7495 29.0379 10.1054 28.3938L8.69117 29.8081ZM11.593 31.7447C12.6783 32.1928 13.8415 32.4222 15.0157 32.4197L15.0114 30.4197C14.1005 30.4217 13.1982 30.2437 12.3563 29.8961L11.593 31.7447ZM15.0157 32.4197C16.19 32.4171 17.3521 32.1826 18.4355 31.7297L17.6641 29.8845C16.8237 30.2358 15.9222 30.4177 15.0114 30.4197L15.0157 32.4197ZM18.4355 31.7297C19.5189 31.2768 20.5021 30.6143 21.3288 29.7804L19.9084 28.3724C19.2672 29.0193 18.5045 29.5331 17.6641 29.8845L18.4355 31.7297ZM21.3257 29.7835L21.8862 29.223L20.472 27.8088L19.9115 28.3693L21.3257 29.7835ZM21.8863 29.2229C23.5579 27.5508 24.497 25.2832 24.497 22.9188H22.497C22.497 24.7528 21.7686 26.5118 20.4719 27.8089L21.8863 29.2229ZM24.497 22.9188C24.497 20.5544 23.5579 18.2868 21.8863 16.6147L20.4719 18.0287C21.7686 19.3258 22.497 21.0847 22.497 22.9188H24.497ZM21.8862 16.6146L19.6458 14.3742L18.2316 15.7884L20.472 18.0288L21.8862 16.6146ZM19.6458 15.7884L21.8846 13.5496L20.4704 12.1354L18.2316 14.3742L19.6458 15.7884ZM32.5215 21.6512L30.2826 19.4124L28.8684 20.8266L31.1072 23.0654L32.5215 21.6512ZM30.2916 20.8175C31.9287 19.1381 32.8382 16.8814 32.8232 14.5362L30.8232 14.549C30.8349 16.3682 30.1294 18.1187 28.8595 19.4214L30.2916 20.8175ZM32.8232 14.5362C32.8082 12.191 31.8698 9.94608 30.2113 8.28784L28.7972 9.70215C30.0837 10.9885 30.8116 12.7298 30.8232 14.549L32.8232 14.5362ZM30.2113 8.28784C28.5528 6.6296 26.3078 5.69152 23.9626 5.67683L23.95 7.67679C25.7692 7.68819 27.5107 8.41585 28.7972 9.70215L30.2113 8.28784ZM23.9626 5.67683C21.6173 5.66213 19.3608 6.572 17.6816 8.20933L19.0779 9.64125C20.3804 8.37118 22.1308 7.66539 23.95 7.67679L23.9626 5.67683ZM17.6737 8.21719L17.1132 8.7761L18.5254 10.1923L19.0859 9.6334L17.6737 8.21719ZM17.1121 8.77721C15.4404 10.4493 14.5014 12.7169 14.5014 15.0813H16.5014C16.5014 13.2472 17.2298 11.4883 18.5265 10.1912L17.1121 8.77721ZM14.5014 15.0813C14.5014 17.4457 15.4404 19.7133 17.1121 21.3854L18.5265 19.9714C17.2298 18.6743 16.5014 16.9153 16.5014 15.0813H14.5014ZM17.1122 21.3855L19.3526 23.6259L20.7668 22.2117L18.5264 19.9713L17.1122 21.3855ZM19.3528 22.2114L17.1124 24.4503L18.5261 25.865L20.7665 23.6262L19.3528 22.2114ZM18.5264 24.4505L16.2875 22.2117L14.8733 23.6259L17.1122 25.8647L18.5264 24.4505ZM16.2875 22.2117C15.3511 21.2753 14.6082 20.1637 14.1014 18.9403L12.2537 19.7057C12.861 21.1718 13.7512 22.5039 14.8734 23.6259L16.2875 22.2117ZM14.1014 18.9403C13.5946 17.7168 13.3338 16.4055 13.3338 15.0813H11.3338C11.3338 16.6682 11.6464 18.2396 12.2537 19.7057L14.1014 18.9403ZM13.3338 15.0813C13.3338 13.757 13.5946 12.4458 14.1014 11.2223L12.2537 10.4569C11.6464 11.923 11.3338 13.4944 11.3338 15.0813H13.3338ZM14.1014 11.2223C14.6082 9.9989 15.3511 8.88727 16.2875 7.95093L14.8734 6.53665C13.7512 7.65871 12.861 8.99082 12.2537 10.4569L14.1014 11.2223ZM16.2865 7.9519L16.847 7.39298L15.4348 5.97677L14.8743 6.53569L16.2865 7.9519ZM16.848 7.39198C17.7844 6.45561 18.8961 5.71283 20.1195 5.20607L19.3541 3.35831C17.888 3.96558 16.5559 4.85568 15.4338 5.97777L16.848 7.39198ZM20.1195 5.20607C21.3429 4.6993 22.6542 4.43848 23.9784 4.43848V2.43848C22.3916 2.43848 20.8202 2.75104 19.3541 3.35831L20.1195 5.20607ZM23.9784 4.43848C25.3027 4.43848 26.6139 4.6993 27.8374 5.20607L28.6027 3.35831C27.1367 2.75104 25.5653 2.43848 23.9784 2.43848V4.43848ZM27.8374 5.20607C29.0608 5.71283 30.1724 6.45561 31.1088 7.39198L32.523 5.97777C31.4009 4.85568 30.0688 3.96558 28.6027 3.35831L27.8374 5.20607ZM31.1088 7.39198C32.0452 8.32836 32.788 9.44 33.2947 10.6634L35.1425 9.89807C34.5352 8.43198 33.6451 7.09986 32.523 5.97777L31.1088 7.39198ZM33.2947 10.6634C33.8015 11.8869 34.0623 13.1981 34.0623 14.5224H36.0623C36.0623 12.9355 35.7498 11.3642 35.1425 9.89807L33.2947 10.6634ZM34.0623 14.5224C34.0623 15.8466 33.8015 17.1579 33.2947 18.3813L35.1425 19.1467C35.7498 17.6806 36.0623 16.1093 36.0623 14.5224H34.0623ZM33.2947 18.3813C32.788 19.6048 32.0452 20.7164 31.1088 21.6528L32.523 23.067C33.6451 21.9449 34.5352 20.6128 35.1425 19.1467L33.2947 18.3813Z" fill="#0080EF" mask="url(#path-1-outside-1_368_2172)"/>
</svg>
