<svg width="20" height="20" viewBox="0 0 20 20" fill="none" xmlns="http://www.w3.org/2000/svg">
<g clip-path="url(#clip0_173_3186)">
<path fill-rule="evenodd" clip-rule="evenodd" d="M19.0625 11.1675C19.0622 11.1831 19.0558 11.1979 19.0448 11.2089C19.0338 11.2199 19.019 11.2262 19.0034 11.2265H16.4606V8.7734H19.0033C19.0189 8.77365 19.0338 8.77994 19.0448 8.79094C19.0559 8.80194 19.0622 8.8168 19.0625 8.83238V11.1675ZM15.8031 14.5941C15.1782 14.2911 14.5245 14.0514 13.8518 13.8785C14.0016 13.3148 14.1158 12.7421 14.1936 12.164H17.087C16.8158 13.0476 16.3802 13.8721 15.8031 14.5941ZM5.80673 12.164C5.88412 12.7422 5.99828 13.3149 6.14853 13.8785C5.47586 14.0514 4.82217 14.2911 4.1972 14.5941C3.6201 13.8721 3.18451 13.0476 2.91333 12.164H5.80673ZM9.99997 13.3996C9.01426 13.398 8.03058 13.4889 7.06185 13.671C6.92895 13.1753 6.8259 12.6721 6.75325 12.164H13.2469C13.1743 12.6721 13.0712 13.1753 12.9383 13.671C11.9695 13.4889 10.9858 13.3981 9.99997 13.3996ZM7.15845 16.3538C7.29455 16.5813 7.4458 16.7994 7.61118 17.0066C6.58119 16.6507 5.64114 16.0745 4.85645 15.3183C5.36301 15.0928 5.88771 14.9105 6.42497 14.7734C6.61567 15.3236 6.86146 15.8531 7.1586 16.3539L7.15845 16.3538ZM12.039 15.8699C12.2836 15.4568 12.4888 15.0217 12.652 14.5703C10.8974 14.2594 9.10184 14.2594 7.34728 14.5703C7.51108 15.0216 7.71655 15.4567 7.96103 15.8699C8.55958 16.8621 9.28337 17.4081 10.0001 17.4081C10.7168 17.4081 11.4405 16.8621 12.0392 15.8699H12.039ZM13.5753 14.7734C14.1123 14.9104 14.6366 15.0927 15.1428 15.3184C14.3583 16.0744 13.4185 16.6505 12.3889 17.0066C12.5542 16.7994 12.7055 16.5814 12.8416 16.3539C13.138 15.8527 13.3838 15.3233 13.5752 14.7734H13.5753ZM0.937861 11.1675V8.83238C0.938162 8.81682 0.944485 8.80198 0.9555 8.79099C0.966515 8.78 0.981364 8.7737 0.996924 8.77343H15.523V11.2266H0.996924C0.98137 11.2263 0.966533 11.22 0.955522 11.209C0.944511 11.198 0.938182 11.1832 0.937861 11.1676V11.1675ZM4.1972 5.40582C4.82213 5.70887 5.47584 5.9486 6.14853 6.12144C5.99828 6.6851 5.88411 7.25775 5.80673 7.83593H2.91333C3.18453 6.95231 3.62011 6.12784 4.1972 5.40582ZM9.99997 6.60035C10.9857 6.60184 11.9694 6.51097 12.9381 6.3289C13.071 6.82461 13.1741 7.32785 13.2467 7.8359H6.75333C6.82598 7.32785 6.92903 6.82461 7.06192 6.3289C8.03063 6.51105 9.01429 6.60193 9.99997 6.60035ZM12.8415 3.64601C12.7054 3.41856 12.5542 3.20051 12.389 2.99332C13.4186 3.34948 14.3583 3.92559 15.1429 4.6816C14.6367 4.90725 14.1123 5.08954 13.5753 5.22652C13.3838 4.67667 13.138 4.14725 12.8417 3.64609L12.8415 3.64601ZM7.96114 4.13004C7.71666 4.54325 7.51119 4.97833 7.34739 5.42965C8.22287 5.58625 9.1106 5.66428 9.99997 5.66281C10.8892 5.66434 11.7767 5.58631 12.652 5.42965C12.4888 4.97819 12.2836 4.54308 12.039 4.13004C11.4406 3.13816 10.7168 2.59172 9.99997 2.59172C9.28317 2.59172 8.55954 3.13816 7.96091 4.13004H7.96114ZM6.42497 5.22652C5.88776 5.08943 5.36311 4.90716 4.85661 4.68168C5.64129 3.92547 6.58135 3.34934 7.61134 2.9934C7.44597 3.20057 7.29472 3.41863 7.1586 3.64609C6.86149 4.14687 6.6157 4.67636 6.42497 5.22652ZM14.1935 7.8359C14.1157 7.25779 14.0016 6.68516 13.8518 6.1214C14.5244 5.94856 15.1781 5.70882 15.8031 5.40578C16.3801 6.1278 16.8157 6.95227 17.0869 7.8359H14.1935ZM19.0033 7.8359H18.0621C17.5854 6.06227 16.537 4.49536 15.0795 3.37789C13.622 2.26043 11.8367 1.65479 10.0001 1.65479C8.16354 1.65479 6.37821 2.26043 4.92071 3.37789C3.46321 4.49536 2.41488 6.06227 1.93813 7.8359H0.996924C0.732685 7.8361 0.479326 7.94115 0.292462 8.12798C0.105599 8.3148 0.000502762 8.56814 0.000244141 8.83238V11.1675C0.000502762 11.4318 0.105599 11.6851 0.292462 11.8719C0.479326 12.0588 0.732685 12.1638 0.996924 12.164H1.93833C2.41508 13.9376 3.4634 15.5046 4.92091 16.622C6.37841 17.7395 8.16374 18.3451 10.0003 18.3451C11.8369 18.3451 13.6222 17.7395 15.0797 16.622C16.5372 15.5046 17.5856 13.9376 18.0623 12.164H19.0035C19.2677 12.1638 19.521 12.0587 19.7078 11.8719C19.8946 11.685 19.9997 11.4317 20 11.1675V8.83238C19.9997 8.56815 19.8946 8.31482 19.7078 8.12799C19.5209 7.94116 19.2676 7.83611 19.0033 7.8359Z" fill="#C9C9CF"/>
</g>
<defs>
<clipPath id="clip0_173_3186">
<rect width="20" height="20" fill="white"/>
</clipPath>
</defs>
</svg>
