<svg width="16" height="22" viewBox="0 0 16 22" fill="none" xmlns="http://www.w3.org/2000/svg">
<g clip-path="url(#clip0_427_427)">
<path d="M7.79859 7.78319C7.79541 7.8084 7.79541 7.83702 7.79541 7.86511C7.79541 7.97434 7.8174 8.07936 7.85713 8.17599L7.89263 8.24845L8.03302 8.60449L8.76227 10.4485L9.39828 12.0588C9.57973 12.3838 9.87032 12.639 10.2208 12.775L10.3296 12.8147C10.3339 12.816 10.341 12.816 10.3469 12.8176L12.0901 13.4117V13.4131L12.7566 13.6399L12.8022 13.6551C12.8037 13.6551 12.8064 13.6567 12.808 13.6567C12.9394 13.6895 13.0681 13.7336 13.191 13.7875C13.4753 13.909 13.733 14.0823 13.9531 14.2937C14.0419 14.3777 14.1234 14.4683 14.1989 14.5649C14.2632 14.646 14.322 14.7313 14.3748 14.8201C14.6074 15.2029 14.7409 15.653 14.7409 16.1322C14.7409 16.2177 14.7367 16.3005 14.7279 16.3845C14.725 16.4215 14.7205 16.4572 14.715 16.4927V16.4955C14.7091 16.5331 14.702 16.5719 14.6948 16.61C14.6874 16.647 14.6805 16.6838 14.672 16.7206C14.6707 16.7248 14.6691 16.7292 14.6675 16.7334C14.6596 16.7707 14.6495 16.8075 14.6392 16.8445C14.6299 16.8794 14.6183 16.9154 14.6053 16.9492C14.5939 16.9863 14.5805 17.0228 14.5653 17.0585C14.5523 17.0952 14.5369 17.1325 14.5197 17.1677C14.4726 17.2756 14.4164 17.3793 14.3534 17.4783C14.2721 17.6083 14.1793 17.7309 14.076 17.8446C14.894 16.9729 15.4378 15.8473 15.5732 14.6017C15.596 14.3974 15.6076 14.1902 15.6076 13.9818C15.6076 13.8486 15.6018 13.7168 15.5931 13.5845C15.49 12.0908 14.804 10.7549 13.7568 9.80151C13.4681 9.53658 13.1526 9.3008 12.8133 9.10073L12.1722 8.77594L8.92386 7.12364C8.82401 7.0812 8.71648 7.0594 8.60784 7.05957C8.18719 7.05957 7.83991 7.37753 7.79859 7.78319Z" fill="#7F7F7F"/>
<path d="M7.79859 7.78319C7.79541 7.8084 7.79541 7.83702 7.79541 7.86511C7.79541 7.97434 7.8174 8.07936 7.85713 8.17599L7.89263 8.24845L8.03302 8.60449L8.76227 10.4485L9.39828 12.0588C9.57973 12.3838 9.87032 12.639 10.2208 12.775L10.3296 12.8147C10.3339 12.816 10.341 12.816 10.3469 12.8176L12.0901 13.4117V13.4131L12.7566 13.6399L12.8022 13.6551C12.8037 13.6551 12.8064 13.6567 12.808 13.6567C12.9394 13.6895 13.0681 13.7336 13.191 13.7875C13.4753 13.909 13.733 14.0823 13.9531 14.2937C14.0419 14.3777 14.1234 14.4683 14.1989 14.5649C14.2632 14.646 14.322 14.7313 14.3748 14.8201C14.6074 15.2029 14.7409 15.653 14.7409 16.1322C14.7409 16.2177 14.7367 16.3005 14.7279 16.3845C14.725 16.4215 14.7205 16.4572 14.715 16.4927V16.4955C14.7091 16.5331 14.702 16.5719 14.6948 16.61C14.6874 16.647 14.6805 16.6838 14.672 16.7206C14.6707 16.7248 14.6691 16.7292 14.6675 16.7334C14.6596 16.7707 14.6495 16.8075 14.6392 16.8445C14.6299 16.8794 14.6183 16.9154 14.6053 16.9492C14.5939 16.9863 14.5805 17.0228 14.5653 17.0585C14.5523 17.0952 14.5369 17.1325 14.5197 17.1677C14.4726 17.2756 14.4164 17.3793 14.3534 17.4783C14.2721 17.6083 14.1793 17.7309 14.076 17.8446C14.894 16.9729 15.4378 15.8473 15.5732 14.6017C15.596 14.3974 15.6076 14.1902 15.6076 13.9818C15.6076 13.8486 15.6018 13.7168 15.5931 13.5845C15.49 12.0908 14.804 10.7549 13.7568 9.80151C13.4681 9.53658 13.1526 9.3008 12.8133 9.10073L12.1722 8.77594L8.92386 7.12364C8.82401 7.0812 8.71648 7.0594 8.60784 7.05957C8.18719 7.05957 7.83991 7.37753 7.79859 7.78319Z" fill="url(#paint0_linear_427_427)"/>
<path d="M2.01451 0.5C1.55227 0.508139 1.18115 0.883079 1.18115 1.34151V16.0203C1.18301 16.1227 1.18883 16.2238 1.19625 16.3265C1.20287 16.3806 1.21003 16.4367 1.22009 16.4914C1.43121 17.6695 2.46536 18.5635 3.71406 18.5635C4.15193 18.5635 4.56252 18.453 4.92171 18.2608C4.92383 18.2592 4.92754 18.2571 4.92939 18.2571L5.05866 18.1796L5.58262 17.874L6.24909 17.482L6.25068 4.43975C6.25068 3.57303 5.81308 2.80897 5.14316 2.355C5.12727 2.34555 5.11191 2.33557 5.09787 2.32428L2.50456 0.643359C2.37317 0.557239 2.21477 0.503151 2.04497 0.5H2.01451Z" fill="#7F7F7F"/>
<path d="M2.01451 0.5C1.55227 0.508139 1.18115 0.883079 1.18115 1.34151V16.0203C1.18301 16.1227 1.18883 16.2238 1.19625 16.3265C1.20287 16.3806 1.21003 16.4367 1.22009 16.4914C1.43121 17.6695 2.46536 18.5635 3.71406 18.5635C4.15193 18.5635 4.56252 18.453 4.92171 18.2608C4.92383 18.2592 4.92754 18.2571 4.92939 18.2571L5.05866 18.1796L5.58262 17.874L6.24909 17.482L6.25068 4.43975C6.25068 3.57303 5.81308 2.80897 5.14316 2.355C5.12727 2.34555 5.11191 2.33557 5.09787 2.32428L2.50456 0.643359C2.37317 0.557239 2.21477 0.503151 2.04497 0.5H2.01451Z" fill="url(#paint1_linear_427_427)"/>
<path d="M12.2975 13.9101L6.335 17.4132L6.24917 17.4644V17.483L5.5827 17.8742L5.05901 18.1806L4.93054 18.2576L4.92179 18.2618C4.56339 18.4547 4.15254 18.564 3.71494 18.564C2.4665 18.564 1.43103 17.6705 1.2207 16.4918C1.32057 17.3541 1.61698 18.1567 2.06412 18.8559C2.98489 20.2966 4.54194 21.2988 6.34321 21.4729H7.44464C8.41892 21.3721 9.2324 20.9853 10.0875 20.4631L11.4024 19.6659C11.9947 19.2897 13.6024 18.3642 14.076 17.8448C14.179 17.7311 14.272 17.6093 14.3533 17.4788C14.4164 17.3796 14.4725 17.2758 14.5197 17.1679C14.5356 17.1312 14.5507 17.0955 14.5652 17.059C14.579 17.0227 14.592 16.9862 14.6052 16.9492C14.6299 16.8783 14.6495 16.8072 14.6683 16.7339C14.6778 16.6922 14.6866 16.6509 14.6953 16.61C14.7239 16.4553 14.7395 16.2965 14.7395 16.1319C14.7395 15.6527 14.606 15.2026 14.3748 14.8204C14.3218 14.7311 14.2635 14.6458 14.1989 14.5651C14.1234 14.468 14.0418 14.3779 13.9531 14.2939C13.7329 14.0826 13.476 13.9093 13.191 13.7874C13.0681 13.7336 12.9399 13.6892 12.8079 13.6569C12.8063 13.6569 12.8037 13.6554 12.8021 13.6554L12.7565 13.6401L12.2975 13.9101Z" fill="#7F7F7F"/>
<path d="M12.2975 13.9101L6.335 17.4132L6.24917 17.4644V17.483L5.5827 17.8742L5.05901 18.1806L4.93054 18.2576L4.92179 18.2618C4.56339 18.4547 4.15254 18.564 3.71494 18.564C2.4665 18.564 1.43103 17.6705 1.2207 16.4918C1.32057 17.3541 1.61698 18.1567 2.06412 18.8559C2.98489 20.2966 4.54194 21.2988 6.34321 21.4729H7.44464C8.41892 21.3721 9.2324 20.9853 10.0875 20.4631L11.4024 19.6659C11.9947 19.2897 13.6024 18.3642 14.076 17.8448C14.179 17.7311 14.272 17.6093 14.3533 17.4788C14.4164 17.3796 14.4725 17.2758 14.5197 17.1679C14.5356 17.1312 14.5507 17.0955 14.5652 17.059C14.579 17.0227 14.592 16.9862 14.6052 16.9492C14.6299 16.8783 14.6495 16.8072 14.6683 16.7339C14.6778 16.6922 14.6866 16.6509 14.6953 16.61C14.7239 16.4553 14.7395 16.2965 14.7395 16.1319C14.7395 15.6527 14.606 15.2026 14.3748 14.8204C14.3218 14.7311 14.2635 14.6458 14.1989 14.5651C14.1234 14.468 14.0418 14.3779 13.9531 14.2939C13.7329 14.0826 13.476 13.9093 13.191 13.7874C13.0681 13.7336 12.9399 13.6892 12.8079 13.6569C12.8063 13.6569 12.8037 13.6554 12.8021 13.6554L12.7565 13.6401L12.2975 13.9101Z" fill="url(#paint2_linear_427_427)"/>
<path opacity="0.15" d="M14.7395 16.1319C14.7395 16.2965 14.7239 16.4556 14.695 16.6102C14.6866 16.6512 14.6778 16.6922 14.668 16.7336C14.6495 16.8072 14.6299 16.8783 14.6052 16.9495C14.5923 16.9862 14.579 17.023 14.5652 17.0587C14.5509 17.0955 14.5356 17.1312 14.5194 17.1679C14.4722 17.2755 14.4167 17.3793 14.3536 17.4785C14.2724 17.6086 14.1795 17.7311 14.076 17.8445C13.6024 18.3642 11.9947 19.2897 11.4024 19.6659L10.0875 20.4631C9.12353 21.0517 8.21283 21.4684 7.06425 21.4971C7.00995 21.4986 6.9567 21.4999 6.90399 21.4999C6.82982 21.4999 6.75671 21.4986 6.68333 21.4957C4.73849 21.4222 3.04238 20.3864 2.06412 18.8559C1.60638 18.1412 1.31802 17.3329 1.2207 16.4918C1.43103 17.6705 2.4665 18.564 3.71494 18.564C4.15254 18.564 4.56339 18.4545 4.92179 18.2618L4.93054 18.2573L5.05901 18.1806L5.5827 17.8742L6.24917 17.483V17.4644L6.335 17.4132L12.2975 13.9098L12.7565 13.6401L12.8021 13.6554C12.8034 13.6554 12.8063 13.6569 12.8079 13.6569C12.9399 13.6892 13.0683 13.7336 13.191 13.7874C13.476 13.9093 13.7327 14.0826 13.9531 14.2939C14.0418 14.3781 14.124 14.4687 14.1989 14.5651C14.2635 14.6458 14.3218 14.7311 14.3748 14.8204C14.606 15.2026 14.7395 15.6527 14.7395 16.1319Z" fill="#7F7F7F"/>
<path opacity="0.15" d="M14.7395 16.1319C14.7395 16.2965 14.7239 16.4556 14.695 16.6102C14.6866 16.6512 14.6778 16.6922 14.668 16.7336C14.6495 16.8072 14.6299 16.8783 14.6052 16.9495C14.5923 16.9862 14.579 17.023 14.5652 17.0587C14.5509 17.0955 14.5356 17.1312 14.5194 17.1679C14.4722 17.2755 14.4167 17.3793 14.3536 17.4785C14.2724 17.6086 14.1795 17.7311 14.076 17.8445C13.6024 18.3642 11.9947 19.2897 11.4024 19.6659L10.0875 20.4631C9.12353 21.0517 8.21283 21.4684 7.06425 21.4971C7.00995 21.4986 6.9567 21.4999 6.90399 21.4999C6.82982 21.4999 6.75671 21.4986 6.68333 21.4957C4.73849 21.4222 3.04238 20.3864 2.06412 18.8559C1.60638 18.1412 1.31802 17.3329 1.2207 16.4918C1.43103 17.6705 2.4665 18.564 3.71494 18.564C4.15254 18.564 4.56339 18.4545 4.92179 18.2618L4.93054 18.2573L5.05901 18.1806L5.5827 17.8742L6.24917 17.483V17.4644L6.335 17.4132L12.2975 13.9098L12.7565 13.6401L12.8021 13.6554C12.8034 13.6554 12.8063 13.6569 12.8079 13.6569C12.9399 13.6892 13.0683 13.7336 13.191 13.7874C13.476 13.9093 13.7327 14.0826 13.9531 14.2939C14.0418 14.3781 14.124 14.4687 14.1989 14.5651C14.2635 14.6458 14.3218 14.7311 14.3748 14.8204C14.606 15.2026 14.7395 15.6527 14.7395 16.1319Z" fill="url(#paint3_linear_427_427)"/>
</g>
<defs>
<linearGradient id="paint0_linear_427_427" x1="8.76315" y1="7.95882" x2="15.4695" y2="15.4993" gradientUnits="userSpaceOnUse">
<stop stop-color="#37BDFF"/>
<stop offset="0.25" stop-color="#26C6F4"/>
<stop offset="0.5" stop-color="#15D0E9"/>
<stop offset="0.75" stop-color="#3BD6DF"/>
<stop offset="1" stop-color="#62DCD4"/>
</linearGradient>
<linearGradient id="paint1_linear_427_427" x1="4.0637" y1="18.2461" x2="3.84969" y2="1.64391" gradientUnits="userSpaceOnUse">
<stop stop-color="#1B48EF"/>
<stop offset="0.5" stop-color="#2080F1"/>
<stop offset="1" stop-color="#26B8F4"/>
</linearGradient>
<linearGradient id="paint2_linear_427_427" x1="7.98007" y1="17.5565" x2="24.3719" y2="17.5565" gradientUnits="userSpaceOnUse">
<stop stop-color="#39D2FF"/>
<stop offset="0.5" stop-color="#248FFA"/>
<stop offset="1" stop-color="#104CF5"/>
</linearGradient>
<linearGradient id="paint3_linear_427_427" x1="7.98007" y1="17.5565" x2="24.3719" y2="17.5565" gradientUnits="userSpaceOnUse">
<stop stop-color="white"/>
<stop offset="1"/>
</linearGradient>
<clipPath id="clip0_427_427">
<rect width="16" height="21" fill="white" transform="translate(0 0.5)"/>
</clipPath>
</defs>
</svg>
