<svg width="21" height="20" viewBox="0 0 21 20" fill="none" xmlns="http://www.w3.org/2000/svg">
<path fill-rule="evenodd" clip-rule="evenodd" d="M10.1248 1.04171C8.6015 1.04171 7.34234 1.17587 6.37317 1.33921L6.2615 1.35837C5.41984 1.49921 4.71984 1.61671 4.17234 2.29004C3.82234 2.72254 3.70817 3.19004 3.68234 3.71087L3.27234 3.84754C2.8865 3.97587 2.54734 4.08921 2.27984 4.21421C1.98984 4.34921 1.724 4.52254 1.52067 4.80504C1.31734 5.0867 1.2365 5.39421 1.19984 5.7117C1.1665 6.00587 1.1665 6.3617 1.1665 6.76921V6.89004C1.1665 7.22504 1.1665 7.52087 1.1915 7.76837C1.21817 8.03587 1.27734 8.29671 1.42484 8.54837C1.574 8.80087 1.77234 8.9792 1.994 9.13254C2.19817 9.2742 2.4565 9.41837 2.74984 9.58087L4.94984 10.8034C5.39984 11.6875 6.01734 12.4759 6.8665 13.045C7.60567 13.5417 8.49317 13.8534 9.544 13.9359C9.51478 14.0093 9.49979 14.0877 9.49984 14.1667V15.625H8.30817C7.97102 15.625 7.64428 15.7419 7.38357 15.9557C7.12285 16.1694 6.94425 16.4669 6.87817 16.7975L6.69567 17.7084H5.12484C4.95908 17.7084 4.80011 17.7742 4.6829 17.8914C4.56569 18.0086 4.49984 18.1676 4.49984 18.3334C4.49984 18.4991 4.56569 18.6581 4.6829 18.7753C4.80011 18.8925 4.95908 18.9584 5.12484 18.9584H15.1248C15.2906 18.9584 15.4496 18.8925 15.5668 18.7753C15.684 18.6581 15.7498 18.4991 15.7498 18.3334C15.7498 18.1676 15.684 18.0086 15.5668 17.8914C15.4496 17.7742 15.2906 17.7084 15.1248 17.7084H13.554L13.3715 16.7975C13.3054 16.4669 13.1268 16.1694 12.8661 15.9557C12.6054 15.7419 12.2787 15.625 11.9415 15.625H10.7498V14.1667C10.7499 14.0877 10.7349 14.0093 10.7057 13.9359C11.7565 13.8525 12.644 13.5417 13.3832 13.0459C14.2332 12.4759 14.8498 11.6875 15.2998 10.8034L17.4998 9.58087C17.7932 9.41837 18.0515 9.2742 18.2557 9.13254C18.4765 8.9792 18.6757 8.80087 18.824 8.5492C18.9723 8.2967 19.0323 8.03587 19.0582 7.76837C19.0832 7.52087 19.0832 7.22504 19.0832 6.89004V6.76921C19.0832 6.36254 19.0832 6.00587 19.0498 5.7117C19.0132 5.39421 18.9332 5.0867 18.729 4.80504C18.5257 4.52254 18.2598 4.34921 17.9707 4.21337C17.7015 4.08837 17.3632 3.97587 16.9773 3.84754L16.5673 3.71087C16.5423 3.18921 16.4282 2.72254 16.0773 2.29004C15.5307 1.61587 14.8307 1.49837 13.989 1.35837L13.8765 1.33921C12.6364 1.13591 11.3815 1.0364 10.1248 1.04171ZM12.279 17.7084L12.1457 17.0425C12.1362 16.9953 12.1107 16.9528 12.0735 16.9223C12.0363 16.8918 11.9896 16.8751 11.9415 16.875H8.30817C8.26003 16.8751 8.21338 16.8918 8.17616 16.9223C8.13894 16.9528 8.11344 16.9953 8.104 17.0425L7.97067 17.7084H12.279ZM3.69817 5.02337L3.70984 5.0192C3.76984 6.28587 3.91234 7.68587 4.269 8.9942L3.38067 8.5017C3.0565 8.32087 2.85317 8.20754 2.7065 8.10587C2.5715 8.0117 2.52734 7.95587 2.50317 7.9142C2.47817 7.87254 2.4515 7.80754 2.43484 7.64421C2.41717 7.38405 2.41105 7.12324 2.4165 6.86254V6.8017C2.4165 6.35254 2.41734 6.06837 2.4415 5.85337C2.46484 5.65504 2.5015 5.58087 2.53484 5.53587C2.56734 5.49004 2.62567 5.4317 2.8065 5.34754C3.00317 5.25587 3.27317 5.16587 3.69817 5.02337ZM16.5398 5.01837C16.4807 6.28504 16.3373 7.68504 15.9815 8.99337L16.869 8.50087C17.1932 8.32004 17.3965 8.2067 17.5432 8.10504C17.6782 8.01087 17.7223 7.95504 17.7465 7.91337C17.7715 7.87171 17.7982 7.8067 17.8148 7.64337C17.8323 7.46504 17.8332 7.23254 17.8332 6.8617V6.80087C17.8332 6.35171 17.8323 6.06754 17.8082 5.85254C17.7848 5.6542 17.7482 5.58004 17.7148 5.53504C17.6823 5.4892 17.624 5.43087 17.4432 5.3467C17.2465 5.25504 16.9765 5.16421 16.5515 5.0217L16.5398 5.01837ZM6.5815 2.57171C7.75278 2.38007 8.938 2.28641 10.1248 2.29171C11.5748 2.29171 12.764 2.41921 13.6682 2.57171C14.674 2.74171 14.8848 2.80504 15.1073 3.07837C15.3257 3.34671 15.3465 3.6017 15.3015 4.73087C15.2265 6.61254 14.9782 8.64421 14.2098 10.1892C13.8298 10.9509 13.3332 11.5742 12.6873 12.0075C12.0448 12.4384 11.2157 12.7084 10.1248 12.7084C9.034 12.7084 8.20567 12.4384 7.56317 12.0075C6.9165 11.5742 6.41984 10.9509 6.04067 10.1884C5.2715 8.6442 5.024 6.61337 4.949 4.73004C4.904 3.60171 4.924 3.34671 5.14317 3.07837C5.36484 2.80504 5.57567 2.74171 6.5815 2.57171Z" fill="#656575"/>
</svg>
