<svg width="24" height="24" viewBox="0 0 24 24" fill="none" xmlns="http://www.w3.org/2000/svg">
<path fill-rule="evenodd" clip-rule="evenodd" d="M12.0005 1.25024C10.1725 1.25024 8.66149 1.41124 7.49849 1.60724L7.36449 1.63024C6.35449 1.79924 5.51449 1.94024 4.85749 2.74824C4.43749 3.26724 4.30049 3.82824 4.26949 4.45324L3.77749 4.61724C3.31449 4.77124 2.90749 4.90724 2.58649 5.05724C2.23849 5.21924 1.91949 5.42724 1.67549 5.76624C1.43149 6.10424 1.33449 6.47324 1.29049 6.85424C1.25049 7.20724 1.25049 7.63424 1.25049 8.12324V8.26824C1.25049 8.67024 1.25049 9.02524 1.28049 9.32224C1.31249 9.64324 1.38349 9.95624 1.56049 10.2582C1.73949 10.5612 1.97749 10.7752 2.24349 10.9592C2.48849 11.1292 2.79849 11.3022 3.15049 11.4972L5.79049 12.9642C6.33049 14.0252 7.07149 14.9712 8.09049 15.6542C8.97749 16.2502 10.0425 16.6242 11.3035 16.7232C11.2684 16.8114 11.2504 16.9054 11.2505 17.0002V18.7502H9.82049C9.4159 18.7503 9.02382 18.8905 8.71096 19.147C8.3981 19.4035 8.18379 19.7605 8.10449 20.1572L7.88549 21.2502H6.00049C5.80158 21.2502 5.61081 21.3293 5.47016 21.4699C5.32951 21.6106 5.25049 21.8013 5.25049 22.0002C5.25049 22.1992 5.32951 22.3899 5.47016 22.5306C5.61081 22.6712 5.80158 22.7502 6.00049 22.7502H18.0005C18.1994 22.7502 18.3902 22.6712 18.5308 22.5306C18.6715 22.3899 18.7505 22.1992 18.7505 22.0002C18.7505 21.8013 18.6715 21.6106 18.5308 21.4699C18.3902 21.3293 18.1994 21.2502 18.0005 21.2502H16.1155L15.8965 20.1572C15.8172 19.7605 15.6029 19.4035 15.29 19.147C14.9772 18.8905 14.5851 18.7503 14.1805 18.7502H12.7505V17.0002C12.7505 16.9054 12.7326 16.8114 12.6975 16.7232C13.9585 16.6232 15.0235 16.2502 15.9105 15.6552C16.9305 14.9712 17.6705 14.0252 18.2105 12.9642L20.8505 11.4972C21.2025 11.3022 21.5125 11.1292 21.7575 10.9592C22.0225 10.7752 22.2615 10.5612 22.4395 10.2592C22.6175 9.95624 22.6895 9.64324 22.7205 9.32224C22.7505 9.02524 22.7505 8.67024 22.7505 8.26824V8.12324C22.7505 7.63524 22.7505 7.20724 22.7105 6.85424C22.6665 6.47324 22.5705 6.10424 22.3255 5.76624C22.0815 5.42724 21.7625 5.21924 21.4155 5.05624C21.0925 4.90624 20.6865 4.77124 20.2235 4.61724L19.7315 4.45324C19.7015 3.82724 19.5645 3.26724 19.1435 2.74824C18.4875 1.93924 17.6475 1.79824 16.6375 1.63024L16.5025 1.60724C15.0144 1.36329 13.5085 1.24388 12.0005 1.25024ZM14.5855 21.2502L14.4255 20.4512C14.4142 20.3946 14.3836 20.3436 14.3389 20.307C14.2942 20.2703 14.2383 20.2503 14.1805 20.2502H9.82049C9.76272 20.2503 9.70674 20.2703 9.66207 20.307C9.61741 20.3436 9.58681 20.3946 9.57549 20.4512L9.41549 21.2502H14.5855ZM4.28849 6.02824L4.30249 6.02324C4.37449 7.54324 4.54549 9.22324 4.97349 10.7932L3.90749 10.2022C3.51849 9.98524 3.27449 9.84924 3.09849 9.72724C2.93649 9.61424 2.88349 9.54724 2.85449 9.49724C2.82449 9.44724 2.79249 9.36924 2.77249 9.17324C2.75129 8.86105 2.74395 8.54808 2.75049 8.23524V8.16224C2.75049 7.62324 2.75149 7.28224 2.78049 7.02424C2.80849 6.78624 2.85249 6.69724 2.89249 6.64324C2.93149 6.58824 3.00149 6.51824 3.21849 6.41724C3.45449 6.30724 3.77849 6.19924 4.28849 6.02824ZM19.6985 6.02224C19.6275 7.54224 19.4555 9.22224 19.0285 10.7922L20.0935 10.2012C20.4825 9.98424 20.7265 9.84824 20.9025 9.72624C21.0645 9.61324 21.1175 9.54624 21.1465 9.49624C21.1765 9.44624 21.2085 9.36824 21.2285 9.17224C21.2495 8.95824 21.2505 8.67924 21.2505 8.23424V8.16124C21.2505 7.62224 21.2495 7.28124 21.2205 7.02324C21.1925 6.78524 21.1485 6.69624 21.1085 6.64224C21.0695 6.58724 20.9995 6.51724 20.7825 6.41624C20.5465 6.30624 20.2225 6.19724 19.7125 6.02624L19.6985 6.02224ZM7.74849 3.08624C9.15402 2.85628 10.5763 2.74389 12.0005 2.75024C13.7405 2.75024 15.1675 2.90324 16.2525 3.08624C17.4595 3.29024 17.7125 3.36624 17.9795 3.69424C18.2415 4.01624 18.2665 4.32224 18.2125 5.67724C18.1225 7.93524 17.8245 10.3732 16.9025 12.2272C16.4465 13.1412 15.8505 13.8892 15.0755 14.4092C14.3045 14.9262 13.3095 15.2502 12.0005 15.2502C10.6915 15.2502 9.69749 14.9262 8.92649 14.4092C8.15049 13.8892 7.55449 13.1412 7.09949 12.2262C6.17649 10.3732 5.87949 7.93624 5.78949 5.67624C5.73549 4.32224 5.75949 4.01624 6.02249 3.69424C6.28849 3.36624 6.54149 3.29024 7.74849 3.08624Z" fill="#0080EF"/>
</svg>
