<svg width="20" height="20" viewBox="0 0 20 20" fill="none" xmlns="http://www.w3.org/2000/svg">
<g clip-path="url(#clip0_173_3173)">
<path fill-rule="evenodd" clip-rule="evenodd" d="M4.64331 11.9636C5.31546 11.9636 5.97251 12.1629 6.53138 12.5363C7.09025 12.9098 7.52584 13.4405 7.78306 14.0615C8.04028 14.6825 8.10758 15.3658 7.97645 16.025C7.84532 16.6843 7.52165 17.2898 7.04637 17.7651C6.57109 18.2404 5.96555 18.564 5.30631 18.6952C4.64708 18.8263 3.96377 18.759 3.34278 18.5018C2.7218 18.2446 2.19104 17.809 1.81761 17.2501C1.44419 16.6912 1.24487 16.0342 1.24487 15.362C1.24591 14.461 1.60429 13.5972 2.24139 12.9601C2.8785 12.323 3.74231 11.9646 4.64331 11.9636ZM4.64331 20.0105C5.56268 20.0105 6.46141 19.7378 7.22584 19.2271C7.99028 18.7163 8.58608 17.9903 8.93791 17.1409C9.28974 16.2915 9.38179 15.3569 9.20243 14.4552C9.02307 13.5535 8.58035 12.7252 7.93025 12.0751C7.28016 11.425 6.45188 10.9823 5.55018 10.8029C4.64847 10.6236 3.71382 10.7156 2.86443 11.0674C2.01504 11.4193 1.28905 12.0151 0.778276 12.7795C0.267499 13.5439 -0.00512695 14.4427 -0.00512695 15.362C-0.00365899 16.5944 0.486557 17.7759 1.35799 18.6474C2.22942 19.5188 3.41092 20.009 4.64331 20.0105ZM1.24999 1.2552H8.03632V8.04156H1.24999V1.2552ZM1.1328 9.2916H8.15351C8.45384 9.29125 8.74177 9.17179 8.95414 8.95942C9.1665 8.74705 9.28597 8.45912 9.28632 8.15879V1.13801C9.28597 0.837675 9.1665 0.549744 8.95414 0.337377C8.74177 0.125009 8.45384 0.00554681 8.15351 0.00519531H1.1328C0.832457 0.00550553 0.544502 0.124955 0.332126 0.337331C0.11975 0.549707 0.000300455 0.837662 -9.76585e-06 1.13801V8.15875C0.000300455 8.4591 0.11975 8.74705 0.332126 8.95943C0.544502 9.1718 0.832457 9.29125 1.1328 9.29156V9.2916ZM18.75 18.7551H11.9637V11.9688H18.75V18.7551ZM18.8672 10.7188H11.8465C11.5461 10.7191 11.2582 10.8386 11.0458 11.0509C10.8335 11.2633 10.714 11.5512 10.7137 11.8516V18.8723C10.714 19.1727 10.8334 19.4606 11.0458 19.673C11.2582 19.8854 11.5461 20.0048 11.8465 20.0051H18.8672C19.1675 20.0048 19.4555 19.8853 19.6678 19.6729C19.8802 19.4606 19.9996 19.1726 20 18.8723V11.8516C19.9996 11.5512 19.8801 11.2633 19.6678 11.051C19.4554 10.8386 19.1675 10.7191 18.8672 10.7188ZM15.3567 8.04688C14.6845 8.04688 14.0275 7.84756 13.4686 7.47414C12.9097 7.10071 12.4741 6.56995 12.2169 5.94896C11.9597 5.32798 11.8924 4.64467 12.0235 3.98544C12.1547 3.3262 12.4783 2.72066 12.9536 2.24538C13.4289 1.7701 14.0344 1.44643 14.6937 1.3153C15.3529 1.18417 16.0362 1.25147 16.6572 1.50869C17.2782 1.76591 17.8089 2.2015 18.1824 2.76037C18.5558 3.31924 18.7551 3.97629 18.7551 4.64844C18.7541 5.54944 18.3957 6.41325 17.7586 7.05035C17.1215 7.68746 16.2577 8.04584 15.3567 8.04688ZM15.3567 0C14.4373 0 13.5386 0.272626 12.7741 0.783403C12.0097 1.29418 11.4139 2.02017 11.0621 2.86956C10.7102 3.71895 10.6182 4.65359 10.7976 5.5553C10.9769 6.45701 11.4196 7.28528 12.0697 7.93538C12.7198 8.58547 13.5481 9.0282 14.4498 9.20756C15.3515 9.38692 16.2862 9.29486 17.1355 8.94303C17.9849 8.5912 18.7109 7.9954 19.2217 7.23097C19.7325 6.46654 20.0051 5.56781 20.0051 4.64844C20.0036 3.41604 19.5134 2.23454 18.642 1.36311C17.7706 0.49167 16.5891 0.00145764 15.3567 0Z" fill="#C9C9CF"/>
</g>
<defs>
<clipPath id="clip0_173_3173">
<rect width="20" height="20" fill="white"/>
</clipPath>
</defs>
</svg>
