<svg width="20" height="20" viewBox="0 0 20 20" fill="none" xmlns="http://www.w3.org/2000/svg">
<g clip-path="url(#clip0_173_3214)">
<path fill-rule="evenodd" clip-rule="evenodd" d="M10.8521 7.37559C10.9388 7.46375 10.9872 7.5826 10.9867 7.70626C10.9862 7.82992 10.9368 7.94836 10.8494 8.03579C10.7619 8.12322 10.6434 8.17255 10.5198 8.17304C10.3961 8.17353 10.2773 8.12514 10.1891 8.0384L10.1755 8.02477C10.1312 7.98143 10.0959 7.92972 10.0717 7.87265C10.0475 7.81558 10.0348 7.75426 10.0345 7.69227C10.0341 7.63027 10.046 7.56882 10.0696 7.51147C10.0932 7.45412 10.1279 7.40201 10.1717 7.35817C10.2155 7.31432 10.2676 7.27961 10.325 7.25603C10.3823 7.23246 10.4438 7.22049 10.5057 7.22083C10.5677 7.22117 10.6291 7.2338 10.6861 7.258C10.7432 7.2822 10.7949 7.31748 10.8383 7.3618L10.8521 7.37559ZM12.5991 5.61461C12.5556 5.57106 12.5039 5.53651 12.4471 5.51294C12.3902 5.48937 12.3293 5.47724 12.2677 5.47724C12.2061 5.47724 12.1452 5.48937 12.0883 5.51294C12.0315 5.53651 11.9798 5.57106 11.9363 5.61461L11.0283 6.52285C10.9431 6.61131 10.8961 6.72964 10.8972 6.85241C10.8984 6.97518 10.9477 7.09259 11.0345 7.17941C11.1213 7.26622 11.2387 7.31551 11.3615 7.31667C11.4843 7.31783 11.6026 7.27078 11.6911 7.18563L12.5991 6.27742C12.6427 6.23394 12.6773 6.18229 12.7009 6.12542C12.7245 6.06856 12.7366 6.0076 12.7366 5.94604C12.7366 5.88447 12.7245 5.82351 12.7009 5.76665C12.6773 5.70979 12.6427 5.65813 12.5991 5.61465V5.61461ZM14.3709 4.68492C14.2877 4.7681 14.1817 4.82473 14.0663 4.84766C13.9509 4.87059 13.8313 4.85878 13.7226 4.81374C13.6139 4.76869 13.521 4.69243 13.4556 4.59459C13.3902 4.49675 13.3553 4.38173 13.3553 4.26406C13.3553 4.1464 13.3902 4.03138 13.4556 3.93354C13.521 3.8357 13.6139 3.75944 13.7226 3.71439C13.8313 3.66935 13.9509 3.65754 14.0663 3.68047C14.1817 3.7034 14.2877 3.76003 14.3709 3.84321C14.4823 3.95495 14.5449 4.10629 14.5449 4.26406C14.5449 4.42184 14.4823 4.57318 14.3709 4.68492ZM15.034 3.17977C15.2484 3.39416 15.3944 3.66733 15.4536 3.96471C15.5127 4.2621 15.4824 4.57035 15.3663 4.85048C15.2503 5.13062 15.0538 5.37005 14.8017 5.53851C14.5496 5.70697 14.2532 5.79689 13.95 5.79689C13.6468 5.79689 13.3504 5.70697 13.0982 5.53851C12.8461 5.37005 12.6496 5.13062 12.5336 4.85048C12.4176 4.57035 12.3872 4.2621 12.4464 3.96471C12.5056 3.66733 12.6516 3.39416 12.866 3.17977C13.1538 2.89281 13.5436 2.73166 13.95 2.73166C14.3564 2.73166 14.7462 2.89281 15.034 3.17977ZM19.059 15.1638V3.38289C19.0587 3.24829 19.0051 3.11928 18.9099 3.0241C18.8148 2.92892 18.6857 2.87534 18.5511 2.87508H17.9694C17.4828 5.39927 16.2798 7.51073 14.3605 9.20945V11.5317C14.3604 11.6432 14.3207 11.7511 14.2484 11.836C13.2351 13.0266 11.8961 13.8952 10.3959 14.3354C10.326 14.3558 10.2523 14.3598 10.1806 14.3468C10.109 14.3339 10.0413 14.3044 9.98302 14.2608C9.92471 14.2172 9.87737 14.1606 9.84474 14.0955C9.81211 14.0304 9.79508 13.9586 9.79501 13.8857V11.951C9.30873 12.1489 8.80182 12.3342 8.27427 12.5068C8.20743 12.5285 8.13658 12.5349 8.06692 12.5257C7.99726 12.5164 7.93055 12.4917 7.87169 12.4533C7.55712 12.9904 7.16228 13.4135 6.69259 13.7142C6.11345 14.085 5.41841 14.2723 4.62388 14.2723C4.54813 14.2723 4.47153 14.2709 4.39427 14.2673C4.27717 14.2622 4.16625 14.2134 4.08338 14.1305C4.0005 14.0476 3.95168 13.9367 3.94653 13.8196C3.90747 12.9287 4.09356 12.1555 4.49966 11.5213C4.80044 11.0516 5.22345 10.6568 5.7606 10.3422C5.72203 10.2834 5.69719 10.2167 5.68794 10.147C5.67869 10.0773 5.68526 10.0064 5.70716 9.93961C5.87942 9.41188 6.06472 8.90498 6.26306 8.41891H4.32833C4.2555 8.41891 4.18366 8.40194 4.11853 8.36934C4.0534 8.33675 3.99676 8.28942 3.9531 8.23112C3.90945 8.17282 3.87998 8.10515 3.86703 8.03347C3.85409 7.9618 3.85802 7.88809 3.87853 7.8182C4.31859 6.31789 5.18735 4.9788 6.37806 3.96547C6.46283 3.89314 6.57065 3.85347 6.68208 3.8536H9.00435C9.30837 3.50892 9.63218 3.18219 9.97411 2.87508H1.44165C1.30703 2.87528 1.17798 2.92884 1.08279 3.02403C0.987599 3.11922 0.934034 3.24827 0.933838 3.38289V15.1638C0.933972 15.2984 0.987517 15.4275 1.08272 15.5227C1.17793 15.6179 1.30701 15.6715 1.44165 15.6716H18.551C18.6856 15.6714 18.8147 15.6178 18.9099 15.5226C19.0051 15.4275 19.0586 15.2984 19.0588 15.1638H19.059ZM11.1536 17.4802H8.83888V16.6091H11.1536V17.4802ZM12.8445 18.5579V19.063H7.1481V18.5579C7.14859 18.5208 7.16355 18.4854 7.18977 18.4592C7.216 18.433 7.25142 18.4181 7.28849 18.4177H12.7043C12.7413 18.4182 12.7767 18.4331 12.8029 18.4593C12.8291 18.4855 12.844 18.5209 12.8445 18.5579V18.5579ZM16.9062 3.36219C17.102 2.57315 17.2201 1.76685 17.2589 0.954807C16.4469 0.993809 15.6406 1.11192 14.8515 1.30746C15.7634 1.71984 16.4938 2.45031 16.9062 3.36219ZM10.6406 10.5513C13.4548 9.17824 15.3599 7.31305 16.3828 4.92121C16.1491 3.18363 15.0301 2.06461 13.2925 1.83098C10.9009 2.85399 9.03548 4.75945 7.66255 7.57348C8.39018 7.73647 9.05648 8.10295 9.58376 8.63019C10.111 9.15744 10.4776 9.82371 10.6406 10.5513ZM10.7327 11.5412C11.6785 11.1039 12.5796 10.5759 13.4233 9.96449V11.356C12.6852 12.1823 11.7637 12.824 10.7327 13.2298V11.5412ZM6.68892 9.95875C6.86764 9.43253 7.05895 8.92992 7.26286 8.45094C7.89152 8.54709 8.47306 8.84144 8.92278 9.29111C9.3725 9.74079 9.66691 10.3223 9.76313 10.9509C9.28368 11.1547 8.78108 11.3461 8.25532 11.5252L6.68892 9.95875ZM6.44255 11.038L7.17575 11.7714C6.68524 12.7411 5.93235 13.2536 4.88774 13.3261C4.96017 12.2814 5.47243 11.5284 6.44243 11.038L6.44255 11.038ZM6.67302 7.48137H4.98435C5.38986 6.45043 6.03157 5.52901 6.8579 4.79113H8.24927C7.6377 5.63456 7.10975 6.53556 6.6729 7.48137H6.67302ZM18.5511 1.93758H18.1148C18.171 1.46404 18.2041 0.977346 18.2141 0.477502C18.2152 0.414468 18.2036 0.351856 18.18 0.293404C18.1564 0.234952 18.1212 0.18186 18.0766 0.137297C18.032 0.0927354 17.9789 0.0576177 17.9205 0.0340418C17.862 0.010466 17.7994 -0.00108458 17.7363 8.00747e-05C15.2094 0.0469551 13.0227 0.692788 11.1764 1.93758H1.44165C1.05847 1.93805 0.691122 2.09047 0.420174 2.36142C0.149226 2.63236 -0.00319693 2.99971 -0.00366211 3.38289V15.1638C-0.00320725 15.547 0.149212 15.9143 0.420163 16.1853C0.691113 16.4562 1.05847 16.6086 1.44165 16.6091H7.90134V17.4802H7.28849C7.00272 17.4805 6.72875 17.5941 6.52666 17.7962C6.32458 17.9982 6.2109 18.2722 6.21056 18.5579V19.5318C6.21063 19.6561 6.26004 19.7752 6.34793 19.8631C6.43582 19.951 6.55501 20.0004 6.67931 20.0005H13.3133C13.4376 20.0004 13.5568 19.951 13.6447 19.8631C13.7326 19.7752 13.782 19.6561 13.782 19.5318V18.5579C13.7817 18.2722 13.668 17.9982 13.466 17.7962C13.2639 17.5941 12.99 17.4805 12.7043 17.4802H12.091V16.6091H18.5511C18.9343 16.6086 19.3017 16.4562 19.5726 16.1852C19.8436 15.9143 19.996 15.5469 19.9965 15.1638V3.38289C19.996 2.99971 19.8436 2.63236 19.5726 2.36142C19.3017 2.09047 18.9343 1.93805 18.5511 1.93758Z" fill="#C9C9CF"/>
</g>
<defs>
<clipPath id="clip0_173_3214">
<rect width="20" height="20" fill="white"/>
</clipPath>
</defs>
</svg>
