<svg width="54" height="55" viewBox="0 0 54 55" fill="none" xmlns="http://www.w3.org/2000/svg">
<g clip-path="url(#clip0_173_3796)">
<path d="M37.125 54.375H3.375C1.51117 54.375 0 52.8638 0 51H2.24986C2.24986 51.6213 2.75372 52.1251 3.375 52.1251H37.125C37.7463 52.1251 38.2501 51.6213 38.2501 51H40.5C40.5 52.8638 38.9888 54.375 37.125 54.375Z" fill="#ACACBB" fill-opacity="0.7"/>
<path d="M0.32959 9.70445L9.32986 0.70459L10.9205 2.29527L1.92027 11.2955L0.32959 9.70445Z" fill="#ACACBB" fill-opacity="0.7"/>
<path d="M2.24986 30.75H0V10.5C0 9.87872 0.50386 9.37486 1.12514 9.37486H7.87514C8.49641 9.37486 8.99986 8.87141 8.99986 8.25014V1.50014C8.99986 0.87886 9.50372 0.375 10.125 0.375H37.125C38.9888 0.375 40.5 1.88617 40.5 3.75H38.2501C38.2501 3.12872 37.7463 2.62486 37.125 2.62486H11.2501V8.25014C11.2501 10.114 9.73897 11.6251 7.87514 11.6251H2.24986V30.75Z" fill="#ACACBB" fill-opacity="0.7"/>
<path d="M40.5 48.75H31.5001C30.8789 48.75 30.375 48.2461 30.375 47.6249V39.7497C30.375 39.1284 30.8789 38.625 31.5001 38.625H40.5C41.1213 38.625 41.6251 39.1284 41.6251 39.7497V47.6249C41.6251 48.2461 41.1213 48.75 40.5 48.75ZM32.6249 46.4997H39.3749V40.8749H32.6249V46.4997Z" fill="#ACACBB" fill-opacity="0.7"/>
<path d="M38.2502 12.75H33.75C33.1287 12.75 32.6249 12.2466 32.6249 11.6253V7.12514C32.6249 6.50386 33.1287 6 33.75 6H38.2502C38.8714 6 39.3749 6.50386 39.3749 7.12514V11.6253C39.3749 12.2466 38.8714 12.75 38.2502 12.75ZM34.8752 10.5001H37.125V8.25027H34.8752V10.5001Z" fill="#ACACBB" fill-opacity="0.7"/>
<path d="M23.625 27.375H19.1248C18.5036 27.375 18.0001 26.8711 18.0001 26.2499V21.7501C18.0001 21.1289 18.5036 20.625 19.1248 20.625H23.625C24.2463 20.625 24.7501 21.1289 24.7501 21.7501V26.2499C24.7501 26.8711 24.2463 27.375 23.625 27.375ZM20.25 25.1251H22.4998V22.8749H20.25V25.1251Z" fill="#ACACBB" fill-opacity="0.7"/>
<path d="M52.8749 27.375H48.3751C47.7539 27.375 47.25 26.8711 47.25 26.2499V21.7501C47.25 21.1289 47.7539 20.625 48.3751 20.625H52.8749C53.4961 20.625 54 21.1289 54 21.7501V26.2499C54 26.8711 53.4961 27.375 52.8749 27.375ZM49.4999 25.1251H51.7501V22.8749H49.4999V25.1251Z" fill="#ACACBB" fill-opacity="0.7"/>
<path d="M22.4999 21.75H20.25C20.2582 14.2976 26.2976 8.25783 33.75 8.25V10.4999C27.5397 10.5069 22.5069 15.5393 22.4999 21.75Z" fill="#ACACBB" fill-opacity="0.7"/>
<path d="M51.7501 21.75H49.4998C49.4933 15.5393 44.4604 10.5069 38.2501 10.4999V8.25C45.7026 8.25783 51.7419 14.2976 51.7501 21.75Z" fill="#ACACBB" fill-opacity="0.7"/>
<path d="M41.6251 39.7499H39.3748C39.3748 34.9214 42.0276 32.847 44.3079 32.1586L35.9998 18.3109L27.5714 32.3601C30.6349 33.5252 32.6504 36.4725 32.6248 39.7499H30.3749C30.3749 35.1002 25.8468 34.1419 25.6499 34.1024C25.2894 34.0315 24.9866 33.7888 24.8387 33.4527C24.6903 33.1165 24.7155 32.7292 24.9062 32.4149L35.0312 15.5399C35.2496 15.2226 35.6101 15.0327 35.9953 15.0327C36.3809 15.0327 36.7414 15.2226 36.9597 15.5399L47.0847 32.4149C47.2957 32.7622 47.3035 33.1964 47.1045 33.5507C46.9059 33.905 46.5314 34.1246 46.1248 34.125C45.6749 34.1308 41.6251 34.3401 41.6251 39.7499Z" fill="#ACACBB" fill-opacity="0.7"/>
<path d="M35.9999 36.375C34.136 36.375 32.6249 34.8642 32.6249 33C32.6249 31.1362 34.136 29.625 35.9999 29.625C37.8641 29.625 39.3749 31.1362 39.3749 33C39.3749 34.8642 37.8641 36.375 35.9999 36.375ZM35.9999 31.8753C35.3786 31.8753 34.8752 32.3787 34.8752 33C34.8752 33.6213 35.3786 34.1251 35.9999 34.1251C36.6212 34.1251 37.125 33.6213 37.125 33C37.125 32.3787 36.6212 31.8753 35.9999 31.8753Z" fill="#ACACBB" fill-opacity="0.7"/>
<path d="M34.8751 16.125H37.125V30.7501H34.8751V16.125Z" fill="#ACACBB" fill-opacity="0.7"/>
<path d="M24.7501 48.7503H3.375C1.51117 48.7503 0 47.2391 0 45.3753V36.375C0 34.5112 1.51117 33 3.375 33H16.875C18.7388 33 20.25 34.5112 20.25 36.375V41.5343L25.5453 46.8296C25.867 47.1514 25.963 47.6354 25.7892 48.0557C25.6149 48.4759 25.205 48.7499 24.7501 48.7503ZM3.375 35.2503C2.75372 35.2503 2.24986 35.7537 2.24986 36.375V45.3753C2.24986 45.9966 2.75372 46.5 3.375 46.5H22.0343L18.3297 42.7954C18.1188 42.5845 18.0001 42.2986 18.0001 42.0003V36.375C18.0001 35.7537 17.4963 35.2503 16.875 35.2503H3.375Z" fill="#ACACBB" fill-opacity="0.7"/>
<path d="M4.50012 39.75H15.7498V42.0003H4.50012V39.75Z" fill="#ACACBB" fill-opacity="0.7"/>
<path d="M5.62488 15H15.7499V17.2499H5.62488V15Z" fill="#ACACBB" fill-opacity="0.7"/>
<path d="M5.62488 19.5H15.7499V21.7503H5.62488V19.5Z" fill="#ACACBB" fill-opacity="0.7"/>
<path d="M5.62488 24H15.7499V26.2499H5.62488V24Z" fill="#ACACBB" fill-opacity="0.7"/>
<path d="M5.62488 28.5H15.7499V30.7499H5.62488V28.5Z" fill="#ACACBB" fill-opacity="0.7"/>
</g>
<defs>
<clipPath id="clip0_173_3796">
<rect width="54" height="54" fill="white" transform="translate(0 0.375)"/>
</clipPath>
</defs>
</svg>
