<svg width="21" height="21" viewBox="0 0 21 21" fill="none" xmlns="http://www.w3.org/2000/svg">
<mask id="path-1-inside-1_614_18" fill="white">
<path fill-rule="evenodd" clip-rule="evenodd" d="M11.4235 2.06779C11.2873 1.77257 10.9918 1.5835 10.6667 1.5835C10.3416 1.5835 10.0462 1.77257 9.91002 2.06779L7.51914 7.25121L1.8506 7.9233C1.52775 7.96158 1.25664 8.18413 1.15617 8.49333C1.05571 8.80253 1.14423 9.14192 1.38293 9.36266L5.57382 13.2383L4.46135 18.8371C4.39799 19.156 4.52586 19.4826 4.78888 19.6737C5.05191 19.8648 5.40205 19.8854 5.68574 19.7266L10.6667 16.9385L15.6477 19.7266C15.9314 19.8854 16.2816 19.8648 16.5446 19.6737C16.8076 19.4826 16.9355 19.156 16.8721 18.8371L15.7596 13.2383L19.9505 9.36266C20.1892 9.14192 20.2778 8.80253 20.1773 8.49333C20.0768 8.18413 19.8057 7.96158 19.4829 7.9233L13.8143 7.25121L11.4235 2.06779Z"/>
</mask>
<path fill-rule="evenodd" clip-rule="evenodd" d="M11.4235 2.06779C11.2873 1.77257 10.9918 1.5835 10.6667 1.5835C10.3416 1.5835 10.0462 1.77257 9.91002 2.06779L7.51914 7.25121L1.8506 7.9233C1.52775 7.96158 1.25664 8.18413 1.15617 8.49333C1.05571 8.80253 1.14423 9.14192 1.38293 9.36266L5.57382 13.2383L4.46135 18.8371C4.39799 19.156 4.52586 19.4826 4.78888 19.6737C5.05191 19.8648 5.40205 19.8854 5.68574 19.7266L10.6667 16.9385L15.6477 19.7266C15.9314 19.8854 16.2816 19.8648 16.5446 19.6737C16.8076 19.4826 16.9355 19.156 16.8721 18.8371L15.7596 13.2383L19.9505 9.36266C20.1892 9.14192 20.2778 8.80253 20.1773 8.49333C20.0768 8.18413 19.8057 7.96158 19.4829 7.9233L13.8143 7.25121L11.4235 2.06779Z" fill="#FFD166"/>
<path d="M11.4235 2.06779L9.60734 2.90548L9.60734 2.90548L11.4235 2.06779ZM9.91002 2.06779L8.09391 1.2301L8.09391 1.2301L9.91002 2.06779ZM7.51914 7.25121L7.75463 9.2373C8.44535 9.1554 9.04392 8.72051 9.33526 8.0889L7.51914 7.25121ZM1.8506 7.9233L1.61512 5.93721L1.61512 5.93721L1.8506 7.9233ZM1.15617 8.49333L3.05828 9.11136L3.05828 9.11136L1.15617 8.49333ZM1.38293 9.36266L0.0250203 10.831L0.0250223 10.831L1.38293 9.36266ZM5.57382 13.2383L7.53548 13.6281C7.67103 12.9458 7.4424 12.2422 6.93173 11.7699L5.57382 13.2383ZM4.46135 18.8371L2.4997 18.4473L2.4997 18.4473L4.46135 18.8371ZM4.78888 19.6737L3.61331 21.2917L3.61332 21.2917L4.78888 19.6737ZM5.68574 19.7266L6.66262 21.4718L6.66262 21.4718L5.68574 19.7266ZM10.6667 16.9385L11.6436 15.1933C11.0367 14.8536 10.2968 14.8536 9.68985 15.1933L10.6667 16.9385ZM15.6477 19.7266L14.6708 21.4718L14.6709 21.4718L15.6477 19.7266ZM16.5446 19.6737L17.7202 21.2917L17.7202 21.2917L16.5446 19.6737ZM16.8721 18.8371L14.9105 19.2269L14.9105 19.2269L16.8721 18.8371ZM15.7596 13.2383L14.4017 11.7699C13.8911 12.2422 13.6624 12.9458 13.798 13.6281L15.7596 13.2383ZM19.9505 9.36266L18.5926 7.89429L18.5926 7.89429L19.9505 9.36266ZM20.1773 8.49333L22.0794 7.87529L22.0794 7.87529L20.1773 8.49333ZM19.4829 7.9233L19.7184 5.93721L19.7184 5.93721L19.4829 7.9233ZM13.8143 7.25121L11.9982 8.0889C12.2895 8.72051 12.8881 9.1554 13.5788 9.2373L13.8143 7.25121ZM10.6667 3.5835C10.2116 3.5835 9.79798 3.31879 9.60734 2.90548L13.2396 1.2301C12.7766 0.226347 11.7721 -0.416504 10.6667 -0.416504V3.5835ZM11.7261 2.90548C11.5355 3.31879 11.1219 3.5835 10.6667 3.5835V-0.416504C9.56135 -0.416504 8.55689 0.226346 8.09391 1.2301L11.7261 2.90548ZM9.33526 8.0889L11.7261 2.90548L8.09391 1.2301L5.70303 6.41351L9.33526 8.0889ZM2.08608 9.90939L7.75463 9.2373L7.28366 5.26512L1.61512 5.93721L2.08608 9.90939ZM3.05828 9.11136C2.91763 9.54424 2.53808 9.8558 2.08609 9.90939L1.61512 5.93721C0.517423 6.06737 -0.40436 6.82401 -0.745942 7.87529L3.05828 9.11136ZM2.74083 7.8943C3.075 8.20332 3.19894 8.67848 3.05828 9.11136L-0.745941 7.87529C-1.08752 8.92658 -0.78653 10.0805 0.0250203 10.831L2.74083 7.8943ZM6.93173 11.7699L2.74083 7.89429L0.0250223 10.831L4.21592 14.7067L6.93173 11.7699ZM6.423 19.2269L7.53548 13.6281L3.61217 12.8485L2.4997 18.4473L6.423 19.2269ZM5.96446 18.0556C6.33268 18.3232 6.51171 18.7804 6.423 19.2269L2.4997 18.4473C2.28427 19.5315 2.71904 20.642 3.61331 21.2917L5.96446 18.0556ZM4.70886 17.9815C5.10603 17.7591 5.59622 17.7881 5.96445 18.0556L3.61332 21.2917C4.50759 21.9414 5.69807 22.0118 6.66262 21.4718L4.70886 17.9815ZM9.68985 15.1933L4.70886 17.9815L6.66262 21.4718L11.6436 18.6837L9.68985 15.1933ZM16.6246 17.9815L11.6436 15.1933L9.68985 18.6837L14.6708 21.4718L16.6246 17.9815ZM15.369 18.0556C15.7373 17.7881 16.2275 17.7591 16.6246 17.9815L14.6709 21.4718C15.6354 22.0118 16.8259 21.9414 17.7202 21.2917L15.369 18.0556ZM14.9105 19.2269C14.8218 18.7804 15.0008 18.3232 15.369 18.0556L17.7202 21.2917C18.6144 20.642 19.0492 19.5315 18.8338 18.4473L14.9105 19.2269ZM13.798 13.6281L14.9105 19.2269L18.8338 18.4473L17.7213 12.8485L13.798 13.6281ZM18.5926 7.89429L14.4017 11.7699L17.1176 14.7067L21.3084 10.831L18.5926 7.89429ZM18.2752 9.11136C18.1345 8.67848 18.2585 8.20332 18.5926 7.89429L21.3084 10.831C22.12 10.0805 22.421 8.92658 22.0794 7.87529L18.2752 9.11136ZM19.2474 9.90939C18.7954 9.8558 18.4158 9.54424 18.2752 9.11136L22.0794 7.87529C21.7378 6.82401 20.816 6.06737 19.7184 5.93721L19.2474 9.90939ZM13.5788 9.2373L19.2474 9.90939L19.7184 5.93721L14.0498 5.26512L13.5788 9.2373ZM9.60734 2.90548L11.9982 8.0889L15.6304 6.41351L13.2396 1.2301L9.60734 2.90548Z" fill="#FFD166" mask="url(#path-1-inside-1_614_18)"/>
</svg>
