<svg width="20" height="20" viewBox="0 0 20 20" fill="none" xmlns="http://www.w3.org/2000/svg">
<mask id="path-1-inside-1_614_59" fill="white">
<path fill-rule="evenodd" clip-rule="evenodd" d="M11.0901 1.31779C10.9539 1.02257 10.6585 0.833496 10.3334 0.833496C10.0082 0.833496 9.71282 1.02257 9.57665 1.31779L7.18577 6.50121L1.51723 7.1733C1.19438 7.21158 0.923263 7.43413 0.822797 7.74333C0.722332 8.05253 0.810859 8.39192 1.04955 8.61266L5.24045 12.4883L4.12798 18.0871C4.06462 18.406 4.19249 18.7326 4.45551 18.9237C4.71853 19.1148 5.06867 19.1354 5.35237 18.9766L10.3334 16.1885L15.3144 18.9766C15.5981 19.1354 15.9482 19.1148 16.2112 18.9237C16.4742 18.7326 16.6021 18.406 16.5387 18.0871L15.4263 12.4883L19.6172 8.61266C19.8559 8.39192 19.9444 8.05253 19.8439 7.74333C19.7435 7.43413 19.4723 7.21158 19.1495 7.1733L13.481 6.50121L11.0901 1.31779Z"/>
</mask>
<path d="M11.0901 1.31779L9.27396 2.15548L9.27396 2.15548L11.0901 1.31779ZM9.57665 1.31779L7.76053 0.480099L7.76053 0.480099L9.57665 1.31779ZM7.18577 6.50121L7.42125 8.4873C8.11198 8.4054 8.71055 7.97051 9.00188 7.3389L7.18577 6.50121ZM1.51723 7.1733L1.28174 5.18721L1.28174 5.18721L1.51723 7.1733ZM0.822797 7.74333L2.72491 8.36136L2.72491 8.36136L0.822797 7.74333ZM1.04955 8.61266L-0.308354 10.081L-0.308352 10.081L1.04955 8.61266ZM5.24045 12.4883L7.2021 12.8781C7.33766 12.1958 7.10903 11.4922 6.59835 11.0199L5.24045 12.4883ZM4.12798 18.0871L2.16633 17.6973L2.16633 17.6973L4.12798 18.0871ZM4.45551 18.9237L3.27994 20.5417L3.27994 20.5417L4.45551 18.9237ZM5.35237 18.9766L6.32925 20.7218L6.32925 20.7218L5.35237 18.9766ZM10.3334 16.1885L11.3102 14.4433C10.7033 14.1036 9.96342 14.1036 9.35648 14.4433L10.3334 16.1885ZM15.3144 18.9766L14.3375 20.7218L14.3375 20.7218L15.3144 18.9766ZM16.2112 18.9237L17.3868 20.5417L17.3868 20.5417L16.2112 18.9237ZM16.5387 18.0871L14.5771 18.4769L14.5771 18.4769L16.5387 18.0871ZM15.4263 12.4883L14.0684 11.0199C13.5577 11.4922 13.3291 12.1958 13.4646 12.8781L15.4263 12.4883ZM19.6172 8.61266L18.2593 7.14429L18.2593 7.14429L19.6172 8.61266ZM19.8439 7.74333L21.746 7.12529L21.746 7.12529L19.8439 7.74333ZM19.1495 7.1733L19.385 5.18721L19.385 5.18721L19.1495 7.1733ZM13.481 6.50121L11.6648 7.3389C11.9562 7.97051 12.5547 8.4054 13.2455 8.4873L13.481 6.50121ZM10.3334 2.8335C9.8782 2.8335 9.4646 2.56879 9.27396 2.15548L12.9062 0.480099C12.4432 -0.523653 11.4387 -1.1665 10.3334 -1.1665V2.8335ZM11.3928 2.15548C11.2021 2.56879 10.7885 2.8335 10.3334 2.8335V-1.1665C9.22798 -1.1665 8.22352 -0.523654 7.76053 0.480099L11.3928 2.15548ZM9.00188 7.3389L11.3928 2.15548L7.76053 0.480099L5.36966 5.66351L9.00188 7.3389ZM1.75271 9.15939L7.42125 8.4873L6.95029 4.51512L1.28174 5.18721L1.75271 9.15939ZM2.72491 8.36136C2.58426 8.79424 2.2047 9.1058 1.75271 9.15939L1.28174 5.18721C0.184049 5.31737 -0.737734 6.07401 -1.07932 7.12529L2.72491 8.36136ZM2.40746 7.1443C2.74162 7.45332 2.86556 7.92848 2.72491 8.36136L-1.07932 7.12529C-1.4209 8.17658 -1.1199 9.33052 -0.308354 10.081L2.40746 7.1443ZM6.59835 11.0199L2.40745 7.14429L-0.308352 10.081L3.88255 13.9567L6.59835 11.0199ZM6.08963 18.4769L7.2021 12.8781L3.2788 12.0985L2.16633 17.6973L6.08963 18.4769ZM5.63108 17.3056C5.99931 17.5732 6.17833 18.0304 6.08963 18.4769L2.16633 17.6973C1.9509 18.7815 2.38567 19.892 3.27994 20.5417L5.63108 17.3056ZM4.37548 17.2315C4.77265 17.0091 5.26285 17.0381 5.63108 17.3056L3.27994 20.5417C4.17422 21.1914 5.36469 21.2618 6.32925 20.7218L4.37548 17.2315ZM9.35648 14.4433L4.37548 17.2315L6.32925 20.7218L11.3102 17.9337L9.35648 14.4433ZM16.2912 17.2315L11.3102 14.4433L9.35648 17.9337L14.3375 20.7218L16.2912 17.2315ZM15.0356 17.3056C15.4039 17.0381 15.8941 17.0091 16.2912 17.2315L14.3375 20.7218C15.302 21.2618 16.4925 21.1914 17.3868 20.5417L15.0356 17.3056ZM14.5771 18.4769C14.4884 18.0304 14.6674 17.5732 15.0356 17.3056L17.3868 20.5417C18.2811 19.892 18.7158 18.7815 18.5004 17.6973L14.5771 18.4769ZM13.4646 12.8781L14.5771 18.4769L18.5004 17.6973L17.3879 12.0985L13.4646 12.8781ZM18.2593 7.14429L14.0684 11.0199L16.7842 13.9567L20.9751 10.081L18.2593 7.14429ZM17.9418 8.36136C17.8012 7.92848 17.9251 7.45332 18.2593 7.14429L20.9751 10.081C21.7866 9.33053 22.0876 8.17658 21.746 7.12529L17.9418 8.36136ZM18.914 9.15939C18.462 9.1058 18.0825 8.79424 17.9418 8.36136L21.746 7.12529C21.4045 6.07401 20.4827 5.31737 19.385 5.18721L18.914 9.15939ZM13.2455 8.4873L18.914 9.15939L19.385 5.18721L13.7164 4.51512L13.2455 8.4873ZM9.27396 2.15548L11.6648 7.3389L15.2971 5.66351L12.9062 0.480098L9.27396 2.15548Z" fill="#ACACBB" mask="url(#path-1-inside-1_614_59)"/>
</svg>
