<svg width="18" height="19" viewBox="0 0 18 19" fill="none" xmlns="http://www.w3.org/2000/svg">
<path d="M17.526 9.64058C17.526 8.90537 17.4663 8.36887 17.3372 7.8125H8.94189V11.1308H13.8698C13.7704 11.9555 13.2339 13.1974 12.0417 14.0319L12.025 14.143L14.6794 16.1994L14.8633 16.2177C16.5523 14.6579 17.526 12.3628 17.526 9.64058Z" fill="#4285F4"/>
<path d="M8.94209 18.3837C11.3563 18.3837 13.3831 17.5888 14.8635 16.2178L12.0419 14.032C11.2868 14.5586 10.2734 14.9262 8.94209 14.9262C6.57751 14.9262 4.5706 13.3664 3.85519 11.2104L3.75032 11.2194L0.990197 13.3554L0.954102 13.4558C2.42451 16.3767 5.44484 18.3837 8.94209 18.3837Z" fill="#34A853"/>
<path d="M3.85485 11.2106C3.66608 10.6543 3.55684 10.0581 3.55684 9.44215C3.55684 8.82612 3.66608 8.23003 3.84492 7.67366L3.83992 7.55517L1.0452 5.38477L0.953763 5.42826C0.347738 6.64038 0 8.00154 0 9.44215C0 10.8828 0.347738 12.2438 0.953763 13.456L3.85485 11.2106Z" fill="#FBBC05"/>
<path d="M8.94208 3.95745C10.6211 3.95745 11.7537 4.68272 12.3995 5.28882L14.9231 2.82485C13.3732 1.38424 11.3563 0.5 8.94208 0.5C5.44484 0.5 2.42451 2.50691 0.954102 5.42786L3.84526 7.67326C4.57059 5.51731 6.5775 3.95745 8.94208 3.95745Z" fill="#EB4335"/>
</svg>
