<svg width="21" height="31" viewBox="0 0 21 31" fill="none" xmlns="http://www.w3.org/2000/svg">
<g clip-path="url(#clip0_463_1102)">
<path d="M20.9631 6.24609L19.0566 27.8826L10.4868 30.2895L1.94061 27.886L0.0361328 6.24609H20.9631Z" fill="#E44D26"/>
<path d="M10.5 28.4499L17.4248 26.505L19.054 8.01562H10.5V28.4499Z" fill="#F16529"/>
<path d="M6.79382 13.3235H10.5V10.6694H3.93066L3.99338 11.3815L4.63728 18.6953H10.5V16.0413H7.03324L6.79382 13.3235Z" fill="#EBEBEB"/>
<path d="M7.38381 20.0225H4.75391L5.12094 24.1897L10.4875 25.6989L10.4995 25.6956V22.9342L10.4881 22.9373L7.57033 22.1392L7.38381 20.0225Z" fill="#EBEBEB"/>
<path d="M1.9834 0.365234H3.31476V1.6978H4.53265V0.365234H5.86407V4.40056H4.53271V3.0493H3.31482V4.40056H1.98346L1.9834 0.365234Z" fill="black"/>
<path d="M7.61446 1.70341H6.44238V0.365234H10.1185V1.70341H8.94594V4.40056H7.61452L7.61446 1.70341Z" fill="black"/>
<path d="M10.7021 0.365234H12.0904L12.9444 1.78313L13.7975 0.365234H15.1862V4.40056H13.8603V2.40043L12.9444 3.83521H12.9215L12.0048 2.40043V4.40056H10.7021V0.365234Z" fill="black"/>
<path d="M15.8486 0.365234H17.1804V3.06671H19.0527V4.40056H15.8486V0.365234Z" fill="black"/>
<path d="M10.4902 18.6955H13.7163L13.4122 22.1376L10.4902 22.9366V25.6978L15.861 24.1898L15.9004 23.7414L16.5161 16.7542L16.58 16.0415H10.4902V18.6955Z" fill="white"/>
<path d="M10.4902 13.317V13.3235H16.8184L16.8709 12.727L16.9903 11.3815L17.053 10.6694H10.4902V13.317Z" fill="white"/>
</g>
<defs>
<clipPath id="clip0_463_1102">
<rect width="21" height="30" fill="white" transform="translate(0 0.365234)"/>
</clipPath>
</defs>
</svg>
