<svg width="55" height="55" viewBox="0 0 55 55" fill="none" xmlns="http://www.w3.org/2000/svg">
<g clip-path="url(#clip0_173_3542)">
<path d="M50.9584 54.875H3.70837C1.84454 54.875 0.333374 53.3638 0.333374 51.5V4.25C0.333374 2.38617 1.84454 0.875 3.70837 0.875H50.9584C52.8222 0.875 54.3334 2.38617 54.3334 4.25V51.5C54.3334 53.3638 52.8222 54.875 50.9584 54.875ZM3.70837 3.12486C3.0871 3.12486 2.58324 3.62872 2.58324 4.25V51.5C2.58324 52.1213 3.0871 52.6251 3.70837 52.6251H50.9584C51.5797 52.6251 52.0835 52.1213 52.0835 51.5V4.25C52.0835 3.62872 51.5797 3.12486 50.9584 3.12486H3.70837Z" fill="#ACACBB" fill-opacity="0.7"/>
<path d="M53.2082 12.1251H13.8334C13.5351 12.1251 13.2487 12.0065 13.0378 11.7955L11.1175 9.87486H7.5489L5.62863 11.7955C5.41769 12.0065 5.13177 12.1251 4.8335 12.1251H1.4585V9.87486H4.36754L6.28781 7.95459C6.49875 7.74365 6.78508 7.625 7.08336 7.625H11.5835C11.8818 7.625 12.1677 7.74365 12.3786 7.95459L14.2989 9.87486H53.2082V12.1251Z" fill="#ACACBB" fill-opacity="0.7"/>
<path d="M47.5834 5.375H49.8332V7.62486H47.5834V5.375Z" fill="#ACACBB" fill-opacity="0.7"/>
<path d="M27.3334 5.375H45.3335V7.62486H27.3334V5.375Z" fill="#ACACBB" fill-opacity="0.7"/>
<path d="M29.5833 32.375H12.7083C10.8444 32.375 9.33325 30.8638 9.33325 29V22.25C9.33325 20.3858 10.8444 18.875 12.7083 18.875H36.3333V21.1249H12.7083C12.087 21.1249 11.5835 21.6287 11.5835 22.25V29C11.5835 29.6213 12.087 30.1247 12.7083 30.1247H29.5833V32.375Z" fill="#ACACBB" fill-opacity="0.7"/>
<path d="M36.3332 36.8747C31.3626 36.8747 27.3334 32.8455 27.3334 27.8749C27.3334 22.9042 31.3626 18.875 36.3332 18.875C41.3039 18.875 45.3335 22.9042 45.3335 27.8749C45.3277 32.843 41.3018 36.8694 36.3332 36.8747ZM36.3332 21.1249C32.6056 21.1249 29.5832 24.1468 29.5832 27.8749C29.5832 31.6029 32.6056 34.6249 36.3332 34.6249C40.0613 34.6249 43.0832 31.6029 43.0832 27.8749C43.0795 24.1484 40.0597 21.1286 36.3332 21.1249Z" fill="#ACACBB" fill-opacity="0.7"/>
<path d="M41.1621 34.2952L42.7532 32.7041L49.5028 39.4541L47.9121 41.0448L41.1621 34.2952Z" fill="#ACACBB" fill-opacity="0.7"/>
<path d="M7.08336 18.8751H4.8335V15.5001C4.8335 14.8789 5.33694 14.375 5.95822 14.375H9.33322V16.6249H7.08336V18.8751Z" fill="#ACACBB" fill-opacity="0.7"/>
<path d="M49.8332 18.8751H47.5834V16.6249H45.3335V14.375H48.7085C49.3298 14.375 49.8332 14.8789 49.8332 15.5001V18.8751Z" fill="#ACACBB" fill-opacity="0.7"/>
<path d="M9.33322 50.3747H5.95822C5.33694 50.3747 4.8335 49.8713 4.8335 49.25V45.875H7.08336V48.1249H9.33322V50.3747Z" fill="#ACACBB" fill-opacity="0.7"/>
<path d="M48.7085 50.3747H45.3335V48.1249H47.5834V45.875H49.8332V49.25C49.8332 49.8713 49.3298 50.3747 48.7085 50.3747Z" fill="#ACACBB" fill-opacity="0.7"/>
<path d="M22.0381 46.6703L18.6631 43.2953C18.2239 42.8561 18.2239 42.1438 18.6631 41.7046L22.0381 38.3296L23.6288 39.9203L21.0489 42.5001L23.6288 45.0796L22.0381 46.6703Z" fill="#ACACBB" fill-opacity="0.7"/>
<path d="M32.6286 46.6703L31.038 45.0796L33.6178 42.5001L31.038 39.9203L32.6286 38.3296L36.0036 41.7046C36.4428 42.1438 36.4428 42.8561 36.0036 43.2953L32.6286 46.6703Z" fill="#ACACBB" fill-opacity="0.7"/>
</g>
<defs>
<clipPath id="clip0_173_3542">
<rect width="54" height="54" fill="white" transform="translate(0.333374 0.875)"/>
</clipPath>
</defs>
</svg>
