<svg width="20" height="20" viewBox="0 0 20 20" fill="none" xmlns="http://www.w3.org/2000/svg">
<g clip-path="url(#clip0_173_3178)">
<path fill-rule="evenodd" clip-rule="evenodd" d="M12.9408 11.3436C12.948 11.4047 12.9431 11.4667 12.9264 11.5259C12.9096 11.5852 12.8813 11.6405 12.8432 11.6889C12.805 11.7372 12.7577 11.7775 12.704 11.8075C12.6502 11.8376 12.5911 11.8567 12.5299 11.8639C12.5116 11.866 12.4931 11.8671 12.4747 11.8672C12.36 11.867 12.2494 11.8248 12.1638 11.7485C12.0782 11.6721 12.0236 11.5671 12.0103 11.4532L12.0048 11.4165L10.8144 12.8243C10.7471 12.904 10.655 12.959 10.5529 12.9805C10.4508 13.002 10.3444 12.9889 10.2506 12.9431L9.08235 12.3725L7.81282 13.9241C7.77386 13.9718 7.7259 14.0113 7.67166 14.0404C7.61743 14.0696 7.55799 14.0877 7.49674 14.0939C7.43548 14.1 7.37361 14.0941 7.31467 14.0763C7.25572 14.0586 7.20084 14.0294 7.15317 13.9904C7.10551 13.9515 7.06598 13.9035 7.03685 13.8493C7.00772 13.795 6.98955 13.7356 6.98339 13.6743C6.97723 13.6131 6.9832 13.5512 7.00095 13.4923C7.0187 13.4333 7.04789 13.3784 7.08685 13.3308L8.59044 11.4917C8.65749 11.4099 8.75015 11.3531 8.85344 11.3305C8.95674 11.3079 9.06464 11.3207 9.15974 11.367L10.3355 11.9404L11.2992 10.8L11.1979 10.812C11.1367 10.8193 11.0748 10.8144 11.0155 10.7977C10.9562 10.781 10.9009 10.7528 10.8525 10.7147C10.8041 10.6766 10.7637 10.6294 10.7336 10.5757C10.7035 10.522 10.6843 10.4629 10.677 10.4018C10.6698 10.3406 10.6746 10.2787 10.6913 10.2194C10.708 10.1601 10.7362 10.1047 10.7743 10.0564C10.8124 10.008 10.8596 9.96764 10.9133 9.93753C10.967 9.90743 11.0261 9.8882 11.0873 9.88094L12.2795 9.74051C12.4031 9.72603 12.5274 9.76116 12.6251 9.83818C12.7229 9.9152 12.7861 10.0278 12.8009 10.1514L12.941 11.3436L12.9408 11.3436ZM18.1548 0H1.83782C1.46948 0.00395831 1.11756 0.152979 0.858379 0.414737C0.599202 0.676495 0.453677 1.02988 0.453369 1.39824V13.7559C0.453628 14.1267 0.601046 14.4823 0.863248 14.7445C1.12545 15.0067 1.481 15.1541 1.85181 15.1543H5.76747C5.90585 15.3334 6.05541 15.5036 6.21524 15.6639C7.15235 16.5988 8.40513 17.1497 9.72759 17.2083C11.0501 17.2669 12.3467 16.829 13.3628 15.9806L13.6816 16.2996L13.4181 16.5645C13.3743 16.6079 13.3395 16.6595 13.3158 16.7164C13.2921 16.7733 13.2799 16.8343 13.2799 16.8959C13.2799 16.9575 13.2921 17.0186 13.3158 17.0754C13.3395 17.1323 13.3743 17.1839 13.4181 17.2273L15.8061 19.6166C16.0525 19.861 16.3857 19.9977 16.7328 19.9969C17.0798 19.9962 17.4124 19.858 17.6577 19.6126C17.9031 19.3672 18.0413 19.0346 18.042 18.6875C18.0427 18.3405 17.9059 18.0073 17.6616 17.7609L15.2736 15.3717C15.1856 15.2837 15.0663 15.2343 14.9419 15.2343C14.8175 15.2343 14.6982 15.2837 14.6102 15.3717L14.3449 15.6365L14.0261 15.3177C14.0722 15.2639 14.1165 15.2094 14.1589 15.1543H18.1407C18.5115 15.154 18.8671 15.0066 19.1293 14.7444C19.3915 14.4822 19.5389 14.1266 19.5392 13.7558V1.39824C19.5388 1.02989 19.3933 0.67652 19.1342 0.414764C18.875 0.153008 18.5231 0.00397873 18.1548 0ZM11.2438 2.61816C11.2436 2.55662 11.2556 2.49565 11.279 2.43876C11.3025 2.38186 11.337 2.33015 11.3804 2.2866C11.4239 2.24305 11.4756 2.20851 11.5325 2.18497C11.5893 2.16143 11.6503 2.14935 11.7118 2.14941H16.9817C17.106 2.14941 17.2252 2.1988 17.3131 2.28671C17.4011 2.37462 17.4504 2.49384 17.4504 2.61816C17.4504 2.74248 17.4011 2.86171 17.3131 2.94962C17.2252 3.03753 17.106 3.08691 16.9817 3.08691H11.7118C11.6503 3.08698 11.5893 3.0749 11.5325 3.05136C11.4756 3.02781 11.4239 2.99328 11.3804 2.94973C11.337 2.90618 11.3025 2.85447 11.279 2.79757C11.2556 2.74068 11.2436 2.67971 11.2438 2.61816ZM5.53716 2.61816C5.5372 2.55652 5.5494 2.4955 5.57304 2.43857C5.59669 2.38165 5.63132 2.32994 5.67496 2.28641C5.71859 2.24288 5.77038 2.20837 5.82736 2.18486C5.88435 2.16136 5.9454 2.14931 6.00704 2.14941H6.03282C6.15714 2.14941 6.27637 2.1988 6.36428 2.28671C6.45219 2.37462 6.50157 2.49384 6.50157 2.61816C6.50157 2.74248 6.45219 2.86171 6.36428 2.94962C6.27637 3.03753 6.15714 3.08691 6.03282 3.08691H6.00704C5.9454 3.08701 5.88435 3.07496 5.82737 3.05145C5.77039 3.02795 5.7186 2.99344 5.67497 2.94991C5.63133 2.90637 5.5967 2.85467 5.57305 2.79775C5.54941 2.74083 5.53721 2.6798 5.53716 2.61816ZM4.03911 2.61816C4.03916 2.55652 4.05135 2.4955 4.075 2.43857C4.09864 2.38165 4.13327 2.32994 4.17691 2.28641C4.22055 2.24288 4.27234 2.20837 4.32932 2.18486C4.3863 2.16136 4.44735 2.14931 4.50899 2.14941H4.53478C4.6591 2.14941 4.77832 2.1988 4.86623 2.28671C4.95414 2.37462 5.00353 2.49384 5.00353 2.61816C5.00353 2.74248 4.95414 2.86171 4.86623 2.94962C4.77832 3.03753 4.6591 3.08691 4.53478 3.08691H4.50899C4.44736 3.08701 4.3863 3.07496 4.32932 3.05145C4.27235 3.02795 4.22056 2.99344 4.17692 2.94991C4.13328 2.90637 4.09865 2.85467 4.07501 2.79775C4.05136 2.74083 4.03916 2.6798 4.03911 2.61816ZM2.54106 2.61816C2.54111 2.55652 2.5533 2.4955 2.57695 2.43857C2.60059 2.38165 2.63522 2.32994 2.67886 2.28641C2.7225 2.24288 2.77429 2.20837 2.83127 2.18486C2.88825 2.16136 2.94931 2.14931 3.01095 2.14941H3.03673C3.16105 2.14941 3.28028 2.1988 3.36818 2.28671C3.45609 2.37462 3.50548 2.49384 3.50548 2.61816C3.50548 2.74248 3.45609 2.86171 3.36818 2.94962C3.28028 3.03753 3.16105 3.08691 3.03673 3.08691H3.01095C2.94931 3.08702 2.88825 3.07497 2.83127 3.05146C2.77429 3.02796 2.7225 2.99345 2.67886 2.94992C2.63522 2.90639 2.60059 2.85468 2.57695 2.79775C2.5533 2.74083 2.54111 2.6798 2.54106 2.61816ZM1.85192 0.937305H18.1407C18.2631 0.937407 18.3804 0.985954 18.4671 1.07233C18.5537 1.15871 18.6027 1.27589 18.6032 1.39824V4.29871H1.38942V1.39824C1.38993 1.27588 1.43887 1.1587 1.52554 1.07232C1.61221 0.985939 1.72956 0.937397 1.85192 0.937305ZM18.1407 14.2167C18.2631 14.2167 18.3805 14.1681 18.4671 14.0817C18.5538 13.9954 18.6027 13.8782 18.6032 13.7558V5.23625H1.38942V13.7558C1.38988 13.8782 1.4388 13.9954 1.52548 14.0818C1.61217 14.1682 1.72954 14.2167 1.85192 14.2167H5.18708C4.71125 13.2264 4.55461 12.1128 4.73878 11.0296C4.92295 9.9465 5.43885 8.94724 6.21524 8.16984C8.28267 6.10387 11.6436 6.10387 13.7092 8.16984C14.4862 8.94681 15.0027 9.94598 15.1873 11.0292C15.3718 12.1125 15.2152 13.2263 14.7392 14.2167H18.1407ZM6.8788 15.0008C7.59231 15.7146 8.53127 16.159 9.53569 16.2582C10.5401 16.3573 11.5478 16.1051 12.3871 15.5445C13.2265 14.9839 13.8454 14.1497 14.1386 13.1839C14.4317 12.2181 14.3809 11.1805 13.9948 10.248C13.6087 9.31548 12.9111 8.54569 12.0211 8.06981C11.131 7.59394 10.1034 7.44142 9.11352 7.63824C8.12359 7.83507 7.23254 8.36906 6.59221 9.14922C5.95187 9.92939 5.60187 10.9075 5.60185 11.9168C5.60113 12.4896 5.71357 13.0569 5.9327 13.5861C6.15184 14.1154 6.47336 14.5961 6.8788 15.0008ZM15.3677 16.7918L14.8371 17.3215L14.4113 16.8957L14.942 16.3658L15.3677 16.7916V16.7918ZM17.109 18.6888C17.1088 18.7628 17.0867 18.835 17.0455 18.8965C17.0043 18.9579 16.9459 19.0058 16.8775 19.0341C16.8091 19.0624 16.734 19.0699 16.6614 19.0555C16.5888 19.0412 16.5221 19.0057 16.4696 18.9536L15.5004 17.9845L16.0311 17.4548L17.0003 18.4238C17.035 18.4586 17.0624 18.5 17.0811 18.5454C17.0997 18.5909 17.1091 18.6396 17.1088 18.6888H17.109Z" fill="#C9C9CF"/>
</g>
<defs>
<clipPath id="clip0_173_3178">
<rect width="20" height="20" fill="white"/>
</clipPath>
</defs>
</svg>
