<svg width="20" height="21" viewBox="0 0 20 21" fill="none" xmlns="http://www.w3.org/2000/svg">
<path d="M18.125 13.625H17.5V6.125C17.5 5.62772 17.3025 5.15081 16.9508 4.79917C16.5992 4.44754 16.1223 4.25 15.625 4.25H4.375C3.87772 4.25 3.40081 4.44754 3.04917 4.79917C2.69754 5.15081 2.5 5.62772 2.5 6.125V13.625H1.875C1.70924 13.625 1.55027 13.6908 1.43306 13.8081C1.31585 13.9253 1.25 14.0842 1.25 14.25V15.5C1.25 15.9973 1.44754 16.4742 1.79917 16.8258C2.15081 17.1775 2.62772 17.375 3.125 17.375H16.875C17.3723 17.375 17.8492 17.1775 18.2008 16.8258C18.5525 16.4742 18.75 15.9973 18.75 15.5V14.25C18.75 14.0842 18.6842 13.9253 18.5669 13.8081C18.4497 13.6908 18.2908 13.625 18.125 13.625ZM3.75 6.125C3.75 5.95924 3.81585 5.80027 3.93306 5.68306C4.05027 5.56585 4.20924 5.5 4.375 5.5H15.625C15.7908 5.5 15.9497 5.56585 16.0669 5.68306C16.1842 5.80027 16.25 5.95924 16.25 6.125V13.625H3.75V6.125ZM17.5 15.5C17.5 15.6658 17.4342 15.8247 17.3169 15.9419C17.1997 16.0592 17.0408 16.125 16.875 16.125H3.125C2.95924 16.125 2.80027 16.0592 2.68306 15.9419C2.56585 15.8247 2.5 15.6658 2.5 15.5V14.875H17.5V15.5ZM11.875 7.375C11.875 7.54076 11.8092 7.69973 11.6919 7.81694C11.5747 7.93415 11.4158 8 11.25 8H8.75C8.58424 8 8.42527 7.93415 8.30806 7.81694C8.19085 7.69973 8.125 7.54076 8.125 7.375C8.125 7.20924 8.19085 7.05027 8.30806 6.93306C8.42527 6.81585 8.58424 6.75 8.75 6.75H11.25C11.4158 6.75 11.5747 6.81585 11.6919 6.93306C11.8092 7.05027 11.875 7.20924 11.875 7.375Z" fill="#545454"/>
</svg>
