<svg width="18" height="14" viewBox="0 0 18 14" fill="none" xmlns="http://www.w3.org/2000/svg">
<path d="M17.125 10.125H16.5V2.625C16.5 2.12772 16.3025 1.65081 15.9508 1.29917C15.5992 0.947544 15.1223 0.75 14.625 0.75H3.375C2.87772 0.75 2.40081 0.947544 2.04917 1.29917C1.69754 1.65081 1.5 2.12772 1.5 2.625V10.125H0.875C0.70924 10.125 0.550268 10.1908 0.433058 10.3081C0.315848 10.4253 0.25 10.5842 0.25 10.75V12C0.25 12.4973 0.447544 12.9742 0.799175 13.3258C1.15081 13.6775 1.62772 13.875 2.125 13.875H15.875C16.3723 13.875 16.8492 13.6775 17.2008 13.3258C17.5525 12.9742 17.75 12.4973 17.75 12V10.75C17.75 10.5842 17.6842 10.4253 17.5669 10.3081C17.4497 10.1908 17.2908 10.125 17.125 10.125ZM2.75 2.625C2.75 2.45924 2.81585 2.30027 2.93306 2.18306C3.05027 2.06585 3.20924 2 3.375 2H14.625C14.7908 2 14.9497 2.06585 15.0669 2.18306C15.1842 2.30027 15.25 2.45924 15.25 2.625V10.125H2.75V2.625ZM16.5 12C16.5 12.1658 16.4342 12.3247 16.3169 12.4419C16.1997 12.5592 16.0408 12.625 15.875 12.625H2.125C1.95924 12.625 1.80027 12.5592 1.68306 12.4419C1.56585 12.3247 1.5 12.1658 1.5 12V11.375H16.5V12ZM10.875 3.875C10.875 4.04076 10.8092 4.19973 10.6919 4.31694C10.5747 4.43415 10.4158 4.5 10.25 4.5H7.75C7.58424 4.5 7.42527 4.43415 7.30806 4.31694C7.19085 4.19973 7.125 4.04076 7.125 3.875C7.125 3.70924 7.19085 3.55027 7.30806 3.43306C7.42527 3.31585 7.58424 3.25 7.75 3.25H10.25C10.4158 3.25 10.5747 3.31585 10.6919 3.43306C10.8092 3.55027 10.875 3.70924 10.875 3.875Z" fill="#545454"/>
</svg>
