<svg width="40" height="24" viewBox="0 0 40 24" fill="none" xmlns="http://www.w3.org/2000/svg">
<rect width="0.987587" height="20.3305" transform="translate(0 3.54688)" fill="#89BFED"/>
<rect width="0.987587" height="20.3305" transform="translate(0.989258 3.54688)" fill="#0080EF"/>
<rect width="0.987587" height="20.3305" transform="translate(2.96619 3.54688)" fill="#89BFED"/>
<rect width="0.987587" height="20.3305" transform="translate(3.94971 3.54688)" fill="#0080EF"/>
<rect width="0.987587" height="20.3305" transform="translate(6.9115 3.54688)" fill="#89BFED"/>
<rect width="0.987587" height="20.3305" transform="translate(7.90369 3.54688)" fill="#0080EF"/>
<rect width="0.987587" height="20.3305" transform="translate(9.87537 3.54688)" fill="#89BFED"/>
<rect width="0.987587" height="20.3305" transform="translate(10.864 3.54688)" fill="#0080EF"/>
<rect width="0.987587" height="20.3305" transform="translate(13.8247 3.54688)" fill="#89BFED"/>
<rect width="0.987587" height="20.3305" transform="translate(14.8146 3.54688)" fill="#0080EF"/>
<rect width="0.987587" height="20.3305" transform="translate(16.788 3.54688)" fill="#89BFED"/>
<rect width="0.987587" height="20.3305" transform="translate(17.7789 3.54688)" fill="#0080EF"/>
<rect width="0.987587" height="20.3305" transform="translate(20.7395 3.54688)" fill="#89BFED"/>
<rect width="0.987587" height="20.3305" transform="translate(21.7249 3.54688)" fill="#0080EF"/>
<rect width="0.987587" height="20.3305" transform="translate(23.7001 3.54688)" fill="#89BFED"/>
<rect width="0.987587" height="20.3305" transform="translate(24.6912 3.54688)" fill="#0080EF"/>
<rect width="0.987587" height="20.3305" transform="translate(34.5681 3.54688)" fill="#89BFED"/>
<rect width="0.987587" height="20.3305" transform="translate(35.5524 3.54688)" fill="#0080EF"/>
<rect width="0.987587" height="20.3305" transform="translate(37.5293 3.54688)" fill="#89BFED"/>
<rect width="0.987587" height="20.3305" transform="translate(38.5128 3.54688)" fill="#0080EF"/>
<rect width="0.987587" height="23.2349" transform="translate(27.6538 0.642578)" fill="#89BFED"/>
<rect width="0.987587" height="23.2349" transform="translate(28.6375 0.642578)" fill="#0080EF"/>
<rect width="0.987587" height="23.2349" transform="translate(30.6144 0.642578)" fill="#89BFED"/>
<rect width="0.987587" height="23.2349" transform="translate(31.6016 0.642578)" fill="#0080EF"/>
</svg>
