<svg width="16" height="16" viewBox="0 0 16 16" fill="none" xmlns="http://www.w3.org/2000/svg">
<path d="M7.32374 11.7963C7.39366 11.866 7.44913 11.9487 7.48699 12.0399C7.52484 12.1311 7.54433 12.2288 7.54433 12.3275C7.54433 12.4262 7.52484 12.524 7.48699 12.6151C7.44913 12.7063 7.39366 12.7891 7.32374 12.8588L7.00374 13.1788C6.66405 13.5197 6.26014 13.7899 5.81536 13.9738C5.37058 14.1577 4.89377 14.2516 4.41249 14.25C3.68769 14.2503 2.97912 14.0355 2.3764 13.6329C1.77368 13.2304 1.30391 12.6581 1.02651 11.9885C0.749115 11.3189 0.676559 10.582 0.818022 9.87119C0.959486 9.16034 1.30861 8.50741 1.82124 7.99502L3.99311 5.82315C4.45507 5.36126 5.03209 5.03124 5.66443 4.86725C6.29677 4.70326 6.96146 4.71126 7.58967 4.89043C8.21788 5.0696 8.78678 5.41342 9.23748 5.8863C9.68818 6.35919 10.0043 6.94394 10.1531 7.58002C10.1778 7.67674 10.1829 7.7774 10.1681 7.87611C10.1533 7.97482 10.119 8.06959 10.0672 8.15487C10.0153 8.24015 9.94698 8.31422 9.86614 8.37274C9.78529 8.43127 9.69358 8.47307 9.59637 8.4957C9.49917 8.51833 9.39842 8.52132 9.30004 8.50452C9.20166 8.48771 9.10763 8.45144 9.02345 8.39782C8.93926 8.34421 8.86663 8.27433 8.8098 8.19229C8.75297 8.11024 8.71309 8.01768 8.69249 7.92002C8.60418 7.54454 8.4172 7.19946 8.15086 6.92045C7.88452 6.64144 7.54849 6.43863 7.17752 6.33298C6.80655 6.22734 6.41409 6.22269 6.04071 6.31952C5.66734 6.41635 5.32661 6.61115 5.05374 6.88377L2.88186 9.05565C2.57912 9.35815 2.37288 9.74363 2.28923 10.1633C2.20557 10.5831 2.24827 11.0182 2.41191 11.4136C2.57555 11.8091 2.85278 12.1471 3.20855 12.385C3.56432 12.6229 3.98264 12.7499 4.41061 12.75C4.69498 12.7509 4.97668 12.6953 5.23941 12.5865C5.50215 12.4777 5.74069 12.3179 5.94124 12.1163L6.26061 11.7963C6.3303 11.7263 6.41313 11.6707 6.50436 11.6328C6.59558 11.5949 6.69339 11.5754 6.79217 11.5754C6.89096 11.5754 6.98877 11.5949 7.07999 11.6328C7.17121 11.6707 7.25405 11.7263 7.32374 11.7963ZM14.1769 2.82315C13.4895 2.13597 12.5573 1.74994 11.5853 1.74994C10.6133 1.74994 9.68114 2.13597 8.99374 2.82315L8.67436 3.14252C8.53346 3.28342 8.45431 3.47452 8.45431 3.67377C8.45431 3.87303 8.53346 4.06413 8.67436 4.20502C8.81526 4.34592 9.00635 4.42508 9.20561 4.42508C9.40487 4.42508 9.59597 4.34592 9.73686 4.20502L10.0569 3.88503C10.463 3.47891 11.0138 3.25076 11.5881 3.25076C12.1624 3.25076 12.7132 3.47891 13.1194 3.88503C13.5255 4.29114 13.7536 4.84194 13.7536 5.41628C13.7536 5.99061 13.5255 6.54141 13.1194 6.94753L10.9437 9.11627C10.7432 9.31788 10.5046 9.47771 10.2419 9.58649C9.97918 9.69528 9.69748 9.75086 9.41311 9.75002C8.9253 9.74968 8.4519 9.58455 8.0697 9.28142C7.6875 8.9783 7.41891 8.55494 7.30749 8.08002C7.2624 7.88625 7.14218 7.71832 6.97328 7.61319C6.80438 7.50805 6.60064 7.47431 6.40686 7.5194C6.21309 7.56449 6.04516 7.6847 5.94002 7.8536C5.83489 8.0225 5.80115 8.22625 5.84624 8.42002C6.03443 9.22432 6.4888 9.94146 7.13567 10.4551C7.78254 10.9688 8.58397 11.2489 9.40999 11.25H9.41311C9.89462 11.2513 10.3716 11.1572 10.8165 10.973C11.2614 10.7888 11.6653 10.5182 12.005 10.1769L14.1769 8.00502C14.5172 7.6648 14.7871 7.26088 14.9713 6.81632C15.1554 6.37177 15.2502 5.89528 15.2502 5.41409C15.2502 4.93289 15.1554 4.45641 14.9713 4.01185C14.7871 3.56729 14.5172 3.16337 14.1769 2.82315Z" fill="#CCCCCC"/>
</svg>
