<svg width="10" height="14" viewBox="0 0 10 14" fill="none" xmlns="http://www.w3.org/2000/svg">
<path d="M5.93723 4.93652C5.93723 5.11886 5.86479 5.29373 5.73586 5.42266C5.60693 5.55159 5.43206 5.62402 5.24973 5.62402C5.06739 5.62402 4.89252 5.55159 4.76359 5.42266C4.63466 5.29373 4.56223 5.11886 4.56223 4.93652C4.56223 4.75419 4.63466 4.57932 4.76359 4.45039C4.89252 4.32146 5.06739 4.24902 5.24973 4.24902C5.43206 4.24902 5.60693 4.32146 5.73586 4.45039C5.86479 4.57932 5.93723 4.75419 5.93723 4.93652Z" stroke="#9B9BAC" stroke-width="1.33" stroke-linejoin="round"/>
<path d="M9.03097 5.28076C9.03097 7.36939 7.65597 9.74951 5.24973 12.4995C2.84348 9.74951 1.46848 7.36939 1.46848 5.28076C1.46848 4.27791 1.86686 3.31614 2.57598 2.60701C3.2851 1.89789 4.24688 1.49951 5.24973 1.49951C6.25257 1.49951 7.21435 1.89789 7.92347 2.60701C8.63259 3.31614 9.03097 4.27791 9.03097 5.28076Z" stroke="#9B9BAC" stroke-width="1.33" stroke-linejoin="round"/>
</svg>
