<svg width="132" height="49" viewBox="0 0 132 49" fill="none" xmlns="http://www.w3.org/2000/svg">
<g clip-path="url(#clip0_173_3159)">
<path d="M63.8189 5.98584C63.9265 6.30849 63.8953 6.37661 63.7845 6.68729C63.7545 6.77361 63.7246 6.85993 63.6937 6.94886C63.6437 7.08944 63.6437 7.08944 63.5927 7.23286C63.3653 7.88154 63.1545 8.52703 62.987 9.19402C62.9572 9.30989 62.9274 9.42576 62.8967 9.54513C62.8399 9.76995 62.7858 9.99548 62.7349 10.2217C62.5555 10.918 62.3451 11.2466 61.7236 11.6176C61.6123 11.678 61.6123 11.678 61.4989 11.7395C61.4071 11.7977 61.3154 11.8558 61.2208 11.9157C61.1461 11.9609 61.0713 12.0062 60.9943 12.0528C57.531 14.2416 55.0511 17.9558 54.1091 21.915C53.5166 24.5849 53.4649 27.4417 54.0748 30.1143C54.0946 30.2018 54.1145 30.2894 54.135 30.3795C54.8488 33.4145 56.2759 36.362 58.5292 38.5592C58.5905 38.5592 58.6517 38.5592 58.7148 38.5592C58.828 38.4239 58.9352 38.2837 59.0396 38.1416C59.8196 37.1458 60.795 36.5051 62.0557 36.332C63.1212 36.2318 64.1029 36.4849 64.9326 37.1672C65.1285 37.3461 65.3085 37.5293 65.4894 37.724C65.3172 37.1533 65.3172 37.1533 65.0428 36.6278C64.9882 36.5273 64.9882 36.5273 64.9326 36.4248C65.043 36.1165 65.2064 35.9622 65.4604 35.7636C67.4688 34.0421 67.5473 30.8026 67.8094 28.4439C69.8 28.4439 71.7906 28.4439 73.8415 28.4439C73.9028 29.1788 73.964 29.9138 74.0271 30.6711C74.3366 32.56 74.7087 34.4911 76.1616 35.868C76.414 36.0496 76.414 36.0496 76.6256 36.1464C76.5764 36.5397 76.4269 36.8368 76.2395 37.1795C76.1425 37.3635 76.1425 37.3635 76.1616 37.6312C76.2132 37.5819 76.2649 37.5326 76.3182 37.4819C77.1912 36.6737 78.05 36.2789 79.2545 36.3088C80.4571 36.4213 81.3301 36.9075 82.1937 37.724C82.2274 37.6737 82.2611 37.6233 82.2959 37.5714C82.5866 37.1577 82.8071 36.8571 83.3073 36.7032C83.7548 36.6663 84.1732 36.6722 84.6065 36.796C84.6319 36.7296 84.6573 36.6633 84.6835 36.5949C84.7914 36.3336 84.9136 36.0876 85.0448 35.8372C87.5082 31.0712 88.8406 25.5605 87.2579 20.2875C86.7433 18.6718 85.9783 17.1248 84.8849 15.8228C84.796 15.7141 84.707 15.6053 84.6181 15.4966C83.2813 13.881 81.3343 12.1554 79.3144 11.4568C78.9069 11.1892 78.8588 10.8713 78.7364 10.4146C78.6991 10.2863 78.6991 10.2863 78.661 10.1554C78.5817 9.88163 78.5055 9.60716 78.4294 9.3325C78.3278 8.9737 78.2249 8.61527 78.1216 8.25694C78.0849 8.12828 78.0849 8.12828 78.0474 7.99702C77.8833 7.43208 77.6925 6.89713 77.4485 6.36119C77.368 6.17144 77.368 6.17144 77.368 5.98584C82.2304 7.30738 86.5007 10.9143 89.0193 15.2139C91.8837 20.2751 92.4188 26.305 90.9402 31.8833C90.0591 35.0599 88.5333 38.0727 86.2766 40.4943C86.1077 40.6761 85.9487 40.8629 85.7897 41.0533C82.2785 45.0547 76.905 46.8994 71.7393 47.2518C66.25 47.5729 60.7761 45.7517 56.6602 42.1071C52.3899 38.2746 49.9894 32.818 49.6333 27.1214C49.3781 22.131 50.7046 17.0181 53.7963 13.0388C53.8358 12.9875 53.8753 12.9362 53.916 12.8834C55.1161 11.3455 56.5572 9.97405 58.158 8.86269C58.2538 8.79605 58.2538 8.79605 58.3514 8.72807C60.0636 7.55047 61.881 6.72397 63.8189 5.98584Z" fill="white"/>
<path d="M19.5529 13.0387C19.61 13.0879 19.6671 13.1371 19.7259 13.1877C20.9435 14.3182 22.2776 16.2544 22.3765 17.9391C22.2982 18.343 22.07 18.6255 21.74 18.8602C18.263 20.5467 18.263 20.5467 17.0473 20.4629C16.682 20.2861 16.506 20.1138 16.3107 19.761C16.2411 19.6387 16.2411 19.6387 16.17 19.5138C16.1227 19.4289 16.0753 19.3439 16.0265 19.2564C15.9286 19.0878 15.83 18.9196 15.7307 18.7518C15.6873 18.6773 15.6438 18.6028 15.5991 18.526C15.4776 18.3256 15.4776 18.3256 15.3142 18.1744C15.1913 18.05 15.1913 18.05 15.1913 17.8644C15.1107 17.8267 15.1107 17.8267 15.0285 17.7883C14.8197 17.6786 14.644 17.5523 14.4547 17.412C13.508 16.794 12.6332 16.7173 11.5256 16.7102C11.421 16.7092 11.3164 16.7083 11.2086 16.7073C10.1016 16.7187 9.02697 16.8823 8.13834 17.586C7.52655 18.3202 7.50277 19.1768 7.55982 20.0899C7.62683 20.6683 7.91311 21.1237 8.34134 21.5069C9.73989 22.4305 11.6806 22.5864 13.2953 22.8194C16.2234 23.2465 19.6987 24.0857 21.6058 26.5653C23.1056 28.8295 23.3955 31.7045 22.8971 34.3331C22.5596 35.909 21.7862 37.2191 20.6666 38.3736C20.5932 38.4572 20.5932 38.4572 20.5183 38.5425C18.7896 40.4437 15.814 41.2838 13.3352 41.436C11.5535 41.5116 9.69692 41.5762 7.95274 41.1576C7.88564 41.1417 7.81854 41.1258 7.74942 41.1094C5.22633 40.486 3.00656 39.1462 1.64222 36.8888C1.01463 35.7938 0.353452 34.5669 0.528601 33.2695C0.690076 32.8479 0.980083 32.6495 1.36382 32.4343C1.6312 32.3199 1.90435 32.228 2.18054 32.1374C2.25811 32.1113 2.33567 32.0853 2.41559 32.0585C2.57901 32.0039 2.74257 31.9497 2.90626 31.8959C3.15471 31.8141 3.40253 31.7305 3.65033 31.6467C3.80998 31.5936 3.96966 31.5406 4.12938 31.4878C4.23904 31.4507 4.23904 31.4507 4.35092 31.4128C4.90521 31.2326 5.49204 31.0683 6.0735 31.1873C6.60228 31.5251 6.84866 32.0512 7.10012 32.6025C7.64149 33.7253 8.37046 34.4886 9.54523 34.9664C11.0881 35.4998 12.9396 35.4964 14.4605 34.8529C15.3347 34.4133 15.7806 33.9001 16.1193 32.9911C16.3312 32.1435 16.2562 31.3299 15.8228 30.5692C14.9407 29.3708 13.0689 29.1607 11.705 28.9493C11.4602 28.9122 11.2154 28.8752 10.9706 28.8383C10.8424 28.8189 10.7142 28.7996 10.586 28.7802C10.5221 28.7706 10.4583 28.7609 10.3925 28.751C7.25869 28.2746 4.14264 27.5425 2.10587 24.9115C0.68062 22.8141 0.459316 20.1256 0.899808 17.6788C1.38991 15.3979 2.6283 13.521 4.58288 12.2325C6.10325 11.2735 7.84266 10.7343 9.62317 10.5331C9.7468 10.5176 9.7468 10.5176 9.87293 10.5019C13.3755 10.1332 16.8443 10.6745 19.5529 13.0387Z" fill="white"/>
<path d="M29.8749 11.0773C29.9426 11.077 30.0102 11.0767 30.08 11.0764C30.3069 11.0756 30.5338 11.0755 30.7607 11.0753C30.9233 11.0749 31.086 11.0744 31.2486 11.0739C31.6906 11.0727 32.1326 11.0721 32.5745 11.0717C32.8507 11.0714 33.1269 11.0711 33.403 11.0706C34.2671 11.0694 35.1312 11.0685 35.9953 11.0681C36.9926 11.0677 37.99 11.0661 38.9873 11.0634C39.7583 11.0614 40.5294 11.0604 41.3004 11.0603C41.7608 11.0602 42.2213 11.0597 42.6817 11.058C43.1149 11.0565 43.5481 11.0563 43.9813 11.0571C44.1401 11.0572 44.2989 11.0568 44.4577 11.0558C44.6749 11.0547 44.892 11.0552 45.1092 11.0562C45.2306 11.056 45.352 11.0559 45.4771 11.0558C45.872 11.096 46.1142 11.1863 46.4651 11.3687C46.821 11.8379 46.784 12.3501 46.7805 12.9144C46.7808 13.0565 46.7808 13.0565 46.7813 13.2014C46.7814 13.4011 46.7809 13.6008 46.7798 13.8004C46.7783 14.1053 46.7798 14.4101 46.7815 14.715C46.7814 14.9094 46.781 15.1038 46.7805 15.2983C46.781 15.389 46.7816 15.4798 46.7822 15.5734C46.7771 16.0669 46.7425 16.4177 46.4651 16.844C46.09 17.2065 45.6646 17.2269 45.1619 17.2264C45.0699 17.2265 44.9779 17.2266 44.8831 17.2267C44.7832 17.2264 44.6834 17.2261 44.5805 17.2257C44.4745 17.2257 44.3685 17.2258 44.2593 17.2258C43.9094 17.2257 43.5594 17.225 43.2094 17.2243C42.9666 17.2241 42.7239 17.224 42.4811 17.2239C41.9076 17.2236 41.3341 17.2228 40.7606 17.2219C40.0434 17.2207 39.3262 17.2202 38.609 17.2197C37.33 17.2188 36.051 17.217 34.7721 17.2152C34.7721 19.0527 34.7721 20.8901 34.7721 22.7833C35.4355 22.779 36.099 22.7747 36.7825 22.7702C37.2029 22.7683 37.6233 22.7666 38.0437 22.7652C38.7109 22.763 39.3781 22.7603 40.0453 22.7553C40.5832 22.7513 41.1212 22.749 41.6591 22.7481C41.8643 22.7474 42.0695 22.7461 42.2747 22.744C42.5622 22.7414 42.8496 22.741 43.1371 22.7412C43.2219 22.7398 43.3067 22.7385 43.394 22.7371C43.9199 22.7405 44.2053 22.8105 44.609 23.1545C44.8795 23.5745 44.823 24.0915 44.8226 24.5748C44.823 24.6674 44.8233 24.7599 44.8238 24.8553C44.8243 25.0507 44.8243 25.2462 44.8239 25.4417C44.8236 25.7397 44.8258 26.0375 44.8282 26.3355C44.8284 26.5258 44.8284 26.7161 44.8284 26.9064C44.8292 26.995 44.8301 27.0836 44.8309 27.1748C44.8273 27.6973 44.7921 28.0862 44.5162 28.537C44.0349 28.8575 43.6099 28.8537 43.0528 28.847C42.9631 28.8471 42.8735 28.8471 42.781 28.8471C42.4858 28.8469 42.1906 28.8448 41.8953 28.8426C41.6901 28.8421 41.4849 28.8417 41.2797 28.8414C40.7406 28.8403 40.2014 28.8376 39.6623 28.8345C39.0149 28.8312 38.3675 28.8299 37.7201 28.8283C36.7374 28.8256 35.7548 28.8202 34.7721 28.8154C34.7721 30.7754 34.7721 32.7353 34.7721 34.7547C36.0084 34.7483 36.0084 34.7483 37.2697 34.7417C37.858 34.7395 38.4462 34.7376 39.0345 34.7361C39.7967 34.734 40.5588 34.7314 41.321 34.7267C41.9244 34.723 42.5278 34.7206 43.1312 34.7198C43.4506 34.7193 43.77 34.7182 44.0895 34.7155C44.4463 34.7125 44.8031 34.7124 45.1599 34.7126C45.3183 34.7106 45.3183 34.7106 45.4799 34.7085C46.0518 34.7115 46.407 34.7321 46.8363 35.1259C47.143 35.6444 47.1569 36.1133 47.1549 36.7061C47.1554 36.794 47.1559 36.882 47.1564 36.9726C47.157 37.1579 47.1569 37.3431 47.1561 37.5283C47.1553 37.8102 47.158 38.0919 47.1609 38.3738C47.1611 38.5545 47.161 38.7352 47.1607 38.9159C47.1618 38.9994 47.1628 39.0828 47.1639 39.1688C47.1581 39.6944 47.0946 40.1869 46.7435 40.6012C46.3569 40.7999 45.997 40.8133 45.5715 40.811C45.4657 40.8116 45.4657 40.8116 45.3577 40.8121C45.1217 40.813 44.8857 40.8127 44.6496 40.8123C44.4803 40.8127 44.3109 40.8132 44.1415 40.8138C43.6817 40.815 43.222 40.815 42.7622 40.8148C42.3784 40.8147 41.9946 40.8152 41.6109 40.8156C40.7056 40.8166 39.8004 40.8167 38.8952 40.8161C37.961 40.8156 37.0269 40.8167 36.0927 40.8187C35.2908 40.8203 34.4889 40.8209 33.6869 40.8206C33.2079 40.8204 32.7289 40.8206 32.2499 40.8219C31.7996 40.8231 31.3493 40.8229 30.899 40.8217C30.7336 40.8215 30.5683 40.8217 30.403 40.8225C30.1774 40.8235 29.9519 40.8227 29.7263 40.8216C29.6608 40.8222 29.5953 40.8229 29.5279 40.8236C29.1234 40.8192 28.8696 40.7652 28.5543 40.5084C28.0814 40.0045 28.1312 39.4805 28.1366 38.8279C28.1361 38.7138 28.1356 38.5996 28.1351 38.482C28.134 38.1659 28.1346 37.8498 28.136 37.5336C28.137 37.1924 28.1359 36.8511 28.1351 36.5099C28.1338 35.8417 28.1345 35.1735 28.1359 34.5053C28.1374 33.7272 28.1371 32.9491 28.1368 32.1709C28.1362 30.7826 28.1376 29.3942 28.1398 28.0058C28.1421 26.6586 28.1427 25.3113 28.1417 23.9641C28.1407 22.4971 28.1405 21.0301 28.1418 19.563C28.142 19.4066 28.1421 19.2502 28.1423 19.0937C28.1423 19.0168 28.1424 18.9398 28.1425 18.8605C28.1429 18.3181 28.1428 17.7757 28.1424 17.2333C28.1419 16.5723 28.1425 15.9113 28.1443 15.2503C28.1452 14.913 28.1457 14.5758 28.145 14.2385C28.1442 13.873 28.1456 13.5075 28.1472 13.142C28.1466 13.0353 28.146 12.9286 28.1455 12.8187C28.1496 12.2985 28.1598 11.9068 28.4615 11.4615C28.8874 11.0631 29.3105 11.0785 29.8749 11.0773Z" fill="white"/>
<path d="M103.362 11.0751C103.456 11.0742 103.55 11.0733 103.647 11.0724C103.749 11.072 103.85 11.0716 103.954 11.0712C104.059 11.0707 104.164 11.0702 104.272 11.0696C104.494 11.0687 104.716 11.0681 104.937 11.0678C105.276 11.0669 105.614 11.064 105.952 11.0611C106.167 11.0605 106.383 11.06 106.599 11.0596C106.75 11.0579 106.75 11.0579 106.904 11.0562C108.141 11.0598 108.141 11.0598 108.615 11.5232C108.964 11.955 109.157 12.4107 109.324 12.9352C109.351 13.0152 109.378 13.0952 109.405 13.1776C109.494 13.4442 109.582 13.7113 109.669 13.9785C109.733 14.171 109.797 14.3633 109.861 14.5557C110 14.9725 110.139 15.3896 110.277 15.8068C110.504 16.4914 110.735 17.1747 110.967 17.8577C110.996 17.9455 110.996 17.9455 111.027 18.035C111.108 18.274 111.189 18.5129 111.27 18.7519C111.478 19.3648 111.686 19.9779 111.893 20.5911C112.371 22.0025 112.85 23.4137 113.329 24.8247C113.989 26.7698 114.648 28.7151 115.307 30.6607C115.758 31.9928 116.209 33.3248 116.661 34.6566C116.692 34.7465 116.692 34.7465 116.723 34.8383C116.936 35.4658 117.149 36.0933 117.362 36.7207C117.431 36.924 117.5 37.1272 117.569 37.3305C117.599 37.4201 117.63 37.5098 117.661 37.6021C117.719 37.7726 117.777 37.9432 117.834 38.1138C117.897 38.2994 117.961 38.4847 118.025 38.6698C118.059 38.7678 118.092 38.8658 118.127 38.9668C118.158 39.0553 118.189 39.1439 118.22 39.2352C118.326 39.5999 118.374 39.9486 118.294 40.3226C118.119 40.5548 117.993 40.6585 117.737 40.7866C117.573 40.7965 117.408 40.8004 117.243 40.8016C117.14 40.8025 117.037 40.8034 116.931 40.8043C116.762 40.8049 116.762 40.8049 116.591 40.8055C116.476 40.806 116.361 40.8065 116.242 40.8071C115.997 40.8079 115.753 40.8086 115.509 40.8089C115.259 40.8093 115.009 40.8106 114.76 40.8127C114.4 40.8156 114.039 40.8165 113.679 40.8171C113.568 40.8182 113.458 40.8194 113.343 40.8205C112.591 40.8186 111.914 40.7907 111.345 40.2588C110.514 38.9629 110.119 36.4131 109.849 35.4041C106.786 35.4041 103.724 35.4041 100.568 35.4041C100.17 36.8128 99.7722 38.2216 99.362 39.673C98.9517 40.2885 98.6837 40.6066 97.97 40.7866C97.5852 40.8158 97.2012 40.8171 96.8154 40.8178C96.704 40.8184 96.5926 40.819 96.4778 40.8197C96.2428 40.8206 96.0078 40.821 95.7728 40.821C95.4131 40.8214 95.0535 40.8248 94.6939 40.8283C94.4653 40.8289 94.2367 40.8292 94.0082 40.8294C93.8469 40.8314 93.8469 40.8314 93.6824 40.8334C92.9465 40.8292 92.9465 40.8292 92.5664 40.6282C92.3068 40.2925 92.3341 40.0506 92.3527 39.6377C92.4418 39.0295 92.6473 38.4653 92.8562 37.8892C92.9443 37.6464 93.0302 37.403 93.1157 37.1592C93.2093 36.8926 93.303 36.6261 93.3974 36.3597C93.7614 35.3316 94.11 34.2983 94.459 33.265C94.6471 32.7085 94.8359 32.1523 95.0246 31.596C95.0618 31.4865 95.0989 31.377 95.1372 31.2641C95.4988 30.1982 95.8613 29.1325 96.2242 28.067C96.2543 27.9785 96.2845 27.8899 96.3155 27.7987C96.4665 27.3554 96.6175 26.9122 96.7685 26.4689C97.0744 25.5709 97.3801 24.6729 97.6858 23.7749C97.7163 23.6852 97.7469 23.5955 97.7783 23.5032C98.1594 22.3837 98.5404 21.2643 98.921 20.1447C99.0848 19.6629 99.2487 19.1811 99.4129 18.6994C99.723 17.7888 100.032 16.8778 100.336 15.9654C100.479 15.5374 100.623 15.1097 100.767 14.682C100.835 14.4781 100.903 14.2741 100.97 14.07C101.064 13.7866 101.159 13.5037 101.254 13.2209C101.281 13.138 101.309 13.055 101.336 12.9696C101.576 12.2657 101.872 11.5968 102.517 11.1829C102.802 11.0917 103.064 11.0774 103.362 11.0751ZM105.116 17.4934C105.016 18.024 104.922 18.5549 104.84 19.0884C104.58 20.7359 104.197 22.3321 103.767 23.942C103.513 24.8937 103.266 25.8472 103.019 26.8005C102.93 27.1415 102.841 27.4825 102.751 27.8234C102.696 28.0341 102.641 28.2448 102.587 28.4556C102.561 28.5535 102.535 28.6513 102.508 28.7522C102.485 28.8421 102.462 28.9321 102.438 29.0247C102.407 29.1426 102.407 29.1426 102.375 29.2629C102.322 29.4757 102.322 29.4757 102.332 29.7432C104.261 29.7432 106.19 29.7432 108.178 29.7432C108.033 29.1728 107.887 28.6025 107.737 28.0148C107.688 27.8213 107.639 27.6278 107.588 27.4285C107.351 26.4982 107.11 25.569 106.861 24.6417C106.344 22.7067 105.868 20.7843 105.537 18.8081C105.462 18.3691 105.382 17.9312 105.301 17.4934C105.24 17.4934 105.179 17.4934 105.116 17.4934Z" fill="#0080EF"/>
<path d="M70.965 1.62422C73.8436 3.01113 75.7915 6.22564 76.8315 9.11651C77.2838 10.4232 77.5763 11.759 77.7396 13.1316C77.7495 13.2137 77.7593 13.2958 77.7695 13.3804C77.824 13.91 77.8306 14.4197 77.8023 14.9514C77.6671 16.6153 77.6671 16.6153 78.3486 18.0733C78.4975 18.2372 78.6495 18.3957 78.8067 18.5516C79.0259 18.7847 79.1703 19.0365 79.3288 19.3145C79.3769 19.398 79.425 19.4815 79.4745 19.5676C79.7005 20.0262 79.809 20.3945 79.7618 20.9062C79.7464 21.078 79.7464 21.078 79.7307 21.2532C79.7168 21.3919 79.7026 21.5307 79.6884 21.6694C79.6763 21.7912 79.6763 21.7912 79.6639 21.9156C79.5933 22.6251 79.5181 23.3341 79.4423 24.0431C79.4303 24.1553 79.4183 24.2675 79.406 24.3832C79.3429 24.9749 79.2794 25.5666 79.2158 26.1583C79.1501 26.7698 79.0853 27.3815 79.0208 27.9932C78.971 28.4641 78.9204 28.9349 78.8696 29.4056C78.8454 29.6313 78.8215 29.857 78.7978 30.0828C78.7648 30.3967 78.7309 30.7105 78.6966 31.0243C78.687 31.1179 78.6774 31.2115 78.6675 31.308C78.658 31.3931 78.6485 31.4781 78.6388 31.5657C78.6308 31.6398 78.6229 31.7139 78.6148 31.7903C78.5748 31.9704 78.5748 31.9704 78.3892 32.156C78.2065 32.1419 78.2065 32.1419 78.018 32.0632C77.8934 31.9173 77.8934 31.9173 77.7862 31.7317C77.747 31.6644 77.7078 31.5971 77.6675 31.5278C77.4982 31.219 77.3353 30.9082 77.1791 30.5925C77.1454 30.5251 77.1117 30.4577 77.077 30.3882C76.9688 30.1714 76.8611 29.9544 76.7535 29.7373C76.679 29.5876 76.6045 29.4379 76.5299 29.2882C75.989 28.2006 75.4581 27.1084 74.9404 26.0095C74.8849 25.8923 74.8279 25.7758 74.7699 25.6599C74.6971 25.7437 74.6242 25.8276 74.5491 25.914C74.4507 26.0246 74.3522 26.1352 74.2537 26.2457C74.206 26.3009 74.1584 26.3561 74.1092 26.413C74.0611 26.4665 74.0129 26.52 73.9633 26.5752C73.9201 26.6243 73.8768 26.6734 73.8323 26.7239C73.2507 27.1944 72.6516 27.1881 71.934 27.1882C71.8317 27.1889 71.7293 27.1896 71.6238 27.1903C71.408 27.1913 71.1922 27.1916 70.9763 27.1912C70.6474 27.1911 70.3186 27.195 69.9897 27.1991C69.7794 27.1995 69.5691 27.1998 69.3588 27.1998C69.2123 27.2021 69.2123 27.2021 69.0628 27.2044C68.3109 27.1974 67.89 26.986 67.3266 26.5063C67.2774 26.4548 67.2282 26.4032 67.1776 26.3501C67.1272 26.2983 67.0768 26.2465 67.025 26.1931C66.8739 26.0221 66.7393 25.843 66.6034 25.6599C66.3304 26.203 66.0579 26.7463 65.7855 27.2897C65.7252 27.4101 65.7252 27.4101 65.6636 27.533C65.1416 28.5749 64.6237 29.618 64.1337 30.6753C63.5145 31.9972 63.5145 31.9972 63.167 32.1413C63.1067 32.1461 63.0463 32.151 62.9841 32.156C62.7321 31.904 62.7525 31.7336 62.7147 31.3808C62.7079 31.3198 62.7011 31.2588 62.6941 31.196C62.6716 30.9914 62.6502 30.7867 62.6288 30.582C62.613 30.4363 62.5971 30.2907 62.5811 30.1451C62.547 29.8332 62.5133 29.5213 62.4799 29.2094C62.4278 28.7245 62.3737 28.2397 62.3191 27.7551C62.2353 27.011 62.1524 26.2668 62.0701 25.5226C62.0232 25.0978 61.9761 24.6731 61.9285 24.2484C61.8814 23.8271 61.8346 23.4058 61.7882 22.9844C61.7708 22.8265 61.7532 22.6687 61.7354 22.5109C61.4902 20.3312 61.4902 20.3312 61.8879 19.5813C61.9355 19.485 61.9355 19.485 61.9841 19.3866C62.1703 19.0304 62.3669 18.7437 62.6524 18.4601C63.3869 17.7109 63.6151 17.0961 63.6099 16.0536C63.5995 15.5549 63.5793 15.0565 63.5574 14.5582C63.5206 13.634 63.6458 12.7387 63.8193 11.8324C63.8347 11.7515 63.8502 11.6706 63.8661 11.5872C64.6185 7.8049 66.5052 4.36216 69.6658 2.08823C69.7407 2.03356 69.8156 1.97889 69.8927 1.92256C70.269 1.66575 70.5137 1.57903 70.965 1.62422ZM67.949 12.1014C67.4055 12.8629 67.1366 13.7728 67.253 14.7093C67.4745 15.7212 67.8449 16.591 68.72 17.1888C69.613 17.7109 70.5545 17.9006 71.5697 17.6597C72.2075 17.4561 72.758 17.1768 73.1923 16.6581C73.2623 16.5764 73.2623 16.5764 73.3337 16.4932C73.9622 15.719 74.1833 14.8133 74.1004 13.8211C73.9553 12.9395 73.5368 12.0384 72.8069 11.4993C71.2248 10.477 69.1848 10.5738 67.949 12.1014Z" fill="white"/>
<path d="M123.855 11.0751C123.948 11.0742 124.041 11.0733 124.137 11.0724C124.237 11.072 124.337 11.0716 124.441 11.0712C124.596 11.0704 124.596 11.0704 124.754 11.0696C124.973 11.0687 125.192 11.0681 125.41 11.0678C125.745 11.0669 126.079 11.064 126.413 11.0611C126.626 11.0605 126.838 11.06 127.051 11.0596C127.201 11.0579 127.201 11.0579 127.353 11.0562C127.867 11.0577 128.246 11.0724 128.688 11.3685C129.034 11.7387 129.07 12.0941 129.071 12.5867C129.071 12.6833 129.072 12.78 129.072 12.8796C129.072 12.9857 129.072 13.0918 129.072 13.201C129.072 13.3138 129.072 13.4266 129.073 13.5428C129.073 13.8561 129.074 14.1693 129.074 14.4825C129.074 14.8202 129.075 15.158 129.075 15.4957C129.076 16.2343 129.077 16.9729 129.077 17.7115C129.078 18.1726 129.078 18.6337 129.078 19.0949C129.08 20.3716 129.081 21.6483 129.081 22.925C129.081 23.0475 129.081 23.0475 129.081 23.1726C129.081 23.2954 129.081 23.2954 129.081 23.4208C129.081 23.5867 129.081 23.7527 129.081 23.9187C129.081 24.001 129.081 24.0833 129.081 24.1681C129.082 25.5023 129.083 26.8365 129.085 28.1706C129.088 29.5403 129.089 30.91 129.089 32.2797C129.089 33.0488 129.089 33.8178 129.091 34.5869C129.093 35.2417 129.093 35.8965 129.092 36.5513C129.092 36.8854 129.092 37.2195 129.093 37.5535C129.095 37.9158 129.094 38.278 129.093 38.6403C129.094 38.7985 129.094 38.7985 129.095 38.9599C129.091 39.5917 129.049 40.0802 128.641 40.5894C128.358 40.802 128.081 40.7995 127.741 40.803C127.642 40.8042 127.544 40.8054 127.442 40.8067C127.283 40.8077 127.283 40.8077 127.12 40.8087C127.01 40.8095 126.901 40.8102 126.788 40.811C126.556 40.8123 126.324 40.8133 126.092 40.814C125.738 40.8156 125.383 40.8197 125.029 40.8238C124.804 40.8247 124.578 40.8255 124.353 40.8261C124.194 40.8286 124.194 40.8286 124.032 40.831C123.458 40.8295 123.078 40.8253 122.656 40.4154C122.494 40.0864 122.447 39.8223 122.446 39.4579C122.446 39.3596 122.445 39.2614 122.445 39.1601C122.445 39.0528 122.445 38.9454 122.446 38.8347C122.445 38.7202 122.445 38.6057 122.445 38.4877C122.444 38.1701 122.444 37.8525 122.444 37.5349C122.445 37.1923 122.444 36.8497 122.443 36.5071C122.442 35.836 122.442 35.1649 122.442 34.4938C122.442 33.9485 122.442 33.4031 122.441 32.8578C122.441 32.7802 122.441 32.7026 122.441 32.6227C122.441 32.465 122.441 32.3074 122.441 32.1498C122.44 30.6716 122.44 29.1933 122.441 27.715C122.441 26.3621 122.44 25.0092 122.438 23.6563C122.437 22.2676 122.436 20.8788 122.436 19.49C122.436 18.7102 122.436 17.9303 122.435 17.1505C122.434 16.4867 122.434 15.8229 122.435 15.1591C122.435 14.8204 122.435 14.4816 122.434 14.1429C122.433 13.7759 122.434 13.4089 122.435 13.0419C122.434 12.8809 122.434 12.8809 122.433 12.7166C122.434 12.6183 122.434 12.52 122.435 12.4188C122.435 12.3341 122.435 12.2494 122.435 12.1621C122.49 11.791 122.654 11.5434 122.934 11.2989C123.244 11.1051 123.498 11.0779 123.855 11.0751Z" fill="#0080EF"/>
<path d="M67.8097 28.4438C69.8003 28.4438 71.7908 28.4438 73.8418 28.4438C73.9336 29.5463 73.9336 29.5463 74.0274 30.6711C74.3369 32.56 74.709 34.491 76.1618 35.868C76.4143 36.0496 76.4143 36.0496 76.6258 36.1464C76.5767 36.5397 76.4271 36.8368 76.2397 37.1795C76.1428 37.3635 76.1428 37.3635 76.1618 37.6312C76.2135 37.5819 76.2652 37.5326 76.3184 37.4819C77.1914 36.6737 78.0502 36.2789 79.2547 36.3088C80.4573 36.4213 81.3303 36.9075 82.1939 37.724C82.2277 37.6737 82.2614 37.6233 82.2961 37.5714C82.5869 37.1577 82.8073 36.8571 83.3075 36.7032C84.1072 36.639 84.1072 36.639 84.4212 36.796C84.0727 37.5833 83.3757 38.2569 82.7507 38.8376C82.7002 38.8854 82.6498 38.9331 82.5977 38.9823C80.9906 40.4456 79.1569 41.4838 77.1826 42.3641C77.0886 42.4067 77.0886 42.4067 76.9926 42.4501C73.2528 44.1086 68.4413 43.9852 64.6544 42.5497C64.5733 42.5199 64.4922 42.4901 64.4086 42.4594C62.4881 41.709 60.8403 40.6229 59.2719 39.3016C59.1579 39.2069 59.0438 39.1121 58.9297 39.0174C58.8235 38.9284 58.8235 38.9284 58.7151 38.8376C58.7836 38.1832 59.2784 37.785 59.7359 37.3528C60.3065 36.9107 60.893 36.6035 61.5919 36.4248C61.6666 36.4037 61.7412 36.3827 61.8181 36.361C62.8723 36.2324 63.877 36.3823 64.749 37.016C65.0164 37.236 65.254 37.4703 65.4896 37.724C65.3175 37.1533 65.3175 37.1533 65.043 36.6278C65.0066 36.5608 64.9703 36.4938 64.9328 36.4248C65.0432 36.1165 65.2067 35.9622 65.4606 35.7636C67.469 34.0421 67.5476 30.8026 67.8097 28.4438Z" fill="#0080EF"/>
<path d="M60.1073 37.0742C60.1686 37.1048 60.2298 37.1355 60.2929 37.167C59.8335 37.6264 59.3742 38.0858 58.9009 38.559C58.9009 38.1819 59.0429 38.0902 59.2953 37.8166C59.3685 37.7362 59.4417 37.6559 59.5171 37.573C59.705 37.3839 59.8892 37.2263 60.1073 37.0742Z" fill="#0080EF"/>
<path d="M76.9969 36.8892C77.0582 36.9198 77.1194 36.9504 77.1825 36.982C77.0187 37.1507 76.8543 37.3188 76.6895 37.4866C76.62 37.5584 76.62 37.5584 76.549 37.6318C76.3289 37.8548 76.1849 37.995 75.8833 38.0956C76.0606 37.5636 76.5726 37.2345 76.9969 36.8892Z" fill="#0080EF"/>
<path d="M82.9364 36.8892C82.9977 36.9198 83.0589 36.9504 83.122 36.982C82.9077 37.1963 82.6933 37.4107 82.4724 37.6316C82.4724 37.3532 82.4724 37.3532 82.7044 37.1038C82.781 37.0329 82.8575 36.9621 82.9364 36.8892Z" fill="#0080EF"/>
</g>
<defs>
<clipPath id="clip0_173_3159">
<rect width="131.5" height="47.4217" fill="white" transform="translate(0.25 0.789062)"/>
</clipPath>
</defs>
</svg>
