<svg width="54" height="55" viewBox="0 0 54 55" fill="none" xmlns="http://www.w3.org/2000/svg">
<g clip-path="url(#clip0_173_3908)">
<path d="M50.625 54.125H3.375C1.51117 54.125 0 52.6138 0 50.75V3.5C0 1.63617 1.51117 0.125 3.375 0.125H50.625C52.4888 0.125 54 1.63617 54 3.5V50.75C54 52.6138 52.4888 54.125 50.625 54.125ZM3.375 2.37486C2.75372 2.37486 2.24986 2.87872 2.24986 3.5V50.75C2.24986 51.3713 2.75372 51.8751 3.375 51.8751H50.625C51.2463 51.8751 51.7501 51.3713 51.7501 50.75V3.5C51.7501 2.87872 51.2463 2.37486 50.625 2.37486H3.375Z" fill="#ACACBB" fill-opacity="0.7"/>
<path d="M52.8748 11.3751H13.5C13.2017 11.3751 12.9154 11.2565 12.7044 11.0455L10.7842 9.12486H7.21553L5.29526 11.0455C5.08432 11.2565 4.7984 11.3751 4.50012 11.3751H1.12512V9.12486H4.03416L5.95444 7.20459C6.16537 6.99365 6.45171 6.875 6.74998 6.875H11.2501C11.5484 6.875 11.8343 6.99365 12.0453 7.20459L13.9655 9.12486H52.8748V11.3751Z" fill="#ACACBB" fill-opacity="0.7"/>
<path d="M47.25 4.625H49.4999V6.87486H47.25V4.625Z" fill="#ACACBB" fill-opacity="0.7"/>
<path d="M27 4.625H45.0001V6.87486H27V4.625Z" fill="#ACACBB" fill-opacity="0.7"/>
<path d="M29.2498 49.6249H7.87512C6.01088 49.6249 4.50012 48.1141 4.50012 46.2499V17C4.50012 15.1362 6.01088 13.625 7.87512 13.625H29.2498C31.1141 13.625 32.6248 15.1362 32.6248 17V46.2499C32.6248 48.1141 31.1141 49.6249 29.2498 49.6249ZM7.87512 15.8749C7.25385 15.8749 6.74998 16.3787 6.74998 17V46.2499C6.74998 46.8711 7.25385 47.375 7.87512 47.375H29.2498C29.8711 47.375 30.375 46.8711 30.375 46.2499V17C30.375 16.3787 29.8711 15.8749 29.2498 15.8749H7.87512Z" fill="#ACACBB" fill-opacity="0.7"/>
<path d="M46.1248 28.2501H38.2501C36.3859 28.2501 34.8751 26.739 34.8751 24.8751V17C34.8751 15.1362 36.3859 13.625 38.2501 13.625H46.1248C47.9891 13.625 49.4998 15.1362 49.4998 17V24.8751C49.4998 26.739 47.9891 28.2501 46.1248 28.2501ZM38.2501 15.8749C37.6288 15.8749 37.125 16.3787 37.125 17V24.8751C37.125 25.4964 37.6288 25.9999 38.2501 25.9999H46.1248C46.7461 25.9999 47.25 25.4964 47.25 24.8751V17C47.25 16.3787 46.7461 15.8749 46.1248 15.8749H38.2501Z" fill="#ACACBB" fill-opacity="0.7"/>
<path d="M35.2047 26.3295L47.5792 13.9546L49.1703 15.5457L36.7954 27.9201L35.2047 26.3295Z" fill="#ACACBB" fill-opacity="0.7"/>
<path d="M46.1248 45.1251H38.2501C36.3859 45.1251 34.8751 43.614 34.8751 41.7501V33.875C34.8751 32.0112 36.3859 30.5 38.2501 30.5H46.1248C47.9891 30.5 49.4998 32.0112 49.4998 33.875V41.7501C49.4998 43.614 47.9891 45.1251 46.1248 45.1251ZM38.2501 32.7499C37.6288 32.7499 37.125 33.2537 37.125 33.875V41.7501C37.125 42.3714 37.6288 42.8749 38.2501 42.8749H46.1248C46.7461 42.8749 47.25 42.3714 47.25 41.7501V33.875C47.25 33.2537 46.7461 32.7499 46.1248 32.7499H38.2501Z" fill="#ACACBB" fill-opacity="0.7"/>
<path d="M35.2043 43.204L47.5788 30.8291L49.1699 32.4202L36.795 44.7946L35.2043 43.204Z" fill="#ACACBB" fill-opacity="0.7"/>
<path d="M34.8751 47.375H43.875V49.6249H34.8751V47.375Z" fill="#ACACBB" fill-opacity="0.7"/>
<path d="M46.1249 47.375H49.4999V49.6249H46.1249V47.375Z" fill="#ACACBB" fill-opacity="0.7"/>
<path d="M31.5002 38.3751H5.62488V36.1248H28.7843L21.3752 28.7156L15.4203 34.6705L13.8296 33.0794L20.5796 26.3294C21.0188 25.8902 21.7311 25.8902 22.1703 26.3294L32.2953 36.4544C32.6171 36.7761 32.713 37.2602 32.5392 37.6805C32.3649 38.1007 31.955 38.3747 31.5002 38.3751Z" fill="#ACACBB" fill-opacity="0.7"/>
<path d="M6.42039 36.9202L4.82971 35.3295L12.7044 27.4544C13.144 27.0152 13.8559 27.0152 14.2955 27.4544L17.6705 30.8294L16.0794 32.4201L13.5 29.8406L6.42039 36.9202Z" fill="#ACACBB" fill-opacity="0.7"/>
<path d="M8.99988 41.75H11.2502V43.9999H8.99988V41.75Z" fill="#ACACBB" fill-opacity="0.7"/>
<path d="M13.5 41.75H28.1251V43.9999H13.5V41.75Z" fill="#ACACBB" fill-opacity="0.7"/>
<path d="M24.7501 24.875C22.8859 24.875 21.3751 23.3638 21.3751 21.5C21.3751 19.6358 22.8859 18.125 24.7501 18.125C26.614 18.125 28.1251 19.6358 28.1251 21.5C28.1251 23.3638 26.614 24.875 24.7501 24.875ZM24.7501 20.3749C24.1288 20.3749 23.625 20.8787 23.625 21.5C23.625 22.1213 24.1288 22.6247 24.7501 22.6247C25.3714 22.6247 25.8748 22.1213 25.8748 21.5C25.8748 20.8787 25.3714 20.3749 24.7501 20.3749Z" fill="#ACACBB" fill-opacity="0.7"/>
</g>
<defs>
<clipPath id="clip0_173_3908">
<rect width="54" height="54" fill="white" transform="translate(0 0.125)"/>
</clipPath>
</defs>
</svg>
