<svg width="55" height="55" viewBox="0 0 55 55" fill="none" xmlns="http://www.w3.org/2000/svg">
<g clip-path="url(#clip0_173_3866)">
<path d="M36.6666 15.8749H18.6669C18.0456 15.8749 17.5417 15.3714 17.5417 14.7501V1.25014C17.5417 0.62886 18.0456 0.125 18.6669 0.125H36.6666C37.2879 0.125 37.7917 0.62886 37.7917 1.25014V14.7501C37.7917 15.3714 37.2879 15.8749 36.6666 15.8749ZM19.7916 13.625H35.5419V2.37486H19.7916V13.625Z" fill="#ACACBB" fill-opacity="0.7"/>
<path d="M24.2917 9.12473C23.0492 9.12473 22.0419 8.11742 22.0419 6.87486C22.0419 5.63231 23.0492 4.625 24.2917 4.625C25.5343 4.625 26.5416 5.63231 26.5416 6.87486C26.5416 8.11742 25.5343 9.12473 24.2917 9.12473Z" fill="#ACACBB" fill-opacity="0.7"/>
<path d="M31.0417 9.12473C29.7992 9.12473 28.7919 8.11742 28.7919 6.87486C28.7919 5.63231 29.7992 4.625 31.0417 4.625C32.2843 4.625 33.2916 5.63231 33.2916 6.87486C33.2916 8.11742 32.2843 9.12473 31.0417 9.12473Z" fill="#ACACBB" fill-opacity="0.7"/>
<path d="M31.0417 14.7501H28.7919V12.4999H26.5416V14.7501H24.2917V11.3751C24.2917 10.7539 24.7956 10.25 25.4169 10.25H29.9166C30.5379 10.25 31.0417 10.7539 31.0417 11.3751V14.7501Z" fill="#ACACBB" fill-opacity="0.7"/>
<path d="M40.0416 33.8749H15.2919C14.6706 33.8749 14.1667 33.371 14.1667 32.7497V19.2497C14.1667 18.6284 14.6706 18.125 15.2919 18.125H40.0416C40.6629 18.125 41.1667 18.6284 41.1667 19.2497V32.7497C41.1667 33.371 40.6629 33.8749 40.0416 33.8749ZM16.4166 31.625H38.9169V20.3749H16.4166V31.625Z" fill="#ACACBB" fill-opacity="0.7"/>
<path d="M20.9167 14.75H23.1666V19.2497H20.9167V14.75Z" fill="#ACACBB" fill-opacity="0.7"/>
<path d="M32.1669 14.75H34.4167V19.2497H32.1669V14.75Z" fill="#ACACBB" fill-opacity="0.7"/>
<path d="M51.2917 45.1251H4.04175C2.17792 45.1251 0.666748 43.614 0.666748 41.7501V10.25C0.666748 8.38617 2.17792 6.875 4.04175 6.875H15.2919V9.12486H4.04175C3.42047 9.12486 2.91661 9.62872 2.91661 10.25V41.7501C2.91661 42.3714 3.42047 42.8749 4.04175 42.8749H51.2917C51.913 42.8749 52.4169 42.3714 52.4169 41.7501V10.25C52.4169 9.62872 51.913 9.12486 51.2917 9.12486H40.0416V6.875H51.2917C53.1556 6.875 54.6667 8.38617 54.6667 10.25V41.7501C54.6667 43.614 53.1556 45.1251 51.2917 45.1251Z" fill="#ACACBB" fill-opacity="0.7"/>
<path d="M41.1667 54.125H14.1667C12.3029 54.125 10.7917 52.6138 10.7917 50.75C10.7917 48.8862 12.3029 47.375 14.1667 47.375H41.1667C43.0306 47.375 44.5417 48.8862 44.5417 50.75C44.5417 52.6138 43.0306 54.125 41.1667 54.125ZM14.1667 49.6249C13.5455 49.6249 13.0416 50.1287 13.0416 50.75C13.0416 51.3713 13.5455 51.8751 14.1667 51.8751H41.1667C41.788 51.8751 42.2919 51.3713 42.2919 50.75C42.2919 50.1287 41.788 49.6249 41.1667 49.6249H14.1667Z" fill="#ACACBB" fill-opacity="0.7"/>
<path d="M17.5417 44H19.7916V48.5001H17.5417V44Z" fill="#ACACBB" fill-opacity="0.7"/>
<path d="M35.5419 44H37.7917V48.5001H35.5419V44Z" fill="#ACACBB" fill-opacity="0.7"/>
<path d="M46.7916 40.6249H44.5417V38.375H46.7916C47.4129 38.375 47.9167 37.8711 47.9167 37.2499V35H50.1666V37.2499C50.1666 39.1137 48.6559 40.6249 46.7916 40.6249Z" fill="#ACACBB" fill-opacity="0.7"/>
<path d="M47.9167 30.5H50.1666V32.7499H47.9167V30.5Z" fill="#ACACBB" fill-opacity="0.7"/>
<path d="M36.6666 32.75H34.4167V24.8753H20.9167V32.75H18.6669V23.7501C18.6669 23.1289 19.1703 22.625 19.7916 22.625H35.5419C36.1631 22.625 36.6666 23.1289 36.6666 23.7501V32.75Z" fill="#ACACBB" fill-opacity="0.7"/>
<path d="M24.2917 27.125H26.5416V29.3749H24.2917V27.125Z" fill="#ACACBB" fill-opacity="0.7"/>
<path d="M28.7919 27.125H31.0417V29.3749H28.7919V27.125Z" fill="#ACACBB" fill-opacity="0.7"/>
<path d="M10.7917 31.625H44.5417V33.8749H10.7917V31.625Z" fill="#ACACBB" fill-opacity="0.7"/>
<path d="M9.66663 11.375H11.9169V13.6249H9.66663V11.375Z" fill="#ACACBB" fill-opacity="0.7"/>
<path d="M5.16687 11.375H7.41673V13.6249H5.16687V11.375Z" fill="#ACACBB" fill-opacity="0.7"/>
<path d="M5.16687 15.875H7.41673V18.1253H5.16687V15.875Z" fill="#ACACBB" fill-opacity="0.7"/>
</g>
<defs>
<clipPath id="clip0_173_3866">
<rect width="54" height="54" fill="white" transform="translate(0.666748 0.125)"/>
</clipPath>
</defs>
</svg>
