<svg width="21" height="20" viewBox="0 0 21 20" fill="none" xmlns="http://www.w3.org/2000/svg">
<mask id="path-1-outside-1_173_3520" maskUnits="userSpaceOnUse" x="2.10095" y="-0.0991211" width="16" height="20" fill="black">
<rect fill="white" x="2.10095" y="-0.0991211" width="16" height="20"/>
<path fill-rule="evenodd" clip-rule="evenodd" d="M12.2642 10.1939L14.2354 8.22271L14.2359 8.2217L14.2354 8.22005C14.2342 8.21886 14.2351 8.21681 14.2368 8.21684L14.8999 8.22875C15.007 8.23068 15.1023 8.16079 15.1325 8.058L15.7726 5.88606C15.7973 5.80244 15.7742 5.71204 15.7126 5.65039L15.2434 5.18121C15.1818 5.11956 15.0914 5.09654 15.0077 5.12118L12.8358 5.76126C12.733 5.79156 12.6631 5.88678 12.6651 5.99392L12.6755 6.57294C12.6766 6.63756 12.6515 6.69988 12.6058 6.74558L10.7109 8.64048L9.48853 7.41816C9.6402 6.74311 9.45358 6.0065 8.92745 5.48037C8.28383 4.83675 7.32545 4.70108 6.54907 5.07174L6.18438 5.24585L7.42165 6.48312L6.97518 6.92959L5.73786 5.69227L5.56368 6.05672C5.19255 6.83324 5.32809 7.79205 5.97193 8.43589C6.49806 8.96202 7.23466 9.14864 7.9097 8.99697L8.78141 9.86869L5.70519 12.9449C5.16048 13.4896 5.16048 14.3728 5.70519 14.9175C6.2499 15.4622 7.13305 15.4622 7.67775 14.9175L10.754 11.8413L11.5177 12.605C11.3661 13.28 11.5527 14.0165 12.0788 14.5426C12.7226 15.1864 13.6814 15.322 14.4579 14.9509L14.8224 14.7767L13.5359 13.4902L13.9824 13.0438L15.2688 14.3302L15.4429 13.9655C15.8136 13.1891 15.678 12.2307 15.0343 11.5871C14.5082 11.0609 13.7715 10.8743 13.0964 11.026L12.2642 10.1939ZM13.4632 6.22173C13.3604 6.25202 13.2905 6.34725 13.2925 6.45439L13.302 6.98421L12.6402 7.646C12.5943 7.65441 12.5505 7.67635 12.515 7.71182L11.1486 9.07821L11.8265 9.75613L13.1929 8.38974C13.2282 8.35447 13.2501 8.3109 13.2586 8.26532L13.9317 7.59222L14.4394 7.60133C14.5466 7.60326 14.6418 7.53337 14.6721 7.43058L15.085 6.0293C15.1034 5.96693 15.0862 5.89951 15.0403 5.85353C14.9943 5.80756 14.9269 5.79038 14.8645 5.80876L13.4632 6.22173ZM10.2489 11.3362L9.28649 10.3738L6.21027 13.45C5.9445 13.7158 5.9445 14.1466 6.21027 14.4124C6.47603 14.6782 6.90692 14.6782 7.17268 14.4124L10.2489 11.3362ZM7.85938 6.11273L7.20587 5.45922C7.67132 5.38393 8.16487 5.52591 8.52339 5.88443C8.93783 6.29886 9.06302 6.89355 8.89741 7.41739L8.8451 7.58285L12.9317 11.6695L13.0972 11.6171C13.6211 11.4515 14.2158 11.5767 14.6303 11.9911C14.9888 12.3497 15.1308 12.8432 15.0555 13.3087L14.3528 12.606C14.1482 12.4015 13.8166 12.4015 13.612 12.606L13.0982 13.1198C12.8937 13.3244 12.8937 13.656 13.0982 13.8606L13.8012 14.5636C13.3355 14.6392 12.8416 14.4973 12.4829 14.1385C12.0685 13.7241 11.9433 13.1295 12.1088 12.6057L12.1611 12.4403L8.07439 8.35355L7.90894 8.40585C7.3851 8.57145 6.79042 8.44626 6.376 8.03183C6.01725 7.67309 5.87532 7.17914 5.95092 6.71344L6.60479 7.36732C6.80935 7.57188 7.14101 7.57188 7.34557 7.36732L7.85938 6.85351C8.06394 6.64895 8.06394 6.31729 7.85938 6.11273Z"/>
<path fill-rule="evenodd" clip-rule="evenodd" d="M3.10095 2.2104C3.10095 1.48717 3.68725 0.900879 4.41048 0.900879H16.5895C17.3128 0.900879 17.8991 1.48717 17.8991 2.2104L17.8991 19.0994H4.80285C4.62689 19.0994 4.45896 19.065 4.30541 19.0026C3.60455 18.7614 3.10095 18.0963 3.10095 17.3136V2.2104ZM17.1848 17.1702V18.385H4.88667C4.77185 18.385 4.66124 18.367 4.55755 18.3335C4.34425 18.2393 4.1954 18.0258 4.1954 17.7776C4.1954 17.4421 4.46737 17.1702 4.80285 17.1702H17.1848ZM17.1848 16.4559H4.80285C4.41008 16.4559 4.05733 16.6272 3.81524 16.8992V2.2104C3.81524 1.88166 4.08173 1.61516 4.41048 1.61516H11.8613C11.855 1.65639 11.8518 1.69861 11.8518 1.74158V3.97653C11.8518 4.43677 12.2249 4.80986 12.6851 4.80986H12.7331C12.8219 4.80986 12.9076 4.77676 12.9733 4.71702L13.7171 4.04104L14.4609 4.71702C14.5267 4.77676 14.6123 4.80986 14.7011 4.80986H14.7491C15.2094 4.80986 15.5825 4.43677 15.5825 3.97653V1.74158C15.5825 1.69861 15.5792 1.65639 15.5729 1.61516H16.5895C16.9183 1.61516 17.1848 1.88166 17.1848 2.2104V16.4559ZM12.6851 1.62254C12.6194 1.62254 12.5661 1.67584 12.5661 1.74158V3.97653C12.5661 4.01735 12.5866 4.05337 12.6179 4.07482L13.4769 3.29414C13.6131 3.17035 13.8211 3.17035 13.9573 3.29414L14.8163 4.07482C14.8476 4.05337 14.8682 4.01735 14.8682 3.97653V1.74158C14.8682 1.67584 14.8149 1.62254 14.7491 1.62254H12.6851Z"/>
</mask>
<path fill-rule="evenodd" clip-rule="evenodd" d="M12.2642 10.1939L14.2354 8.22271L14.2359 8.2217L14.2354 8.22005C14.2342 8.21886 14.2351 8.21681 14.2368 8.21684L14.8999 8.22875C15.007 8.23068 15.1023 8.16079 15.1325 8.058L15.7726 5.88606C15.7973 5.80244 15.7742 5.71204 15.7126 5.65039L15.2434 5.18121C15.1818 5.11956 15.0914 5.09654 15.0077 5.12118L12.8358 5.76126C12.733 5.79156 12.6631 5.88678 12.6651 5.99392L12.6755 6.57294C12.6766 6.63756 12.6515 6.69988 12.6058 6.74558L10.7109 8.64048L9.48853 7.41816C9.6402 6.74311 9.45358 6.0065 8.92745 5.48037C8.28383 4.83675 7.32545 4.70108 6.54907 5.07174L6.18438 5.24585L7.42165 6.48312L6.97518 6.92959L5.73786 5.69227L5.56368 6.05672C5.19255 6.83324 5.32809 7.79205 5.97193 8.43589C6.49806 8.96202 7.23466 9.14864 7.9097 8.99697L8.78141 9.86869L5.70519 12.9449C5.16048 13.4896 5.16048 14.3728 5.70519 14.9175C6.2499 15.4622 7.13305 15.4622 7.67775 14.9175L10.754 11.8413L11.5177 12.605C11.3661 13.28 11.5527 14.0165 12.0788 14.5426C12.7226 15.1864 13.6814 15.322 14.4579 14.9509L14.8224 14.7767L13.5359 13.4902L13.9824 13.0438L15.2688 14.3302L15.4429 13.9655C15.8136 13.1891 15.678 12.2307 15.0343 11.5871C14.5082 11.0609 13.7715 10.8743 13.0964 11.026L12.2642 10.1939ZM13.4632 6.22173C13.3604 6.25202 13.2905 6.34725 13.2925 6.45439L13.302 6.98421L12.6402 7.646C12.5943 7.65441 12.5505 7.67635 12.515 7.71182L11.1486 9.07821L11.8265 9.75613L13.1929 8.38974C13.2282 8.35447 13.2501 8.3109 13.2586 8.26532L13.9317 7.59222L14.4394 7.60133C14.5466 7.60326 14.6418 7.53337 14.6721 7.43058L15.085 6.0293C15.1034 5.96693 15.0862 5.89951 15.0403 5.85353C14.9943 5.80756 14.9269 5.79038 14.8645 5.80876L13.4632 6.22173ZM10.2489 11.3362L9.28649 10.3738L6.21027 13.45C5.9445 13.7158 5.9445 14.1466 6.21027 14.4124C6.47603 14.6782 6.90692 14.6782 7.17268 14.4124L10.2489 11.3362ZM7.85938 6.11273L7.20587 5.45922C7.67132 5.38393 8.16487 5.52591 8.52339 5.88443C8.93783 6.29886 9.06302 6.89355 8.89741 7.41739L8.8451 7.58285L12.9317 11.6695L13.0972 11.6171C13.6211 11.4515 14.2158 11.5767 14.6303 11.9911C14.9888 12.3497 15.1308 12.8432 15.0555 13.3087L14.3528 12.606C14.1482 12.4015 13.8166 12.4015 13.612 12.606L13.0982 13.1198C12.8937 13.3244 12.8937 13.656 13.0982 13.8606L13.8012 14.5636C13.3355 14.6392 12.8416 14.4973 12.4829 14.1385C12.0685 13.7241 11.9433 13.1295 12.1088 12.6057L12.1611 12.4403L8.07439 8.35355L7.90894 8.40585C7.3851 8.57145 6.79042 8.44626 6.376 8.03183C6.01725 7.67309 5.87532 7.17914 5.95092 6.71344L6.60479 7.36732C6.80935 7.57188 7.14101 7.57188 7.34557 7.36732L7.85938 6.85351C8.06394 6.64895 8.06394 6.31729 7.85938 6.11273Z" fill="#656575"/>
<path fill-rule="evenodd" clip-rule="evenodd" d="M3.10095 2.2104C3.10095 1.48717 3.68725 0.900879 4.41048 0.900879H16.5895C17.3128 0.900879 17.8991 1.48717 17.8991 2.2104L17.8991 19.0994H4.80285C4.62689 19.0994 4.45896 19.065 4.30541 19.0026C3.60455 18.7614 3.10095 18.0963 3.10095 17.3136V2.2104ZM17.1848 17.1702V18.385H4.88667C4.77185 18.385 4.66124 18.367 4.55755 18.3335C4.34425 18.2393 4.1954 18.0258 4.1954 17.7776C4.1954 17.4421 4.46737 17.1702 4.80285 17.1702H17.1848ZM17.1848 16.4559H4.80285C4.41008 16.4559 4.05733 16.6272 3.81524 16.8992V2.2104C3.81524 1.88166 4.08173 1.61516 4.41048 1.61516H11.8613C11.855 1.65639 11.8518 1.69861 11.8518 1.74158V3.97653C11.8518 4.43677 12.2249 4.80986 12.6851 4.80986H12.7331C12.8219 4.80986 12.9076 4.77676 12.9733 4.71702L13.7171 4.04104L14.4609 4.71702C14.5267 4.77676 14.6123 4.80986 14.7011 4.80986H14.7491C15.2094 4.80986 15.5825 4.43677 15.5825 3.97653V1.74158C15.5825 1.69861 15.5792 1.65639 15.5729 1.61516H16.5895C16.9183 1.61516 17.1848 1.88166 17.1848 2.2104V16.4559ZM12.6851 1.62254C12.6194 1.62254 12.5661 1.67584 12.5661 1.74158V3.97653C12.5661 4.01735 12.5866 4.05337 12.6179 4.07482L13.4769 3.29414C13.6131 3.17035 13.8211 3.17035 13.9573 3.29414L14.8163 4.07482C14.8476 4.05337 14.8682 4.01735 14.8682 3.97653V1.74158C14.8682 1.67584 14.8149 1.62254 14.7491 1.62254H12.6851Z" fill="#656575"/>
<path fill-rule="evenodd" clip-rule="evenodd" d="M12.2642 10.1939L14.2354 8.22271L14.2359 8.2217L14.2354 8.22005C14.2342 8.21886 14.2351 8.21681 14.2368 8.21684L14.8999 8.22875C15.007 8.23068 15.1023 8.16079 15.1325 8.058L15.7726 5.88606C15.7973 5.80244 15.7742 5.71204 15.7126 5.65039L15.2434 5.18121C15.1818 5.11956 15.0914 5.09654 15.0077 5.12118L12.8358 5.76126C12.733 5.79156 12.6631 5.88678 12.6651 5.99392L12.6755 6.57294C12.6766 6.63756 12.6515 6.69988 12.6058 6.74558L10.7109 8.64048L9.48853 7.41816C9.6402 6.74311 9.45358 6.0065 8.92745 5.48037C8.28383 4.83675 7.32545 4.70108 6.54907 5.07174L6.18438 5.24585L7.42165 6.48312L6.97518 6.92959L5.73786 5.69227L5.56368 6.05672C5.19255 6.83324 5.32809 7.79205 5.97193 8.43589C6.49806 8.96202 7.23466 9.14864 7.9097 8.99697L8.78141 9.86869L5.70519 12.9449C5.16048 13.4896 5.16048 14.3728 5.70519 14.9175C6.2499 15.4622 7.13305 15.4622 7.67775 14.9175L10.754 11.8413L11.5177 12.605C11.3661 13.28 11.5527 14.0165 12.0788 14.5426C12.7226 15.1864 13.6814 15.322 14.4579 14.9509L14.8224 14.7767L13.5359 13.4902L13.9824 13.0438L15.2688 14.3302L15.4429 13.9655C15.8136 13.1891 15.678 12.2307 15.0343 11.5871C14.5082 11.0609 13.7715 10.8743 13.0964 11.026L12.2642 10.1939ZM13.4632 6.22173C13.3604 6.25202 13.2905 6.34725 13.2925 6.45439L13.302 6.98421L12.6402 7.646C12.5943 7.65441 12.5505 7.67635 12.515 7.71182L11.1486 9.07821L11.8265 9.75613L13.1929 8.38974C13.2282 8.35447 13.2501 8.3109 13.2586 8.26532L13.9317 7.59222L14.4394 7.60133C14.5466 7.60326 14.6418 7.53337 14.6721 7.43058L15.085 6.0293C15.1034 5.96693 15.0862 5.89951 15.0403 5.85353C14.9943 5.80756 14.9269 5.79038 14.8645 5.80876L13.4632 6.22173ZM10.2489 11.3362L9.28649 10.3738L6.21027 13.45C5.9445 13.7158 5.9445 14.1466 6.21027 14.4124C6.47603 14.6782 6.90692 14.6782 7.17268 14.4124L10.2489 11.3362ZM7.85938 6.11273L7.20587 5.45922C7.67132 5.38393 8.16487 5.52591 8.52339 5.88443C8.93783 6.29886 9.06302 6.89355 8.89741 7.41739L8.8451 7.58285L12.9317 11.6695L13.0972 11.6171C13.6211 11.4515 14.2158 11.5767 14.6303 11.9911C14.9888 12.3497 15.1308 12.8432 15.0555 13.3087L14.3528 12.606C14.1482 12.4015 13.8166 12.4015 13.612 12.606L13.0982 13.1198C12.8937 13.3244 12.8937 13.656 13.0982 13.8606L13.8012 14.5636C13.3355 14.6392 12.8416 14.4973 12.4829 14.1385C12.0685 13.7241 11.9433 13.1295 12.1088 12.6057L12.1611 12.4403L8.07439 8.35355L7.90894 8.40585C7.3851 8.57145 6.79042 8.44626 6.376 8.03183C6.01725 7.67309 5.87532 7.17914 5.95092 6.71344L6.60479 7.36732C6.80935 7.57188 7.14101 7.57188 7.34557 7.36732L7.85938 6.85351C8.06394 6.64895 8.06394 6.31729 7.85938 6.11273Z" stroke="#656575" stroke-width="0.2" mask="url(#path-1-outside-1_173_3520)"/>
<path fill-rule="evenodd" clip-rule="evenodd" d="M3.10095 2.2104C3.10095 1.48717 3.68725 0.900879 4.41048 0.900879H16.5895C17.3128 0.900879 17.8991 1.48717 17.8991 2.2104L17.8991 19.0994H4.80285C4.62689 19.0994 4.45896 19.065 4.30541 19.0026C3.60455 18.7614 3.10095 18.0963 3.10095 17.3136V2.2104ZM17.1848 17.1702V18.385H4.88667C4.77185 18.385 4.66124 18.367 4.55755 18.3335C4.34425 18.2393 4.1954 18.0258 4.1954 17.7776C4.1954 17.4421 4.46737 17.1702 4.80285 17.1702H17.1848ZM17.1848 16.4559H4.80285C4.41008 16.4559 4.05733 16.6272 3.81524 16.8992V2.2104C3.81524 1.88166 4.08173 1.61516 4.41048 1.61516H11.8613C11.855 1.65639 11.8518 1.69861 11.8518 1.74158V3.97653C11.8518 4.43677 12.2249 4.80986 12.6851 4.80986H12.7331C12.8219 4.80986 12.9076 4.77676 12.9733 4.71702L13.7171 4.04104L14.4609 4.71702C14.5267 4.77676 14.6123 4.80986 14.7011 4.80986H14.7491C15.2094 4.80986 15.5825 4.43677 15.5825 3.97653V1.74158C15.5825 1.69861 15.5792 1.65639 15.5729 1.61516H16.5895C16.9183 1.61516 17.1848 1.88166 17.1848 2.2104V16.4559ZM12.6851 1.62254C12.6194 1.62254 12.5661 1.67584 12.5661 1.74158V3.97653C12.5661 4.01735 12.5866 4.05337 12.6179 4.07482L13.4769 3.29414C13.6131 3.17035 13.8211 3.17035 13.9573 3.29414L14.8163 4.07482C14.8476 4.05337 14.8682 4.01735 14.8682 3.97653V1.74158C14.8682 1.67584 14.8149 1.62254 14.7491 1.62254H12.6851Z" stroke="#656575" stroke-width="0.2" mask="url(#path-1-outside-1_173_3520)"/>
</svg>
