<svg width="18" height="18" viewBox="0 0 18 18" fill="none" xmlns="http://www.w3.org/2000/svg">
<path d="M1.875 6.5H15.875M1.875 11.5H15.875M1.375 9C1.375 9.98491 1.56899 10.9602 1.9459 11.8701C2.32281 12.7801 2.87526 13.6069 3.5717 14.3033C4.26814 14.9997 5.09493 15.5522 6.00487 15.9291C6.91482 16.306 7.89009 16.5 8.875 16.5C9.85991 16.5 10.8352 16.306 11.7451 15.9291C12.6551 15.5522 13.4819 14.9997 14.1783 14.3033C14.8747 13.6069 15.4272 12.7801 15.8041 11.8701C16.181 10.9602 16.375 9.98491 16.375 9C16.375 7.01088 15.5848 5.10322 14.1783 3.6967C12.7718 2.29018 10.8641 1.5 8.875 1.5C6.88588 1.5 4.97822 2.29018 3.5717 3.6967C2.16518 5.10322 1.375 7.01088 1.375 9Z" stroke="#656575" stroke-width="1.3" stroke-linecap="round" stroke-linejoin="round"/>
<path d="M8.45822 1.5C7.05434 3.74968 6.31006 6.34822 6.31006 9C6.31006 11.6518 7.05434 14.2503 8.45822 16.5M9.29155 1.5C10.6954 3.74968 11.4397 6.34822 11.4397 9C11.4397 11.6518 10.6954 14.2503 9.29155 16.5" stroke="#656575" stroke-width="1.3" stroke-linecap="round" stroke-linejoin="round"/>
</svg>
