<svg width="21" height="6" viewBox="0 0 21 6" fill="none" xmlns="http://www.w3.org/2000/svg">
<path d="M3.55468 0.291626C3.29146 0.0976908 2.94799 0.000488281 2.52425 0.000488281H0.883782C0.753882 0.000488281 0.682116 0.0701153 0.668483 0.209235L0.00209179 4.69251C-0.00483412 4.73655 0.00544503 4.77682 0.0328353 4.81343C0.0600688 4.8501 0.0943223 4.86834 0.135345 4.86834H0.914557C1.05123 4.86834 1.12635 4.79888 1.14013 4.6596L1.32466 3.45091C1.3314 3.39233 1.35543 3.34471 1.39646 3.30803C1.43745 3.27142 1.48872 3.24747 1.55024 3.23652C1.61175 3.22564 1.66976 3.22013 1.72454 3.22013C1.77917 3.22013 1.84407 3.22386 1.91938 3.23115C1.9945 3.23844 2.04238 3.24203 2.06291 3.24203C2.6507 3.24203 3.11208 3.06452 3.44706 2.7091C3.78188 2.35387 3.94948 1.86128 3.94948 1.23111C3.94948 0.7989 3.81777 0.485762 3.55468 0.291525V0.291626ZM2.70887 1.63782C2.67458 1.89426 2.58583 2.06267 2.4423 2.14328C2.29874 2.22399 2.09369 2.26416 1.82715 2.26416L1.48878 2.27511L1.66312 1.09931C1.67672 1.0188 1.72113 0.978493 1.79637 0.978493H1.99124C2.26451 0.978493 2.46286 1.02071 2.58589 1.10482C2.70887 1.18912 2.74989 1.36683 2.70887 1.63782Z" fill="#003087"/>
<path d="M20.8665 0.000488281H20.1079C20.0325 0.000488281 19.9881 0.0407939 19.9746 0.121438L19.3081 4.69271L19.2979 4.71468C19.2979 4.75149 19.3115 4.78612 19.3389 4.8191C19.3661 4.85202 19.4005 4.86851 19.4414 4.86851H20.1182C20.2479 4.86851 20.3197 4.79905 20.3335 4.65976L20.9999 0.165404V0.154488C20.9999 0.0518776 20.9553 0.00062307 20.8665 0.00062307V0.000488281Z" fill="#009CDE"/>
<path d="M11.7007 1.77004C11.7007 1.7335 11.687 1.69864 11.6598 1.66575C11.6324 1.6328 11.6016 1.61621 11.5675 1.61621H10.7781C10.7027 1.61621 10.6412 1.65302 10.5935 1.72608L9.50669 3.44035L9.05556 1.79208C9.02121 1.67496 8.94613 1.61621 8.83001 1.61621H8.06092C8.02667 1.61621 7.99593 1.63274 7.96876 1.66575C7.94134 1.69864 7.92773 1.73357 7.92773 1.77004C7.92773 1.78479 7.99439 2.00082 8.12765 2.41838C8.2609 2.83608 8.40443 3.28662 8.55824 3.77015C8.71206 4.25358 8.79231 4.51012 8.79918 4.53917C8.23865 5.35979 7.95851 5.79931 7.95851 5.85782C7.95851 5.95315 8.00285 6.00071 8.09179 6.00071H8.88125C8.9564 6.00071 9.01789 5.96416 9.06584 5.89087L11.6804 1.84692C11.6939 1.83241 11.7007 1.80689 11.7007 1.77001V1.77004Z" fill="#003087"/>
<path d="M19.0519 1.61549H18.2726C18.1768 1.61549 18.1189 1.7364 18.0984 1.9782C17.9205 1.68525 17.596 1.53857 17.1243 1.53857C16.6322 1.53857 16.2134 1.73641 15.8683 2.132C15.5231 2.5276 15.3506 2.99292 15.3506 3.52763C15.3506 3.95994 15.4685 4.30421 15.7042 4.56052C15.9401 4.8171 16.2562 4.94513 16.6528 4.94513C16.8509 4.94513 17.0526 4.9011 17.2576 4.81327C17.4627 4.72537 17.6232 4.60821 17.7396 4.46164C17.7396 4.46899 17.7326 4.50184 17.7191 4.56042C17.7053 4.61913 17.6985 4.66323 17.6985 4.69228C17.6985 4.80964 17.7428 4.86808 17.8318 4.86808H18.5394C18.6691 4.86808 18.7443 4.79862 18.7648 4.65933L19.1852 1.79129C19.192 1.74729 19.1817 1.70708 19.1544 1.67041C19.127 1.63386 19.0929 1.61549 19.0519 1.61549ZM17.7139 3.78035C17.5396 3.9635 17.3294 4.05503 17.0833 4.05503C16.885 4.05503 16.7245 3.99652 16.6014 3.87923C16.4783 3.76228 16.4168 3.60109 16.4168 3.39573C16.4168 3.12488 16.5023 2.89575 16.6732 2.70897C16.8439 2.52215 17.056 2.42878 17.3089 2.42878C17.5001 2.42878 17.659 2.4892 17.7856 2.61002C17.912 2.73093 17.9754 2.8976 17.9754 3.11011C17.9753 3.3738 17.8882 3.59729 17.7139 3.78035Z" fill="#009CDE"/>
<path d="M7.40451 1.61549H6.62526C6.52943 1.61549 6.47145 1.7364 6.45093 1.9782C6.26637 1.68525 5.94167 1.53857 5.47688 1.53857C4.98473 1.53857 4.56601 1.73641 4.22088 2.132C3.87565 2.5276 3.70312 2.99292 3.70312 3.52763C3.70312 3.95994 3.82105 4.30421 4.05688 4.56052C4.29271 4.8171 4.60876 4.94513 5.00526 4.94513C5.19655 4.94513 5.3949 4.9011 5.59992 4.81327C5.80497 4.72537 5.96903 4.60821 6.09206 4.46164C6.06464 4.54947 6.05104 4.62642 6.05104 4.69228C6.05104 4.80964 6.09545 4.86808 6.18432 4.86808H6.89177C7.02154 4.86808 7.09682 4.79862 7.11735 4.65933L7.5377 1.79129C7.54444 1.74729 7.53422 1.70708 7.50695 1.67041C7.47959 1.63386 7.44547 1.61549 7.40451 1.61549ZM6.06649 3.78579C5.89215 3.96548 5.67845 4.05503 5.4257 4.05503C5.22736 4.05503 5.06844 3.99652 4.94891 3.87923C4.82923 3.76228 4.76946 3.60109 4.76946 3.39573C4.76946 3.12488 4.85486 2.89575 5.02582 2.70897C5.19658 2.52215 5.4085 2.42875 5.6615 2.42875C5.85279 2.42875 6.01171 2.4892 6.13829 2.61002C6.26465 2.73093 6.32795 2.8976 6.32795 3.11011C6.32792 3.38116 6.2408 3.6065 6.06649 3.78579Z" fill="#003087"/>
<path d="M15.2022 0.291626C14.939 0.0976908 14.5956 0.000488281 14.1718 0.000488281H12.5416C12.4048 0.000488281 12.3296 0.0701153 12.316 0.209235L11.6496 4.69251C11.6426 4.73655 11.6529 4.77682 11.6803 4.81343C11.7074 4.8501 11.7418 4.86834 11.7828 4.86834H12.6235C12.7055 4.86834 12.7602 4.82078 12.7876 4.72553L12.9722 3.45091C12.979 3.39233 13.0029 3.34471 13.0439 3.30803C13.085 3.27142 13.1362 3.24747 13.1978 3.23652C13.2592 3.22564 13.3172 3.22013 13.372 3.22013C13.4267 3.22013 13.4916 3.22386 13.5668 3.23115C13.642 3.23844 13.69 3.24203 13.7103 3.24203C14.2983 3.24203 14.7595 3.06452 15.0945 2.7091C15.4295 2.35387 15.5969 1.86128 15.5969 1.23111C15.5969 0.7989 15.4653 0.485729 15.2022 0.291525V0.291626ZM14.1513 2.09928C14.0009 2.20914 13.7753 2.26406 13.4746 2.26406L13.1465 2.27508L13.3208 1.09924C13.3343 1.01876 13.3788 0.978392 13.454 0.978392H13.6385C13.7889 0.978392 13.9085 0.985748 13.9975 1.00036C14.0862 1.01507 14.1718 1.06078 14.2538 1.13766C14.3359 1.21461 14.3769 1.32639 14.3769 1.47284C14.3769 1.78063 14.3016 1.98931 14.1513 2.09928Z" fill="#009CDE"/>
</svg>
