<svg width="20" height="20" viewBox="0 0 20 20" fill="none" xmlns="http://www.w3.org/2000/svg">
<g clip-path="url(#clip0_173_3194)">
<path fill-rule="evenodd" clip-rule="evenodd" d="M8.77402 15.8959C8.77407 15.8344 8.78623 15.7735 8.80981 15.7167C8.8334 15.6599 8.86794 15.6083 8.91147 15.5648C8.955 15.5214 9.00666 15.4869 9.06351 15.4634C9.12035 15.4399 9.18127 15.4279 9.24277 15.428H14.8781C15.0023 15.428 15.1214 15.4773 15.2093 15.5651C15.2971 15.653 15.3464 15.7721 15.3464 15.8963C15.3464 16.0205 15.2971 16.1397 15.2093 16.2275C15.1214 16.3153 15.0023 16.3647 14.8781 16.3647H9.24285C9.18128 16.3647 9.12031 16.3526 9.06342 16.3291C9.00653 16.3055 8.95484 16.271 8.9113 16.2275C8.86777 16.1839 8.83324 16.1322 8.8097 16.0754C8.78616 16.0185 8.77406 15.9575 8.7741 15.8959L8.77402 15.8959ZM4.77141 15.9567C4.72987 15.9108 4.69784 15.857 4.67719 15.7986C4.65654 15.7402 4.64767 15.6783 4.6511 15.6165C4.65452 15.5546 4.67017 15.494 4.69714 15.4383C4.72411 15.3825 4.76186 15.3326 4.80822 15.2916C4.85458 15.2505 4.90862 15.219 4.96722 15.1989C5.02582 15.1788 5.08782 15.1706 5.14963 15.1746C5.21145 15.1786 5.27185 15.1949 5.32735 15.2224C5.38284 15.2499 5.43234 15.2881 5.47297 15.3349L6.05914 15.9961L7.5657 14.2962C7.64841 14.2041 7.7642 14.1484 7.8878 14.1414C8.0114 14.1343 8.13276 14.1765 8.22541 14.2586C8.31805 14.3407 8.37445 14.4561 8.38229 14.5797C8.39013 14.7032 8.34878 14.8249 8.26727 14.918L6.40992 17.0143C6.36588 17.0638 6.31185 17.1034 6.25139 17.1306C6.19093 17.1577 6.12541 17.1717 6.05914 17.1717C5.99287 17.1717 5.92735 17.1577 5.86689 17.1306C5.80643 17.1034 5.7524 17.0638 5.70836 17.0143L4.77141 15.9567V15.9567ZM8.77402 11.4484C8.77398 11.3868 8.78608 11.3258 8.80962 11.269C8.83316 11.2121 8.86769 11.1604 8.91123 11.1168C8.95476 11.0733 9.00645 11.0388 9.06334 11.0152C9.12023 10.9917 9.1812 10.9796 9.24277 10.9796H14.8781C15.0024 10.9796 15.1216 11.029 15.2095 11.1169C15.2975 11.2048 15.3468 11.3241 15.3468 11.4484C15.3468 11.5727 15.2975 11.6919 15.2095 11.7798C15.1216 11.8678 15.0024 11.9171 14.8781 11.9171H9.24285C9.11855 11.9171 8.99937 11.8677 8.91148 11.7798C8.82358 11.6919 8.77417 11.5727 8.7741 11.4484H8.77402ZM4.77141 11.5083C4.69278 11.4148 4.65378 11.2943 4.66273 11.1724C4.67168 11.0505 4.72787 10.937 4.81932 10.8559C4.91077 10.7749 5.03025 10.7327 5.15231 10.7385C5.27437 10.7443 5.38936 10.7974 5.47277 10.8867L6.05895 11.5479L7.5657 9.84768C7.60659 9.80162 7.65615 9.76406 7.71155 9.73714C7.76695 9.71023 7.82712 9.6945 7.8886 9.69083C7.95009 9.68717 8.01169 9.69566 8.06989 9.7158C8.1281 9.73595 8.18177 9.76736 8.22783 9.80825C8.2739 9.84914 8.31146 9.89869 8.33837 9.9541C8.36528 10.0095 8.38102 10.0697 8.38468 10.1311C8.38834 10.1926 8.37986 10.2542 8.35971 10.3124C8.33957 10.3706 8.30815 10.4243 8.26727 10.4704L6.40992 12.5657C6.36588 12.6152 6.31185 12.6549 6.25139 12.682C6.19093 12.7092 6.12541 12.7232 6.05914 12.7232C5.99287 12.7232 5.92735 12.7092 5.86689 12.682C5.80643 12.6549 5.7524 12.6152 5.70836 12.5657L4.77141 11.5082V11.5083ZM8.77402 7.00003C8.77411 6.87573 8.82352 6.75655 8.91141 6.66866C8.9993 6.58077 9.11848 6.53136 9.24277 6.53128H14.8781C15.0024 6.53128 15.1216 6.58066 15.2095 6.66857C15.2975 6.75648 15.3468 6.87571 15.3468 7.00003C15.3468 7.12435 15.2975 7.24358 15.2095 7.33148C15.1216 7.41939 15.0024 7.46878 14.8781 7.46878H9.24285C9.11856 7.46869 8.99938 7.41928 8.91149 7.33139C8.8236 7.2435 8.77418 7.12432 8.7741 7.00003H8.77402ZM4.77141 7.06085C4.68883 6.96781 4.6466 6.84579 4.65399 6.72162C4.66139 6.59744 4.71781 6.48129 4.81084 6.39872C4.90387 6.31614 5.0259 6.27391 5.15007 6.2813C5.27424 6.2887 5.39039 6.34512 5.47297 6.43815L6.05914 7.10022L7.5657 5.40034C7.60633 5.35358 7.65583 5.31534 7.71133 5.28782C7.76682 5.2603 7.82723 5.24406 7.88904 5.24003C7.95085 5.236 8.01285 5.24426 8.07145 5.26434C8.13005 5.28441 8.1841 5.3159 8.23045 5.35699C8.27681 5.39808 8.31457 5.44795 8.34154 5.50371C8.3685 5.55948 8.38415 5.62004 8.38758 5.68189C8.391 5.74374 8.38213 5.80565 8.36148 5.86405C8.34083 5.92245 8.30881 5.97618 8.26727 6.02214L6.40992 8.11749C6.36588 8.16701 6.31185 8.20664 6.25139 8.23378C6.19093 8.26092 6.12541 8.27495 6.05914 8.27495C5.99287 8.27495 5.92735 8.26092 5.86689 8.23378C5.80643 8.20664 5.7524 8.16701 5.70836 8.11749L4.77141 7.06085ZM3.46582 3.73534V18.6783C3.46591 18.7802 3.50643 18.8778 3.57847 18.9498C3.65051 19.0217 3.74817 19.0622 3.85 19.0622H16.1503C16.2521 19.0622 16.3498 19.0217 16.4218 18.9498C16.4938 18.8778 16.5343 18.7802 16.5344 18.6783V3.73534C16.5343 3.63352 16.4938 3.5359 16.4218 3.46393C16.3498 3.39195 16.2521 3.35152 16.1503 3.35151H13.9211V3.58053C13.9208 3.79533 13.8354 4.00126 13.6836 4.1532C13.5318 4.30514 13.3259 4.3907 13.1111 4.39112H6.88914C6.67435 4.3907 6.46849 4.30514 6.31667 4.1532C6.16486 4.00125 6.07947 3.79532 6.07922 3.58053V3.35159H3.85C3.74817 3.35159 3.65051 3.39202 3.57847 3.46399C3.50643 3.53596 3.46591 3.63359 3.46582 3.73542V3.73534ZM7.0166 2.00878H8.81527C8.93155 2.00878 9.04367 1.96556 9.12987 1.88753C9.21607 1.8095 9.27019 1.70221 9.28172 1.58651C9.29987 1.40863 9.38338 1.24381 9.51608 1.12397C9.64877 1.00413 9.82122 0.937781 10 0.937781C10.1788 0.937781 10.3513 1.00413 10.484 1.12397C10.6167 1.24381 10.7002 1.40863 10.7183 1.58651C10.7299 1.70222 10.784 1.80951 10.8702 1.88754C10.9564 1.96558 11.0685 2.00879 11.1848 2.00878H12.9834V3.4537H7.01672V2.00858L7.0166 2.00878ZM3.85 19.9998H16.1503C16.5007 19.9995 16.8367 19.8602 17.0845 19.6124C17.3323 19.3647 17.4716 19.0287 17.472 18.6783V3.73534C17.4714 3.38502 17.332 3.04921 17.0842 2.80153C16.8365 2.55385 16.5006 2.41452 16.1503 2.41409H13.9211V1.88155C13.9208 1.66685 13.8353 1.46104 13.6835 1.30925C13.5316 1.15746 13.3258 1.07209 13.1111 1.07186H11.5532C11.4336 0.756732 11.221 0.485428 10.9436 0.29398C10.6662 0.102532 10.3372 0 10.0001 0C9.66307 0 9.334 0.102532 9.05661 0.29398C8.77921 0.485428 8.56662 0.756732 8.44707 1.07186H6.88914C6.67444 1.07208 6.4686 1.15745 6.31676 1.30924C6.16493 1.46103 6.0795 1.66685 6.07922 1.88155V2.41409H3.85C3.49967 2.41451 3.16381 2.55384 2.91605 2.80152C2.66829 3.04919 2.52886 3.38501 2.52832 3.73534V18.6783C2.52866 19.0288 2.66803 19.3647 2.91582 19.6125C3.16362 19.8602 3.49959 19.9995 3.85 19.9998Z" fill="#C9C9CF"/>
</g>
<defs>
<clipPath id="clip0_173_3194">
<rect width="20" height="20" fill="white"/>
</clipPath>
</defs>
</svg>
