<svg width="16" height="17" viewBox="0 0 16 17" fill="none" xmlns="http://www.w3.org/2000/svg">
<g clip-path="url(#clip0_249_374)">
<path d="M7.15341 4.09274C7.42985 4.06051 7.71224 4.04395 7.99992 4.04395C11.1092 4.04395 13.5998 5.97904 14.6666 8.71061C14.4035 9.38422 14.0539 10.0094 13.6297 10.569M4.34633 5.0569C2.98628 5.88665 1.93399 7.17234 1.33325 8.71061C2.40001 11.4422 4.89061 13.3773 7.99992 13.3773C9.35829 13.3773 10.5986 13.0079 11.6537 12.3642M6.58577 7.29634C6.2238 7.65827 5.99992 8.1583 5.99992 8.71061C5.99992 9.81518 6.89535 10.7106 7.99992 10.7106C8.55223 10.7106 9.05226 10.4867 9.41419 10.1248" stroke="#C5C5CF" stroke-width="1.2" stroke-linecap="round" stroke-linejoin="round"/>
<path d="M2.66675 3.37695L13.3334 14.0436" stroke="#C5C5CF" stroke-width="1.2" stroke-linecap="round"/>
</g>
<defs>
<clipPath id="clip0_249_374">
<rect width="16" height="16" fill="white" transform="translate(0 0.710449)"/>
</clipPath>
</defs>
</svg>
