<svg width="16" height="17" viewBox="0 0 16 17" fill="none" xmlns="http://www.w3.org/2000/svg">
<path d="M7.15365 3.88229C7.4301 3.85006 7.71248 3.8335 8.00016 3.8335C11.1095 3.8335 13.6001 5.76859 14.6668 8.50016C14.4038 9.17377 14.0541 9.79894 13.63 10.3586M4.34658 4.84645C2.98653 5.6762 1.93424 6.96189 1.3335 8.50016C2.40025 11.2317 4.89085 13.1668 8.00016 13.1668C9.35854 13.1668 10.5988 12.7975 11.6539 12.1538M6.58601 7.08589C6.22405 7.44782 6.00016 7.94785 6.00016 8.50016C6.00016 9.60473 6.89559 10.5002 8.00016 10.5002C8.55248 10.5002 9.0525 10.2763 9.41444 9.91431" stroke="#656575" stroke-width="1.33333" stroke-linecap="round" stroke-linejoin="round"/>
<path d="M2.6665 3.1665L13.3332 13.8332" stroke="#656575" stroke-width="1.33333" stroke-linecap="round"/>
</svg>
