<svg width="55" height="55" viewBox="0 0 55 55" fill="none" xmlns="http://www.w3.org/2000/svg">
<g clip-path="url(#clip0_173_3569)">
<path d="M51.2917 54.875H4.04175C2.17792 54.875 0.666748 53.3638 0.666748 51.5V4.25C0.666748 2.38617 2.17792 0.875 4.04175 0.875H51.2917C53.1556 0.875 54.6667 2.38617 54.6667 4.25V51.5C54.6667 53.3638 53.1556 54.875 51.2917 54.875ZM4.04175 3.12486C3.42047 3.12486 2.91661 3.62872 2.91661 4.25V51.5C2.91661 52.1213 3.42047 52.6251 4.04175 52.6251H51.2917C51.913 52.6251 52.4169 52.1213 52.4169 51.5V4.25C52.4169 3.62872 51.913 3.12486 51.2917 3.12486H4.04175Z" fill="#ACACBB" fill-opacity="0.7"/>
<path d="M53.5416 14.3749H15.2919C14.9936 14.3749 14.7073 14.2562 14.4963 14.0453L11.4509 10.9999H5.63243L2.58702 14.0453L0.996338 12.4546L4.37134 9.07959C4.58228 8.86865 4.86861 8.75 5.16689 8.75H11.9169C12.2152 8.75 12.5011 8.86865 12.712 9.07959L15.7574 12.125H53.5416V14.3749Z" fill="#ACACBB" fill-opacity="0.7"/>
<path d="M20.9167 41.3749H16.4166C15.7953 41.3749 15.2919 40.871 15.2919 40.2497V33.4997C15.2919 32.8784 15.7953 32.375 16.4166 32.375H20.9167C21.538 32.375 22.0419 32.8784 22.0419 33.4997V40.2497C22.0419 40.871 21.538 41.3749 20.9167 41.3749ZM17.5417 39.125H19.7916V34.6249H17.5417V39.125Z" fill="#ACACBB" fill-opacity="0.7"/>
<path d="M23.1666 34.6251H14.1668C13.5455 34.6251 13.0416 34.1213 13.0416 33.5V24.5001C13.0416 23.8789 13.5455 23.375 14.1668 23.375H23.1666C23.7879 23.375 24.2918 23.8789 24.2918 24.5001V33.5C24.2918 34.1213 23.7879 34.6251 23.1666 34.6251ZM15.2919 32.3753H22.0419V25.6253H15.2919V32.3753Z" fill="#ACACBB" fill-opacity="0.7"/>
<path d="M35.5419 41.3748C35.3536 41.3748 35.1682 41.3278 35.003 41.2376L22.6277 34.4876C22.2664 34.2902 22.0415 33.9116 22.0419 33.4996V24.4998C22.0415 24.0882 22.2664 23.7092 22.6277 23.5118L35.003 16.7618C35.3515 16.5719 35.7746 16.5793 36.1162 16.782C36.4573 16.9847 36.667 17.3526 36.6666 17.7498V40.2496C36.6666 40.8709 36.1631 41.3748 35.5419 41.3748ZM24.2917 32.8314L34.4167 38.3541V19.6453L24.2917 25.168V32.8314Z" fill="#ACACBB" fill-opacity="0.7"/>
<path d="M14.1667 32.375H9.6666C9.04532 32.375 8.54187 31.8711 8.54187 31.2499V26.7497C8.54187 26.1284 9.04532 25.625 9.6666 25.625H14.1667C14.788 25.625 15.2919 26.1284 15.2919 26.7497V31.2499C15.2919 31.8711 14.788 32.375 14.1667 32.375ZM10.7917 30.1247H13.0416V27.8749H10.7917V30.1247Z" fill="#ACACBB" fill-opacity="0.7"/>
<path d="M17.5417 27.875H19.7916V30.1249H17.5417V27.875Z" fill="#ACACBB" fill-opacity="0.7"/>
<path d="M38.9169 38.0001V35.7503C42.6445 35.7503 45.6669 32.7279 45.6669 29.0003C45.6669 25.2722 42.6445 22.2503 38.9169 22.2503V20C43.8875 20 47.9167 24.0296 47.9167 29.0003C47.9167 33.9709 43.8875 38.0001 38.9169 38.0001Z" fill="#ACACBB" fill-opacity="0.7"/>
<path d="M38.9169 33.4999V31.25C40.1594 31.25 41.1667 30.2427 41.1667 29.0001C41.1667 27.7572 40.1594 26.7499 38.9169 26.7499V24.5C41.402 24.5 43.4166 26.5146 43.4166 29.0001C43.4166 31.4852 41.402 33.4999 38.9169 33.4999Z" fill="#ACACBB" fill-opacity="0.7"/>
<path d="M38.9169 43.625H50.1666V45.8753H38.9169V43.625Z" fill="#ACACBB" fill-opacity="0.7"/>
<path d="M41.1667 48.125H50.1666V50.3749H41.1667V48.125Z" fill="#ACACBB" fill-opacity="0.7"/>
<path d="M47.9167 6.5H50.1666V8.75027H47.9167V6.5Z" fill="#ACACBB" fill-opacity="0.7"/>
<path d="M43.4166 6.5H45.6669V8.75027H43.4166V6.5Z" fill="#ACACBB" fill-opacity="0.7"/>
</g>
<defs>
<clipPath id="clip0_173_3569">
<rect width="54" height="54" fill="white" transform="translate(0.666748 0.875)"/>
</clipPath>
</defs>
</svg>
