<svg width="20" height="20" viewBox="0 0 20 20" fill="none" xmlns="http://www.w3.org/2000/svg">
<g clip-path="url(#clip0_173_3182)">
<path fill-rule="evenodd" clip-rule="evenodd" d="M9.04252 13.3351C9.13047 13.2473 9.24965 13.198 9.37392 13.1979C9.4982 13.1978 9.61743 13.247 9.70549 13.3347L9.71838 13.3482C9.76385 13.3912 9.80023 13.443 9.82539 13.5003C9.85054 13.5576 9.86395 13.6194 9.86483 13.682C9.86571 13.7446 9.85404 13.8068 9.83051 13.8648C9.80697 13.9228 9.77205 13.9755 9.72781 14.0198C9.68357 14.0641 9.6309 14.0991 9.57291 14.1228C9.51492 14.1464 9.45279 14.1581 9.39018 14.1573C9.32758 14.1565 9.26576 14.1432 9.20839 14.1181C9.15102 14.0931 9.09926 14.0567 9.05615 14.0113L9.04291 13.9984C8.95499 13.9105 8.90557 13.7912 8.90549 13.6669C8.90542 13.5425 8.9547 13.4232 9.04252 13.3351ZM9.85111 13.2028C9.89462 13.2464 9.94629 13.281 10.0032 13.3046C10.06 13.3281 10.121 13.3403 10.1826 13.3403C10.2442 13.3403 10.3051 13.3281 10.362 13.3046C10.4189 13.281 10.4706 13.2464 10.5141 13.2028L11.3746 12.3423C11.4187 12.2989 11.4538 12.2472 11.4778 12.1902C11.5019 12.1332 11.5144 12.072 11.5146 12.0101C11.5149 11.9482 11.5029 11.8869 11.4793 11.8297C11.4558 11.7725 11.4211 11.7205 11.3774 11.6767C11.3336 11.6329 11.2816 11.5983 11.2244 11.5747C11.1672 11.5511 11.1059 11.5391 11.044 11.5394C10.9822 11.5396 10.9209 11.5521 10.8639 11.5761C10.8069 11.6002 10.7552 11.6352 10.7118 11.6793L9.85107 12.5398C9.80754 12.5834 9.773 12.6351 9.74944 12.6919C9.72588 12.7488 9.71375 12.8098 9.71375 12.8713C9.71375 12.9329 9.72588 12.9939 9.74944 13.0507C9.773 13.1076 9.80758 13.1593 9.85111 13.2028ZM12.2559 10.0348C12.3442 9.94669 12.4603 9.89187 12.5845 9.87973C12.7087 9.86758 12.8333 9.89887 12.937 9.96825C13.0407 10.0376 13.1171 10.1408 13.1532 10.2602C13.1894 10.3797 13.183 10.5079 13.1352 10.6232C13.0874 10.7384 13.0012 10.8335 12.8911 10.8923C12.781 10.9511 12.654 10.9699 12.5316 10.9455C12.4093 10.9211 12.2991 10.8551 12.22 10.7586C12.1409 10.6622 12.0976 10.5413 12.0976 10.4165C12.0975 10.3456 12.1114 10.2753 12.1385 10.2098C12.1657 10.1443 12.2056 10.0848 12.2559 10.0348ZM12.6375 11.8939C12.2958 11.8939 11.9646 11.7754 11.7004 11.5586C11.4363 11.3419 11.2554 11.0402 11.1887 10.705C11.122 10.3699 11.1736 10.022 11.3347 9.72058C11.4957 9.41919 11.7563 9.18296 12.072 9.05215C12.3877 8.92134 12.739 8.90404 13.066 9.0032C13.3931 9.10236 13.6756 9.31184 13.8655 9.59595C14.0554 9.88006 14.1409 10.2212 14.1075 10.5613C14.074 10.9014 13.9237 11.2194 13.6821 11.4611C13.5452 11.5987 13.3824 11.7078 13.2031 11.7821C13.0239 11.8564 12.8316 11.8944 12.6375 11.8939ZM11.3292 2.72234C11.3292 2.59802 11.3786 2.4788 11.4665 2.39089C11.5544 2.30298 11.6736 2.25359 11.7979 2.25359H17.3336C17.4579 2.25359 17.5771 2.30298 17.665 2.39089C17.7529 2.4788 17.8023 2.59802 17.8023 2.72234C17.8023 2.84666 17.7529 2.96589 17.665 3.0538C17.5771 3.14171 17.4579 3.19109 17.3336 3.19109H11.798C11.6737 3.19109 11.5544 3.14171 11.4665 3.0538C11.3786 2.96589 11.3292 2.84666 11.3292 2.72234ZM5.33701 2.72234C5.33701 2.66077 5.34914 2.5998 5.37271 2.54292C5.39628 2.48603 5.43083 2.43435 5.47437 2.39082C5.51792 2.34729 5.56962 2.31276 5.62651 2.28922C5.68341 2.26567 5.74438 2.25357 5.80596 2.25359H5.83436C5.95868 2.25359 6.0779 2.30298 6.16581 2.39089C6.25372 2.4788 6.30311 2.59802 6.30311 2.72234C6.30311 2.84666 6.25372 2.96589 6.16581 3.0538C6.0779 3.14171 5.95868 3.19109 5.83436 3.19109H5.80596C5.74438 3.19112 5.68341 3.17901 5.62651 3.15547C5.56962 3.13192 5.51792 3.0974 5.47437 3.05387C5.43083 3.01034 5.39628 2.95866 5.37271 2.90177C5.34914 2.84489 5.33701 2.78392 5.33701 2.72234ZM3.76361 2.72234C3.76361 2.59802 3.813 2.4788 3.90091 2.39089C3.98881 2.30298 4.10804 2.25359 4.23236 2.25359H4.26092C4.38524 2.25359 4.50447 2.30298 4.59237 2.39089C4.68028 2.4788 4.72967 2.59802 4.72967 2.72234C4.72967 2.84666 4.68028 2.96589 4.59237 3.0538C4.50447 3.14171 4.38524 3.19109 4.26092 3.19109H4.23236C4.10804 3.19109 3.98881 3.14171 3.90091 3.0538C3.813 2.96589 3.76361 2.84666 3.76361 2.72234ZM2.19018 2.72234C2.19018 2.59802 2.23956 2.4788 2.32747 2.39089C2.41538 2.30298 2.53461 2.25359 2.65893 2.25359H2.68748C2.8118 2.25359 2.93103 2.30298 3.01894 2.39089C3.10684 2.4788 3.15623 2.59802 3.15623 2.72234C3.15623 2.84666 3.10684 2.96589 3.01894 3.0538C2.93103 3.14171 2.8118 3.19109 2.68748 3.19109H2.65896C2.53464 3.19109 2.41542 3.14171 2.32751 3.0538C2.2396 2.96589 2.19018 2.84666 2.19018 2.72234ZM18.5512 14.9277C18.6858 14.9275 18.8149 14.874 18.9101 14.7788C19.0053 14.6836 19.0588 14.5545 19.059 14.4199V5.44887H0.934004V14.42C0.934118 14.5547 0.987656 14.6838 1.08286 14.779C1.17807 14.8742 1.30717 14.9277 1.44182 14.9279H5.10236C5.17148 14.7419 5.24255 14.559 5.31557 14.3791H3.51869C3.44581 14.3791 3.37394 14.3621 3.30878 14.3295C3.24362 14.2968 3.18696 14.2494 3.14332 14.1911C3.09967 14.1327 3.07024 14.065 3.05735 13.9932C3.04447 13.9215 3.04848 13.8478 3.06908 13.7779C3.48753 12.3516 4.31341 11.0787 5.44529 10.1153C5.53013 10.0431 5.63789 10.0034 5.74932 10.0033H7.93873C10.0332 7.63922 12.8036 6.41441 16.2255 6.35094C16.2886 6.34984 16.3512 6.36145 16.4096 6.38507C16.4681 6.40869 16.5211 6.44384 16.5657 6.48842C16.6103 6.533 16.6454 6.5861 16.669 6.64455C16.6926 6.703 16.7042 6.76561 16.7031 6.82863C16.641 10.1492 15.4864 12.8564 13.2578 14.9277H18.5512ZM9.61244 18.8773V17.329C10.4905 16.9221 11.3279 16.4326 12.1133 15.8672V17.1286C11.4255 17.8964 10.5697 18.4949 9.61244 18.8773V18.8773ZM7.24689 17.27L5.78404 15.8071C5.94969 15.3207 6.12665 14.8556 6.3149 14.4118C6.8985 14.5052 7.4377 14.7805 7.8556 15.1984C8.2735 15.6163 8.54876 16.1555 8.64213 16.7391C8.19807 16.9275 7.73299 17.1044 7.24689 17.27ZM4.0742 18.9798C5.046 18.909 5.72885 18.4419 6.18787 17.5368L5.51717 16.8661C4.61205 17.3251 4.14475 18.0082 4.0742 18.9798ZM5.7249 13.4414H4.17654C4.55903 12.4843 5.15755 11.6284 5.92537 10.9408H7.18666C6.62129 11.7261 6.13183 12.5634 5.7249 13.4414ZM12.0183 8.13598C9.76795 9.10082 8.01053 10.8923 6.7144 13.5356C7.39692 13.6946 8.0213 14.0415 8.51684 14.5371C9.01238 15.0326 9.35929 15.657 9.5183 16.3395C12.1617 15.0437 13.9531 13.2864 14.9179 11.0355C14.6965 9.40738 13.6469 8.35781 12.0183 8.13598ZM15.432 9.49027C15.605 8.77368 15.7106 8.0425 15.7476 7.30625C15.0114 7.34337 14.2802 7.44904 13.5636 7.62187C14.3839 8.00952 15.0443 8.6699 15.432 9.49027ZM1.44189 0.933594C1.30725 0.933718 1.17816 0.987259 1.08295 1.08247C0.987748 1.17767 0.934206 1.30676 0.934082 1.44141V4.51121H19.0591V1.44141C19.0589 1.30678 19.0053 1.17772 18.9102 1.08252C18.815 0.987327 18.6859 0.933769 18.5513 0.933594H1.44189ZM18.5513 -0.00390625H1.44189C1.0587 -0.00348234 0.691329 0.148927 0.420372 0.419884C0.149416 0.690841 -0.00299406 1.05822 -0.00341797 1.44141V14.42C-0.00303534 14.8032 0.149361 15.1706 0.420327 15.4416C0.691293 15.7126 1.05869 15.865 1.44189 15.8654H4.78385C4.76869 15.9703 4.78933 16.0773 4.84244 16.169C4.33998 16.467 3.94361 16.8392 3.66041 17.2814C3.27236 17.8869 3.0951 18.6245 3.13232 19.4741C3.13743 19.5912 3.18623 19.7021 3.26908 19.785C3.35194 19.8678 3.46284 19.9166 3.5799 19.9217C3.65377 19.9248 3.72639 19.9263 3.79865 19.9263C4.55646 19.9263 5.21932 19.7476 5.77244 19.3936C6.21467 19.1104 6.58689 18.7139 6.88502 18.2116C6.94208 18.2448 7.0055 18.2655 7.07114 18.2725C7.13678 18.2795 7.20315 18.2726 7.26592 18.2521C7.75454 18.0923 8.22416 17.9212 8.67479 17.7386V19.5354C8.67473 19.597 8.68682 19.658 8.71036 19.7149C8.7339 19.7718 8.76843 19.8235 8.81196 19.867C8.8555 19.9105 8.9072 19.9451 8.96409 19.9686C9.02099 19.9921 9.08196 20.0042 9.14354 20.0042C9.18838 20.0042 9.233 19.9978 9.276 19.985C10.7023 19.5667 11.9753 18.7409 12.9386 17.609C13.011 17.5241 13.0507 17.4162 13.0508 17.3047V15.8652H18.5512C18.9344 15.8648 19.3018 15.7124 19.5727 15.4415C19.8437 15.1705 19.9961 14.8031 19.9965 14.4199V1.44141C19.996 1.05823 19.8436 0.690868 19.5727 0.419918C19.3017 0.148968 18.9344 -0.00345139 18.5512 -0.00390625H18.5513Z" fill="#C9C9CF"/>
</g>
<defs>
<clipPath id="clip0_173_3182">
<rect width="20" height="20" fill="white"/>
</clipPath>
</defs>
</svg>
