<svg width="20" height="20" viewBox="0 0 20 20" fill="none" xmlns="http://www.w3.org/2000/svg">
<g clip-path="url(#clip0_249_194)">
<circle cx="9.99992" cy="10.0002" r="1.66667" stroke="#0080EF" stroke-width="1.66667"/>
<path d="M4.49909 4.89941C3.72431 5.73448 3.16171 6.7255 2.83413 7.78723L4.16688 8.5567C5.27799 9.1982 5.27799 10.802 4.16688 11.4435L2.8327 12.2137C2.99538 12.7388 3.21868 13.254 3.5051 13.7501C3.7915 14.2461 4.12602 14.6971 4.49936 15.1005L5.83357 14.3302C6.94468 13.6887 8.33357 14.4906 8.33357 15.7736L8.33357 17.3126C9.41685 17.5597 10.5564 17.568 11.667 17.3146L11.667 15.7736C11.667 14.4906 13.0559 13.6888 14.167 14.3303L15.5015 15.1007C16.2763 14.2657 16.8389 13.2746 17.1664 12.2129L15.8336 11.4434C14.7225 10.8019 14.7225 9.19816 15.8336 8.55666L17.1679 7.78635C17.0052 7.26133 16.7819 6.74614 16.4955 6.25007C16.2091 5.75398 15.8745 5.30299 15.5012 4.8996L14.167 5.66989C13.0559 6.31139 11.667 5.50952 11.667 4.22652L11.667 2.68757C10.5837 2.4404 9.44416 2.43212 8.33357 2.68556L8.33357 4.2265C8.33357 5.5095 6.94468 6.31137 5.83357 5.66987L4.49909 4.89941Z" stroke="#0080EF" stroke-width="1.66667" stroke-linejoin="round"/>
</g>
<defs>
<clipPath id="clip0_249_194">
<rect width="20" height="20" fill="white"/>
</clipPath>
</defs>
</svg>
