<svg width="20" height="21" viewBox="0 0 20 21" fill="none" xmlns="http://www.w3.org/2000/svg">
<path d="M17.9422 9.06705L14.1922 12.817C14.0749 12.9343 13.9159 13.0002 13.75 13.0002C13.5841 13.0002 13.4251 12.9343 13.3078 12.817C13.1905 12.6998 13.1247 12.5407 13.1247 12.3749C13.1247 12.209 13.1905 12.0499 13.3078 11.9327L15.9914 9.24986H12.8906C11.3661 9.24944 9.88475 9.75573 8.67941 10.6891C7.47407 11.6225 6.61315 12.93 6.23203 14.4061C6.19059 14.5667 6.08706 14.7042 5.94421 14.7885C5.80136 14.8727 5.63089 14.8968 5.47031 14.8553C5.30973 14.8139 5.17219 14.7104 5.08795 14.5675C5.0037 14.4247 4.97965 14.2542 5.02109 14.0936C5.47079 12.3487 6.48809 10.8029 7.91281 9.69972C9.33752 8.5965 11.0887 7.99849 12.8906 7.99986H15.993L13.3078 5.31705C13.2497 5.25898 13.2037 5.19004 13.1723 5.11417C13.1408 5.0383 13.1247 4.95698 13.1247 4.87486C13.1247 4.79274 13.1408 4.71142 13.1723 4.63555C13.2037 4.55968 13.2497 4.49074 13.3078 4.43267C13.4251 4.3154 13.5841 4.24951 13.75 4.24951C13.8321 4.24951 13.9134 4.26569 13.9893 4.29711C14.0652 4.32854 14.1341 4.3746 14.1922 4.43267L17.9422 8.18267C18.0003 8.24072 18.0464 8.30965 18.0779 8.38552C18.1093 8.4614 18.1255 8.54272 18.1255 8.62486C18.1255 8.70699 18.1093 8.78832 18.0779 8.8642C18.0464 8.94007 18.0003 9.009 17.9422 9.06705ZM15 16.7499H3.125V7.37486C3.125 7.2091 3.05915 7.05013 2.94194 6.93292C2.82473 6.81571 2.66576 6.74986 2.5 6.74986C2.33424 6.74986 2.17527 6.81571 2.05806 6.93292C1.94085 7.05013 1.875 7.2091 1.875 7.37486V17.3749C1.875 17.5406 1.94085 17.6996 2.05806 17.8168C2.17527 17.934 2.33424 17.9999 2.5 17.9999H15C15.1658 17.9999 15.3247 17.934 15.4419 17.8168C15.5592 17.6996 15.625 17.5406 15.625 17.3749C15.625 17.2091 15.5592 17.0501 15.4419 16.9329C15.3247 16.8157 15.1658 16.7499 15 16.7499Z" fill="#545454"/>
</svg>
