<svg width="20" height="20" viewBox="0 0 20 20" fill="none" xmlns="http://www.w3.org/2000/svg">
<path d="M7.49967 9.99984C7.49967 10.5524 7.28018 11.0823 6.88948 11.473C6.49878 11.8637 5.96888 12.0832 5.41634 12.0832C4.86381 12.0832 4.3339 11.8637 3.9432 11.473C3.5525 11.0823 3.33301 10.5524 3.33301 9.99984C3.33301 9.4473 3.5525 8.9174 3.9432 8.5267C4.3339 8.136 4.86381 7.9165 5.41634 7.9165C5.96888 7.9165 6.49878 8.136 6.88948 8.5267C7.28018 8.9174 7.49967 9.4473 7.49967 9.99984Z" stroke="#0080EF" stroke-width="1.25"/>
<path d="M11.6667 5.4165L7.5 8.33317M11.6667 14.5832L7.5 11.6665" stroke="#0080EF" stroke-width="1.25" stroke-linecap="round"/>
<path d="M15.8327 15.4167C15.8327 15.9692 15.6132 16.4991 15.2225 16.8898C14.8318 17.2805 14.3019 17.5 13.7493 17.5C13.1968 17.5 12.6669 17.2805 12.2762 16.8898C11.8855 16.4991 11.666 15.9692 11.666 15.4167C11.666 14.8641 11.8855 14.3342 12.2762 13.9435C12.6669 13.5528 13.1968 13.3333 13.7493 13.3333C14.3019 13.3333 14.8318 13.5528 15.2225 13.9435C15.6132 14.3342 15.8327 14.8641 15.8327 15.4167ZM15.8327 4.58333C15.8327 5.13587 15.6132 5.66577 15.2225 6.05647C14.8318 6.44717 14.3019 6.66667 13.7493 6.66667C13.1968 6.66667 12.6669 6.44717 12.2762 6.05647C11.8855 5.66577 11.666 5.13587 11.666 4.58333C11.666 4.0308 11.8855 3.50089 12.2762 3.11019C12.6669 2.71949 13.1968 2.5 13.7493 2.5C14.3019 2.5 14.8318 2.71949 15.2225 3.11019C15.6132 3.50089 15.8327 4.0308 15.8327 4.58333Z" stroke="#0080EF" stroke-width="1.25"/>
</svg>
