<svg width="20" height="20" viewBox="0 0 20 20" fill="none" xmlns="http://www.w3.org/2000/svg">
<g clip-path="url(#clip0_249_207)">
<path d="M20 15.0001C20 15.5894 19.7659 16.1547 19.3491 16.5714C18.9324 16.9882 18.3671 17.2223 17.7778 17.2223H2.22222C1.63285 17.2223 1.06762 16.9882 0.650874 16.5714C0.234126 16.1547 0 15.5894 0 15.0001V5.00005C0 4.41068 0.234126 3.84545 0.650874 3.42871C1.06762 3.01196 1.63285 2.77783 2.22222 2.77783H17.7778C18.3671 2.77783 18.9324 3.01196 19.3491 3.42871C19.7659 3.84545 20 4.41068 20 5.00005V15.0001Z" fill="#C60A1D"/>
<path d="M0 6.6665H20V13.3332H0V6.6665Z" fill="#FFC400"/>
<path d="M5 9.44434V11.111C5 11.553 5.17559 11.977 5.48816 12.2895C5.80072 12.6021 6.22464 12.7777 6.66667 12.7777C7.10869 12.7777 7.53262 12.6021 7.84518 12.2895C8.15774 11.977 8.33333 11.553 8.33333 11.111V9.44434H5Z" fill="#EA596E"/>
<path d="M6.66675 8.88867H8.33341V10.5553H6.66675V8.88867Z" fill="#F4A2B2"/>
<path d="M5 8.88867H6.66667V10.5553H5V8.88867Z" fill="#DD2E44"/>
<path d="M6.66667 8.88883C7.58714 8.88883 8.33333 8.51574 8.33333 8.0555C8.33333 7.59526 7.58714 7.22217 6.66667 7.22217C5.74619 7.22217 5 7.59526 5 8.0555C5 8.51574 5.74619 8.88883 6.66667 8.88883Z" fill="#EA596E"/>
<path d="M6.66667 8.0555C7.58714 8.0555 8.33333 7.86895 8.33333 7.63883C8.33333 7.40872 7.58714 7.22217 6.66667 7.22217C5.74619 7.22217 5 7.40872 5 7.63883C5 7.86895 5.74619 8.0555 6.66667 8.0555Z" fill="#FFAC33"/>
<path d="M3.88892 8.88867H4.44447V12.7776H3.88892V8.88867ZM8.88892 8.88867H9.44447V12.7776H8.88892V8.88867Z" fill="#99AAB5"/>
<path d="M3.33325 12.2224H4.99992V12.7779H3.33325V12.2224ZM8.33325 12.2224H9.99992V12.7779H8.33325V12.2224ZM3.88881 8.3335H4.44436V8.88905H3.88881V8.3335ZM8.88881 8.3335H9.44436V8.88905H8.88881V8.3335Z" fill="#66757F"/>
</g>
<defs>
<clipPath id="clip0_249_207">
<rect width="20" height="20" fill="white"/>
</clipPath>
</defs>
</svg>
