<svg width="19" height="7" viewBox="0 0 19 7" fill="none" xmlns="http://www.w3.org/2000/svg">
<g clip-path="url(#clip0_463_1302)">
<path d="M18.4062 3.60221C18.4062 2.41127 17.7862 1.47154 16.6012 1.47154C15.4113 1.47154 14.6912 2.41127 14.6912 3.59291C14.6912 4.9932 15.5413 5.70032 16.7612 5.70032C17.3563 5.70032 17.8062 5.57472 18.1462 5.39793V4.46751C17.8062 4.62568 17.4163 4.72338 16.9212 4.72338C16.4363 4.72338 16.0062 4.5652 15.9513 4.01625H18.3962C18.3962 3.95577 18.4062 3.71386 18.4062 3.60221ZM15.9362 3.16026C15.9362 2.63457 16.2812 2.41592 16.5963 2.41592C16.9013 2.41592 17.2262 2.63457 17.2262 3.16026H15.9362ZM12.7613 1.47154C12.2713 1.47154 11.9562 1.68554 11.7812 1.8344L11.7162 1.54597H10.6163V6.97035L11.8663 6.72379L11.8713 5.40724C12.0513 5.52819 12.3162 5.70032 12.7562 5.70032C13.6512 5.70032 14.4663 5.03042 14.4663 3.55569C14.4613 2.20657 13.6363 1.47154 12.7613 1.47154ZM12.4612 4.67685C12.1662 4.67685 11.9913 4.57916 11.8713 4.4582L11.8663 2.73226C11.9963 2.59735 12.1762 2.50431 12.4612 2.50431C12.9162 2.50431 13.2312 2.97883 13.2312 3.58826C13.2312 4.21164 12.9212 4.67685 12.4612 4.67685ZM8.89625 1.19706L10.1512 0.945847V0.00146484L8.89625 0.248028V1.19706ZM8.89625 1.55062H10.1512V5.62124H8.89625V1.55062ZM7.55125 1.89488L7.47125 1.55062H6.39125V5.62124H7.64125V2.86252C7.93625 2.50431 8.43625 2.56944 8.59125 2.62061V1.55062C8.43125 1.4948 7.84625 1.39245 7.55125 1.89488ZM5.05125 0.541112L3.83125 0.783023L3.82625 4.50938C3.82625 5.19789 4.38125 5.70498 5.12125 5.70498C5.53125 5.70498 5.83125 5.63519 5.99625 5.55146V4.60707C5.83625 4.66755 5.04625 4.88155 5.04625 4.19303V2.54153H5.99625V1.55062H5.04625L5.05125 0.541112ZM1.67125 2.73226C1.67125 2.55083 1.83125 2.48105 2.09625 2.48105C2.47625 2.48105 2.95625 2.58805 3.33625 2.77879V1.68554C2.92125 1.53202 2.51125 1.47154 2.09625 1.47154C1.08125 1.47154 0.40625 1.96466 0.40625 2.78809C0.40625 4.07208 2.30625 3.86738 2.30625 4.42099C2.30625 4.63499 2.10625 4.70477 1.82625 4.70477C1.41125 4.70477 0.88125 4.5466 0.46125 4.3326V5.4398C0.92625 5.62589 1.39625 5.70498 1.82625 5.70498C2.86625 5.70498 3.58125 5.22581 3.58125 4.39307C3.57625 3.00674 1.67125 3.2533 1.67125 2.73226Z" fill="#635BFF"/>
</g>
<defs>
<clipPath id="clip0_463_1302">
<rect width="18" height="7" fill="white" transform="translate(0.40625)"/>
</clipPath>
</defs>
</svg>
