<svg width="20" height="20" viewBox="0 0 20 20" fill="none" xmlns="http://www.w3.org/2000/svg">
<g clip-path="url(#clip0_173_3210)">
<path fill-rule="evenodd" clip-rule="evenodd" d="M18.6437 2.22809L16.8012 1.16441C16.7325 1.1249 16.651 1.11423 16.5745 1.13473C16.4979 1.15524 16.4327 1.20524 16.393 1.27379L15.9289 2.07812L18.2891 3.44063L18.7533 2.63633C18.7928 2.56766 18.8035 2.48613 18.783 2.40961C18.7624 2.33308 18.7124 2.26781 18.6439 2.22809H18.6437ZM13.9495 12.8313L12.3797 15.5504C12.3325 15.6325 12.2613 15.6983 12.1757 15.739L11.1231 16.2418H11.5456C11.6699 16.2418 11.7892 16.2912 11.8771 16.3791C11.965 16.467 12.0144 16.5862 12.0144 16.7105C12.0144 16.8349 11.965 16.9541 11.8771 17.042C11.7892 17.1299 11.6699 17.1793 11.5456 17.1793H3.61129C3.48697 17.1793 3.36774 17.1299 3.27983 17.042C3.19193 16.9541 3.14254 16.8349 3.14254 16.7105C3.14254 16.5862 3.19193 16.467 3.27983 16.3791C3.36774 16.2912 3.48697 16.2418 3.61129 16.2418H8.54727L8.43836 14.8473H3.61129C3.48697 14.8473 3.36774 14.7979 3.27983 14.71C3.19193 14.6221 3.14254 14.5028 3.14254 14.3785C3.14254 14.2542 3.19193 14.135 3.27983 14.0471C3.36774 13.9592 3.48697 13.9098 3.61129 13.9098H8.36481L8.33441 13.5214C8.32693 13.427 8.34826 13.3325 8.39559 13.2504L8.82039 12.5152H3.61129C3.48697 12.5152 3.36774 12.4658 3.27983 12.3779C3.19193 12.29 3.14254 12.1708 3.14254 12.0464C3.14254 11.9221 3.19193 11.8029 3.27983 11.715C3.36774 11.6271 3.48697 11.5777 3.61129 11.5777H9.33594C9.34426 11.5777 9.35289 11.5785 9.36102 11.5789L10.1668 10.1828H3.61129C3.48697 10.1828 3.36774 10.1334 3.27983 10.0455C3.19193 9.95761 3.14254 9.83838 3.14254 9.71406C3.14254 9.58974 3.19193 9.47051 3.27983 9.38261C3.36774 9.2947 3.48697 9.24531 3.61129 9.24531H10.7082L11.5132 7.85078H3.61129C3.48697 7.85078 3.36774 7.8014 3.27983 7.71349C3.19193 7.62558 3.14254 7.50635 3.14254 7.38203C3.14254 7.25771 3.19193 7.13848 3.27983 7.05058C3.36774 6.96267 3.48697 6.91328 3.61129 6.91328H11.5456C11.6225 6.91322 11.6983 6.9321 11.7661 6.96828C11.834 7.00445 11.8919 7.05679 11.9347 7.12066L13.9495 3.63129V1.00312C13.9493 0.98579 13.9423 0.969221 13.9301 0.956959C13.9178 0.944697 13.9012 0.937713 13.8839 0.9375H1.27266C1.25531 0.937703 1.23874 0.944682 1.22648 0.956945C1.21421 0.969209 1.20723 0.985783 1.20703 1.00312V18.9973C1.20733 19.0145 1.21436 19.031 1.22661 19.0432C1.23886 19.0554 1.25538 19.0623 1.27266 19.0625H13.8839C13.9012 19.0623 13.9177 19.0554 13.9299 19.0432C13.9422 19.031 13.9492 19.0145 13.9495 18.9973V12.8313ZM17.8203 4.2523L11.8023 14.6758L9.44215 13.3132L15.4601 2.8898L17.8203 4.2523ZM9.46797 15.9934L9.35547 14.5508C9.37707 14.4959 9.38813 14.4375 9.38809 14.3786C9.38809 14.3738 9.38773 14.3691 9.38734 14.3645L10.9684 15.277L9.46797 15.9934ZM19.5652 3.10504L14.8871 11.2078V18.9973C14.8868 19.2632 14.7809 19.5181 14.5928 19.7061C14.4048 19.894 14.1498 19.9997 13.8839 20H1.27266C1.00676 19.9997 0.751837 19.894 0.563786 19.706C0.375735 19.518 0.269914 19.2632 0.269531 18.9973V1.00312C0.26981 0.737165 0.375586 0.482179 0.563648 0.294117C0.75171 0.106055 1.0067 0.00027919 1.27266 0L13.8839 0C14.1499 0.000248172 14.4049 0.10601 14.593 0.294076C14.7811 0.482141 14.8869 0.737145 14.8871 1.00312V2.00746L15.5812 0.805039C15.7454 0.521391 16.0154 0.31447 16.332 0.229687C16.6486 0.144904 16.9859 0.189185 17.2698 0.352812L19.1125 1.41652C19.3962 1.5807 19.6031 1.85067 19.6879 2.16721C19.7728 2.48374 19.7286 2.82101 19.5652 3.10504ZM3.14262 3.28949C3.14262 3.16517 3.192 3.04594 3.27991 2.95804C3.36782 2.87013 3.48705 2.82074 3.61137 2.82074H11.5456C11.6699 2.82074 11.7892 2.87013 11.8771 2.95804C11.965 3.04594 12.0144 3.16517 12.0144 3.28949C12.0144 3.41381 11.965 3.53304 11.8771 3.62095C11.7892 3.70886 11.6699 3.75824 11.5456 3.75824H3.61129C3.48698 3.75822 3.36777 3.70883 3.27988 3.62092C3.19199 3.53302 3.14262 3.4138 3.14262 3.28949Z" fill="#C9C9CF"/>
</g>
<defs>
<clipPath id="clip0_173_3210">
<rect width="20" height="20" fill="white"/>
</clipPath>
</defs>
</svg>
