<svg width="55" height="55" viewBox="0 0 55 55" fill="none" xmlns="http://www.w3.org/2000/svg">
<g clip-path="url(#clip0_173_3765)">
<path d="M41.0618 33C33.606 33 27.5618 26.9561 27.5618 19.5C27.5618 12.0443 33.606 6 41.0618 6C48.5175 6 54.5618 12.0443 54.5618 19.5C54.5535 26.9524 48.5142 32.9922 41.0618 33ZM41.0618 8.25027C34.8486 8.25027 29.8116 13.2868 29.8116 19.5C29.8116 25.7132 34.8486 30.7501 41.0618 30.7501C47.2749 30.7501 52.3119 25.7132 52.3119 19.5C52.3049 13.2897 47.2721 8.25687 41.0618 8.25027Z" fill="#ACACBB" fill-opacity="0.7"/>
<path d="M43.3116 39.7499H38.8119C36.9476 39.7499 35.4369 38.2391 35.4369 36.3749V30.75H37.6868V36.3749C37.6868 36.9961 38.1906 37.5 38.8119 37.5H43.3116C43.9329 37.5 44.4368 36.9961 44.4368 36.3749V30.75H46.6866V36.3749C46.6866 38.2391 45.1759 39.7499 43.3116 39.7499Z" fill="#ACACBB" fill-opacity="0.7"/>
<path d="M34.3118 34.125H47.8118V36.3749H34.3118V34.125Z" fill="#ACACBB" fill-opacity="0.7"/>
<path d="M39.9366 22.875H42.1869V31.8753H39.9366V22.875Z" fill="#ACACBB" fill-opacity="0.7"/>
<path d="M41.0618 23.9999C38.5767 23.9999 36.5616 21.9852 36.5616 19.4997C36.5616 17.0146 38.5767 15 41.0618 15C43.5469 15 45.5619 17.0146 45.5619 19.4997C45.5619 21.9852 43.5469 23.9999 41.0618 23.9999ZM41.0618 17.2499C39.8192 17.2499 38.8119 18.2572 38.8119 19.4997C38.8119 20.7427 39.8192 21.75 41.0618 21.75C42.3043 21.75 43.3116 20.7427 43.3116 19.4997C43.3116 18.2572 42.3043 17.2499 41.0618 17.2499Z" fill="#ACACBB" fill-opacity="0.7"/>
<path d="M2.48204 11.2955L0.891357 9.70445L9.89122 0.70459C10.1022 0.493652 10.3885 0.375 10.6868 0.375H38.8119C40.6757 0.375 42.1869 1.88617 42.1869 3.75H39.9366C39.9366 3.12872 39.4332 2.62486 38.8119 2.62486H11.1523L2.48204 11.2955Z" fill="#ACACBB" fill-opacity="0.7"/>
<path d="M38.8119 54.3751H3.93677C2.07294 54.3751 0.561768 52.864 0.561768 51.0001V33H2.81163V51.0001C2.81163 51.6214 3.31549 52.1253 3.93677 52.1253H38.8119C39.4332 52.1253 39.9366 51.6214 39.9366 51.0001V48.7503H42.1869V51.0001C42.1869 52.864 40.6757 54.3751 38.8119 54.3751Z" fill="#ACACBB" fill-opacity="0.7"/>
<path d="M2.81163 22.8747H0.561768V10.4999C0.561768 9.87859 1.06563 9.37473 1.68691 9.37473H8.43691C9.05818 9.37473 9.56163 8.87128 9.56163 8.25V1.5H11.8119V8.25C11.8119 10.1138 10.3007 11.625 8.43691 11.625H2.81163V22.8747Z" fill="#ACACBB" fill-opacity="0.7"/>
<path d="M18.8207 46.4998C18.5224 46.4998 18.2361 46.3811 18.0251 46.1702L0.891396 29.0365C0.452217 28.5973 0.452217 27.885 0.891396 27.4458L4.00643 24.3295C4.21737 24.1182 4.50411 23.9995 4.80239 23.9995C5.10108 23.9995 5.38741 24.1182 5.59835 24.3295L22.7321 41.4632C22.9434 41.6742 23.0621 41.9605 23.0621 42.2592C23.0621 42.5579 22.9434 42.8442 22.7321 43.0552L19.6158 46.1702C19.4049 46.3811 19.1189 46.4998 18.8207 46.4998ZM3.27763 28.2413L18.8207 43.7844L20.3463 42.2588L4.80322 26.7157L3.27763 28.2413Z" fill="#ACACBB" fill-opacity="0.7"/>
<path d="M21.9369 46.4997H18.5619V44.2499H20.8118V42H23.0616V45.375C23.0616 45.9963 22.5582 46.4997 21.9369 46.4997Z" fill="#ACACBB" fill-opacity="0.7"/>
<path d="M38.8119 46.4997H21.9369V44.2499H38.8119C39.4332 44.2499 39.9366 43.746 39.9366 43.1247V38.625H42.1869V43.1247C42.1869 44.989 40.6757 46.4997 38.8119 46.4997Z" fill="#ACACBB" fill-opacity="0.7"/>
<path d="M25.3119 22.8749H7.31178C6.69051 22.8749 6.18665 22.3714 6.18665 21.7501V15.0001C6.18665 14.3789 6.69051 13.875 7.31178 13.875H25.3119V16.1249H8.43692V20.625H25.3119V22.8749Z" fill="#ACACBB" fill-opacity="0.7"/>
<path d="M11.8119 25.125H27.5618V27.3749H11.8119V25.125Z" fill="#ACACBB" fill-opacity="0.7"/>
<path d="M15.1869 29.625H28.6869V31.8753H15.1869V29.625Z" fill="#ACACBB" fill-opacity="0.7"/>
<path d="M19.6866 34.125H32.0619V36.3749H19.6866V34.125Z" fill="#ACACBB" fill-opacity="0.7"/>
<path d="M10.6868 49.8749H8.43689C6.57265 49.8749 5.06189 48.3641 5.06189 46.4999V44.25H7.31175V46.4999C7.31175 47.1211 7.81561 47.625 8.43689 47.625H10.6868V49.8749Z" fill="#ACACBB" fill-opacity="0.7"/>
<path d="M12.9366 47.625H15.1869V49.8749H12.9366V47.625Z" fill="#ACACBB" fill-opacity="0.7"/>
</g>
<defs>
<clipPath id="clip0_173_3765">
<rect width="54" height="54" fill="white" transform="translate(0.561768 0.375)"/>
</clipPath>
</defs>
</svg>
