<svg width="20" height="20" viewBox="0 0 20 20" fill="none" xmlns="http://www.w3.org/2000/svg">
<path fill-rule="evenodd" clip-rule="evenodd" d="M6.47469 14.3497C6.11339 14.3496 5.76021 14.2425 5.45982 14.0417C5.15942 13.841 4.9253 13.5556 4.78706 13.2218C4.64882 12.888 4.61266 12.5207 4.68317 12.1664C4.75367 11.812 4.92767 11.4865 5.18316 11.2311C5.43865 10.9756 5.76415 10.8016 6.11851 10.7311C6.47287 10.6607 6.84017 10.6969 7.17396 10.8351C7.50776 10.9734 7.79306 11.2075 7.99378 11.508C8.1945 11.8084 8.30164 12.1616 8.30164 12.5229C8.3011 13.0072 8.10844 13.4716 7.76593 13.8141C7.42343 14.1565 6.95905 14.3492 6.47469 14.3497ZM6.47469 9.75875C5.928 9.75882 5.39361 9.92098 4.93909 10.2248C4.48457 10.5285 4.13034 10.9602 3.92117 11.4653C3.71201 11.9704 3.65732 12.5262 3.76401 13.0624C3.87071 13.5985 4.13399 14.091 4.52058 14.4776C4.90717 14.8641 5.3997 15.1273 5.93588 15.234C6.47207 15.3406 7.02783 15.2858 7.53289 15.0766C8.03795 14.8674 8.46963 14.5131 8.77334 14.0585C9.07705 13.6039 9.23915 13.0695 9.23914 12.5229C9.23832 11.79 8.9468 11.0873 8.42853 10.5691C7.91026 10.0509 7.20758 9.75948 6.47469 9.75875ZM19.0625 14.2772V6.5445C19.0624 6.45315 19.0261 6.36555 18.9615 6.30097C18.8969 6.2364 18.8093 6.20012 18.7179 6.20012H11.6777C11.4661 6.20184 11.2576 6.15036 11.0711 6.05041C10.8847 5.95046 10.7263 5.80525 10.6106 5.62813L8.2598 2.09418C8.2298 2.04549 8.18742 2.00562 8.137 1.97863C8.08657 1.95163 8.02989 1.93848 7.97273 1.94051H4.4723C4.38096 1.94055 4.29336 1.97685 4.22876 2.04142C4.16415 2.106 4.12782 2.19358 4.12773 2.28493V7.86161L4.14375 7.87282C4.36687 7.76074 4.5978 7.66493 4.83473 7.58614L5.0398 6.43485C5.05907 6.32647 5.11586 6.22833 5.20022 6.15762C5.28458 6.08692 5.39114 6.04816 5.50121 6.04813H7.44812C7.55819 6.0481 7.66475 6.08685 7.7491 6.15757C7.83344 6.22829 7.89017 6.32646 7.90934 6.43485L8.11441 7.58614C8.35138 7.66483 8.58232 7.76064 8.80539 7.87282L9.76484 7.20336C9.85515 7.14035 9.96474 7.11111 10.0744 7.12078C10.1841 7.13046 10.2869 7.17841 10.3648 7.25625L11.7414 8.63305C11.8192 8.71091 11.8671 8.81364 11.8767 8.92326C11.8864 9.03288 11.8571 9.14239 11.7941 9.23262L11.125 10.1916C11.2369 10.415 11.3327 10.646 11.4117 10.8831L12.5628 11.0879C12.6711 11.1073 12.7692 11.1641 12.8398 11.2484C12.9105 11.3328 12.9492 11.4393 12.9492 11.5493V13.4963C12.9492 13.6064 12.9105 13.7129 12.8398 13.7972C12.7692 13.8816 12.6711 13.9384 12.5628 13.9577L11.4113 14.1628C11.3598 14.3185 11.2999 14.4714 11.2335 14.6216H18.7179C18.8092 14.6216 18.8968 14.5853 18.9615 14.5207C19.0261 14.4562 19.0624 14.3686 19.0625 14.2772ZM9.9793 16.849L10.8008 16.0276L10.1911 15.1538C10.14 15.0807 10.1109 14.9946 10.107 14.9056C10.1032 14.8165 10.1249 14.7283 10.1695 14.6511C10.3545 14.3307 10.4969 13.9875 10.5929 13.6303C10.616 13.5443 10.6631 13.4667 10.7287 13.4065C10.7943 13.3463 10.8756 13.306 10.9633 13.2904L12.0118 13.1036V11.9423L10.9637 11.7554C10.876 11.7398 10.7946 11.6995 10.7289 11.6394C10.6633 11.5792 10.6161 11.5016 10.5929 11.4156C10.497 11.0582 10.3546 10.715 10.1695 10.3946C10.125 10.3174 10.1033 10.2291 10.1072 10.1401C10.111 10.0511 10.1401 9.965 10.1911 9.89192L10.8008 9.01821L9.97934 8.19696L9.10547 8.80649C9.03244 8.8575 8.94638 8.88662 8.85738 8.89044C8.76838 8.89426 8.68014 8.87262 8.60301 8.82805C8.28263 8.64298 7.93938 8.50069 7.58203 8.40481C7.49606 8.38167 7.41844 8.33454 7.35826 8.26892C7.29808 8.2033 7.25782 8.12191 7.24219 8.03426L7.05547 6.98579H5.89406L5.70738 8.03426C5.69172 8.12195 5.65142 8.20336 5.59119 8.26898C5.53096 8.3346 5.45329 8.38171 5.36727 8.40481C5.00997 8.5007 4.66678 8.643 4.34645 8.82805C4.26927 8.87261 4.18099 8.89425 4.09196 8.89043C4.00293 8.88662 3.91682 8.8575 3.84375 8.80649L2.96996 8.19711L2.14895 9.01821L2.75832 9.892C2.80935 9.96502 2.83847 10.0511 2.84226 10.1401C2.84604 10.2291 2.82434 10.3174 2.77969 10.3945C2.5947 10.7149 2.45247 11.0581 2.35664 11.4155C2.33348 11.5014 2.28634 11.579 2.22073 11.6392C2.15512 11.6994 2.07374 11.7397 1.98609 11.7553L0.9375 11.9423V13.1035L1.98559 13.2903C2.07328 13.3059 2.15472 13.3461 2.22037 13.4063C2.28602 13.4665 2.33317 13.5441 2.35629 13.6302C2.45233 13.9875 2.59468 14.3308 2.77973 14.6512C2.82438 14.7283 2.84609 14.8166 2.8423 14.9056C2.83852 14.9947 2.8094 15.0808 2.75836 15.1538L2.14895 16.0276L2.97 16.8488L3.84375 16.2393C3.91682 16.1883 4.00291 16.1591 4.09194 16.1553C4.18097 16.1515 4.26924 16.1731 4.34641 16.2177C4.66671 16.4028 5.0099 16.545 5.36719 16.6409C5.45321 16.664 5.53088 16.7111 5.59111 16.7767C5.65134 16.8423 5.69164 16.9237 5.7073 17.0114L5.89398 18.06H7.05547L7.24219 17.012C7.25776 16.9243 7.298 16.8429 7.35819 16.7772C7.41838 16.7116 7.49603 16.6645 7.58203 16.6414C7.93939 16.5454 8.28264 16.4031 8.60305 16.218C8.68024 16.1734 8.76855 16.1517 8.85761 16.1555C8.94668 16.1594 9.03281 16.1885 9.1059 16.2395L9.9793 16.8489V16.849ZM17.9712 2.89332C18.0222 2.89336 18.0711 2.91363 18.1072 2.9497C18.1433 2.98576 18.1636 3.03468 18.1637 3.08571V5.26258H11.6777C11.6206 5.26463 11.5639 5.25149 11.5136 5.22449C11.4632 5.19749 11.4209 5.15761 11.391 5.10891L9.91723 2.89332H17.9712ZM19.1012 5.32098V3.08571C19.1009 2.78613 18.9817 2.49894 18.7698 2.28712C18.558 2.07531 18.2708 1.95617 17.9712 1.95582H9.29371L9.04035 1.57493C8.92455 1.39777 8.7661 1.25255 8.57954 1.15261C8.39298 1.05268 8.18429 1.00122 7.97266 1.00297H4.4723C4.13241 1.00333 3.80653 1.13851 3.56617 1.37884C3.32581 1.61917 3.1906 1.94503 3.1902 2.28493V7.20747L3.18449 7.20356C3.09422 7.14054 2.98466 7.11131 2.87499 7.12098C2.76533 7.13065 2.66257 7.17861 2.58473 7.25645L1.20828 8.63305C1.13038 8.71081 1.08235 8.81352 1.07261 8.92315C1.06288 9.03279 1.09206 9.14235 1.15504 9.23262L1.82465 10.1916C1.71226 10.4148 1.61643 10.6459 1.53793 10.8831L0.386719 11.088C0.278343 11.1073 0.180202 11.1641 0.109495 11.2484C0.0387885 11.3328 2.58791e-05 11.4393 0 11.5494L0 13.4963C2.58791e-05 13.6064 0.0387885 13.713 0.109495 13.7973C0.180202 13.8817 0.278343 13.9385 0.386719 13.9577L1.53762 14.1626C1.61639 14.3997 1.71221 14.6308 1.82434 14.854L1.15504 15.8132C1.09207 15.9036 1.06289 16.0131 1.07263 16.1228C1.08236 16.2325 1.13039 16.3352 1.20828 16.413L2.58473 17.7893C2.66255 17.8672 2.7653 17.9152 2.87497 17.9249C2.98463 17.9346 3.09421 17.9053 3.18449 17.8423L4.14375 17.1729C4.36687 17.285 4.59779 17.3807 4.83473 17.4595L5.0398 18.6107C5.05913 18.7191 5.11593 18.8172 5.20028 18.8879C5.28463 18.9586 5.39115 18.9974 5.50121 18.9975H7.44812C7.55818 18.9975 7.66472 18.9587 7.74906 18.888C7.83339 18.8173 7.89014 18.7191 7.90934 18.6107L8.11441 17.4598C8.35146 17.381 8.58253 17.2852 8.80582 17.1731L9.76488 17.8422C9.85519 17.9052 9.96478 17.9344 10.0745 17.9248C10.1842 17.9151 10.287 17.8671 10.3648 17.7893L11.7415 16.4129C11.8193 16.335 11.8672 16.2322 11.8768 16.1225C11.8864 16.0129 11.8572 15.9033 11.7942 15.8131L11.6167 15.5592H18.718C19.0579 15.5588 19.3837 15.4236 19.6241 15.1833C19.8644 14.943 19.9996 14.6171 20 14.2772V6.5445C19.9997 6.27151 19.9124 6.00572 19.7508 5.7857C19.5892 5.56569 19.3617 5.40291 19.1012 5.32098Z" fill="#C9C9CF"/>
</svg>
