<svg width="21" height="20" viewBox="0 0 21 20" fill="none" xmlns="http://www.w3.org/2000/svg">
<path d="M18.375 3.125C18.375 3.29076 18.3092 3.44973 18.1919 3.56694C18.0747 3.68415 17.9158 3.75 17.75 3.75H4C3.83424 3.75 3.67527 3.68415 3.55806 3.56694C3.44085 3.44973 3.375 3.29076 3.375 3.125C3.375 2.95924 3.44085 2.80027 3.55806 2.68306C3.67527 2.56585 3.83424 2.5 4 2.5H17.75C17.9158 2.5 18.0747 2.56585 18.1919 2.68306C18.3092 2.80027 18.375 2.95924 18.375 3.125ZM17.125 6.25V13.75C17.125 14.0815 16.9933 14.3995 16.7589 14.6339C16.5245 14.8683 16.2065 15 15.875 15H12.75C12.4185 15 12.1005 14.8683 11.8661 14.6339C11.6317 14.3995 11.5 14.0815 11.5 13.75V6.25C11.5 5.91848 11.6317 5.60054 11.8661 5.36612C12.1005 5.1317 12.4185 5 12.75 5H15.875C16.2065 5 16.5245 5.1317 16.7589 5.36612C16.9933 5.60054 17.125 5.91848 17.125 6.25ZM15.875 6.25H12.75V13.75H15.875V6.25ZM10.25 6.25V16.875C10.25 17.2065 10.1183 17.5245 9.88388 17.7589C9.64946 17.9933 9.33152 18.125 9 18.125H5.875C5.54348 18.125 5.22554 17.9933 4.99112 17.7589C4.7567 17.5245 4.625 17.2065 4.625 16.875V6.25C4.625 5.91848 4.7567 5.60054 4.99112 5.36612C5.22554 5.1317 5.54348 5 5.875 5H9C9.33152 5 9.64946 5.1317 9.88388 5.36612C10.1183 5.60054 10.25 5.91848 10.25 6.25ZM9 6.25H5.875V16.875H9V6.25Z" fill="#656575"/>
</svg>
