<svg width="36" height="36" viewBox="0 0 36 36" fill="none" xmlns="http://www.w3.org/2000/svg">
<path d="M30.9814 6.91892C31.2334 6.66692 31.375 6.32513 31.375 5.96875C31.375 5.61237 31.2334 5.27058 30.9814 5.01858C30.7294 4.76657 30.3876 4.625 30.0312 4.625H5.96875C5.61237 4.625 5.27058 4.76657 5.01858 5.01858C4.76657 5.27058 4.625 5.61237 4.625 5.96875C4.625 6.32513 4.76657 6.66692 5.01858 6.91892C5.27058 7.17093 5.61237 7.3125 5.96875 7.3125H30.0312C30.3876 7.3125 30.7294 7.17093 30.9814 6.91892ZM29.1875 24.5625V11.4375C29.1875 10.791 28.9307 10.171 28.4736 9.71393C28.0165 9.25681 27.3965 9 26.75 9H21.2812C20.6348 9 20.0148 9.25681 19.5577 9.71393C19.1006 10.171 18.8438 10.791 18.8438 11.4375V24.5625C18.8438 25.209 19.1006 25.829 19.5577 26.2861C20.0148 26.7432 20.6348 27 21.2812 27H26.75C27.3965 27 28.0165 26.7432 28.4736 26.2861C28.9307 25.829 29.1875 25.209 29.1875 24.5625ZM21.5312 24.3125V11.6875H26.5V24.3125H21.5312ZM17.1562 30.0312V11.4375C17.1562 10.791 16.8994 10.171 16.4423 9.71393C15.9852 9.25681 15.3652 9 14.7188 9H9.25C8.60353 9 7.98355 9.25681 7.52643 9.71393C7.06931 10.171 6.8125 10.791 6.8125 11.4375V30.0312C6.8125 30.6777 7.06931 31.2977 7.52643 31.7548C7.98355 32.2119 8.60353 32.4688 9.25 32.4688H14.7188C15.3652 32.4688 15.9852 32.2119 16.4423 31.7548C16.8994 31.2977 17.1562 30.6777 17.1562 30.0312ZM9.5 29.7812V11.6875H14.4688V29.7812H9.5Z" fill="#0080EF" stroke="#0080EF" stroke-width="0.5"/>
</svg>
