<svg width="12" height="13" viewBox="0 0 12 13" fill="none" xmlns="http://www.w3.org/2000/svg">
<g clip-path="url(#clip0_198_1419)">
<path fill-rule="evenodd" clip-rule="evenodd" d="M8.49999 8.5C8.70222 8.5 8.88453 8.62182 8.96193 8.80866C9.03932 8.9955 8.99654 9.21055 8.85354 9.35355L6.35354 11.8536C6.15828 12.0488 5.84169 12.0488 5.64643 11.8536L3.14643 9.35355C3.00343 9.21055 2.96065 8.9955 3.03805 8.80866C3.11544 8.62182 3.29775 8.5 3.49999 8.5L8.49999 8.5Z" fill="#656575"/>
<g clip-path="url(#clip1_198_1419)">
<path fill-rule="evenodd" clip-rule="evenodd" d="M8.49999 7C8.70222 7 8.88453 6.87818 8.96193 6.69134C9.03932 6.5045 8.99654 6.28945 8.85354 6.14645L6.35354 3.64645C6.15828 3.45118 5.84169 3.45118 5.64643 3.64645L3.14643 6.14645C3.00343 6.28945 2.96065 6.5045 3.03805 6.69134C3.11544 6.87818 3.29775 7 3.49999 7L8.49999 7Z" fill="#656575"/>
</g>
</g>
<defs>
<clipPath id="clip0_198_1419">
<rect width="12" height="12" fill="white" transform="matrix(1 0 0 -1 0 12.5)"/>
</clipPath>
<clipPath id="clip1_198_1419">
<rect width="12" height="12" fill="white" transform="translate(0 -3)"/>
</clipPath>
</defs>
</svg>
