<svg width="10" height="11" viewBox="0 0 10 11" fill="none" xmlns="http://www.w3.org/2000/svg">
<path fill-rule="evenodd" clip-rule="evenodd" d="M5.0072 10.1322C7.76892 10.1322 10.0076 6.22636 10.0076 3.46464C10.0076 3.40507 10.0054 3.34652 10.0011 3.28898V0.131083H2.6015C2.56963 0.130933 2.538 0.130859 2.50663 0.130859C2.49049 0.130859 2.47446 0.130934 2.45853 0.131083H0V3.46477H0.00234199C-0.00199247 3.78137 0.000572372 4.11343 0.00323167 4.45772C0.00493051 4.67766 0.00666789 4.90259 0.00666975 5.13167C0.416711 7.31912 2.24548 10.1322 5.0072 10.1322ZM1.58095 3.46477C1.5689 3.53146 1.56269 3.6008 1.56269 3.6729C1.56269 5.67232 3.00115 9.29859 5.00057 9.29859C6.99994 9.29859 8.3342 5.46423 8.33426 3.46477H1.58095Z" fill="url(#paint0_linear_427_361)"/>
<defs>
<linearGradient id="paint0_linear_427_361" x1="5.0038" y1="0.130859" x2="5.0038" y2="10.1322" gradientUnits="userSpaceOnUse">
<stop stop-color="#DC9D7A"/>
<stop offset="1" stop-color="#D60E22"/>
</linearGradient>
</defs>
</svg>
