<svg width="54" height="55" viewBox="0 0 54 55" fill="none" xmlns="http://www.w3.org/2000/svg">
<g clip-path="url(#clip0_173_3708)">
<path d="M39.3749 47.875H3.375C1.51117 47.875 0 46.3638 0 44.5V17.5C0 15.6362 1.51117 14.125 3.375 14.125H18.0001V16.3749H3.375C2.75372 16.3749 2.24986 16.8787 2.24986 17.5V44.5C2.24986 45.1213 2.75372 45.6251 3.375 45.6251H39.3749C39.9961 45.6251 40.5 45.1213 40.5 44.5V41.125H34.8751V38.8751H41.6251C42.2464 38.8751 42.7499 39.3786 42.7499 39.9999V44.5C42.7499 46.3638 41.2391 47.875 39.3749 47.875Z" fill="#ACACBB" fill-opacity="0.7"/>
<path d="M11.2501 52.375H31.5001V54.6249H11.2501V52.375Z" fill="#ACACBB" fill-opacity="0.7"/>
<path d="M13.5 47.875H15.7499V53.4999H13.5V47.875Z" fill="#ACACBB" fill-opacity="0.7"/>
<path d="M27 46.75H29.2499V53.5H27V46.75Z" fill="#ACACBB" fill-opacity="0.7"/>
<path d="M50.625 34.375H23.625C21.7612 34.375 20.25 32.8638 20.25 31V4C20.25 2.13617 21.7612 0.625 23.625 0.625H31.5001C33.364 0.625 34.8751 2.13617 34.8751 4V6.24986H50.625C52.4888 6.24986 54 7.76103 54 9.62486V31C54 32.8638 52.4888 34.375 50.625 34.375ZM23.625 2.87486C23.0037 2.87486 22.4999 3.37872 22.4999 4V31C22.4999 31.6213 23.0037 32.1251 23.625 32.1251H50.625C51.2463 32.1251 51.7501 31.6213 51.7501 31V9.62486C51.7501 9.00359 51.2463 8.50014 50.625 8.50014H28.1251V6.24986H32.6249V4C32.6249 3.37872 32.1214 2.87486 31.5001 2.87486H23.625Z" fill="#ACACBB" fill-opacity="0.7"/>
<path d="M32.6249 43.375C30.761 43.375 29.2499 41.8642 29.2499 40C29.2499 38.1362 30.761 36.625 32.6249 36.625C34.4891 36.625 35.9999 38.1362 35.9999 40C35.9999 41.8642 34.4891 43.375 32.6249 43.375ZM32.6249 38.8753C32.0036 38.8753 31.5002 39.3787 31.5002 40C31.5002 40.6213 32.0036 41.1251 32.6249 41.1251C33.2462 41.1251 33.75 40.6213 33.75 40C33.75 39.3787 33.2462 38.8753 32.6249 38.8753Z" fill="#ACACBB" fill-opacity="0.7"/>
<path d="M31.5001 33.25H33.75V37.7501H31.5001V33.25Z" fill="#ACACBB" fill-opacity="0.7"/>
<path d="M4.50012 38.875H30.375V41.1249H4.50012V38.875Z" fill="#ACACBB" fill-opacity="0.7"/>
<path d="M30.375 28.7501H25.8748C25.2536 28.7501 24.7501 28.2463 24.7501 27.625V18.6251C24.7501 18.0039 25.2536 17.5 25.8748 17.5H30.375C30.9963 17.5 31.5001 18.0039 31.5001 18.6251V27.625C31.5001 28.2463 30.9963 28.7501 30.375 28.7501ZM27 26.4999H29.2498V19.7499H27V26.4999Z" fill="#ACACBB" fill-opacity="0.7"/>
<path d="M39.3749 28.75H34.8751C34.2539 28.75 33.75 28.2461 33.75 27.6249V12.9997C33.75 12.3784 34.2539 11.875 34.8751 11.875H39.3749C39.9961 11.875 40.5 12.3784 40.5 12.9997V27.6249C40.5 28.2461 39.9961 28.75 39.3749 28.75ZM35.9999 26.4997H38.2501V14.1249H35.9999V26.4997Z" fill="#ACACBB" fill-opacity="0.7"/>
<path d="M48.3752 28.7503H43.875C43.2537 28.7503 42.7499 28.2464 42.7499 27.6251V17.5001C42.7499 16.8789 43.2537 16.375 43.875 16.375H48.3752C48.9964 16.375 49.4999 16.8789 49.4999 17.5001V27.6251C49.4999 28.2464 48.9964 28.7503 48.3752 28.7503ZM45.0002 26.5H47.25V18.6253H45.0002V26.5Z" fill="#ACACBB" fill-opacity="0.7"/>
<path d="M6.74998 24.2499H4.50012V22C4.50012 20.1358 6.01088 18.625 7.87512 18.625H10.125V20.8749H7.87512C7.25385 20.8749 6.74998 21.3787 6.74998 22V24.2499Z" fill="#ACACBB" fill-opacity="0.7"/>
<path d="M4.50012 26.5H6.74998V28.7503H4.50012V26.5Z" fill="#ACACBB" fill-opacity="0.7"/>
</g>
<defs>
<clipPath id="clip0_173_3708">
<rect width="54" height="54" fill="white" transform="translate(0 0.625)"/>
</clipPath>
</defs>
</svg>
