<svg width="16" height="16" viewBox="0 0 16 16" fill="none" xmlns="http://www.w3.org/2000/svg">
<path d="M2.19593 3.18721C2.74263 3.18721 3.18728 2.74257 3.18728 2.19605C3.18728 1.64952 2.74263 1.20488 2.19593 1.20488C1.64941 1.20488 1.20476 1.64953 1.20476 2.19605C1.20476 2.74257 1.64941 3.18721 2.19593 3.18721ZM2.19593 1.9322C2.34134 1.9322 2.45978 2.05063 2.45978 2.19605C2.45978 2.34143 2.34138 2.45971 2.19593 2.45971C2.05068 2.45971 1.93227 2.34145 1.93227 2.19605C1.93227 2.05061 2.05072 1.9322 2.19593 1.9322Z" fill="#656575" stroke="#656575" stroke-width="0.1"/>
<path d="M4.70594 3.18721C5.25265 3.18721 5.6971 2.74256 5.6971 2.19605C5.6971 1.64954 5.25265 1.20488 4.70594 1.20488C4.15942 1.20488 3.71477 1.64953 3.71477 2.19605C3.71477 2.74257 4.15942 3.18721 4.70594 3.18721ZM4.70594 1.9322C4.85135 1.9322 4.96979 2.05063 4.96979 2.19605C4.96979 2.34143 4.85139 2.45971 4.70594 2.45971C4.56069 2.45971 4.44228 2.34145 4.44228 2.19605C4.44228 2.05061 4.56073 1.9322 4.70594 1.9322Z" fill="#656575" stroke="#656575" stroke-width="0.1"/>
<path d="M7.2157 3.18721C7.76222 3.18721 8.20687 2.74257 8.20687 2.19605C8.20687 1.64953 7.76222 1.20488 7.2157 1.20488C6.66918 1.20488 6.22454 1.64953 6.22454 2.19605C6.22454 2.74257 6.66918 3.18721 7.2157 3.18721ZM7.2157 1.9322C7.36108 1.9322 7.47936 2.05059 7.47936 2.19605C7.47936 2.34147 7.36112 2.45971 7.2157 2.45971C7.07028 2.45971 6.95204 2.34147 6.95204 2.19605C6.95204 2.05059 7.07032 1.9322 7.2157 1.9322Z" fill="#656575" stroke="#656575" stroke-width="0.1"/>
<path d="M9.72552 2.55983H14.4313C14.6321 2.55983 14.7952 2.39705 14.7952 2.19617C14.7952 1.99533 14.6322 1.83232 14.4313 1.83232H9.72552C9.52464 1.83232 9.36187 1.99538 9.36187 2.19617C9.36187 2.39701 9.52468 2.55983 9.72552 2.55983Z" fill="#656575" stroke="#656575" stroke-width="0.1"/>
<path d="M11.4776 7.81389L11.4776 7.81389L10.6831 8.6082C10.7262 8.69874 10.7647 8.79142 10.7983 8.88594H11.9216C12.1224 8.88594 12.2854 9.04872 12.2854 9.2496V10.5146C12.2854 10.7155 12.1224 10.8785 11.9216 10.8785H10.7983C10.7647 10.973 10.7264 11.0657 10.6833 11.1562L11.4776 11.9505C11.6196 12.0926 11.6196 12.3229 11.4776 12.4649L10.5829 13.3596C10.4409 13.5016 10.2106 13.5016 10.0685 13.3596L9.27422 12.5653C9.18364 12.6084 9.09093 12.6468 8.99629 12.6804V13.8038C8.99629 14.0046 8.83347 14.1675 8.63263 14.1675H7.36759C7.16675 14.1675 7.00393 14.0046 7.00393 13.8038V12.6805C6.90941 12.6469 6.81672 12.6084 6.72619 12.5653L5.93168 13.3596L5.93168 13.3596L5.89633 13.3242C5.77384 13.4467 5.57515 13.4467 5.45266 13.3242L4.55798 12.4296C4.43549 12.3071 4.43549 12.1084 4.55798 11.9859L11.4776 7.81389ZM11.4776 7.81389C11.6196 7.67187 11.6196 7.44152 11.4776 7.2995L10.5829 6.40483C10.4409 6.26281 10.2106 6.26281 10.0685 6.40483L9.27421 7.19916C9.18354 7.15604 9.09083 7.11754 8.99629 7.08388V5.96063C8.99629 5.75979 8.83347 5.59697 8.63263 5.59697H7.36759C7.16675 5.59697 7.00393 5.75979 7.00393 5.96063V7.08407C6.90942 7.11769 6.81671 7.15606 6.72602 7.19916L5.93168 6.40483C5.78967 6.26281 5.55932 6.26281 5.4173 6.40483L4.52263 7.2995C4.38059 7.44154 4.38063 7.67167 4.5226 7.81386L4.52263 7.81389L5.31694 8.6082C5.27384 8.69876 5.23548 8.79145 5.20187 8.88594H4.07862C3.87778 8.88594 3.71477 9.04895 3.71477 9.24979V10.5146C3.71477 10.7155 3.87778 10.8785 4.07862 10.8785H5.20188L11.4776 7.81389ZM10.706 12.2077L10.3257 12.588L9.59777 11.8601L9.59774 11.86C9.47946 11.742 9.29609 11.7196 9.15296 11.8057M10.706 12.2077L4.44228 10.151V10.201H5.47156C5.61566 10.201 5.74124 10.2992 5.77596 10.4388L5.82448 10.4267C5.82448 10.4268 5.82448 10.4268 5.82448 10.4268C5.87787 10.6411 5.96276 10.8457 6.07671 11.0352C6.1628 11.1783 6.14046 11.3617 6.02235 11.4798L6.02234 11.4798L5.2942 12.2077L5.67449 12.588L6.40245 11.8601L6.40248 11.86C6.52076 11.742 6.70413 11.7196 6.84726 11.8057M10.706 12.2077L9.97788 11.4798L9.97787 11.4798C9.85976 11.3617 9.83742 11.1783 9.92351 11.0352L9.96635 11.0609L9.92351 11.0352C10.0375 10.8457 10.1224 10.6411 10.1757 10.4268L10.706 12.2077ZM9.15296 11.8057C9.15297 11.8057 9.15297 11.8057 9.15297 11.8057L9.17874 11.8486L9.15296 11.8057ZM9.15296 11.8057C8.96373 11.9195 8.75904 12.0044 8.54474 12.0578L8.54471 12.0578C8.38259 12.0982 8.26898 12.2438 8.26898 12.4107V13.4401H7.73124V12.4107C7.73124 12.2438 7.61763 12.0982 7.45551 12.0578L7.45548 12.0578C7.24118 12.0044 7.03649 11.9195 6.84726 11.8057M6.84726 11.8057C6.84725 11.8057 6.84725 11.8057 6.84725 11.8057L6.82148 11.8486L6.84726 11.8057ZM5.67449 7.1764L5.2942 7.55669L6.02234 8.28465L6.02235 8.28465C6.14046 8.40276 6.1628 8.58616 6.07671 8.72927C5.96276 8.91869 5.87787 9.12337 5.82448 9.33766L10.3257 7.1764L10.2904 7.14105L9.56242 7.869C9.46037 7.97085 9.30219 7.99034 9.17874 7.91588L9.15297 7.95873C9.15296 7.95872 9.15295 7.95872 9.15294 7.95871C8.96371 7.84495 8.75903 7.76006 8.54474 7.70668L8.54471 7.70667C8.38259 7.6662 8.26898 7.52062 8.26898 7.35376V6.32429H7.73124V7.35376C7.73124 7.52062 7.61763 7.6662 7.45551 7.70667L7.45548 7.70668C7.24118 7.76007 7.0365 7.84496 6.84728 7.9589L6.84721 7.95894C6.7041 8.04481 6.52076 8.02245 6.40248 7.90439L6.40245 7.90436L5.67449 7.1764ZM5.67449 7.1764L5.70985 7.14105L6.4378 7.869M10.706 7.55669L9.97788 8.28465L9.97787 8.28465C9.85976 8.40276 9.83742 8.58616 9.92351 8.72927C10.0375 8.91869 10.1224 9.12337 10.1757 9.33766C10.1757 9.33767 10.1757 9.33768 10.1757 9.33769L10.2243 9.3256C10.259 9.46526 10.3846 9.56345 10.5287 9.56345H11.5579V9.61345L10.706 7.55669ZM5.25884 12.1724L5.98699 11.4444L5.25884 12.1724Z" fill="#656575" stroke="#656575" stroke-width="0.1"/>
<path d="M8.00001 8.41875C7.19308 8.41875 6.53643 9.0752 6.53643 9.88233C6.53643 10.6893 7.19308 11.3457 8.00001 11.3457C8.80693 11.3457 9.46359 10.6893 9.46359 9.88233C9.46359 9.0752 8.80694 8.41875 8.00001 8.41875ZM8.00001 10.6182C7.59416 10.6182 7.26393 10.288 7.26393 9.88233C7.26393 9.4765 7.59417 9.14626 8.00001 9.14626C8.40584 9.14626 8.73608 9.4765 8.73608 9.88233C8.73608 10.288 8.40585 10.6182 8.00001 10.6182Z" fill="#656575" stroke="#656575" stroke-width="0.1"/>
<mask id="mask0_173_3502" style="mask-type:luminance" maskUnits="userSpaceOnUse" x="0" y="0" width="16" height="16">
<path d="M0 0H16V16H0V0Z" fill="white"/>
</mask>
<g mask="url(#mask0_173_3502)">
<path d="M14.7452 -0.05H1.25482C0.535262 -0.05 -0.05 0.535474 -0.05 1.25502V14.7452C-0.05 15.4647 0.535272 16.05 1.25482 16.05H14.7452C15.4647 16.05 16.05 15.4647 16.05 14.7452V1.25502C16.05 0.535474 15.4647 -0.05 14.7452 -0.05ZM1.25482 0.677508H14.7452C15.0634 0.677508 15.3225 0.936555 15.3225 1.25502V3.71485H0.677508V1.25502C0.677508 0.936555 0.936575 0.677508 1.25482 0.677508ZM14.7452 15.3227H1.25482C0.936575 15.3227 0.677508 15.0636 0.677508 14.7452V4.44217H15.3225V14.7452C15.3225 15.0636 15.0634 15.3227 14.7452 15.3227Z" fill="#656575" stroke="#656575" stroke-width="0.1"/>
</g>
</svg>
