<svg width="54" height="55" viewBox="0 0 54 55" fill="none" xmlns="http://www.w3.org/2000/svg">
<g clip-path="url(#clip0_173_3596)">
<path d="M48.9375 13.5311H37.9688C37.745 13.5311 37.5304 13.4422 37.3721 13.2839C37.2139 13.1257 37.125 12.9111 37.125 12.6873V1.71857C37.125 1.55172 37.1745 1.38862 37.2673 1.2499C37.36 1.11118 37.4917 1.00306 37.6459 0.939217C37.8 0.87537 37.9697 0.858662 38.1333 0.891203C38.297 0.923744 38.4473 1.00407 38.5653 1.12204L49.534 12.0908C49.652 12.2088 49.7323 12.3591 49.7649 12.5228C49.7974 12.6864 49.7807 12.856 49.7169 13.0102C49.653 13.1643 49.5449 13.2961 49.4062 13.3888C49.2674 13.4815 49.1044 13.531 48.9375 13.5311ZM38.8125 11.8436H46.9007L38.8125 3.75538V11.8436Z" fill="#ACACBB" fill-opacity="0.7"/>
<path d="M48.9375 54.875H5.0625C4.83872 54.875 4.62411 54.7861 4.46588 54.6279C4.30765 54.4696 4.21875 54.255 4.21875 54.0312V1.71875C4.21875 1.49497 4.30765 1.28036 4.46588 1.12213C4.62411 0.963895 4.83872 0.875 5.0625 0.875H37.9688C38.1925 0.875048 38.4071 0.963974 38.5653 1.12222L49.534 12.091C49.6923 12.2492 49.7812 12.4637 49.7812 12.6875V54.0312C49.7812 54.255 49.6924 54.4696 49.5341 54.6279C49.3759 54.7861 49.1613 54.875 48.9375 54.875ZM5.90625 53.1875H48.0938V13.0368L37.6194 2.5625H5.90625V53.1875Z" fill="#ACACBB" fill-opacity="0.7"/>
<path d="M13.5 21.9688C12.8325 21.9688 12.18 21.7708 11.625 21.4C11.0699 21.0291 10.6374 20.502 10.3819 19.8853C10.1265 19.2686 10.0596 18.59 10.1899 17.9353C10.3201 17.2806 10.6415 16.6793 11.1135 16.2073C11.5855 15.7353 12.1869 15.4138 12.8416 15.2836C13.4963 15.1534 14.1749 15.2202 14.7916 15.4757C15.4083 15.7311 15.9354 16.1637 16.3062 16.7187C16.6771 17.2737 16.875 17.9262 16.875 18.5938C16.875 19.4889 16.5194 20.3473 15.8865 20.9802C15.2536 21.6132 14.3951 21.9688 13.5 21.9688ZM13.5 16.9063C13.1662 16.9063 12.84 17.0052 12.5625 17.1906C12.285 17.3761 12.0687 17.6396 11.941 17.948C11.8132 18.2563 11.7798 18.5956 11.8449 18.923C11.91 19.2503 12.0708 19.551 12.3068 19.787C12.5428 20.023 12.8434 20.1837 13.1708 20.2488C13.4981 20.3139 13.8374 20.2805 14.1458 20.1528C14.4541 20.0251 14.7177 19.8088 14.9031 19.5313C15.0885 19.2538 15.1875 18.9275 15.1875 18.5938C15.1875 18.1462 15.0097 17.717 14.6932 17.4005C14.3768 17.084 13.9476 16.9063 13.5 16.9063Z" fill="#ACACBB" fill-opacity="0.7"/>
<path d="M28.6875 21.9688C28.02 21.9688 27.3675 21.7708 26.8125 21.4C26.2574 21.0291 25.8249 20.502 25.5694 19.8853C25.314 19.2686 25.2471 18.59 25.3774 17.9353C25.5076 17.2806 25.829 16.6793 26.301 16.2073C26.773 15.7353 27.3744 15.4138 28.0291 15.2836C28.6838 15.1534 29.3624 15.2202 29.9791 15.4757C30.5958 15.7311 31.1229 16.1637 31.4937 16.7187C31.8646 17.2737 32.0625 17.9262 32.0625 18.5938C32.0625 19.4889 31.7069 20.3473 31.074 20.9802C30.4411 21.6132 29.5826 21.9688 28.6875 21.9688ZM28.6875 16.9063C28.3537 16.9063 28.0275 17.0052 27.75 17.1906C27.4725 17.3761 27.2562 17.6396 27.1285 17.948C27.0007 18.2563 26.9673 18.5956 27.0324 18.923C27.0975 19.2503 27.2583 19.551 27.4943 19.787C27.7303 20.023 28.0309 20.1837 28.3583 20.2488C28.6856 20.3139 29.0249 20.2805 29.3333 20.1528C29.6416 20.0251 29.9052 19.8088 30.0906 19.5313C30.276 19.2538 30.375 18.9275 30.375 18.5938C30.375 18.1462 30.1972 17.717 29.8807 17.4005C29.5643 17.084 29.1351 16.9063 28.6875 16.9063Z" fill="#ACACBB" fill-opacity="0.7"/>
<path d="M21.0938 28.7188C20.4262 28.7188 19.7737 28.5208 19.2187 28.15C18.6637 27.7791 18.2311 27.252 17.9757 26.6353C17.7202 26.0186 17.6534 25.34 17.7836 24.6853C17.9138 24.0306 18.2353 23.4293 18.7073 22.9573C19.1793 22.4853 19.7806 22.1638 20.4353 22.0336C21.09 21.9034 21.7686 21.9702 22.3853 22.2257C23.002 22.4811 23.5291 22.9137 23.9 23.4687C24.2708 24.0237 24.4688 24.6762 24.4688 25.3438C24.4688 26.2389 24.1132 27.0973 23.4802 27.7302C22.8473 28.3632 21.9889 28.7188 21.0938 28.7188ZM21.0938 23.6563C20.76 23.6563 20.4337 23.7552 20.1562 23.9406C19.8787 24.1261 19.6624 24.3896 19.5347 24.698C19.407 25.0063 19.3736 25.3456 19.4387 25.673C19.5038 26.0003 19.6645 26.301 19.9005 26.537C20.1365 26.773 20.4372 26.9337 20.7645 26.9988C21.0919 27.0639 21.4312 27.0305 21.7395 26.9028C22.0479 26.7751 22.3114 26.5588 22.4969 26.2813C22.6823 26.0038 22.7813 25.6775 22.7813 25.3438C22.7813 24.8962 22.6035 24.467 22.287 24.1505C21.9705 23.834 21.5413 23.6563 21.0938 23.6563Z" fill="#ACACBB" fill-opacity="0.7"/>
<path d="M36.2813 28.7188C35.6137 28.7188 34.9612 28.5208 34.4062 28.15C33.8512 27.7791 33.4186 27.252 33.1632 26.6353C32.9077 26.0186 32.8409 25.34 32.9711 24.6853C33.1013 24.0306 33.4228 23.4293 33.8948 22.9573C34.3668 22.4853 34.9681 22.1638 35.6228 22.0336C36.2775 21.9034 36.9561 21.9702 37.5728 22.2257C38.1895 22.4811 38.7166 22.9137 39.0875 23.4687C39.4583 24.0237 39.6563 24.6762 39.6563 25.3438C39.6563 26.2389 39.3007 27.0973 38.6677 27.7302C38.0348 28.3632 37.1764 28.7188 36.2813 28.7188ZM36.2813 23.6563C35.9475 23.6563 35.6212 23.7552 35.3437 23.9406C35.0662 24.1261 34.8499 24.3896 34.7222 24.698C34.5945 25.0063 34.5611 25.3456 34.6262 25.673C34.6913 26.0003 34.852 26.301 35.088 26.537C35.324 26.773 35.6247 26.9337 35.952 26.9988C36.2794 27.0639 36.6187 27.0305 36.927 26.9028C37.2354 26.7751 37.4989 26.5588 37.6844 26.2813C37.8698 26.0038 37.9688 25.6775 37.9688 25.3438C37.9688 24.8962 37.791 24.467 37.4745 24.1505C37.158 23.834 36.7288 23.6563 36.2813 23.6563Z" fill="#ACACBB" fill-opacity="0.7"/>
<path d="M15.7143 19.6217L14.6602 20.9395L18.8788 24.3144L19.933 22.9967L15.7143 19.6217Z" fill="#ACACBB" fill-opacity="0.7"/>
<path d="M30.9022 19.6222L29.848 20.9399L34.0667 24.3149L35.1209 22.9972L30.9022 19.6222Z" fill="#ACACBB" fill-opacity="0.7"/>
<path d="M26.4726 19.623L22.2537 22.9976L23.3077 24.3154L27.5267 20.9408L26.4726 19.623Z" fill="#ACACBB" fill-opacity="0.7"/>
<path d="M38.5653 24.2526L37.3722 23.0595L42.4347 17.997C42.5527 17.8791 42.703 17.7987 42.8667 17.7662C43.0303 17.7337 43.1999 17.7504 43.3541 17.8142C43.5082 17.8781 43.64 17.9862 43.7327 18.1249C43.8254 18.2636 43.8749 18.4267 43.875 18.5936V22.8123H42.1875V20.6304L38.5653 24.2526Z" fill="#ACACBB" fill-opacity="0.7"/>
<path d="M43.0312 17.75H38.8125V19.4375H43.0312V17.75Z" fill="#ACACBB" fill-opacity="0.7"/>
<path d="M34.5938 5.09375H13.5V6.78125H34.5938V5.09375Z" fill="#ACACBB" fill-opacity="0.7"/>
<path d="M27.8438 8.46875H10.125V10.1562H27.8438V8.46875Z" fill="#ACACBB" fill-opacity="0.7"/>
<path d="M11.8125 5.09375H10.125V6.78125H11.8125V5.09375Z" fill="#ACACBB" fill-opacity="0.7"/>
<path d="M34.5938 8.46875H32.9062V10.1562H34.5938V8.46875Z" fill="#ACACBB" fill-opacity="0.7"/>
<path d="M31.2188 8.46875H29.5312V10.1562H31.2188V8.46875Z" fill="#ACACBB" fill-opacity="0.7"/>
<path d="M18.5625 47.2813C17.2275 47.2813 15.9224 46.8854 14.8124 46.1437C13.7024 45.402 12.8372 44.3478 12.3263 43.1144C11.8154 41.881 11.6818 40.5238 11.9422 39.2144C12.2027 37.905 12.8455 36.7023 13.7895 35.7583C14.7335 34.8143 15.9363 34.1714 17.2456 33.911C18.555 33.6505 19.9122 33.7842 21.1456 34.2951C22.379 34.806 23.4332 35.6711 24.1749 36.7812C24.9166 37.8912 25.3125 39.1962 25.3125 40.5313C25.3105 42.3208 24.5987 44.0366 23.3333 45.302C22.0678 46.5674 20.3521 47.2792 18.5625 47.2813ZM18.5625 35.4688C17.5612 35.4688 16.5825 35.7657 15.7499 36.3219C14.9174 36.8782 14.2685 37.6689 13.8854 38.5939C13.5022 39.519 13.4019 40.5369 13.5973 41.5189C13.7926 42.5009 14.2748 43.403 14.9828 44.111C15.6908 44.819 16.5928 45.3011 17.5749 45.4965C18.5569 45.6918 19.5748 45.5916 20.4998 45.2084C21.4249 44.8252 22.2155 44.1764 22.7718 43.3438C23.3281 42.5113 23.625 41.5325 23.625 40.5313C23.6237 39.189 23.0899 37.9021 22.1408 36.953C21.1916 36.0039 19.9048 35.4701 18.5625 35.4688Z" fill="#ACACBB" fill-opacity="0.7"/>
<path d="M24.4688 41.375H18.5625C18.3387 41.375 18.1241 41.2861 17.9659 41.1279C17.8076 40.9696 17.7188 40.755 17.7188 40.5312V34.625H19.4062V39.6875H24.4688V41.375Z" fill="#ACACBB" fill-opacity="0.7"/>
<path d="M44.7188 50.6562H9.28125C9.05747 50.6562 8.84286 50.5674 8.68463 50.4091C8.5264 50.2509 8.4375 50.0363 8.4375 49.8125V31.25C8.4375 31.0262 8.5264 30.8116 8.68463 30.6534C8.84286 30.4951 9.05747 30.4062 9.28125 30.4062H44.7188C44.9425 30.4062 45.1571 30.4951 45.3154 30.6534C45.4736 30.8116 45.5625 31.0262 45.5625 31.25V49.8125C45.5625 50.0363 45.4736 50.2509 45.3154 50.4091C45.1571 50.5674 44.9425 50.6562 44.7188 50.6562ZM10.125 48.9688H43.875V32.0938H10.125V48.9688Z" fill="#ACACBB" fill-opacity="0.7"/>
<path d="M42.1875 45.5938H27V47.2812H42.1875V45.5938Z" fill="#ACACBB" fill-opacity="0.7"/>
<path d="M30.375 37.1562H28.6875V46.4375H30.375V37.1562Z" fill="#ACACBB" fill-opacity="0.7"/>
<path d="M33.75 33.7812H32.0625V46.4375H33.75V33.7812Z" fill="#ACACBB" fill-opacity="0.7"/>
<path d="M37.125 38.8438H35.4375V46.4375H37.125V38.8438Z" fill="#ACACBB" fill-opacity="0.7"/>
<path d="M40.5 35.4688H38.8125V46.4375H40.5V35.4688Z" fill="#ACACBB" fill-opacity="0.7"/>
</g>
<defs>
<clipPath id="clip0_173_3596">
<rect width="54" height="54" fill="white" transform="translate(0 0.875)"/>
</clipPath>
</defs>
</svg>
