<svg width="20" height="20" viewBox="0 0 20 20" fill="none" xmlns="http://www.w3.org/2000/svg">
<g clip-path="url(#clip0_173_3190)">
<path fill-rule="evenodd" clip-rule="evenodd" d="M14.889 12.4483C14.7646 12.4483 14.6454 12.4977 14.5575 12.5856C14.4696 12.6735 14.4202 12.7927 14.4202 12.917V15.8377H13.3445V12.917C13.3445 12.7927 13.2951 12.6735 13.2072 12.5856C13.1193 12.4977 13 12.4483 12.8757 12.4483H12.8348L13.8824 11.037L14.9301 12.4483H14.889ZM11.0027 10.4064C10.8784 10.4065 10.7593 10.456 10.6714 10.5438C10.5835 10.6317 10.5341 10.7509 10.534 10.8752V15.8377H9.45857V10.8752C9.45857 10.7508 9.40919 10.6316 9.32128 10.5437C9.23337 10.4558 9.11414 10.4064 8.98982 10.4064H8.94838L9.99647 8.99551L11.0442 10.4064H11.0027ZM7.11682 12.4482C6.9925 12.4482 6.87327 12.4976 6.78536 12.5855C6.69745 12.6734 6.64807 12.7927 6.64807 12.917V15.8377H5.57232V12.917C5.57232 12.7927 5.52294 12.6734 5.43503 12.5855C5.34712 12.4976 5.22789 12.4482 5.10357 12.4482H5.06248L6.11018 11.0369L7.15791 12.4482H7.11682ZM14.259 9.97129C14.2154 9.91251 14.1586 9.86476 14.0933 9.83186C14.0279 9.79896 13.9558 9.78182 13.8826 9.78182C13.8094 9.78182 13.7373 9.79896 13.6719 9.83186C13.6066 9.86476 13.5498 9.91251 13.5063 9.97129L11.5265 12.6377C11.5044 12.6677 11.4859 12.7002 11.4715 12.7346V11.3439H11.9758C12.0627 11.3439 12.1478 11.3198 12.2218 11.2743C12.2957 11.2287 12.3556 11.1635 12.3946 11.086C12.4337 11.0084 12.4504 10.9215 12.443 10.835C12.4355 10.7484 12.4042 10.6657 12.3524 10.5959L10.3727 7.92949C10.3291 7.87072 10.2724 7.82298 10.207 7.79008C10.1416 7.75719 10.0694 7.74005 9.99627 7.74005C9.92309 7.74005 9.85093 7.75719 9.78556 7.79008C9.72019 7.82298 9.66343 7.87072 9.61982 7.92949L7.64061 10.5959C7.58876 10.6656 7.5573 10.7484 7.54976 10.8349C7.54222 10.9214 7.55889 11.0083 7.5979 11.0859C7.63692 11.1635 7.69674 11.2288 7.77069 11.2743C7.84464 11.3199 7.9298 11.344 8.01666 11.3439H8.52107V12.7345C8.50675 12.7001 8.48824 12.6676 8.46596 12.6377L6.48627 9.97125C6.44266 9.91251 6.38591 9.86479 6.32056 9.83192C6.2552 9.79904 6.18306 9.78192 6.1099 9.78192C6.03675 9.78192 5.9646 9.79904 5.89925 9.83192C5.8339 9.86479 5.77714 9.91251 5.73354 9.97125L3.75439 12.6377C3.70249 12.7073 3.67099 12.7901 3.66342 12.8766C3.65585 12.9632 3.67251 13.0501 3.71153 13.1278C3.75055 13.2054 3.8104 13.2706 3.88439 13.3162C3.95837 13.3617 4.04357 13.3858 4.13045 13.3857H4.63479V16.3064C4.63479 16.4307 4.68417 16.55 4.77208 16.6379C4.85999 16.7258 4.97922 16.7752 5.10354 16.7752H7.11678C7.2411 16.7752 7.36033 16.7258 7.44823 16.6379C7.53614 16.55 7.58553 16.4307 7.58553 16.3064V13.3857H8.08943C8.17629 13.3858 8.26148 13.3618 8.33545 13.3163C8.40942 13.2707 8.46925 13.2055 8.50826 13.1279C8.51303 13.1185 8.51729 13.1095 8.52115 13.1002V16.3064C8.52115 16.4307 8.57054 16.55 8.65845 16.6379C8.74635 16.7258 8.86558 16.7752 8.9899 16.7752H11.0028C11.1271 16.7752 11.2463 16.7258 11.3342 16.6379C11.4222 16.55 11.4715 16.4307 11.4715 16.3064V13.1002C11.4754 13.1095 11.4798 13.1185 11.4844 13.1279C11.5235 13.2054 11.5833 13.2706 11.6572 13.3161C11.7311 13.3616 11.8163 13.3857 11.9031 13.3857H12.407V16.3064C12.407 16.4307 12.4564 16.55 12.5443 16.6379C12.6322 16.7258 12.7514 16.7752 12.8757 16.7752H14.889C15.0133 16.7752 15.1325 16.7258 15.2204 16.6379C15.3083 16.55 15.3577 16.4307 15.3577 16.3064V13.3857H15.862C15.9489 13.3858 16.0341 13.3617 16.108 13.3161C16.182 13.2706 16.2419 13.2054 16.2809 13.1277C16.3199 13.0501 16.3366 12.9632 16.3291 12.8767C16.3216 12.7901 16.2901 12.7074 16.2383 12.6377L14.2589 9.97125L14.259 9.97129ZM11.3293 4.79195C11.3293 4.66763 11.3787 4.5484 11.4666 4.4605C11.5545 4.37259 11.6737 4.3232 11.798 4.3232H17.3336C17.4579 4.3232 17.5771 4.37259 17.665 4.4605C17.7529 4.5484 17.8023 4.66763 17.8023 4.79195C17.8023 4.91627 17.7529 5.0355 17.665 5.12341C17.5771 5.21132 17.4579 5.2607 17.3336 5.2607H11.798C11.6737 5.26064 11.5545 5.21123 11.4666 5.12334C11.3787 5.03545 11.3293 4.91625 11.3292 4.79195H11.3293ZM5.33709 4.79195C5.33709 4.73038 5.34922 4.66941 5.37279 4.61252C5.39636 4.55564 5.4309 4.50396 5.47445 4.46043C5.518 4.4169 5.5697 4.38237 5.62659 4.35883C5.68349 4.33528 5.74446 4.32318 5.80604 4.3232H5.83443C5.95875 4.3232 6.07798 4.37259 6.16589 4.4605C6.2538 4.5484 6.30318 4.66763 6.30318 4.79195C6.30318 4.91627 6.2538 5.0355 6.16589 5.12341C6.07798 5.21132 5.95875 5.2607 5.83443 5.2607H5.80604C5.6817 5.26068 5.56247 5.2113 5.47453 5.1234C5.3866 5.0355 5.33716 4.91628 5.33709 4.79195ZM3.76369 4.79195C3.76369 4.66763 3.81308 4.5484 3.90098 4.4605C3.98889 4.37259 4.10812 4.3232 4.23244 4.3232H4.261C4.38532 4.3232 4.50454 4.37259 4.59245 4.4605C4.68036 4.5484 4.72975 4.66763 4.72975 4.79195C4.72975 4.91627 4.68036 5.0355 4.59245 5.12341C4.50454 5.21132 4.38532 5.2607 4.261 5.2607H4.23244C4.10814 5.26064 3.98895 5.21123 3.90105 5.12334C3.81316 5.03545 3.76375 4.91625 3.76369 4.79195ZM2.19025 4.79195C2.19025 4.66763 2.23964 4.5484 2.32755 4.4605C2.41546 4.37259 2.53468 4.3232 2.659 4.3232H2.68748C2.8118 4.3232 2.93103 4.37259 3.01894 4.4605C3.10684 4.5484 3.15623 4.66763 3.15623 4.79195C3.15623 4.91627 3.10684 5.0355 3.01894 5.12341C2.93103 5.21132 2.8118 5.2607 2.68748 5.2607H2.65896C2.53466 5.26064 2.41547 5.21123 2.32758 5.12334C2.23968 5.03545 2.19032 4.91625 2.19025 4.79195ZM18.5513 16.9974C18.6859 16.9972 18.8149 16.9436 18.9101 16.8484C19.0052 16.7532 19.0588 16.6242 19.0591 16.4896V7.5182H0.934082V16.4896C0.934289 16.6243 0.987857 16.7533 1.08305 16.8485C1.17823 16.9437 1.30728 16.9973 1.44189 16.9975L18.5513 16.9974ZM1.44189 3.00293C1.30728 3.00315 1.17824 3.05672 1.08306 3.1519C0.98787 3.24709 0.934299 3.37613 0.934082 3.51074V6.58066H19.0591V3.51078C19.0588 3.37618 19.0052 3.24717 18.9101 3.15199C18.8149 3.05681 18.6859 3.00323 18.5513 3.00297L1.44189 3.00293ZM18.5513 2.06543H1.44189C1.05871 2.06586 0.691338 2.21828 0.420384 2.48923C0.149429 2.76019 -0.00298374 3.12755 -0.00341797 3.51074V16.4896C-0.00299406 16.8728 0.149416 17.2402 0.420372 17.5112C0.691329 17.7821 1.0587 17.9345 1.44189 17.935H18.5513C18.9345 17.9345 19.3018 17.7821 19.5728 17.5111C19.8437 17.2402 19.9961 16.8728 19.9966 16.4896V3.51078C19.9961 3.12759 19.8437 2.76023 19.5727 2.48928C19.3018 2.21833 18.9344 2.06591 18.5512 2.06547L18.5513 2.06543Z" fill="#C9C9CF"/>
</g>
<defs>
<clipPath id="clip0_173_3190">
<rect width="20" height="20" fill="white"/>
</clipPath>
</defs>
</svg>
