<svg width="33" height="34" viewBox="0 0 33 34" fill="none" xmlns="http://www.w3.org/2000/svg">
<g clip-path="url(#clip0_463_1100)">
<path d="M3.97676 11.7836L10.5188 29.7016C5.94258 27.4844 2.79082 22.7922 2.79082 17.3652C2.79082 15.3736 3.21621 13.4916 3.97676 11.7836ZM25.7555 16.6756C25.7555 14.9805 25.1496 13.8074 24.6275 12.8922C23.9314 11.7643 23.2805 10.8039 23.2805 9.67598C23.2805 8.41269 24.2344 7.23965 25.5814 7.23965C25.6395 7.23965 25.6975 7.24609 25.7619 7.25254C23.3191 5.01602 20.0707 3.64961 16.5 3.64961C11.7111 3.64961 7.4959 6.10527 5.04023 9.83066C5.3625 9.84356 5.66543 9.85 5.92324 9.85C7.3541 9.85 9.57773 9.67598 9.57773 9.67598C10.3189 9.63086 10.4027 10.7201 9.66797 10.8039C9.66797 10.8039 8.92676 10.8877 8.10176 10.9328L13.0969 25.7828L16.1004 16.7852L13.967 10.9328C13.2258 10.8877 12.5297 10.8039 12.5297 10.8039C11.7885 10.7588 11.8787 9.63086 12.6135 9.67598C12.6135 9.67598 14.8758 9.85 16.2229 9.85C17.6537 9.85 19.8773 9.67598 19.8773 9.67598C20.6186 9.63086 20.7023 10.7201 19.9676 10.8039C19.9676 10.8039 19.2264 10.8877 18.4014 10.9328L23.3578 25.6732L24.7242 21.1035C25.3043 19.2086 25.7555 17.8486 25.7555 16.6756ZM16.7385 18.5641L12.6264 30.5201C13.8574 30.8811 15.1529 31.0809 16.5 31.0809C18.0984 31.0809 19.626 30.8037 21.0504 30.301C21.0117 30.243 20.9795 30.1785 20.9537 30.1141L16.7385 18.5641ZM28.5334 10.7846C28.5914 11.2229 28.6236 11.6869 28.6236 12.1961C28.6236 13.5883 28.3658 15.148 27.5795 17.1074L23.39 29.2182C27.4699 26.8398 30.2092 22.4248 30.2092 17.3652C30.2092 14.9805 29.6033 12.7375 28.5334 10.7846ZM32.4844 17.3652C32.4844 26.1824 25.3107 33.3496 16.5 33.3496C7.68281 33.3496 0.515625 26.176 0.515625 17.3652C0.515625 8.54805 7.68281 1.38086 16.5 1.38086C25.3107 1.38086 32.4844 8.54805 32.4844 17.3652ZM31.7496 17.3652C31.7496 8.9541 24.9047 2.11562 16.5 2.11562C8.08887 2.11562 1.25039 8.9541 1.25039 17.3652C1.25039 25.7764 8.09531 32.6148 16.5 32.6148C24.9111 32.6148 31.7496 25.7764 31.7496 17.3652Z" fill="black"/>
</g>
<defs>
<clipPath id="clip0_463_1100">
<rect width="33" height="33" fill="white" transform="translate(0 0.865234)"/>
</clipPath>
</defs>
</svg>
