<svg width="20" height="21" viewBox="0 0 20 21" fill="none" xmlns="http://www.w3.org/2000/svg">
<g clip-path="url(#clip0_249_266)">
<path fill-rule="evenodd" clip-rule="evenodd" d="M11.8 6.14844H8.16568L6.03576 11.2212L3.90584 6.14844H0.271484C1.59169 9.29267 2.91137 12.4375 4.2321 15.5813L2.7691 19.0656H6.40346C8.22087 14.737 9.99432 10.4488 11.8 6.14844Z" fill="#6101D1"/>
<path fill-rule="evenodd" clip-rule="evenodd" d="M15.5351 1.68408H19.4463L15.9094 10.2304H11.9982L15.5351 1.68408ZM12.9596 11.0546C14.1774 11.0546 15.1647 12.0418 15.1647 13.2597C15.1647 14.4776 14.1775 15.4649 12.9596 15.4649C11.7417 15.4649 10.7544 14.4776 10.7544 13.2597C10.7544 12.0419 11.7417 11.0546 12.9596 11.0546Z" fill="#6101D1"/>
</g>
<defs>
<clipPath id="clip0_249_266">
<rect width="19.7324" height="19.7324" fill="white" transform="translate(0 0.5)"/>
</clipPath>
</defs>
</svg>
